<svg width="18" height="14" viewBox="0 0 18 14" fill="none" xmlns="http://www.w3.org/2000/svg">
<path d="M9.40277 13.2303C9.18765 13.2302 8.97825 13.1623 8.8053 13.0366L8.77756 13.0156L4.93206 9.91834H2.00275C1.73512 9.91834 1.47845 9.81392 1.28921 9.62805C1.09997 9.44218 0.993652 9.19008 0.993652 8.92722V4.30242C0.993652 4.03956 1.09997 3.78747 1.28921 3.6016C1.47845 3.41573 1.73512 3.31131 2.00275 3.31131H4.93122L8.77671 0.214068L8.80446 0.193007C8.9548 0.0842853 9.1329 0.0186583 9.31895 0.003426C9.505 -0.0118063 9.6917 0.0239534 9.85829 0.106727C10.0249 0.189501 10.1648 0.316043 10.2626 0.472278C10.3603 0.628513 10.412 0.808315 10.4119 0.991682V12.2384C10.4119 12.5012 10.3056 12.7533 10.1163 12.9392C9.92707 13.1251 9.6704 13.2295 9.40277 13.2295V13.2303Z" fill="#353535"/>
<path d="M13.103 9.91877C12.9883 9.91871 12.8755 9.88982 12.7753 9.83486C12.6751 9.7799 12.5909 9.70069 12.5307 9.60476C12.4705 9.50883 12.4363 9.39937 12.4313 9.28678C12.4263 9.1742 12.4507 9.06222 12.5022 8.96151C12.9012 8.18101 13.1035 7.39225 13.1035 6.61504C13.1035 5.81554 12.9075 5.04908 12.5043 4.27229C12.4271 4.11664 12.4151 3.93743 12.471 3.77321C12.5269 3.60899 12.6462 3.47289 12.8033 3.39419C12.9603 3.3155 13.1426 3.3005 13.3107 3.35243C13.4789 3.40435 13.6196 3.51905 13.7026 3.67184C14.2046 4.63942 14.4485 5.60204 14.4485 6.61504C14.4485 7.59914 14.1962 8.58819 13.7043 9.55453C13.6483 9.66403 13.5624 9.75608 13.4563 9.8204C13.3501 9.88472 13.2278 9.91878 13.103 9.91877Z" fill="#353535"/>
<path d="M15.1215 11.9009C15.0034 11.901 14.8873 11.8706 14.785 11.8126C14.6826 11.7547 14.5976 11.6713 14.5385 11.5708C14.4794 11.4703 14.4483 11.3564 14.4482 11.2403C14.4482 11.1243 14.4793 11.0103 14.5384 10.9098C15.3318 9.54909 15.7943 8.40931 15.7943 6.61498C15.7943 4.79297 15.3343 3.66145 14.5401 2.3222C14.4581 2.1712 14.439 1.99484 14.4867 1.83026C14.5344 1.66568 14.6453 1.52572 14.796 1.43983C14.9467 1.35394 15.1255 1.32883 15.2947 1.36979C15.4638 1.41074 15.6102 1.51456 15.703 1.65939C16.5898 3.15268 17.1397 4.5039 17.1397 6.61498C17.1397 8.69467 16.5906 10.0525 15.7051 11.5706C15.646 11.6711 15.5609 11.7547 15.4585 11.8127C15.356 11.8707 15.2398 11.9011 15.1215 11.9009Z" fill="#353535"/>
</svg>
