<svg width="14" height="79" viewBox="0 0 14 79" fill="none" xmlns="http://www.w3.org/2000/svg">
<path d="M13.5802 68.8822C13.4509 68.7891 13.3015 68.7277 13.1441 68.7031C12.9867 68.6785 12.8257 68.6914 12.6742 68.7406C12.2745 68.853 11.8606 68.9064 11.4454 68.8992C10.832 68.8659 10.2305 68.716 9.67309 68.4575C8.98455 68.1391 8.23977 67.9601 7.48172 67.9309C5.84526 67.9309 5.21673 68.4972 5.10348 68.5764C5.04929 68.6295 5.00633 68.693 4.97715 68.763C4.94797 68.8331 4.93316 68.9083 4.9336 68.9841V77.5571C4.9336 77.7073 4.99326 77.8513 5.09945 77.9575C5.20565 78.0637 5.34967 78.1234 5.49985 78.1234C5.65003 78.1234 5.79406 78.0637 5.90025 77.9575C6.00644 77.8513 6.0661 77.7073 6.0661 77.5571V75.1222C6.5173 74.9495 6.99897 74.8705 7.48172 74.8901C8.09519 74.9234 8.69671 75.0733 9.25407 75.3318C9.94261 75.6502 10.6874 75.8292 11.4454 75.8584C12.1281 75.8841 12.8071 75.7483 13.4273 75.462C13.5945 75.3835 13.7362 75.2595 13.8363 75.1044C13.9364 74.9492 13.9909 74.769 13.9936 74.5843V69.6919C13.9934 69.5339 13.9558 69.3782 13.884 69.2375C13.8121 69.0968 13.708 68.975 13.5802 68.8822Z" fill="#D8560D"/>
</svg>
