<svg width="16" height="14" viewBox="0 0 16 14" fill="none" xmlns="http://www.w3.org/2000/svg">
<path d="M8.30862 13.2303C8.09733 13.2302 7.89166 13.1623 7.7218 13.0366L7.69454 13.0156L3.91756 9.91834H1.04043C0.777573 9.91834 0.525478 9.81392 0.339608 9.62805C0.153737 9.44218 0.0493164 9.19008 0.0493164 8.92722V4.30242C0.0493164 4.03956 0.153737 3.78747 0.339608 3.6016C0.525478 3.41573 0.777573 3.31131 1.04043 3.31131H3.91674L7.69372 0.214068L7.72097 0.193007C7.86863 0.0842853 8.04356 0.0186583 8.22629 0.003426C8.40902 -0.0118063 8.5924 0.0239534 8.75602 0.106727C8.91964 0.189501 9.05709 0.316043 9.15309 0.472278C9.24908 0.628513 9.29984 0.808315 9.29974 0.991682V12.2384C9.29974 12.5012 9.19532 12.7533 9.00945 12.9392C8.82358 13.1251 8.57148 13.2295 8.30862 13.2295V13.2303Z" fill="#353535"/>
<path d="M11.9427 9.91883C11.83 9.91877 11.7192 9.88989 11.6209 9.83493C11.5225 9.77997 11.4398 9.70075 11.3806 9.60482C11.3215 9.50889 11.2879 9.39943 11.283 9.28684C11.2781 9.17426 11.302 9.06229 11.3526 8.96157C11.7445 8.18107 11.9432 7.39231 11.9432 6.61511C11.9432 5.8156 11.7507 5.04914 11.3547 4.27235C11.2788 4.1167 11.2671 3.93749 11.322 3.77327C11.3769 3.60905 11.4941 3.47295 11.6483 3.39425C11.8026 3.31556 11.9816 3.30057 12.1467 3.35249C12.3119 3.40442 12.4501 3.51911 12.5316 3.6719C13.0247 4.63948 13.2642 5.6021 13.2642 6.61511C13.2642 7.5992 13.0165 8.58825 12.5333 9.55459C12.4783 9.66409 12.394 9.75614 12.2897 9.82046C12.1854 9.88478 12.0653 9.91884 11.9427 9.91883Z" fill="#353535"/>
<path d="M13.925 11.9009C13.8089 11.901 13.6949 11.8706 13.5944 11.8126C13.4939 11.7547 13.4104 11.6713 13.3523 11.5708C13.2943 11.4703 13.2637 11.3564 13.2637 11.2403C13.2636 11.1243 13.2942 11.0103 13.3522 10.9098C14.1315 9.54909 14.5857 8.40931 14.5857 6.61498C14.5857 4.79297 14.1339 3.66145 13.3538 2.3222C13.2733 2.1712 13.2545 1.99484 13.3014 1.83026C13.3483 1.66568 13.4573 1.52572 13.6053 1.43983C13.7533 1.35394 13.9289 1.32883 14.095 1.36979C14.2612 1.41074 14.405 1.51456 14.4961 1.65939C15.3671 3.15268 15.9072 4.5039 15.9072 6.61498C15.9072 8.69467 15.3679 10.0525 14.4982 11.5706C14.4401 11.6711 14.3565 11.7547 14.2559 11.8127C14.1553 11.8707 14.0411 11.9011 13.925 11.9009Z" fill="#353535"/>
</svg>
