<svg width="17" height="14" viewBox="0 0 17 14" fill="none" xmlns="http://www.w3.org/2000/svg">
<path d="M8.40912 13.2303C8.194 13.2302 7.98459 13.1623 7.81165 13.0366L7.7839 13.0156L3.93841 9.91834H1.00909C0.741466 9.91834 0.484799 9.81392 0.295557 9.62805C0.106315 9.44218 0 9.19008 0 8.92722V4.30242C0 4.03956 0.106315 3.78747 0.295557 3.6016C0.484799 3.41573 0.741466 3.31131 1.00909 3.31131H3.93757L7.78306 0.214068L7.81081 0.193007C7.96115 0.0842853 8.13925 0.0186583 8.3253 0.003426C8.51134 -0.0118063 8.69805 0.0239534 8.86464 0.106727C9.03123 0.189501 9.17117 0.316043 9.2689 0.472278C9.36663 0.628513 9.41832 0.808315 9.41822 0.991682V12.2384C9.41822 12.5012 9.3119 12.7533 9.12266 12.9392C8.93342 13.1251 8.67675 13.2295 8.40912 13.2295V13.2303Z" fill="#353535"/>
<path d="M12.1094 9.91877C11.9946 9.91871 11.8818 9.88982 11.7817 9.83486C11.6815 9.7799 11.5973 9.70069 11.5371 9.60476C11.4769 9.50883 11.4426 9.39937 11.4376 9.28678C11.4327 9.1742 11.4571 9.06222 11.5086 8.96151C11.9076 8.18101 12.1098 7.39225 12.1098 6.61504C12.1098 5.81554 11.9139 5.04908 11.5107 4.27229C11.4334 4.11664 11.4214 3.93743 11.4774 3.77321C11.5333 3.60899 11.6526 3.47289 11.8096 3.39419C11.9667 3.3155 12.1489 3.3005 12.3171 3.35243C12.4853 3.40435 12.626 3.51905 12.709 3.67184C13.211 4.63942 13.4548 5.60204 13.4548 6.61504C13.4548 7.59914 13.2026 8.58819 12.7106 9.55453C12.6547 9.66403 12.5688 9.75608 12.4626 9.8204C12.3564 9.88472 12.2341 9.91878 12.1094 9.91877Z" fill="#353535"/>
<path d="M14.1279 11.9009C14.0098 11.901 13.8937 11.8706 13.7913 11.8126C13.689 11.7547 13.604 11.6713 13.5449 11.5708C13.4857 11.4703 13.4546 11.3564 13.4546 11.2403C13.4546 11.1243 13.4857 11.0103 13.5447 10.9098C14.3381 9.54909 14.8006 8.40931 14.8006 6.61498C14.8006 4.79297 14.3406 3.66145 13.5464 2.3222C13.4644 2.1712 13.4453 1.99484 13.493 1.83026C13.5408 1.66568 13.6517 1.52572 13.8024 1.43983C13.9531 1.35394 14.1318 1.32883 14.301 1.36979C14.4702 1.41074 14.6166 1.51456 14.7094 1.65939C15.5961 3.15268 16.1461 4.5039 16.1461 6.61498C16.1461 8.69467 15.597 10.0525 14.7115 11.5706C14.6524 11.6711 14.5673 11.7547 14.4648 11.8127C14.3624 11.8707 14.2461 11.9011 14.1279 11.9009Z" fill="#353535"/>
</svg>
