<svg width="16" height="14" viewBox="0 0 16 14" fill="none" xmlns="http://www.w3.org/2000/svg">
<path d="M8.30862 13.2303C8.09733 13.2302 7.89166 13.1623 7.7218 13.0366L7.69454 13.0156L3.91756 9.91834H1.04043C0.777573 9.91834 0.525478 9.81392 0.339608 9.62805C0.153737 9.44218 0.0493164 9.19008 0.0493164 8.92722V4.30242C0.0493164 4.03956 0.153737 3.78747 0.339608 3.6016C0.525478 3.41573 0.777573 3.31131 1.04043 3.31131H3.91674L7.69372 0.214068L7.72097 0.193007C7.86863 0.0842853 8.04356 0.0186583 8.22629 0.003426C8.40902 -0.0118063 8.5924 0.0239534 8.75602 0.106727C8.91964 0.189501 9.05709 0.316043 9.15309 0.472278C9.24908 0.628513 9.29984 0.808315 9.29974 0.991682V12.2384C9.29974 12.5012 9.19532 12.7533 9.00945 12.9392C8.82358 13.1251 8.57148 13.2295 8.30862 13.2295V13.2303Z" fill="#353535"/>
<path d="M11.9426 9.9188C11.8299 9.91874 11.7191 9.88985 11.6207 9.83489C11.5223 9.77993 11.4397 9.70072 11.3805 9.60479C11.3214 9.50886 11.2878 9.3994 11.2829 9.28681C11.2779 9.17423 11.3019 9.06225 11.3525 8.96154C11.7444 8.18104 11.943 7.39228 11.943 6.61508C11.943 5.81557 11.7506 5.04911 11.3546 4.27232C11.2787 4.11667 11.2669 3.93746 11.3219 3.77324C11.3768 3.60902 11.494 3.47292 11.6482 3.39422C11.8025 3.31553 11.9814 3.30053 12.1466 3.35246C12.3118 3.40438 12.45 3.51908 12.5315 3.67187C13.0246 4.63945 13.2641 5.60207 13.2641 6.61508C13.2641 7.59917 13.0163 8.58822 12.5332 9.55456C12.4782 9.66406 12.3938 9.75611 12.2895 9.82043C12.1853 9.88475 12.0651 9.91881 11.9426 9.9188Z" fill="#353535"/>
<path d="M13.925 11.9009C13.8089 11.901 13.6949 11.8706 13.5944 11.8126C13.4939 11.7547 13.4104 11.6713 13.3523 11.5708C13.2943 11.4703 13.2637 11.3564 13.2637 11.2403C13.2636 11.1243 13.2942 11.0103 13.3522 10.9098C14.1315 9.54909 14.5857 8.40931 14.5857 6.61498C14.5857 4.79297 14.1339 3.66145 13.3538 2.3222C13.2733 2.1712 13.2545 1.99484 13.3014 1.83026C13.3483 1.66568 13.4573 1.52572 13.6053 1.43983C13.7533 1.35394 13.9289 1.32883 14.095 1.36979C14.2612 1.41074 14.405 1.51456 14.4961 1.65939C15.3671 3.15268 15.9072 4.5039 15.9072 6.61498C15.9072 8.69467 15.3679 10.0525 14.4982 11.5706C14.4401 11.6711 14.3565 11.7547 14.2559 11.8127C14.1553 11.8707 14.0411 11.9011 13.925 11.9009Z" fill="#353535"/>
</svg>
