<svg width="27" height="27" viewBox="0 0 27 27" fill="none" xmlns="http://www.w3.org/2000/svg">
<path d="M21.2439 5.15922C20.9922 4.97788 20.7013 4.85842 20.3949 4.81054C20.0884 4.76265 19.775 4.78769 19.48 4.88361C18.7018 5.10243 17.8959 5.20642 17.0877 5.19229C15.8933 5.12746 14.7222 4.83562 13.6371 4.33239C12.2965 3.71242 10.8465 3.36397 9.37065 3.30713C6.18461 3.30713 4.9609 4.40956 4.74042 4.56391C4.63492 4.6673 4.55129 4.79085 4.49447 4.92721C4.43766 5.06356 4.40882 5.20994 4.40969 5.35766V22.0485C4.40969 22.3409 4.52584 22.6213 4.73258 22.8281C4.93933 23.0348 5.21974 23.151 5.51212 23.151C5.80451 23.151 6.08491 23.0348 6.29166 22.8281C6.49841 22.6213 6.61456 22.3409 6.61456 22.0485V17.3081C7.49301 16.9717 8.43078 16.8179 9.37065 16.8561C10.565 16.9209 11.7361 17.2127 12.8213 17.716C14.1618 18.3359 15.6118 18.6844 17.0877 18.7412C18.4167 18.7914 19.7388 18.527 20.9462 17.9695C21.2717 17.8166 21.5476 17.5754 21.7425 17.2732C21.9374 16.9711 22.0435 16.6203 22.0487 16.2607V6.7357C22.0483 6.4281 21.9752 6.12494 21.8353 5.85096C21.6954 5.57699 21.4928 5.33996 21.2439 5.15922Z" fill="#D8560D"/>
</svg>
