<svg width="14" height="14" viewBox="0 0 14 14" fill="none" xmlns="http://www.w3.org/2000/svg">
<path d="M10.9117 2.65003C10.7825 2.55688 10.6331 2.49553 10.4757 2.47093C10.3183 2.44633 10.1573 2.45919 10.0057 2.50846C9.60606 2.62086 9.19211 2.67427 8.77699 2.66701C8.16351 2.63371 7.562 2.48382 7.00463 2.22534C6.31609 1.9069 5.57131 1.72792 4.81326 1.69873C3.1768 1.69873 2.54827 2.26498 2.43502 2.34425C2.38084 2.39736 2.33788 2.46082 2.30869 2.53086C2.27951 2.60089 2.2647 2.67608 2.26515 2.75195V11.3249C2.26515 11.4751 2.3248 11.6191 2.431 11.7253C2.53719 11.8315 2.68122 11.8912 2.83139 11.8912C2.98157 11.8912 3.1256 11.8315 3.23179 11.7253C3.33798 11.6191 3.39764 11.4751 3.39764 11.3249V8.89007C3.84884 8.71732 4.33051 8.63832 4.81326 8.65791C5.42674 8.69121 6.02825 8.8411 6.58561 9.09958C7.27416 9.41802 8.01893 9.59699 8.77699 9.62619C9.4596 9.65197 10.1387 9.51616 10.7589 9.22982C10.926 9.15129 11.0677 9.02737 11.1678 8.87218C11.268 8.717 11.3225 8.53679 11.3251 8.35213V3.45976C11.3249 3.30176 11.2873 3.14605 11.2155 3.00533C11.1437 2.8646 11.0396 2.74286 10.9117 2.65003Z" fill="#D8560D"/>
</svg>
