<svg width="18" height="14" viewBox="0 0 18 14" fill="none" xmlns="http://www.w3.org/2000/svg">
<path d="M9.4079 13.2303C9.19278 13.2302 8.98337 13.1623 8.81043 13.0366L8.78268 13.0156L4.93719 9.91834H2.00787C1.74025 9.91834 1.48358 9.81392 1.29434 9.62805C1.10509 9.44218 0.998779 9.19008 0.998779 8.92722V4.30242C0.998779 4.03956 1.10509 3.78747 1.29434 3.6016C1.48358 3.41573 1.74025 3.31131 2.00787 3.31131H4.93635L8.78184 0.214068L8.80959 0.193007C8.95993 0.0842853 9.13803 0.0186583 9.32407 0.003426C9.51012 -0.0118063 9.69683 0.0239534 9.86342 0.106727C10.03 0.189501 10.17 0.316043 10.2677 0.472278C10.3654 0.628513 10.4171 0.808315 10.417 0.991682V12.2384C10.417 12.5012 10.3107 12.7533 10.1214 12.9392C9.9322 13.1251 9.67553 13.2295 9.4079 13.2295V13.2303Z" fill="#353535"/>
<path d="M13.1084 9.91877C12.9937 9.91871 12.8809 9.88982 12.7807 9.83486C12.6805 9.7799 12.5963 9.70069 12.5361 9.60476C12.4759 9.50883 12.4417 9.39937 12.4367 9.28678C12.4317 9.1742 12.4561 9.06222 12.5076 8.96151C12.9066 8.18101 13.1088 7.39225 13.1088 6.61504C13.1088 5.81554 12.9129 5.04908 12.5097 4.27229C12.4324 4.11664 12.4205 3.93743 12.4764 3.77321C12.5323 3.60899 12.6516 3.47289 12.8087 3.39419C12.9657 3.3155 13.1479 3.3005 13.3161 3.35243C13.4843 3.40435 13.625 3.51905 13.708 3.67184C14.21 4.63942 14.4539 5.60204 14.4539 6.61504C14.4539 7.59914 14.2016 8.58819 13.7097 9.55453C13.6537 9.66403 13.5678 9.75608 13.4616 9.8204C13.3554 9.88472 13.2332 9.91878 13.1084 9.91877Z" fill="#353535"/>
<path d="M15.1267 11.9009C15.0085 11.901 14.8925 11.8706 14.7901 11.8126C14.6878 11.7547 14.6028 11.6713 14.5436 11.5708C14.4845 11.4703 14.4534 11.3564 14.4534 11.2403C14.4533 11.1243 14.4844 11.0103 14.5435 10.9098C15.3369 9.54909 15.7994 8.40931 15.7994 6.61498C15.7994 4.79297 15.3394 3.66145 14.5452 2.3222C14.4632 2.1712 14.4441 1.99484 14.4918 1.83026C14.5396 1.66568 14.6505 1.52572 14.8012 1.43983C14.9519 1.35394 15.1306 1.32883 15.2998 1.36979C15.469 1.41074 15.6154 1.51456 15.7082 1.65939C16.5949 3.15268 17.1449 4.5039 17.1449 6.61498C17.1449 8.69467 16.5957 10.0525 15.7103 11.5706C15.6511 11.6711 15.5661 11.7547 15.4636 11.8127C15.3611 11.8707 15.2449 11.9011 15.1267 11.9009Z" fill="#353535"/>
</svg>
