<svg width="18" height="14" viewBox="0 0 18 14" fill="none" xmlns="http://www.w3.org/2000/svg">
<path d="M9.40473 13.2303C9.18961 13.2302 8.9802 13.1623 8.80726 13.0366L8.77951 13.0156L4.93402 9.91834H2.0047C1.73707 9.91834 1.4804 9.81392 1.29116 9.62805C1.10192 9.44218 0.995605 9.19008 0.995605 8.92722V4.30242C0.995605 4.03956 1.10192 3.78747 1.29116 3.6016C1.4804 3.41573 1.73707 3.31131 2.0047 3.31131H4.93318L8.77867 0.214068L8.80642 0.193007C8.95675 0.0842853 9.13485 0.0186583 9.3209 0.003426C9.50695 -0.0118063 9.69365 0.0239534 9.86024 0.106727C10.0268 0.189501 10.1668 0.316043 10.2645 0.472278C10.3622 0.628513 10.4139 0.808315 10.4138 0.991682V12.2384C10.4138 12.5012 10.3075 12.7533 10.1183 12.9392C9.92902 13.1251 9.67235 13.2295 9.40473 13.2295V13.2303Z" fill="#353535"/>
<path d="M13.1052 9.91877C12.9905 9.91871 12.8777 9.88982 12.7775 9.83486C12.6773 9.7799 12.5931 9.70069 12.5329 9.60476C12.4727 9.50883 12.4385 9.39937 12.4335 9.28678C12.4285 9.1742 12.4529 9.06222 12.5044 8.96151C12.9034 8.18101 13.1057 7.39225 13.1057 6.61504C13.1057 5.81554 12.9097 5.04908 12.5065 4.27229C12.4293 4.11664 12.4173 3.93743 12.4732 3.77321C12.5291 3.60899 12.6484 3.47289 12.8055 3.39419C12.9625 3.3155 13.1448 3.3005 13.3129 3.35243C13.4811 3.40435 13.6218 3.51905 13.7048 3.67184C14.2068 4.63942 14.4507 5.60204 14.4507 6.61504C14.4507 7.59914 14.1984 8.58819 13.7065 9.55453C13.6505 9.66403 13.5646 9.75608 13.4585 9.8204C13.3523 9.88472 13.23 9.91878 13.1052 9.91877Z" fill="#353535"/>
<path d="M15.1235 11.9009C15.0054 11.901 14.8893 11.8706 14.7869 11.8126C14.6846 11.7547 14.5996 11.6713 14.5405 11.5708C14.4814 11.4703 14.4502 11.3564 14.4502 11.2403C14.4502 11.1243 14.4813 11.0103 14.5403 10.9098C15.3337 9.54909 15.7962 8.40931 15.7962 6.61498C15.7962 4.79297 15.3362 3.66145 14.542 2.3222C14.46 2.1712 14.4409 1.99484 14.4887 1.83026C14.5364 1.66568 14.6473 1.52572 14.798 1.43983C14.9487 1.35394 15.1274 1.32883 15.2966 1.36979C15.4658 1.41074 15.6122 1.51456 15.705 1.65939C16.5917 3.15268 17.1417 4.5039 17.1417 6.61498C17.1417 8.69467 16.5926 10.0525 15.7071 11.5706C15.648 11.6711 15.5629 11.7547 15.4604 11.8127C15.358 11.8707 15.2418 11.9011 15.1235 11.9009Z" fill="#353535"/>
</svg>
