<svg width="14" height="14" viewBox="0 0 14 14" fill="none" xmlns="http://www.w3.org/2000/svg">
<path d="M10.6466 3.23767C10.5173 3.14453 10.3679 3.08317 10.2105 3.05858C10.0531 3.03398 9.89212 3.04684 9.74061 3.09611C9.34093 3.2085 8.92697 3.26192 8.51185 3.25466C7.89837 3.22136 7.29686 3.07146 6.7395 2.81299C6.05095 2.49455 5.30618 2.31557 4.54812 2.28638C2.91167 2.28638 2.28313 2.85262 2.16988 2.9319C2.1157 2.98501 2.07274 3.04847 2.04356 3.1185C2.01438 3.18854 1.99957 3.26373 2.00001 3.3396V11.9126C2.00001 12.0628 2.05967 12.2068 2.16586 12.313C2.27205 12.4192 2.41608 12.4788 2.56626 12.4788C2.71643 12.4788 2.86046 12.4192 2.96665 12.313C3.07285 12.2068 3.1325 12.0628 3.1325 11.9126V9.47771C3.58371 9.30496 4.06538 9.22597 4.54812 9.24555C5.1616 9.27885 5.76311 9.42875 6.32047 9.68722C7.00902 10.0057 7.7538 10.1846 8.51185 10.2138C9.19447 10.2396 9.87352 10.1038 10.4937 9.81746C10.6609 9.73894 10.8026 9.61502 10.9027 9.45983C11.0028 9.30464 11.0573 9.12444 11.06 8.93978V4.04741C11.0598 3.88941 11.0222 3.7337 10.9504 3.59297C10.8785 3.45225 10.7744 3.33051 10.6466 3.23767Z" fill="#D8560D"/>
</svg>
