<svg width="16" height="14" viewBox="0 0 16 14" fill="none" xmlns="http://www.w3.org/2000/svg">
<path d="M8.2593 13.2303C8.04802 13.2302 7.84234 13.1623 7.67248 13.0366L7.64523 13.0156L3.86825 9.91834H0.991117C0.728256 9.91834 0.476162 9.81392 0.290291 9.62805C0.104421 9.44218 0 9.19008 0 8.92722V4.30242C0 4.03956 0.104421 3.78747 0.290291 3.6016C0.476162 3.41573 0.728256 3.31131 0.991117 3.31131H3.86742L7.6444 0.214068L7.67166 0.193007C7.81931 0.0842853 7.99424 0.0186583 8.17697 0.003426C8.35971 -0.0118063 8.54308 0.0239534 8.7067 0.106727C8.87033 0.189501 9.00778 0.316043 9.10377 0.472278C9.19976 0.628513 9.25053 0.808315 9.25042 0.991682V12.2384C9.25042 12.5012 9.146 12.7533 8.96013 12.9392C8.77426 13.1251 8.52217 13.2295 8.2593 13.2295V13.2303Z" fill="#353535"/>
<path d="M11.8933 9.9188C11.7806 9.91874 11.6698 9.88985 11.5714 9.83489C11.473 9.77993 11.3903 9.70072 11.3312 9.60479C11.2721 9.50886 11.2384 9.3994 11.2335 9.28681C11.2286 9.17423 11.2526 9.06225 11.3032 8.96154C11.6951 8.18104 11.8937 7.39228 11.8937 6.61508C11.8937 5.81557 11.7013 5.04911 11.3052 4.27232C11.2294 4.11667 11.2176 3.93746 11.2725 3.77324C11.3275 3.60902 11.4447 3.47292 11.5989 3.39422C11.7531 3.31553 11.9321 3.30053 12.0973 3.35246C12.2625 3.40438 12.4007 3.51908 12.4822 3.67187C12.9753 4.63945 13.2148 5.60207 13.2148 6.61508C13.2148 7.59917 12.967 8.58822 12.4838 9.55456C12.4289 9.66406 12.3445 9.75611 12.2402 9.82043C12.1359 9.88475 12.0158 9.91881 11.8933 9.9188Z" fill="#353535"/>
<path d="M13.8757 11.9009C13.7596 11.901 13.6456 11.8706 13.5451 11.8126C13.4446 11.7547 13.3611 11.6713 13.303 11.5708C13.245 11.4703 13.2144 11.3564 13.2144 11.2403C13.2143 11.1243 13.2449 11.0103 13.3029 10.9098C14.0821 9.54909 14.5364 8.40931 14.5364 6.61498C14.5364 4.79297 14.0846 3.66145 13.3045 2.3222C13.224 2.1712 13.2052 1.99484 13.2521 1.83026C13.299 1.66568 13.4079 1.52572 13.556 1.43983C13.704 1.35394 13.8795 1.32883 14.0457 1.36979C14.2119 1.41074 14.3556 1.51456 14.4468 1.65939C15.3177 3.15268 15.8579 4.5039 15.8579 6.61498C15.8579 8.69467 15.3186 10.0525 14.4489 11.5706C14.3908 11.6711 14.3072 11.7547 14.2066 11.8127C14.106 11.8707 13.9918 11.9011 13.8757 11.9009Z" fill="#353535"/>
</svg>
