<svg width="18" height="14" viewBox="0 0 18 14" fill="none" xmlns="http://www.w3.org/2000/svg">
<path d="M9.40644 13.2303C9.19132 13.2302 8.98191 13.1623 8.80897 13.0366L8.78122 13.0156L4.93573 9.91834H2.00641C1.73878 9.91834 1.48211 9.81392 1.29287 9.62805C1.10363 9.44218 0.997314 9.19008 0.997314 8.92722V4.30242C0.997314 4.03956 1.10363 3.78747 1.29287 3.6016C1.48211 3.41573 1.73878 3.31131 2.00641 3.31131H4.93489L8.78038 0.214068L8.80813 0.193007C8.95846 0.0842853 9.13656 0.0186583 9.32261 0.003426C9.50866 -0.0118063 9.69536 0.0239534 9.86195 0.106727C10.0285 0.189501 10.1685 0.316043 10.2662 0.472278C10.3639 0.628513 10.4156 0.808315 10.4155 0.991682V12.2384C10.4155 12.5012 10.3092 12.7533 10.12 12.9392C9.93073 13.1251 9.67406 13.2295 9.40644 13.2295V13.2303Z" fill="#353535"/>
<path d="M13.1069 9.91877C12.9922 9.91871 12.8794 9.88982 12.7792 9.83486C12.679 9.7799 12.5949 9.70069 12.5346 9.60476C12.4744 9.50883 12.4402 9.39937 12.4352 9.28678C12.4302 9.1742 12.4546 9.06222 12.5061 8.96151C12.9051 8.18101 13.1074 7.39225 13.1074 6.61504C13.1074 5.81554 12.9114 5.04908 12.5082 4.27229C12.431 4.11664 12.419 3.93743 12.4749 3.77321C12.5308 3.60899 12.6502 3.47289 12.8072 3.39419C12.9642 3.3155 13.1465 3.3005 13.3146 3.35243C13.4828 3.40435 13.6236 3.51905 13.7065 3.67184C14.2085 4.63942 14.4524 5.60204 14.4524 6.61504C14.4524 7.59914 14.2001 8.58819 13.7082 9.55453C13.6522 9.66403 13.5663 9.75608 13.4602 9.8204C13.354 9.88472 13.2317 9.91878 13.1069 9.91877Z" fill="#353535"/>
<path d="M15.1252 11.9009C15.0071 11.901 14.891 11.8706 14.7886 11.8126C14.6863 11.7547 14.6013 11.6713 14.5422 11.5708C14.4831 11.4703 14.4519 11.3564 14.4519 11.2403C14.4519 11.1243 14.483 11.0103 14.542 10.9098C15.3354 9.54909 15.7979 8.40931 15.7979 6.61498C15.7979 4.79297 15.338 3.66145 14.5437 2.3222C14.4617 2.1712 14.4426 1.99484 14.4904 1.83026C14.5381 1.66568 14.649 1.52572 14.7997 1.43983C14.9504 1.35394 15.1292 1.32883 15.2983 1.36979C15.4675 1.41074 15.6139 1.51456 15.7067 1.65939C16.5934 3.15268 17.1434 4.5039 17.1434 6.61498C17.1434 8.69467 16.5943 10.0525 15.7088 11.5706C15.6497 11.6711 15.5646 11.7547 15.4621 11.8127C15.3597 11.8707 15.2435 11.9011 15.1252 11.9009Z" fill="#353535"/>
</svg>
