<svg width="18" height="14" viewBox="0 0 18 14" fill="none" xmlns="http://www.w3.org/2000/svg">
<path d="M9.40741 13.2303C9.19229 13.2302 8.98289 13.1623 8.80994 13.0366L8.78219 13.0156L4.9367 9.91834H2.00739C1.73976 9.91834 1.48309 9.81392 1.29385 9.62805C1.10461 9.44218 0.998291 9.19008 0.998291 8.92722V4.30242C0.998291 4.03956 1.10461 3.78747 1.29385 3.6016C1.48309 3.41573 1.73976 3.31131 2.00739 3.31131H4.93586L8.78135 0.214068L8.8091 0.193007C8.95944 0.0842853 9.13754 0.0186583 9.32359 0.003426C9.50963 -0.0118063 9.69634 0.0239534 9.86293 0.106727C10.0295 0.189501 10.1695 0.316043 10.2672 0.472278C10.3649 0.628513 10.4166 0.808315 10.4165 0.991682V12.2384C10.4165 12.5012 10.3102 12.7533 10.1209 12.9392C9.93171 13.1251 9.67504 13.2295 9.40741 13.2295V13.2303Z" fill="#353535"/>
<path d="M13.1078 9.91877C12.9931 9.91871 12.8802 9.88982 12.7801 9.83486C12.6799 9.7799 12.5957 9.70069 12.5355 9.60476C12.4753 9.50883 12.4411 9.39937 12.4361 9.28678C12.4311 9.1742 12.4555 9.06222 12.507 8.96151C12.906 8.18101 13.1082 7.39225 13.1082 6.61504C13.1082 5.81554 12.9123 5.04908 12.5091 4.27229C12.4318 4.11664 12.4199 3.93743 12.4758 3.77321C12.5317 3.60899 12.651 3.47289 12.8081 3.39419C12.9651 3.3155 13.1473 3.3005 13.3155 3.35243C13.4837 3.40435 13.6244 3.51905 13.7074 3.67184C14.2094 4.63942 14.4533 5.60204 14.4533 6.61504C14.4533 7.59914 14.201 8.58819 13.709 9.55453C13.6531 9.66403 13.5672 9.75608 13.461 9.8204C13.3548 9.88472 13.2325 9.91878 13.1078 9.91877Z" fill="#353535"/>
<path d="M15.1262 11.9009C15.008 11.901 14.892 11.8706 14.7896 11.8126C14.6873 11.7547 14.6023 11.6713 14.5432 11.5708C14.484 11.4703 14.4529 11.3564 14.4529 11.2403C14.4529 11.1243 14.4839 11.0103 14.543 10.9098C15.3364 9.54909 15.7989 8.40931 15.7989 6.61498C15.7989 4.79297 15.3389 3.66145 14.5447 2.3222C14.4627 2.1712 14.4436 1.99484 14.4913 1.83026C14.5391 1.66568 14.65 1.52572 14.8007 1.43983C14.9514 1.35394 15.1301 1.32883 15.2993 1.36979C15.4685 1.41074 15.6149 1.51456 15.7077 1.65939C16.5944 3.15268 17.1444 4.5039 17.1444 6.61498C17.1444 8.69467 16.5953 10.0525 15.7098 11.5706C15.6506 11.6711 15.5656 11.7547 15.4631 11.8127C15.3607 11.8707 15.2444 11.9011 15.1262 11.9009Z" fill="#353535"/>
</svg>
