<svg width="16" height="14" viewBox="0 0 16 14" fill="none" xmlns="http://www.w3.org/2000/svg">
<path d="M8.30813 13.2303C8.09685 13.2302 7.89117 13.1623 7.72131 13.0366L7.69405 13.0156L3.91707 9.91834H1.03994C0.777084 9.91834 0.52499 9.81392 0.339119 9.62805C0.153249 9.44218 0.0488281 9.19008 0.0488281 8.92722V4.30242C0.0488281 4.03956 0.153249 3.78747 0.339119 3.6016C0.52499 3.41573 0.777084 3.31131 1.03994 3.31131H3.91625L7.69323 0.214068L7.72048 0.193007C7.86814 0.0842853 8.04307 0.0186583 8.2258 0.003426C8.40853 -0.0118063 8.59191 0.0239534 8.75553 0.106727C8.91915 0.189501 9.05661 0.316043 9.1526 0.472278C9.24859 0.628513 9.29935 0.808315 9.29925 0.991682V12.2384C9.29925 12.5012 9.19483 12.7533 9.00896 12.9392C8.82309 13.1251 8.57099 13.2295 8.30813 13.2295V13.2303Z" fill="#353535"/>
<path d="M11.9423 9.91877C11.8296 9.91871 11.7188 9.88982 11.6204 9.83486C11.522 9.7799 11.4393 9.70069 11.3802 9.60476C11.321 9.50883 11.2874 9.39937 11.2825 9.28678C11.2776 9.1742 11.3016 9.06222 11.3521 8.96151C11.744 8.18101 11.9427 7.39225 11.9427 6.61504C11.9427 5.81554 11.7502 5.04908 11.3542 4.27229C11.2783 4.11664 11.2666 3.93743 11.3215 3.77321C11.3764 3.60899 11.4936 3.47289 11.6478 3.39419C11.8021 3.3155 11.9811 3.3005 12.1463 3.35243C12.3115 3.40435 12.4497 3.51905 12.5311 3.67184C13.0242 4.63942 13.2637 5.60204 13.2637 6.61504C13.2637 7.59914 13.016 8.58819 12.5328 9.55453C12.4778 9.66403 12.3935 9.75608 12.2892 9.8204C12.1849 9.88472 12.0648 9.91878 11.9423 9.91877Z" fill="#353535"/>
<path d="M13.9245 11.9009C13.8085 11.901 13.6944 11.8706 13.5939 11.8126C13.4934 11.7547 13.4099 11.6713 13.3518 11.5708C13.2938 11.4703 13.2632 11.3564 13.2632 11.2403C13.2632 11.1243 13.2937 11.0103 13.3517 10.9098C14.131 9.54909 14.5852 8.40931 14.5852 6.61498C14.5852 4.79297 14.1335 3.66145 13.3534 2.3222C13.2728 2.1712 13.2541 1.99484 13.301 1.83026C13.3478 1.66568 13.4568 1.52572 13.6048 1.43983C13.7528 1.35394 13.9284 1.32883 14.0945 1.36979C14.2607 1.41074 14.4045 1.51456 14.4956 1.65939C15.3666 3.15268 15.9067 4.5039 15.9067 6.61498C15.9067 8.69467 15.3674 10.0525 14.4977 11.5706C14.4396 11.6711 14.356 11.7547 14.2554 11.8127C14.1548 11.8707 14.0406 11.9011 13.9245 11.9009Z" fill="#353535"/>
</svg>
