<svg width="15" height="63" viewBox="0 0 15 63" fill="none" xmlns="http://www.w3.org/2000/svg">
<path d="M13.6466 53.2374C13.5173 53.1443 13.3679 53.0829 13.2105 53.0583C13.0531 53.0337 12.8921 53.0466 12.7406 53.0959C12.3409 53.2083 11.927 53.2617 11.5119 53.2544C10.8984 53.2211 10.2969 53.0712 9.7395 52.8127C9.05095 52.4943 8.30618 52.3153 7.54812 52.2861C5.91167 52.2861 5.28313 52.8524 5.16988 52.9317C5.1157 52.9848 5.07274 53.0482 5.04356 53.1183C5.01438 53.1883 4.99957 53.2635 5.00001 53.3394V61.9123C5.00001 62.0625 5.05967 62.2065 5.16586 62.3127C5.27205 62.4189 5.41608 62.4786 5.56626 62.4786C5.71643 62.4786 5.86046 62.4189 5.96665 62.3127C6.07285 62.2065 6.1325 62.0625 6.1325 61.9123V59.4775C6.58371 59.3047 7.06538 59.2257 7.54812 59.2453C8.1616 59.2786 8.76311 59.4285 9.32047 59.687C10.009 60.0054 10.7538 60.1844 11.5119 60.2136C12.1945 60.2394 12.8735 60.1036 13.4937 59.8172C13.6609 59.7387 13.8026 59.6148 13.9027 59.4596C14.0028 59.3044 14.0573 59.1242 14.06 58.9395V54.0472C14.0598 53.8892 14.0222 53.7335 13.9504 53.5927C13.8785 53.452 13.7744 53.3303 13.6466 53.2374Z" fill="#D8560D"/>
</svg>
