<svg width="295" height="56" viewBox="0 0 295 56" fill="none" xmlns="http://www.w3.org/2000/svg">
<rect y="10" width="295" height="36" rx="18" fill="#FCF7B0"/>
<rect x="20" width="254" height="56" rx="28" fill="#FFC24C"/>
<path d="M82.0594 20.23L73.4194 14.185C71.0644 12.535 67.4494 12.625 65.1844 14.38L57.6694 20.245C56.1694 21.415 54.9844 23.815 54.9844 25.705V36.055C54.9844 39.88 58.0894 43 61.9144 43H78.0844C81.9094 43 85.0144 39.895 85.0144 36.07V25.9C85.0144 23.875 83.7094 21.385 82.0594 20.23ZM71.1244 37C71.1244 37.615 70.6144 38.125 69.9994 38.125C69.3844 38.125 68.8744 37.615 68.8744 37V32.5C68.8744 31.885 69.3844 31.375 69.9994 31.375C70.6144 31.375 71.1244 31.885 71.1244 32.5V37Z" fill="white"/>
<path d="M146.584 39.3333C153.626 39.3333 159.334 33.6249 159.334 26.5833C159.334 19.5417 153.626 13.8333 146.584 13.8333C139.542 13.8333 133.834 19.5417 133.834 26.5833C133.834 33.6249 139.542 39.3333 146.584 39.3333Z" stroke="white" stroke-width="3" stroke-linecap="round" stroke-linejoin="round"/>
<path d="M157.818 40.3105C158.569 42.5772 160.283 42.8039 161.6 40.8205C162.805 39.0072 162.011 37.5197 159.83 37.5197C158.215 37.5055 157.308 38.7664 157.818 40.3105Z" stroke="white" stroke-width="1.5" stroke-linecap="round" stroke-linejoin="round"/>
<path d="M223.5 13C221.511 13 219.603 13.7985 218.197 15.22C216.79 16.6414 216 18.5692 216 20.5794C216 22.5896 216.79 24.5174 218.197 25.9388C219.603 27.3602 221.511 28.1588 223.5 28.1588C225.489 28.1588 227.397 27.3602 228.803 25.9388C230.21 24.5174 231 22.5896 231 20.5794C231 18.5692 230.21 16.6414 228.803 15.22C227.397 13.7985 225.489 13 223.5 13ZM215.5 28.8937C213.511 28.8937 211.603 29.6923 210.197 31.1137C208.79 32.5351 208 34.463 208 36.4731V38.8743C208 40.3982 209.092 41.6958 210.58 41.9404C219.136 43.3532 227.864 43.3532 236.42 41.9404C237.14 41.8219 237.795 41.4484 238.268 40.8867C238.74 40.325 239 39.6116 239 38.8743V36.4731C239 34.463 238.21 32.5351 236.803 31.1137C235.397 29.6923 233.489 28.8937 231.5 28.8937H230.82C230.45 28.8937 230.082 28.9544 229.732 29.0676L228 29.6396C225.076 30.6041 221.924 30.6041 219 29.6396L217.268 29.0676C216.917 28.9522 216.551 28.8936 216.182 28.8937H215.5Z" fill="white"/>
</svg>
