<svg width="90" height="90" viewBox="0 0 90 90" fill="none" xmlns="http://www.w3.org/2000/svg">
<path d="M27.1406 19.125C27.8438 9.7031 39.0938 9.28123 39.0938 9.28123C24.75 4.21873 21.5156 18.5625 22.3594 19.6875C23.4844 20.9531 27 21.375 27.1406 19.125Z" fill="#947151"/>
<path d="M79.5936 37.4063C78.0468 34.0313 82.4061 22.2188 82.4061 22.2188C82.4061 22.2188 93.0936 34.3125 82.6874 40.0781C82.1249 40.3594 79.8749 37.9688 79.5936 37.4063ZM15.1874 53.5781C15.1874 53.5781 11.2499 47.1094 16.8749 39.0937L8.85925 42.75C5.06238 50.2031 15.1874 53.5781 15.1874 53.5781Z" fill="#C2ACA1"/>
<path d="M83.8126 68.203C81.7032 62.4374 82.2657 60.0468 82.2657 60.0468C87.6095 50.3436 83.9532 36.5624 78.6095 35.7186C59.4845 32.3436 34.7345 37.9686 34.7345 31.4999C34.7345 18.1405 23.4845 9.84364 14.6251 17.9999C8.29699 23.9061 13.3595 25.8749 3.65636 37.9686C1.40636 40.6405 3.93761 42.7499 8.29699 43.5936C9.70324 43.8749 10.1251 43.7343 13.6407 41.9061C17.0157 40.078 21.797 42.328 23.0626 35.9999C23.0626 35.9999 22.3595 51.7499 31.922 62.578C31.922 62.578 33.8907 68.203 30.0939 83.5312H34.7345L38.9532 71.8593C38.9532 71.8593 38.1095 63.5624 40.7814 64.4061C49.0782 67.3593 69.6095 62.2968 69.6095 62.2968C71.5782 66.2343 77.9064 70.0311 77.9064 70.0311C77.9064 70.0311 75.9376 74.6718 76.2189 83.5312H81.1407C81.422 80.1562 83.8126 68.203 83.8126 68.203Z" fill="#F1E7DC"/>
<path d="M29.1094 87.1875H33.6094L34.4531 83.6719H29.8125C29.5312 85.7812 29.1094 87.1875 29.1094 87.1875ZM76.0781 83.6719C75.7969 85.7812 75.9375 87.1875 75.9375 87.1875H80.7188C80.7188 87.1875 80.7187 85.7812 81 83.6719H76.0781Z" fill="#947151"/>
<path d="M17.1562 28.6875C18.3212 28.6875 19.2656 27.7431 19.2656 26.5781C19.2656 25.4131 18.3212 24.4688 17.1562 24.4688C15.9913 24.4688 15.0469 25.4131 15.0469 26.5781C15.0469 27.7431 15.9913 28.6875 17.1562 28.6875Z" fill="#3E4347"/>
<path d="M6.32811 38.9531C6.18748 39.2344 5.48436 39.6563 5.20311 39.375C4.92186 39.2344 5.06248 38.5313 5.34373 38.1094C5.48436 37.8281 5.90623 37.6875 6.18748 37.9688C6.46873 38.25 6.46873 38.6719 6.32811 38.9531ZM13.5 35.5781C13.9219 37.2656 13.5 39.0938 12.5156 40.6406C12.0937 41.3438 11.3906 42.0469 10.6875 42.6094C9.98436 43.1719 9.14061 43.4531 8.29686 43.7344C9.70311 42.75 10.9687 41.7656 11.8125 40.3594C12.2344 39.6563 12.5156 38.9531 12.7969 38.1094C13.0781 37.2656 13.3594 36.4219 13.5 35.5781Z" fill="#C2ACA1"/>
<path d="M27.7032 23.0624C36.4219 22.7812 35.4375 10.9687 34.0313 11.6718C31.7813 12.7968 24.75 16.0312 24.75 19.9687C24.75 20.6718 23.9063 23.203 27.7032 23.0624Z" fill="#F1E7DC"/>
<path d="M26.7187 19.125C27.4218 16.875 32.4843 14.3438 33.3281 14.0625C34.1718 13.6406 34.1718 19.6875 28.5468 22.0781C27.9843 22.3594 27.4218 22.3594 27.1406 21.9375C26.8593 21.5156 28.1249 20.6719 28.9687 20.25C29.9531 19.8281 28.8281 19.9688 28.1249 20.1094C27.4218 20.3906 27.8437 19.8281 28.4062 19.5469C28.9687 19.125 27.5624 19.5469 26.9999 20.1094C26.4374 20.6719 26.2968 20.6719 26.7187 19.125Z" fill="#C2ACA1"/>
<path d="M24.0468 17.8593C21.5156 7.31247 33.7499 2.81247 33.7499 2.81247C16.0312 2.24997 17.5781 19.2656 18.9843 20.1093C20.6718 21.0937 24.6093 20.3906 24.0468 17.8593Z" fill="#947151"/>
</svg>
