<svg width="105" height="105" viewBox="0 0 105 105" fill="none" xmlns="http://www.w3.org/2000/svg">
<path d="M13.125 68.9062H91.875V88.5938H13.125V68.9062Z" fill="black"/>
<path d="M71.4984 36.1266C73.9266 36.1266 76.1578 37.5047 77.2406 39.6703L78.7238 42.6366L81.8081 52.4902L88.5806 62.3438H92.0128C95.5566 62.3438 98.4408 65.228 98.4408 68.7652L97.1742 73.7527L98.4408 78.7369V82.1691C98.4408 85.7128 95.5533 88.5938 92.0095 88.5938H90.1359C90.3672 86.7469 90.203 84.872 89.6543 83.0934C89.1056 81.3149 88.1848 79.6733 86.9532 78.2778C85.7215 76.8823 84.2071 75.7647 82.5105 74.9993C80.8139 74.2338 78.9739 73.8379 77.1127 73.8379C75.2514 73.8379 73.4114 74.2338 71.7148 74.9993C70.0182 75.7647 68.5038 76.8823 67.2722 78.2778C66.0405 79.6733 65.1198 81.3149 64.571 83.0934C64.0223 84.872 63.8581 86.7469 64.0894 88.5938H40.9172C41.1485 86.7469 40.9843 84.872 40.4355 83.0934C39.8868 81.3149 38.9661 79.6733 37.7344 78.2778C36.5028 76.8823 34.9884 75.7647 33.2918 74.9993C31.5952 74.2338 29.7552 73.8379 27.8939 73.8379C26.0326 73.8379 24.1926 74.2338 22.496 74.9993C20.7994 75.7647 19.2851 76.8823 18.0534 78.2778C16.8218 79.6733 15.901 81.3149 15.3523 83.0934C14.8035 84.872 14.6393 86.7469 14.8706 88.5938H12.9938C9.45 88.5938 6.5625 85.7096 6.5625 82.1691V78.7631L10.8937 73.8478L6.5625 68.9325C6.5625 65.1591 9.45 62.3766 12.9938 62.3766L22.9688 62.3733L30.1777 52.8183L32.8289 42.6563L34.3219 39.6703C34.8568 38.6057 35.677 37.7106 36.6909 37.0849C37.7048 36.4592 38.8726 36.1274 40.0641 36.1266H71.4984Z" fill="#636363"/>
<path d="M39.375 86.9531C39.375 89.999 38.165 92.9201 36.0113 95.0738C33.8576 97.2275 30.9365 98.4375 27.8906 98.4375C24.8448 98.4375 21.9237 97.2275 19.7699 95.0738C17.6162 92.9201 16.4062 89.999 16.4062 86.9531C16.4062 83.9073 17.6162 80.9862 19.7699 78.8324C21.9237 76.6787 24.8448 75.4688 27.8906 75.4688C30.9365 75.4688 33.8576 76.6787 36.0113 78.8324C38.165 80.9862 39.375 83.9073 39.375 86.9531ZM88.5938 86.9531C88.5938 89.999 87.3838 92.9201 85.2301 95.0738C83.0763 97.2275 80.1552 98.4375 77.1094 98.4375C74.0635 98.4375 71.1424 97.2275 68.9887 95.0738C66.835 92.9201 65.625 89.999 65.625 86.9531C65.625 83.9073 66.835 80.9862 68.9887 78.8324C71.1424 76.6787 74.0635 75.4688 77.1094 75.4688C80.1552 75.4688 83.0763 76.6787 85.2301 78.8324C87.3838 80.9862 88.5938 83.9073 88.5938 86.9531Z" fill="#321B41"/>
<path d="M52.5 32.8125H59.0625V36.0938H52.5V32.8125ZM26.25 73.9266V62.3438H78.75V73.9266C76.7641 73.6756 74.747 73.8821 72.8532 74.5305C70.9593 75.1788 69.2389 76.2517 67.8234 77.6672C66.408 79.0826 65.3351 80.8031 64.6867 82.6969C64.0384 84.5908 63.8318 86.6078 64.0828 88.5938H40.9172C41.1682 86.6078 40.9616 84.5908 40.3133 82.6969C39.6649 80.8031 38.592 79.0826 37.1766 77.6672C35.7611 76.2517 34.0407 75.1788 32.1468 74.5305C30.253 73.8821 28.2359 73.6756 26.25 73.9266ZM32.8125 86.9531C32.8125 88.2585 32.2939 89.5104 31.3709 90.4334C30.4479 91.3564 29.196 91.875 27.8906 91.875C26.5853 91.875 25.3334 91.3564 24.4103 90.4334C23.4873 89.5104 22.9688 88.2585 22.9688 86.9531C22.9688 85.6478 23.4873 84.3959 24.4103 83.4728C25.3334 82.5498 26.5853 82.0312 27.8906 82.0312C29.196 82.0312 30.4479 82.5498 31.3709 83.4728C32.2939 84.3959 32.8125 85.6478 32.8125 86.9531ZM82.0312 86.9531C82.0313 87.5995 81.9039 88.2395 81.6566 88.8366C81.4092 89.4338 81.0467 89.9764 80.5897 90.4334C80.1326 90.8905 79.59 91.253 78.9929 91.5003C78.3957 91.7477 77.7557 91.875 77.1094 91.875C76.463 91.875 75.823 91.7477 75.2259 91.5003C74.6287 91.253 74.0861 90.8905 73.6291 90.4334C73.172 89.9764 72.8095 89.4338 72.5622 88.8366C72.3148 88.2395 72.1875 87.5995 72.1875 86.9531C72.1875 85.6478 72.7061 84.3959 73.6291 83.4728C74.5521 82.5498 75.804 82.0312 77.1094 82.0312C78.4147 82.0312 79.6666 82.5498 80.5897 83.4728C81.5127 84.3959 82.0312 85.6478 82.0312 86.9531Z" fill="#D3D3D3"/>
<path d="M13.125 72.1875C13.125 70.3828 11.6484 68.9062 9.84375 68.9062H6.5625V78.75H9.84375C11.6484 78.75 13.125 77.2734 13.125 75.4688V72.1875Z" fill="#FFF478"/>
<path fill-rule="evenodd" clip-rule="evenodd" d="M52.5 29.5312C52.5 27.7266 53.9766 26.25 55.7812 26.25C57.5859 26.25 59.0625 27.7266 59.0625 29.5312V32.8125H52.5V29.5312ZM91.875 74.0578C91.7438 71.2359 94.0078 68.9062 96.7969 68.9062H98.4375V78.75H96.9609C94.3031 78.75 92.0062 76.7156 91.875 74.0578Z" fill="#F92F60"/>
<path d="M49.2844 62.3438H22.9688L32.8125 42.6562H49.2844C51.0563 42.6562 52.5 44.1 52.5 45.8719V59.1281C52.5 60.9 51.0563 62.3438 49.2844 62.3438ZM62.2781 62.3438H88.5938L78.75 42.6562H62.2781C60.5062 42.6562 59.0625 44.1 59.0625 45.8719V59.1281C59.0625 60.9 60.5062 62.3438 62.2781 62.3438Z" fill="#26C9FC"/>
<path d="M36.5203 65.625H37.8C38.6859 65.625 39.375 64.9031 39.375 64.05V57.3562C39.375 57.1494 39.3343 56.9446 39.2551 56.7535C39.176 56.5624 39.0599 56.3888 38.9137 56.2426C38.7674 56.0963 38.5938 55.9803 38.4027 55.9011C38.2116 55.822 38.0068 55.7812 37.8 55.7812H36.5203C34.4859 55.7812 32.8125 57.4547 32.8125 59.4891V61.9172C32.8125 63.9844 34.4859 65.625 36.5203 65.625Z" fill="#D3D3D3"/>
<path d="M36.5203 65.625H37.8C38.6859 65.625 39.375 64.9031 39.375 64.05V57.3562C39.375 57.1494 39.3343 56.9446 39.2551 56.7535C39.176 56.5624 39.0599 56.3888 38.9137 56.2426C38.7674 56.0963 38.5938 55.9803 38.4027 55.9011C38.2116 55.822 38.0068 55.7812 37.8 55.7812H36.5203C34.4859 55.7812 32.8125 57.4547 32.8125 59.4891V61.9172C32.8125 63.9844 34.4859 65.625 36.5203 65.625Z" fill="#9B9B9B"/>
</svg>
