<svg width="108" height="70" viewBox="0 0 108 70" fill="none" xmlns="http://www.w3.org/2000/svg">
<g clip-path="url(#clip0_234_814)">
<path d="M23.5001 38.875H42.5626L31.5826 68.155C31.2776 68.8794 30.5913 69.375 29.7907 69.375H14.8076C13.4732 69.375 12.5582 68.0406 13.0157 66.7825L23.5001 38.875ZM65.4376 38.875H84.5001L73.5201 68.155C73.2151 68.8794 72.5288 69.375 71.7282 69.375H56.7451C55.4107 69.375 54.4957 68.0406 54.9532 66.7825L65.4376 38.875Z" fill="#636363"/>
<path d="M104.287 17.9062C99.2544 8.64187 90.4856 4.5625 78.2475 4.5625H42.4481C34.0988 4.5625 27.3125 11.3487 27.3125 19.6981V48.6731C33.8319 50.0456 40.3513 52.0663 45.46 56.4888C46.5656 57.4419 47.6331 58.5856 48.51 59.8438H91.82C100.436 59.8438 107.413 52.8669 107.413 44.2506V30.03C107.375 25.6456 106.269 21.49 104.287 17.9062Z" fill="#636363"/>
<path d="M38.445 0.75C36.5007 0.75 34.9375 2.31313 34.9375 4.2575V6.56025C33.2861 7.50931 31.8263 8.75833 30.6332 10.2431H27.3125V4.2575C27.3125 2.31313 25.7494 0.75 23.805 0.75C21.1744 0.75 19.4588 3.53313 20.6788 5.89688L22.8138 10.2431H20.4119C17.095 10.2431 14.4263 12.9119 14.4263 16.2287V24.2464C10.3917 24.8264 6.72701 26.9144 4.171 30.0895C1.615 33.2646 0.357758 37.2907 0.652736 41.356C0.947715 45.4214 2.77297 49.2238 5.76055 51.9967C8.74814 54.7695 12.6759 56.3066 16.7519 56.2981H38.75V58.4331C38.75 60.6062 38.1782 62.7412 37.1107 64.6094L36.0432 66.5156C35.8763 66.8046 35.7883 67.1322 35.7878 67.4659C35.7873 67.7995 35.8743 68.1275 36.0403 68.4169C36.2062 68.7064 36.4452 68.9472 36.7334 69.1153C37.0216 69.2835 37.3489 69.373 37.6825 69.375H55.9063C56.9738 69.375 57.8125 68.5363 57.8125 67.4688V59.8438L69.25 54.125L80.6494 59.8247C80.5176 61.4085 80.0909 62.9536 79.3913 64.3806L78.2475 66.63C77.6375 67.8881 78.5525 69.375 79.9632 69.375H97.8438C98.9113 69.375 99.75 68.5363 99.75 67.4688V57.6821C101.181 56.8352 102.468 55.7657 103.563 54.5139V57.8994C103.563 58.9669 104.401 59.8056 105.469 59.8056C106.536 59.8056 107.375 58.9669 107.375 57.8994V45.3524C107.402 44.9864 107.413 44.6204 107.413 44.2506V30.03C107.375 25.6456 106.269 21.49 104.287 17.9062C99.2544 8.64187 90.4857 4.5625 78.2475 4.5625H42.4482C42.2842 4.5625 42.1203 4.5625 41.9602 4.57012C42.0008 4.08389 41.9401 3.59452 41.7818 3.13297C41.6236 2.67141 41.3713 2.24771 41.0409 1.88866C40.7106 1.52961 40.3093 1.24302 39.8624 1.04703C39.4156 0.851031 38.933 0.749889 38.445 0.75Z" fill="#9B9B9B"/>
<path d="M23.805 4.18131C23.7669 1.97006 20.4119 1.89381 20.2975 4.10506C20.2594 4.67693 20.3738 5.28694 20.6788 5.89694L22.8138 10.2432H23.805V4.18131ZM78.1331 51.5707C79.7725 53.2101 80.6875 55.4213 80.6875 57.7469V59.8057H57.8125V50.3126H76.875L78.1331 51.5707ZM41.9525 4.10506C41.8381 1.89381 38.4831 1.97006 38.445 4.18131V10.2432H39.4363L41.5713 5.89694C41.8566 5.34459 41.9883 4.72572 41.9525 4.10506ZM7.52563 37.8838C7.52563 42.9926 11.6813 47.1101 16.7519 47.1101H44.3925C49.5013 47.1101 53.6188 42.9926 53.6188 37.8838C53.6188 32.7751 49.4631 28.6576 44.3925 28.6576H16.7519C11.6813 28.6576 7.52563 32.7751 7.52563 37.8838Z" fill="#FF8687"/>
<path d="M17.5907 37.6168L19.7257 39.7899C20.6407 40.6668 22.0894 40.6668 23.0044 39.7899C23.9194 38.9131 23.9194 37.4643 23.0044 36.5493L20.8313 34.3762C20.6209 34.1592 20.3691 33.9867 20.0907 33.8689C19.8124 33.7511 19.5132 33.6904 19.211 33.6904C18.9087 33.6904 18.6096 33.7511 18.3312 33.8689C18.0529 33.9867 17.8011 34.1592 17.5907 34.3762C16.6757 35.2531 16.6757 36.7018 17.5907 37.6168ZM44.545 37.6168L42.3719 39.7899C42.1569 40.0007 41.9024 40.167 41.623 40.2792C41.3436 40.3914 41.0448 40.4473 40.7437 40.4438C40.4426 40.4402 40.1452 40.3773 39.8685 40.2585C39.5918 40.1398 39.3413 39.9676 39.1313 39.7518C38.9143 39.5414 38.7418 39.2896 38.624 39.0112C38.5062 38.7329 38.4455 38.4337 38.4455 38.1315C38.4455 37.8293 38.5062 37.5301 38.624 37.2518C38.7418 36.9734 38.9143 36.7216 39.1313 36.5112L41.3044 34.3762C42.1813 33.4612 43.63 33.4612 44.545 34.3762C45.46 35.2531 45.46 36.7018 44.545 37.6168Z" fill="#A56953"/>
<path d="M23.5 25.5313C23.5 26.5988 24.3387 27.4375 25.4062 27.4375C26.4738 27.4375 27.3125 26.5988 27.3125 25.5313V23.1294C27.3125 22.0619 26.4738 21.2231 25.4062 21.2231C24.3387 21.2231 23.5 22.0619 23.5 23.1294V25.5313ZM34.9375 25.5313C34.9375 26.5988 35.7762 27.4375 36.8438 27.4375C37.9113 27.4375 38.75 26.5988 38.75 25.5313V23.1294C38.75 22.0619 37.9113 21.2231 36.8438 21.2231C35.7762 21.2231 34.9375 22.0619 34.9375 23.1294V25.5313Z" fill="#1C1C1C"/>
</g>
<defs>
<clipPath id="clip0_234_814">
<rect width="108" height="70" fill="white"/>
</clipPath>
</defs>
</svg>
