<svg width="278" height="278" viewBox="0 0 278 278" fill="none" xmlns="http://www.w3.org/2000/svg">
<path d="M121.625 173.75H139L155.332 230.653C156.027 233.172 156.027 235.779 155.332 238.211L149.251 258.974C148.991 259.93 148.122 260.538 147.166 260.538H134.309C132.832 260.538 131.789 259.148 132.224 257.758L138.826 235.257C139 234.823 139 234.302 138.826 233.781L121.625 173.75ZM176.269 260.625H189.127C190.083 260.625 190.951 260.017 191.212 259.061L208.152 199.812H190.777L174.184 257.845C173.75 259.235 174.793 260.625 176.269 260.625Z" fill="#9B9B9B"/>
<path d="M225.354 217.188H181.395C167.234 217.188 155.854 205.72 155.854 191.646V165.062H225.354V217.188Z" fill="#FF8687"/>
<path d="M219.881 86.875H216.032L163.959 106.378L121.538 79.4472C116.393 75.9835 112.04 71.468 108.768 66.1987L106.856 62.9844L93.13 86.875H52.125L60.0306 130.434L70.4382 147.357L78.3439 174.08L70.5772 186.564C72.017 189.877 74.248 192.786 77.0745 195.035C79.901 197.285 83.2365 198.806 86.7881 199.465V258.453C86.7881 259.669 87.7437 260.625 88.96 260.625H101.991C103.207 260.625 104.163 259.669 104.163 258.453V234.562L111.721 230.74C117.716 227.699 121.538 221.618 121.538 214.929V199.812H177.051C182.351 199.812 187.129 197.988 191.038 195.034C191.038 208.066 199.899 219.446 212.583 222.574L225.875 225.875V258.453C225.875 259.669 226.831 260.625 228.047 260.625H241.078C242.294 260.625 243.25 259.669 243.25 258.453V176.269C246.551 174.098 249.418 171.491 251.938 168.537V208.587H260.625V127.706C260.625 105.119 242.381 86.875 219.881 86.875Z" fill="#D3D3D3"/>
<path d="M78.7956 38.8331L83.3131 47.7813H96.3444L89.2206 33.6206C88.7395 32.6509 87.996 31.8355 87.0745 31.2673C86.1531 30.6991 85.0907 30.4008 84.0081 30.4063C79.6644 30.4063 76.8844 34.9238 78.7956 38.8331Z" fill="#F9C23C"/>
<path d="M87.014 43.4375H105.475L52.4291 112.938H49.3537L22.9089 95.0412L35.7664 70.89L68.7616 49.067C74.1484 45.4129 80.5047 43.4524 87.014 43.4375Z" fill="#E6E6E6"/>
<path d="M56.4948 84.0776L36.3311 112.677C37.4605 112.851 38.5899 112.938 39.8061 112.938H78.4916C85.9967 112.949 93.1992 109.979 98.5151 104.681C103.831 99.3833 106.825 92.1909 106.839 84.6858V63.2797H110.401C115.668 63.2752 120.72 61.1854 124.451 57.4673C128.182 53.7491 130.29 48.705 130.312 43.4375H105.709C100.931 43.4375 96.3183 44.8275 92.2352 47.3382L57.9804 69.1786L56.5035 84.0776H56.4948ZM222.226 106.422L218.491 110.158C212.11 116.543 208.518 125.195 208.5 134.222V143.344C208.5 150.554 214.321 156.375 221.531 156.375C228.742 156.375 234.562 150.554 234.562 143.344V111.548C234.562 105.119 226.744 101.904 222.226 106.422ZM260.625 199.812C256.017 199.812 251.597 201.643 248.339 204.902C245.081 208.16 243.25 212.579 243.25 217.188C243.25 221.796 245.081 226.215 248.339 229.473C251.597 232.732 256.017 234.562 260.625 234.562V199.812ZM118.237 142.996L145.516 163.499C149.946 166.8 147.601 173.75 142.127 173.75H121.277C120.182 173.75 119.098 173.534 118.086 173.115C117.074 172.696 116.155 172.082 115.38 171.307C114.606 170.533 113.991 169.613 113.572 168.602C113.153 167.59 112.937 166.505 112.937 165.41V145.689C112.937 142.909 116.065 141.346 118.237 142.996ZM60.0306 130.312L63.1581 147.688L69.0656 181.569C69.5 184.088 70.3687 186.434 71.585 188.519C73.2356 191.473 77.2319 191.994 79.6644 189.648C84.2687 185.044 86.7881 178.876 86.7881 172.36V168.711C86.7881 166.539 87.6569 164.454 89.1337 162.891L94.3462 157.418C99.7325 151.858 99.6456 142.996 94.2594 137.523C89.7419 132.919 83.5737 130.312 77.145 130.312H60.0306ZM208.5 173.75C208.5 176.054 207.585 178.264 205.955 179.893C204.326 181.522 202.117 182.438 199.812 182.438C197.508 182.438 195.299 181.522 193.67 179.893C192.04 178.264 191.125 176.054 191.125 173.75C191.125 171.446 192.04 169.236 193.67 167.607C195.299 165.978 197.508 165.062 199.812 165.062C202.117 165.062 204.326 165.978 205.955 167.607C207.585 169.236 208.5 171.446 208.5 173.75ZM199.812 115.717V132.919C199.812 145.863 189.301 156.375 176.182 156.462C172.303 156.469 168.482 155.514 165.062 153.682L136.741 138.566C132.145 136.09 128.305 132.417 125.628 127.936C122.952 123.454 121.538 118.331 121.538 113.111V79.5775C128.575 84.3556 137.002 86.9619 145.776 86.9619H216.058L206.154 98.5163C202.071 103.294 199.812 109.376 199.812 115.717Z" fill="#636363"/>
<path d="M49.7186 112.938V87.1096C49.7186 76.9713 42.3342 70.7336 35.9836 70.7336L23.5431 79.0563C21.6496 80.3237 20.0966 82.0373 19.021 84.0461C17.9454 86.0549 17.3802 88.2973 17.375 90.5759C17.3796 93.517 17.9634 96.4285 19.0931 99.144C20.2229 101.859 21.8764 104.326 23.9593 106.402C26.0422 108.479 28.5138 110.125 31.2328 111.246C33.9518 112.367 36.865 112.942 39.8061 112.938H49.7186Z" fill="#FF8687"/>
<path d="M65.1562 90.9582C62.7237 90.9582 60.8125 88.96 60.8125 86.6144V80.7069C60.8125 78.2744 62.7237 76.3632 65.1562 76.3632C67.5888 76.3632 69.5 78.2744 69.5 80.7069V86.6144C69.5 88.96 67.5888 90.9582 65.1562 90.9582Z" fill="#1C1C1C"/>
<path d="M30.4062 100.428C27.9737 100.428 26.0625 98.5163 26.0625 96.0838V91.2187C26.0625 88.7862 27.9737 86.875 30.4062 86.875C32.8388 86.875 34.75 88.7862 34.75 91.2187V95.9969C34.75 98.4294 32.8388 100.428 30.4062 100.428Z" fill="#BB1D80"/>
</svg>
