<svg width="97" height="97" viewBox="0 0 97 97" fill="none" xmlns="http://www.w3.org/2000/svg">
<path d="M42.4375 60.625H48.5L54.1987 80.4797C54.4412 81.3587 54.4412 82.2681 54.1987 83.1169L52.0769 90.3616C51.9859 90.695 51.6828 90.9072 51.3494 90.9072H46.8631C46.3478 90.9072 45.9841 90.4222 46.1356 89.9372L48.4394 82.0862C48.5 81.9347 48.5 81.7528 48.4394 81.5709L42.4375 60.625ZM61.5041 90.9375H65.9903C66.3238 90.9375 66.6269 90.7253 66.7178 90.3919L72.6287 69.7188H66.5662L60.7766 89.9675C60.625 90.4525 60.9888 90.9375 61.5041 90.9375Z" fill="#9B9B9B"/>
<path d="M78.6306 75.7812H63.2925C58.3515 75.7812 54.3806 71.78 54.3806 66.8694V57.5938H78.6306V75.7812Z" fill="#FF8687"/>
<path d="M76.7209 30.3125H75.3781L57.2088 37.1177L42.4072 27.7208C40.6118 26.5122 39.0931 24.9367 37.9513 23.0981L37.2844 21.9766L32.495 30.3125H18.1875L20.9459 45.5112L24.5774 51.4161L27.3358 60.7402L24.6259 65.0961C25.1282 66.2521 25.9067 67.267 26.8929 68.0519C27.8791 68.8367 29.0429 69.3675 30.2822 69.5975V90.1797C30.2822 90.6041 30.6156 90.9375 31.04 90.9375H35.5869C36.0112 90.9375 36.3447 90.6041 36.3447 90.1797V81.8438L38.9819 80.51C41.0734 79.4491 42.4072 77.3272 42.4072 74.9931V69.7188H61.7769C63.6259 69.7188 65.2931 69.0822 66.6572 68.0516C66.6572 72.5984 69.7491 76.5694 74.1747 77.6606L78.8125 78.8125V90.1797C78.8125 90.6041 79.1459 90.9375 79.5703 90.9375H84.1172C84.5416 90.9375 84.875 90.6041 84.875 90.1797V61.5041C86.0269 60.7463 87.0272 59.8369 87.9062 58.8062V72.7803H90.9375V44.5594C90.9375 36.6781 84.5719 30.3125 76.7209 30.3125Z" fill="#D3D3D3"/>
<path d="M27.4934 13.5497L29.0696 16.6719H33.6165L31.1309 11.731C30.963 11.3926 30.7036 11.1081 30.3821 10.9098C30.0605 10.7116 29.6899 10.6075 29.3121 10.6094C27.7965 10.6094 26.8265 12.1857 27.4934 13.5497Z" fill="#F9C23C"/>
<path d="M30.361 15.1562H36.8024L18.2936 39.4062H17.2205L7.99341 33.1619L12.4797 24.735L23.9923 17.1205C25.8719 15.8455 28.0898 15.1615 30.361 15.1562Z" fill="#E6E6E6"/>
<path d="M19.7123 29.3364L12.6768 39.3153C13.0708 39.3759 13.4649 39.4062 13.8893 39.4062H27.3874C30.0061 39.4103 32.5192 38.3741 34.374 36.5255C36.2289 34.6769 37.2736 32.1673 37.2784 29.5486V22.0796H38.5212C40.3591 22.078 42.1217 21.3489 43.4236 20.0515C44.7255 18.7542 45.4608 16.9942 45.4688 15.1562H36.8843C35.2171 15.1562 33.6075 15.6412 32.1828 16.5173L20.2306 24.1378L19.7153 29.3364H19.7123ZM77.5394 37.1328L76.236 38.4363C74.0097 40.6642 72.7564 43.6832 72.7501 46.8328V50.0156C72.7501 52.5316 74.781 54.5625 77.2969 54.5625C79.8129 54.5625 81.8438 52.5316 81.8438 50.0156V38.9213C81.8438 36.6781 79.1157 35.5566 77.5394 37.1328ZM90.9376 69.7188C89.3297 69.7188 87.7877 70.3575 86.6507 71.4944C85.5138 72.6314 84.8751 74.1734 84.8751 75.7812C84.8751 77.3891 85.5138 78.9311 86.6507 80.0681C87.7877 81.205 89.3297 81.8438 90.9376 81.8438V69.7188ZM41.2554 49.8944L50.7735 57.0481C52.3194 58.2 51.501 60.625 49.5913 60.625H42.3163C41.9342 60.625 41.5558 60.5497 41.2027 60.4035C40.8497 60.2572 40.5289 60.0429 40.2586 59.7727C39.9884 59.5025 39.7741 59.1817 39.6278 58.8286C39.4816 58.4755 39.4063 58.0971 39.4063 57.715V50.8341C39.4063 49.8641 40.4976 49.3184 41.2554 49.8944ZM20.946 45.4688L22.0373 51.5312L24.0985 63.3531C24.2501 64.2322 24.5532 65.0506 24.9776 65.7781C25.5535 66.8088 26.9479 66.9906 27.7966 66.1722C29.4032 64.5656 30.2823 62.4134 30.2823 60.14V58.8669C30.2823 58.1091 30.5854 57.3816 31.1007 56.8359L32.9194 54.9263C34.7988 52.9863 34.7685 49.8944 32.8891 47.9847C31.3129 46.3781 29.1607 45.4688 26.9176 45.4688H20.946ZM72.7501 60.625C72.7501 61.4289 72.4307 62.2 71.8622 62.7684C71.2938 63.3369 70.5228 63.6562 69.7188 63.6562C68.9149 63.6562 68.1439 63.3369 67.5754 62.7684C67.0069 62.2 66.6876 61.4289 66.6876 60.625C66.6876 59.8211 67.0069 59.05 67.5754 58.4816C68.1439 57.9131 68.9149 57.5938 69.7188 57.5938C70.5228 57.5938 71.2938 57.9131 71.8622 58.4816C72.4307 59.05 72.7501 59.8211 72.7501 60.625ZM69.7188 40.3762V46.3781C69.7188 50.8947 66.051 54.5625 61.4738 54.5928C60.1202 54.5953 58.787 54.262 57.5938 53.6228L47.7119 48.3484C46.1083 47.4848 44.7684 46.2031 43.8345 44.6394C42.9005 43.0757 42.4073 41.2883 42.4073 39.4669V27.7662C44.8626 29.4334 47.8029 30.3428 50.8644 30.3428H75.3873L71.9316 34.3744C70.5069 36.0416 69.7188 38.1634 69.7188 40.3762Z" fill="#636363"/>
<path d="M17.3478 39.4062V30.3943C17.3478 26.8569 14.7713 24.6804 12.5554 24.6804L8.21469 27.5844C7.55398 28.0266 7.01213 28.6245 6.63683 29.3254C6.26153 30.0263 6.0643 30.8087 6.0625 31.6038C6.06409 32.63 6.2678 33.6459 6.66199 34.5934C7.05617 35.5409 7.63313 36.4015 8.3599 37.126C9.08668 37.8505 9.94904 38.4248 10.8978 38.816C11.8465 39.2073 12.863 39.4078 13.8892 39.4062H17.3478Z" fill="#FF8687"/>
<path d="M22.7344 31.7373C21.8856 31.7373 21.2188 31.0401 21.2188 30.2217V28.1604C21.2188 27.3117 21.8856 26.6448 22.7344 26.6448C23.5831 26.6448 24.25 27.3117 24.25 28.1604V30.2217C24.25 31.0401 23.5831 31.7373 22.7344 31.7373Z" fill="#1C1C1C"/>
<path d="M10.6094 35.0413C9.76062 35.0413 9.09375 34.3744 9.09375 33.5256V31.8281C9.09375 30.9794 9.76062 30.3125 10.6094 30.3125C11.4581 30.3125 12.125 30.9794 12.125 31.8281V33.4953C12.125 34.3441 11.4581 35.0413 10.6094 35.0413Z" fill="#BB1D80"/>
</svg>
