<svg width="54" height="34" viewBox="0 0 54 34" fill="none" xmlns="http://www.w3.org/2000/svg">
<g clip-path="url(#clip0_322_613)">
<path d="M11.75 17.0608H21.2813L15.7913 31.2825C15.6388 31.6343 15.2957 31.8751 14.8954 31.8751H7.40379C6.7366 31.8751 6.2791 31.227 6.50785 30.6159L11.75 17.0608ZM32.7188 17.0608H42.25L36.76 31.2825C36.6075 31.6343 36.2644 31.8751 35.8641 31.8751H28.3725C27.7053 31.8751 27.2479 31.227 27.4766 30.6159L32.7188 17.0608Z" fill="#636363"/>
<path d="M52.1434 6.87603C49.6272 2.37619 45.2428 0.394775 39.1238 0.394775H21.2241C17.0494 0.394775 13.6562 3.69095 13.6562 7.74636V21.8199C16.9159 22.4866 20.1756 23.468 22.73 25.6161C23.2828 26.079 23.8166 26.6346 24.255 27.2457H45.91C50.2181 27.2457 53.7066 23.8569 53.7066 19.6719V12.7647C53.6875 10.6352 53.1347 8.6167 52.1434 6.87603Z" fill="#636363"/>
<path d="M19.2225 -1.45703C18.2503 -1.45703 17.4687 -0.697799 17.4687 0.246612V1.36509C16.643 1.82606 15.9131 2.43273 15.3166 3.15391H13.6562V0.246612C13.6562 -0.697799 12.8746 -1.45703 11.9025 -1.45703C10.5871 -1.45703 9.72934 -0.105227 10.3393 1.04288L11.4068 3.15391H10.2059C8.54746 3.15391 7.21309 4.45016 7.21309 6.06122V9.95552C5.19579 10.2372 3.36344 11.2514 2.08544 12.7936C0.807437 14.3358 0.178818 16.2913 0.326307 18.2659C0.473796 20.2405 1.38643 22.0874 2.88022 23.4342C4.37401 24.781 6.33787 25.5276 8.3759 25.5235H19.375V26.5605C19.375 27.616 19.089 28.653 18.5553 29.5604L18.0215 30.4863C17.9381 30.6266 17.8941 30.7858 17.8938 30.9478C17.8936 31.1099 17.9371 31.2692 18.0201 31.4098C18.1031 31.5503 18.2226 31.6673 18.3667 31.749C18.5108 31.8306 18.6744 31.8741 18.8412 31.8751H27.9531C28.4868 31.8751 28.9062 31.4677 28.9062 30.9492V27.2456L34.625 24.468L40.3246 27.2364C40.2587 28.0057 40.0454 28.7562 39.6956 29.4493L39.1237 30.5418C38.8187 31.1529 39.2762 31.8751 39.9815 31.8751H48.9218C49.4556 31.8751 49.875 31.4677 49.875 30.9492V26.1957C50.5905 25.7843 51.234 25.2649 51.7812 24.6568V26.3012C51.7812 26.8197 52.2006 27.2271 52.7343 27.2271C53.2681 27.2271 53.6875 26.8197 53.6875 26.3012V20.207C53.7008 20.0292 53.7065 19.8515 53.7065 19.6718V12.7647C53.6875 10.6351 53.1347 8.61668 52.1434 6.876C49.6272 2.37616 45.2428 0.394754 39.1237 0.394754H21.224C21.1421 0.394754 21.0601 0.394754 20.98 0.398458C21.0003 0.162288 20.97 -0.0754059 20.8909 -0.299591C20.8117 -0.523776 20.6856 -0.729573 20.5204 -0.903969C20.3552 -1.07837 20.1546 -1.21756 19.9312 -1.31276C19.7077 -1.40796 19.4664 -1.45709 19.2225 -1.45703Z" fill="#9B9B9B"/>
<path d="M11.9024 0.209537C11.8833 -0.864498 10.2058 -0.901533 10.1486 0.172503C10.1296 0.450271 10.1868 0.746557 10.3393 1.04284L11.4068 3.15388H11.9024V0.209537ZM39.0664 23.2272C39.8861 24.0235 40.3436 25.0975 40.3436 26.2271V27.2271H28.9061V22.6161H38.4374L39.0664 23.2272ZM20.9761 0.172503C20.9189 -0.901533 19.2414 -0.864498 19.2224 0.209537V3.15388H19.718L20.7855 1.04284C20.9282 0.774561 20.994 0.473967 20.9761 0.172503ZM3.7627 16.5793C3.7627 19.0607 5.84051 21.0606 8.37582 21.0606H22.1961C24.7505 21.0606 26.8093 19.0607 26.8093 16.5793C26.8093 14.0979 24.7314 12.098 22.1961 12.098H8.37582C5.84051 12.098 3.7627 14.0979 3.7627 16.5793Z" fill="#FF8687"/>
<path d="M8.79527 14.3854L9.86277 15.4409C10.3203 15.8668 11.0446 15.8668 11.5021 15.4409C11.9596 15.015 11.9596 14.3113 11.5021 13.8669L10.4156 12.8113C10.3104 12.706 10.1845 12.6222 10.0453 12.5649C9.90613 12.5077 9.75655 12.4782 9.60543 12.4782C9.45431 12.4782 9.30473 12.5077 9.16556 12.5649C9.02639 12.6222 8.90047 12.706 8.79527 12.8113C8.33777 13.2373 8.33777 13.9409 8.79527 14.3854ZM22.2725 14.3854L21.1859 15.4409C21.0784 15.5433 20.9511 15.624 20.8114 15.6785C20.6717 15.733 20.5223 15.7602 20.3718 15.7584C20.2212 15.7567 20.0725 15.7262 19.9342 15.6685C19.7958 15.6108 19.6706 15.5272 19.5656 15.4224C19.4571 15.3202 19.3708 15.1979 19.3119 15.0627C19.253 14.9275 19.2227 14.7822 19.2227 14.6354C19.2227 14.4886 19.253 14.3432 19.3119 14.2081C19.3708 14.0729 19.4571 13.9505 19.5656 13.8483L20.6521 12.8113C21.0906 12.3669 21.815 12.3669 22.2725 12.8113C22.73 13.2373 22.73 13.9409 22.2725 14.3854Z" fill="#A56953"/>
<path d="M11.75 8.51537C11.75 9.03387 12.1694 9.44126 12.7031 9.44126C13.2369 9.44126 13.6562 9.03387 13.6562 8.51537V7.34874C13.6562 6.83024 13.2369 6.42285 12.7031 6.42285C12.1694 6.42285 11.75 6.83024 11.75 7.34874V8.51537ZM17.4687 8.51537C17.4687 9.03387 17.8881 9.44126 18.4219 9.44126C18.9556 9.44126 19.375 9.03387 19.375 8.51537V7.34874C19.375 6.83024 18.9556 6.42285 18.4219 6.42285C17.8881 6.42285 17.4687 6.83024 17.4687 7.34874V8.51537Z" fill="#1C1C1C"/>
</g>
<defs>
<clipPath id="clip0_322_613">
<rect width="54" height="34" fill="white"/>
</clipPath>
</defs>
</svg>
