<svg width="108" height="70" viewBox="0 0 108 70" fill="none" xmlns="http://www.w3.org/2000/svg">
<g clip-path="url(#clip0_239_480)">
<path d="M23.5001 35.125H42.5626L31.5826 64.405C31.2776 65.1294 30.5913 65.625 29.7907 65.625H14.8076C13.4732 65.625 12.5582 64.2906 13.0157 63.0325L23.5001 35.125ZM65.4376 35.125H84.5001L73.5201 64.405C73.2151 65.1294 72.5288 65.625 71.7282 65.625H56.7451C55.4107 65.625 54.4957 64.2906 54.9532 63.0325L65.4376 35.125Z" fill="#636363"/>
<path d="M104.287 14.1562C99.2544 4.89187 90.4856 0.8125 78.2475 0.8125H42.4481C34.0988 0.8125 27.3125 7.59875 27.3125 15.9481V44.9231C33.8319 46.2956 40.3513 48.3163 45.46 52.7388C46.5656 53.6919 47.6331 54.8356 48.51 56.0938H91.82C100.436 56.0938 107.413 49.1169 107.413 40.5006V26.28C107.375 21.8956 106.269 17.74 104.287 14.1562Z" fill="#636363"/>
<path d="M38.4449 -3C36.5005 -3 34.9374 -1.43687 34.9374 0.5075V2.81025C33.286 3.75931 31.8262 5.00833 30.6331 6.49312H27.3124V0.5075C27.3124 -1.43687 25.7493 -3 23.8049 -3C21.1743 -3 19.4587 -0.216874 20.6787 2.14688L22.8137 6.49312H20.4118C17.0949 6.49312 14.4262 9.16187 14.4262 12.4787V20.4964C10.3916 21.0764 6.72689 23.1644 4.17088 26.3395C1.61487 29.5146 0.357636 33.5407 0.652614 37.606C0.947593 41.6714 2.77285 45.4738 5.76043 48.2467C8.74801 51.0195 12.6757 52.5566 16.7518 52.5481H38.7499V54.6831C38.7499 56.8562 38.178 58.9912 37.1105 60.8594L36.043 62.7656C35.8762 63.0546 35.7881 63.3822 35.7876 63.7159C35.7871 64.0495 35.8742 64.3775 36.0402 64.6669C36.2061 64.9564 36.4451 65.1972 36.7333 65.3653C37.0215 65.5335 37.3488 65.623 37.6824 65.625H55.9062C56.9737 65.625 57.8124 64.7863 57.8124 63.7188V56.0938L69.2499 50.375L80.6493 56.0747C80.5175 57.6585 80.0908 59.2036 79.3912 60.6306L78.2474 62.88C77.6374 64.1381 78.5524 65.625 79.963 65.625H97.8437C98.9112 65.625 99.7499 64.7863 99.7499 63.7188V53.9321C101.181 53.0852 102.468 52.0157 103.562 50.7639V54.1494C103.562 55.2169 104.401 56.0556 105.469 56.0556C106.536 56.0556 107.375 55.2169 107.375 54.1494V41.6024C107.402 41.2364 107.413 40.8704 107.413 40.5006V26.28C107.375 21.8956 106.269 17.74 104.287 14.1562C99.2543 4.89187 90.4856 0.8125 78.2474 0.8125H42.448C42.2841 0.8125 42.1202 0.812499 41.96 0.820124C42.0007 0.333893 41.9399 -0.155477 41.7817 -0.617035C41.6235 -1.07859 41.3712 -1.50229 41.0408 -1.86134C40.7104 -2.22039 40.3091 -2.50698 39.8623 -2.70297C39.4155 -2.89897 38.9328 -3.00011 38.4449 -3Z" fill="#9B9B9B"/>
<path d="M23.8048 0.431429C23.7666 -1.77982 20.4116 -1.85607 20.2973 0.355181C20.2591 0.927056 20.3735 1.53706 20.6785 2.14706L22.8135 6.4933H23.8048V0.431429ZM78.1329 47.8208C79.7723 49.4602 80.6873 51.6714 80.6873 53.9971V56.0558H57.8123V46.5627H76.8748L78.1329 47.8208ZM41.9523 0.355181C41.8379 -1.85607 38.4829 -1.77982 38.4448 0.431429V6.4933H39.436L41.571 2.14706C41.8564 1.59471 41.988 0.975843 41.9523 0.355181ZM7.52539 34.1339C7.52539 39.2427 11.681 43.3602 16.7516 43.3602H44.3923C49.501 43.3602 53.6185 39.2427 53.6185 34.1339C53.6185 29.0252 49.4629 24.9077 44.3923 24.9077H16.7516C11.681 24.9077 7.52539 29.0252 7.52539 34.1339Z" fill="#FF8687"/>
<path d="M17.5905 29.6168L19.7255 31.7899C20.6405 32.6668 22.0893 32.6668 23.0043 31.7899C23.9193 30.9131 23.9193 29.4643 23.0043 28.5493L20.8312 26.3762C20.6208 26.1592 20.3689 25.9867 20.0906 25.8689C19.8123 25.7511 19.5131 25.6904 19.2109 25.6904C18.9086 25.6904 18.6095 25.7511 18.3311 25.8689C18.0528 25.9867 17.8009 26.1592 17.5905 26.3762C16.6755 27.2531 16.6755 28.7018 17.5905 29.6168ZM44.5449 29.6168L42.3718 31.7899C42.1568 32.0007 41.9023 32.167 41.6229 32.2792C41.3435 32.3914 41.0446 32.4473 40.7436 32.4438C40.4425 32.4402 40.1451 32.3773 39.8684 32.2585C39.5917 32.1398 39.3412 31.9676 39.1312 31.7518C38.9142 31.5414 38.7417 31.2896 38.6239 31.0112C38.5061 30.7329 38.4454 30.4337 38.4454 30.1315C38.4454 29.8293 38.5061 29.5301 38.6239 29.2518C38.7417 28.9734 38.9142 28.7216 39.1312 28.5112L41.3043 26.3762C42.1812 25.4612 43.6299 25.4612 44.5449 26.3762C45.4599 27.2531 45.4599 28.7018 44.5449 29.6168Z" fill="#A56953"/>
<path d="M23.5 17.5313C23.5 18.5988 24.3387 19.4375 25.4062 19.4375C26.4738 19.4375 27.3125 18.5988 27.3125 17.5313V15.1294C27.3125 14.0619 26.4738 13.2231 25.4062 13.2231C24.3387 13.2231 23.5 14.0619 23.5 15.1294V17.5313ZM34.9375 17.5313C34.9375 18.5988 35.7762 19.4375 36.8438 19.4375C37.9113 19.4375 38.75 18.5988 38.75 17.5313V15.1294C38.75 14.0619 37.9113 13.2231 36.8438 13.2231C35.7762 13.2231 34.9375 14.0619 34.9375 15.1294V17.5313Z" fill="#1C1C1C"/>
</g>
<defs>
<clipPath id="clip0_239_480">
<rect width="108" height="70" fill="white"/>
</clipPath>
</defs>
</svg>
