<svg width="226" height="280" viewBox="0 0 226 280" fill="none" xmlns="http://www.w3.org/2000/svg">
<path d="M178.303 180.818C178.303 180.818 190.461 168.66 203.272 172.277C216.083 175.894 224.297 182.452 225.277 195.94C226.257 209.428 223.037 219.508 212.793 226.159C199.655 234.7 183.88 229.123 183.88 229.123L178.303 180.818Z" fill="#ECF0F2"/>
<path d="M99.7786 90.8127C99.7786 90.8127 109.3 70.1141 108.646 42.1815C107.993 14.2488 101.739 -0.522593 87.7375 0.014125C72.4061 0.620849 67.6456 25.3332 67.9256 45.7985C68.2523 70.7675 77.3532 89.5993 77.3532 89.5993L99.7786 90.8127ZM68.2523 172.814L44.8234 174.774C44.8234 174.774 45.5935 177.178 45.3602 179.371C45.1501 181.565 44.5901 187.025 44.5901 187.025L74.1562 210.244L130.442 178.928L115.32 168.637L68.2523 172.814Z" fill="#A8A8A8"/>
<path d="M4.73316 142.967C4.14304 142.966 3.57507 142.742 3.14362 142.339C2.71216 141.937 2.44925 141.386 2.40784 140.797C2.36643 140.208 2.54958 139.626 2.92042 139.167C3.29126 138.708 3.82224 138.406 4.40646 138.323C4.66315 138.276 10.7304 137.436 17.3577 137.203C24.6851 136.97 26.6452 136.9 32.9925 138.113C34.2526 138.346 35.0927 139.583 34.836 140.843C34.5793 142.103 33.3659 142.92 32.1058 142.687C26.2952 141.567 24.615 141.613 17.521 141.847C11.1504 142.057 5.12986 142.92 5.05986 142.92C4.94318 142.944 4.84983 142.967 4.73316 142.967ZM2.3296 159.162C1.2795 159.162 0.322739 158.438 0.0660481 157.388C-0.237314 156.128 0.532763 154.868 1.79288 154.565C2.11958 154.471 10.007 152.558 14.8608 151.694C19.6912 150.808 28.4187 149.757 28.7921 149.711C29.0963 149.668 29.406 149.688 29.7025 149.768C29.9991 149.848 30.2765 149.986 30.5183 150.176C30.76 150.365 30.9611 150.602 31.1096 150.871C31.258 151.139 31.3508 151.435 31.3824 151.741C31.4224 152.045 31.4014 152.354 31.3206 152.649C31.2398 152.945 31.1007 153.222 30.9117 153.463C30.7226 153.704 30.4872 153.905 30.2195 154.054C29.9517 154.203 29.6568 154.298 29.3522 154.331C29.2588 154.331 20.3913 155.428 15.7009 156.291C11.0104 157.155 2.98299 159.092 2.91299 159.115C2.67963 159.138 2.51628 159.162 2.3296 159.162Z" fill="#8E9395"/>
<path d="M148.177 193.839L65.6155 245.76C65.6155 245.76 48.5338 265.036 52.3609 269.096C54.3911 271.243 62.3718 273.156 69.3258 271.616C79.2901 269.423 87.9476 248.281 87.9476 248.281C87.9476 248.281 83.5605 278.29 90.3511 279.597C97.1418 280.904 106.989 279.27 111.376 271.173C115.764 263.075 117.28 253.204 121.224 249.051C125.168 244.897 128.668 241.817 128.668 241.817C128.668 241.817 130.862 244.454 132.168 246.204C133.475 247.954 135.902 250.357 135.902 250.357C135.902 250.357 125.658 256.705 122.111 261.745C118.494 266.902 119.241 272.993 124.514 275.116C132.168 278.173 165.258 264.825 165.258 264.825L158.678 191.459L148.177 193.839Z" fill="#A8A8A8"/>
<path d="M135.482 144.344C135.482 144.344 136.579 136.457 135.039 129.223C133.499 121.989 129.135 113.681 129.135 113.681C129.135 113.681 145.353 107.544 156.951 97.0428C169.832 85.3751 188.921 63.533 190.671 45.5646C192.421 27.5962 181.687 11.4014 153.427 28.483C125.168 45.5646 104.609 87.8486 104.609 87.8486C104.609 87.8486 82.2771 78.4211 64.0987 88.292C45.9203 98.1629 36.2827 123.552 35.396 125.302C34.5092 127.052 23.2615 132.163 21.8147 147.634C20.3912 162.966 28.9554 171.623 41.7433 175.007C50.6574 177.364 58.8249 175.45 58.8249 175.45C58.8249 175.45 65.6155 183.104 83.1405 182.894C100.666 182.684 115.11 173.467 115.11 173.467C115.11 173.467 111.82 185.951 96.0451 192.742C84.214 197.829 69.7693 197.129 59.2449 192.532C48.7206 187.935 45.0102 182.684 45.0102 182.684C45.0102 182.684 41.2766 199.766 45.0102 210.057C48.7439 220.348 55.9546 234.583 55.5112 245.317C55.0679 256.051 48.1839 263.939 51.5675 268.302C53.4577 270.753 61.2518 272.806 67.3424 266.342C77.6333 255.398 77.2366 243.007 80.9237 242.47C88.5777 241.373 84.8674 263.705 84.6573 268.302C84.4473 272.9 83.7939 278.71 88.8111 279.48C99.5454 281.114 101.296 277.077 105.893 266.342C110.49 255.608 109.953 250.031 114.644 243.567C118.471 238.316 124.934 234.816 124.934 234.816C124.934 234.816 123.721 220.255 128.551 212.577C133.359 204.923 142.903 198.879 149.904 201.516C156.904 204.153 141.479 205.996 136.439 216.964C132.752 224.992 133.475 233.276 138.749 238.97C144 244.663 150.347 249.471 150.347 249.471C150.347 249.471 125.238 258.525 122.974 267.766C121.341 274.44 124.071 277.52 139.403 275.98C154.734 274.44 174.219 269.189 181.897 259.552C189.551 249.914 199.352 218.318 191.207 195.262C184.627 176.64 179.936 168.426 163.065 156.385C146.217 144.344 135.482 144.344 135.482 144.344Z" fill="#DFDFDF"/>
<path d="M122.344 93.9859C118.237 89.7389 125.401 74.7108 141.619 57.4192C157.838 40.1275 168.992 34.6437 174.476 38.5874C179.96 42.5311 172.072 59.4027 156.507 75.8309C143.626 89.4122 129.135 100.987 122.344 93.9859Z" fill="#FFB0B1"/>
<path d="M70.5393 93.0994C76.6065 94.4062 71.356 103.274 66.2689 111.815C61.1817 120.355 57.4014 124.789 58.5448 128.896C59.6883 133.003 68.5558 140.891 68.0657 150.248C67.5757 159.606 59.6883 170.293 44.9169 169.127C30.1455 167.96 24.2182 156.642 26.6918 144.321C28.652 134.567 38.6863 130.04 41.2999 125.256C43.9368 120.495 48.2772 112.491 52.8043 105.864C59.2216 96.5531 64.4487 91.7927 70.5393 93.0994Z" fill="white"/>
<path d="M99.897 129.449C100.495 123.356 97.3616 118.062 92.898 117.624C88.4345 117.186 84.3313 121.769 83.7331 127.862C83.135 133.954 86.2685 139.248 90.7321 139.687C95.1956 140.125 99.2988 135.541 99.897 129.449Z" fill="#2F3030"/>
<path d="M40.1098 138.977C40.1098 138.977 47.4372 132.957 50.2841 135.92C53.131 138.884 41.6266 146.001 41.6266 146.001C41.6266 146.001 40.5299 151.369 43.8202 151.905C47.1105 152.442 47.5539 145.441 51.1475 147.308C54.7645 149.175 51.4742 158.486 45.127 158.579C41.3466 158.649 39.1064 155.849 39.1064 155.849C39.1064 155.849 38.103 157.926 34.7193 157.599C29.1421 157.062 26.5052 145.745 30.6589 145.885C33.9492 146.001 31.9657 151.252 35.046 151.252C38.5463 151.252 37.1229 145.021 37.1229 145.021C37.1229 145.021 29.4688 137.017 32.8525 134.17C36.2828 131.323 40.1098 138.977 40.1098 138.977Z" fill="#2F3030"/>
<path d="M91.238 153.025C90.958 153.025 90.7013 152.979 90.4213 152.885C90.3279 152.862 81.9738 149.758 76.6066 148.592L63.9121 145.861C62.652 145.581 61.8586 144.344 62.1152 143.084C62.3719 141.824 63.6321 141.031 64.8922 141.288L77.5867 144.018C83.2806 145.255 91.6814 148.358 92.0314 148.498C93.2449 148.942 93.8516 150.295 93.4082 151.508C93.2485 151.955 92.9538 152.341 92.565 152.613C92.1761 152.885 91.7124 153.029 91.238 153.025ZM88.6011 168.59C88.1811 168.59 87.761 168.473 87.3643 168.24C87.2943 168.193 80.107 163.736 73.4563 160.096C69.3075 157.828 65.0386 155.787 60.6684 153.982C60.096 153.75 59.6391 153.3 59.3984 152.731C59.1577 152.162 59.1529 151.521 59.385 150.948C59.6171 150.376 60.0671 149.919 60.636 149.678C61.2049 149.438 61.8461 149.433 62.4186 149.665C62.6753 149.758 68.8592 152.279 75.6965 156.036C82.4638 159.746 89.7445 164.273 89.8145 164.32C90.9113 164.996 91.238 166.443 90.5613 167.54C90.1646 168.193 89.3945 168.59 88.6011 168.59Z" fill="#8E9395"/>
</svg>
