<svg width="272" height="183" viewBox="0 0 272 183" fill="none" xmlns="http://www.w3.org/2000/svg">
<path d="M99.8218 19.6188C99.8218 19.6188 100.434 15.5075 100.806 12.7301C101.178 9.97464 101.921 0.78971 106.71 0.242988C111.5 -0.303734 167.55 0.242988 171.989 0.242988C176.407 0.242988 177.522 5.03228 177.894 7.61281C178.265 10.1933 179.271 20.1874 178.878 20.1874C177.369 20.2093 99.8218 19.6188 99.8218 19.6188Z" fill="#3E717A"/>
<path d="M85.3009 16.8417C85.3009 16.8417 82.7203 11.8556 80.8834 10.7622C79.0464 9.64685 34.9806 6.43212 22.8433 25.0863C10.7061 43.7404 7.95063 77.7247 6.81345 92.7049C5.67627 107.685 5.67627 117.57 5.67627 117.57L155.194 124.065L270.246 118.138L268.89 59.7485C268.606 47.5894 268.256 27.4044 261.761 22.3308C255.266 17.2572 251.308 18.3725 240.001 18.0882C228.695 17.8039 85.3009 16.8417 85.3009 16.8417Z" fill="#6BA4AB"/>
<path d="M5.72119 115.295L270.51 116.28C270.51 116.28 271.494 150.548 271.494 153.719C271.494 156.89 270.51 160.564 265.611 160.826C260.712 161.067 51.2303 162.532 51.2303 162.532L6.68342 160.323C6.68342 160.323 1.54424 158.355 0.319579 153.96C-0.905079 149.564 1.78479 126.558 1.78479 126.558L5.72119 115.295Z" fill="#E0E0E0"/>
<path d="M0.230712 142.434C0.230712 142.434 7.03193 143.025 8.21285 141.1C10.4653 137.448 11.4713 120.565 9.69994 118.641C8.56276 117.394 4.62636 117.941 4.62636 117.941C4.62636 117.941 2.24265 123.124 1.12734 129.882C-0.053583 137.12 0.230712 142.434 0.230712 142.434Z" fill="#FF8D02"/>
<path d="M66.2979 162.554C66.2979 162.554 67.1508 154.615 65.6856 147.53C64.1985 140.444 58.7969 124.721 36.6219 124.436C16.2182 124.174 8.38912 140.554 6.92391 148.667C5.65551 155.687 6.72709 160.323 6.72709 160.323C6.72709 160.323 16.9617 161.963 36.1845 162.707C55.4072 163.45 66.2979 162.554 66.2979 162.554ZM183.996 161.657C183.996 161.657 184.281 147.989 187.78 141.013C192.613 131.369 200.092 125.595 214.285 125.595C228.478 125.595 237.225 133.927 240.527 139.723C246.213 149.695 244.376 160.936 244.376 160.936L183.996 161.657Z" fill="#868486"/>
<path d="M10.5323 157.939C10.6853 167.912 18.6456 182.301 35.9876 182.411C53.3297 182.52 62.3178 169.246 61.7711 155.643C61.2243 141.822 50.4648 132.047 35.0035 132.506C20.5045 132.9 10.3136 144.096 10.5323 157.939Z" fill="#4E433D"/>
<path d="M22.5817 157.087C22.6692 162.357 26.9336 169.924 36.2497 169.989C45.5659 170.055 50.0709 163.451 49.7866 156.278C49.4804 148.995 43.5321 143.55 35.7249 143.659C27.9614 143.79 22.4723 149.804 22.5817 157.087Z" fill="#B2B1B2"/>
<path d="M189.267 158.114C189.42 168.021 197.205 182.28 214.176 182.389C231.146 182.498 239.937 169.333 239.412 155.818C238.866 142.106 228.347 132.419 213.213 132.856C199.042 133.25 189.07 144.381 189.267 158.114Z" fill="#4E433D"/>
<path d="M200.595 157.327C200.683 162.597 204.947 170.164 214.263 170.23C223.58 170.295 228.085 163.691 227.8 156.518C227.494 149.236 221.546 143.79 213.739 143.9C205.953 144.009 200.486 150.023 200.595 157.327Z" fill="#B2B1B2"/>
<path d="M112.331 104.733C112.331 104.733 246.191 104.995 250.367 104.733C254.544 104.47 260.034 98.4562 260.296 89.8398C260.558 81.2235 259.246 44.8774 258.721 40.7005C258.197 36.5235 255.616 28.1477 242.779 28.1477C232.588 28.1477 45.6529 27.098 40.9511 27.098C36.2493 27.098 29.2293 29.8754 26.1021 37.442C22.9748 45.0086 17.2233 58.9391 15.8456 74.641C14.446 90.7802 14.5553 99.5059 15.605 103.683C16.6547 107.86 17.7044 112.562 27.3705 112.562H72.5953L73.1421 162.291L112.309 162.117L112.331 104.733Z" fill="#454C52"/>
<path d="M270.224 114.027C270.224 114.027 264.735 113.13 263.358 116.126C261.98 119.123 261.696 139.154 263.751 140.029C265.807 140.904 271.143 140.226 271.143 140.226C271.143 140.226 271.318 132.309 270.902 126.558C270.356 118.926 270.224 114.027 270.224 114.027Z" fill="#FF2A23"/>
<path d="M256.403 116.214L241.423 116.126C239.914 116.126 238.689 114.88 238.711 113.371C238.711 111.862 239.936 110.659 241.444 110.659H241.466L256.425 110.746C257.934 110.746 259.158 111.993 259.136 113.502C259.115 114.989 257.912 116.214 256.403 116.214ZM256.206 126.077L241.226 125.989C239.717 125.989 238.492 124.742 238.514 123.234C238.514 121.725 239.739 120.522 241.248 120.522H241.27L256.228 120.609C257.737 120.609 258.961 121.856 258.94 123.365C258.94 124.852 257.715 126.077 256.206 126.077ZM256.118 135.983C256.097 135.983 256.097 135.983 256.118 135.983L241.138 135.896C239.629 135.896 238.405 134.649 238.427 133.14C238.427 131.631 239.651 130.428 241.16 130.428H241.182L256.14 130.516C257.649 130.516 258.874 131.762 258.852 133.271C258.83 134.78 257.606 135.983 256.118 135.983Z" fill="#454C52"/>
<path d="M71.9827 40.1974C71.9827 40.1974 39.1357 40.1974 36.4895 40.3942C33.8434 40.591 31.2629 43.8276 28.9885 51.7442C26.5829 60.0762 22.2966 75.8874 23.3026 95.5475C23.4994 99.1996 26.9547 100.206 29.7977 100.206H72.1796L71.9827 40.1974Z" fill="#AFE3FB"/>
<path d="M36.2945 81.3768L35.6821 106.92C35.6821 106.92 46.4198 108.954 48.2567 106.111C50.0719 103.268 50.0937 85.4445 48.6722 83.192C45.8293 78.7307 36.2945 81.3768 36.2945 81.3768Z" fill="#868486"/>
<path d="M79.6807 46.4955H105.639V155.184H79.8993L79.6807 46.4955ZM113.752 91.5017V40.6128H180.671V91.3049L113.752 91.5017ZM188.785 40.8096V91.1081H244.747C250.411 91.1081 252.489 87.7184 253.101 81.6388C253.713 75.5593 253.013 52.5532 252.467 48.3325C251.854 43.6744 248.836 41.3345 243.5 41.0939C237.902 40.8315 189.003 40.6128 188.785 40.8096Z" fill="#AFE3FB"/>
</svg>
