<svg width="24" height="27" viewBox="0 0 24 27" fill="none" xmlns="http://www.w3.org/2000/svg">
<path d="M11.6905 2.97256C11.6905 2.97256 12.0908 2.04944 12.9986 1.46319C13.4405 1.17881 14.2126 0.739124 14.3526 0.986312C14.4139 1.0935 14.2148 1.37131 14.0136 1.80225C13.9326 1.97944 13.7511 2.55694 13.7511 2.55694C13.7511 2.55694 14.5517 1.50912 15.9539 1.2335C17.0564 1.01475 18.2486 1.15694 18.3864 1.40194C18.5351 1.66662 17.7542 2.2485 17.5092 2.756C17.2642 3.2635 17.0783 3.911 17.0783 3.911C17.0783 3.911 18.5548 3.21319 18.9267 3.06444C19.3883 2.88069 20.3901 2.49569 20.528 2.66412C20.6658 2.83256 20.0861 3.81037 19.9592 3.98756C19.8061 4.20412 19.5742 4.60444 19.5742 4.60444C19.5742 4.60444 20.283 4.28069 20.5586 4.11225C20.8364 3.94381 21.4511 3.46475 21.5911 3.55881C21.7289 3.65069 21.7289 4.58694 21.637 4.99162C21.5145 5.52975 20.9436 6.116 20.9436 6.116C20.9436 6.116 21.7595 6.29975 22.2058 6.87069C22.652 7.44162 22.9123 7.88569 23.0983 8.45662C23.3761 9.30319 23.4986 10.4582 23.4373 10.6747C23.3761 10.8913 23.037 10.5982 22.4048 10.5522C22.0308 10.5238 21.9433 10.5216 21.9433 10.5216C21.9433 10.5216 22.2998 10.946 22.4661 11.3376C22.6826 11.8451 22.9189 12.6457 23.0501 12.9847C23.188 13.3391 23.2973 13.6169 23.4964 14.0172C23.5555 14.1354 23.0808 14.2491 22.6039 13.8007C22.4442 13.6519 22.2495 13.5076 22.2495 13.5076C22.2495 13.5076 22.5317 15.1854 22.512 16.3097C22.4967 17.141 22.3108 18.6504 22.0658 18.7882C21.8186 18.926 21.3264 17.8651 21.3264 17.8651C21.3264 17.8651 21.112 19.0726 20.8648 19.8819C20.5717 20.8357 20.2939 21.2819 20.1255 21.8529C19.9242 22.531 19.7251 23.0232 19.5873 22.8066C19.467 22.6207 19.3401 22.3297 19.2176 22.1132C19.1236 21.9491 18.9092 21.5116 18.9092 21.5116C18.9092 21.5116 18.6926 22.8197 17.647 23.6991C16.6014 24.5785 15.9233 25.2851 15.4289 25.3463C15.138 25.3835 15.4748 24.0688 15.4748 24.0688C15.4748 24.0688 13.843 25.3507 13.0576 25.9326C12.7033 26.1951 12.3795 27.0569 12.1345 26.9957C11.8873 26.9344 11.2573 25.9785 10.857 25.6876C10.4567 25.3966 9.70202 25.0554 9.59483 24.9941C9.48764 24.9329 8.97795 24.6091 8.97795 24.6091C8.97795 24.6091 9.10483 25.3244 8.96264 25.3944C8.6542 25.5476 7.46858 24.701 7.12952 24.1782C6.79046 23.6554 6.19108 22.5769 6.19108 22.5769C6.19108 22.5769 6.11452 23.6094 5.86733 23.4388C5.60483 23.2594 4.32733 22.3144 3.88108 21.6057C3.56608 21.1047 3.01921 19.696 3.01921 19.696C3.01921 19.696 2.54233 20.1882 2.40233 20.2494C2.26233 20.3107 1.91014 20.4507 1.97139 19.9104C2.03264 19.3722 1.61046 18.1516 1.54046 17.4166C1.44858 16.4629 1.63233 15.4763 1.63233 15.4763C1.63233 15.4763 0.847018 16.5241 0.47733 16.5088C0.107643 16.4935 0.324205 14.4766 0.41608 13.8597C0.507955 13.2429 0.816393 12.1666 0.938893 11.7816C1.06139 11.3966 1.52296 10.8279 1.52296 10.8279C1.52296 10.8279 0.383268 11.2129 0.21483 11.0597C0.0463929 10.9066 0.306705 9.53506 0.462018 8.70381C0.540768 8.27725 0.877643 7.61006 1.30858 7.11787C1.73952 6.62569 2.40233 6.71756 2.46358 6.501C2.52483 6.28444 2.21858 6.11381 2.00202 5.76162C1.67827 5.23881 1.49452 4.16037 1.66296 3.97444C1.76796 3.86069 2.35639 4.3135 3.06514 4.39006C3.77389 4.46662 4.40389 4.42069 4.40389 4.42069C4.40389 4.42069 3.99483 3.93944 3.81983 3.5435C3.57264 2.99006 3.55733 2.32725 3.71264 2.15662C3.86796 1.986 4.40608 2.511 5.13014 2.69475C5.8542 2.8785 6.93264 2.896 6.93264 2.896C6.93264 2.896 6.47108 2.40381 6.34858 1.83287C6.22608 1.26412 6.25671 0.909749 6.45577 0.848499C6.65702 0.787249 7.24327 1.33631 7.65671 1.46537C8.10296 1.60319 9.61233 1.51131 10.2905 1.71256C10.9686 1.91381 11.6905 2.97256 11.6905 2.97256Z" fill="#865C50"/>
<path d="M16.5555 7.77839C16.5555 7.77839 19.2046 5.25401 20.7446 7.13089C22.5712 9.35995 17.7258 11.8121 17.7258 11.8121L16.5555 7.77839ZM7.31772 8.4237C7.31772 8.4237 4.84803 5.1862 3.03241 6.94058C1.21678 8.69495 4.97709 11.379 4.97709 11.379L7.31772 8.4237Z" fill="#FEC000"/>
<path d="M18.8338 9.93316C18.8338 9.93316 20.7741 8.5791 19.9735 7.71504C19.1182 6.7941 17.541 8.39316 17.541 8.39316L18.8338 9.93316ZM6.18789 8.50254C6.18789 8.50254 4.58008 6.91004 3.74883 7.89441C3.00071 8.78035 5.13571 10.4822 5.13571 10.4822L6.18789 8.50254Z" fill="#FF8E06"/>
<path d="M12.1528 19.5711C12.1528 19.5711 13.7234 19.1402 14.7078 18.648C15.6921 18.1558 19.3584 16.093 19.634 13.5664C19.9118 11.042 19.634 10.3639 18.4637 8.82391C17.2934 7.28391 15.2415 6.92954 14.1828 7.16142C12.9206 7.43923 12.704 8.36016 12.1506 8.39298C11.6278 8.4236 11.7809 7.83954 10.2715 7.28391C8.33996 6.57298 3.05277 8.4761 3.98902 13.5664C4.48121 16.2461 8.3859 18.532 8.88465 18.8011C10.09 19.4486 12.1528 19.5711 12.1528 19.5711Z" fill="#FEC000"/>
<path d="M16.1463 11.1633C16.3353 10.6884 16.1108 10.1532 15.645 9.96783C15.1792 9.78242 14.6483 10.017 14.4594 10.4918C14.2704 10.9667 14.4948 11.5019 14.9606 11.6873C15.4265 11.8727 15.9573 11.6381 16.1463 11.1633Z" fill="#2E2F2F"/>
<path d="M9.02749 11.5917C9.50535 11.3974 9.73225 10.8452 9.53428 10.3584C9.3363 9.87157 8.78843 9.63446 8.31056 9.82879C7.8327 10.0231 7.6058 10.5753 7.80377 11.0621C8.00175 11.5489 8.54962 11.7861 9.02749 11.5917Z" fill="#2E2F2F"/>
<path d="M12.1105 12.4684C10.2424 12.4115 8.59961 14.5225 8.59961 18.0312C8.59961 21.4393 10.4065 22.24 11.8634 22.24C13.7118 22.24 15.4552 21.0281 15.2518 17.7228C15.0615 14.6647 14.1012 12.5297 12.1105 12.4684Z" fill="#FFD899"/>
<path d="M9.93391 14.3977C9.75016 14.5814 10.098 15.5877 10.4064 16.1018C10.7148 16.6158 11.5964 17.4558 12.0908 17.4361C12.583 17.4164 13.5083 16.3883 13.7948 15.6293C14.0814 14.8702 14.1645 14.3977 14.042 14.2118C13.9195 14.0258 12.4605 14.2533 11.907 14.2533C11.3536 14.2533 10.1198 14.2139 9.93391 14.3977Z" fill="#2E2F2F"/>
<path d="M12.05 16.7295C12.05 16.7295 11.2559 17.5936 10.9103 17.7248C10.4268 17.9086 9.67871 17.7511 9.65683 18.0486C9.63714 18.357 10.1184 18.6807 10.8884 18.5779C11.7393 18.4642 12.0587 17.9414 12.0587 17.9414C12.0587 17.9414 12.5421 18.6282 13.4762 18.6698C14.4103 18.7114 14.6268 18.1164 14.3687 18.0332C14.0187 17.9217 13.8 17.9436 13.2706 17.7773C12.8506 17.6417 12.05 16.7295 12.05 16.7295Z" fill="#2E2F2F"/>
</svg>
