<svg width="32" height="32" viewBox="0 0 32 32" fill="none" xmlns="http://www.w3.org/2000/svg">
<circle cx="16" cy="16" r="16" fill="white"/>
<path d="M15.6905 5.97256C15.6905 5.97256 16.0908 5.04944 16.9986 4.46319C17.4405 4.17881 18.2126 3.73912 18.3526 3.98631C18.4139 4.0935 18.2148 4.37131 18.0136 4.80225C17.9326 4.97944 17.7511 5.55694 17.7511 5.55694C17.7511 5.55694 18.5517 4.50912 19.9539 4.2335C21.0564 4.01475 22.2486 4.15694 22.3864 4.40194C22.5351 4.66662 21.7542 5.2485 21.5092 5.756C21.2642 6.2635 21.0783 6.911 21.0783 6.911C21.0783 6.911 22.5548 6.21319 22.9267 6.06444C23.3883 5.88069 24.3901 5.49569 24.528 5.66412C24.6658 5.83256 24.0861 6.81037 23.9592 6.98756C23.8061 7.20412 23.5742 7.60444 23.5742 7.60444C23.5742 7.60444 24.283 7.28069 24.5586 7.11225C24.8364 6.94381 25.4511 6.46475 25.5911 6.55881C25.7289 6.65069 25.7289 7.58694 25.637 7.99162C25.5145 8.52975 24.9436 9.116 24.9436 9.116C24.9436 9.116 25.7595 9.29975 26.2058 9.87069C26.652 10.4416 26.9123 10.8857 27.0983 11.4566C27.3761 12.3032 27.4986 13.4582 27.4373 13.6747C27.3761 13.8913 27.037 13.5982 26.4048 13.5522C26.0308 13.5238 25.9433 13.5216 25.9433 13.5216C25.9433 13.5216 26.2998 13.946 26.4661 14.3376C26.6826 14.8451 26.9189 15.6457 27.0501 15.9847C27.188 16.3391 27.2973 16.6169 27.4964 17.0172C27.5555 17.1354 27.0808 17.2491 26.6039 16.8007C26.4442 16.6519 26.2495 16.5076 26.2495 16.5076C26.2495 16.5076 26.5317 18.1854 26.512 19.3097C26.4967 20.141 26.3108 21.6504 26.0658 21.7882C25.8186 21.926 25.3264 20.8651 25.3264 20.8651C25.3264 20.8651 25.112 22.0726 24.8648 22.8819C24.5717 23.8357 24.2939 24.2819 24.1255 24.8529C23.9242 25.531 23.7251 26.0232 23.5873 25.8066C23.467 25.6207 23.3401 25.3297 23.2176 25.1132C23.1236 24.9491 22.9092 24.5116 22.9092 24.5116C22.9092 24.5116 22.6926 25.8197 21.647 26.6991C20.6014 27.5785 19.9233 28.2851 19.4289 28.3463C19.138 28.3835 19.4748 27.0688 19.4748 27.0688C19.4748 27.0688 17.843 28.3507 17.0576 28.9326C16.7033 29.1951 16.3795 30.0569 16.1345 29.9957C15.8873 29.9344 15.2573 28.9785 14.857 28.6876C14.4567 28.3966 13.702 28.0554 13.5948 27.9941C13.4876 27.9329 12.978 27.6091 12.978 27.6091C12.978 27.6091 13.1048 28.3244 12.9626 28.3944C12.6542 28.5476 11.4686 27.701 11.1295 27.1782C10.7905 26.6554 10.1911 25.5769 10.1911 25.5769C10.1911 25.5769 10.1145 26.6094 9.86733 26.4388C9.60483 26.2594 8.32733 25.3144 7.88108 24.6057C7.56608 24.1047 7.01921 22.696 7.01921 22.696C7.01921 22.696 6.54233 23.1882 6.40233 23.2494C6.26233 23.3107 5.91014 23.4507 5.97139 22.9104C6.03264 22.3722 5.61046 21.1516 5.54046 20.4166C5.44858 19.4629 5.63233 18.4763 5.63233 18.4763C5.63233 18.4763 4.84702 19.5241 4.47733 19.5088C4.10764 19.4935 4.32421 17.4766 4.41608 16.8597C4.50796 16.2429 4.81639 15.1666 4.93889 14.7816C5.06139 14.3966 5.52296 13.8279 5.52296 13.8279C5.52296 13.8279 4.38327 14.2129 4.21483 14.0597C4.04639 13.9066 4.30671 12.5351 4.46202 11.7038C4.54077 11.2772 4.87764 10.6101 5.30858 10.1179C5.73952 9.62569 6.40233 9.71756 6.46358 9.501C6.52483 9.28444 6.21858 9.11381 6.00202 8.76162C5.67827 8.23881 5.49452 7.16037 5.66296 6.97444C5.76796 6.86069 6.35639 7.3135 7.06514 7.39006C7.77389 7.46662 8.40389 7.42069 8.40389 7.42069C8.40389 7.42069 7.99483 6.93944 7.81983 6.5435C7.57264 5.99006 7.55733 5.32725 7.71264 5.15662C7.86796 4.986 8.40608 5.511 9.13014 5.69475C9.8542 5.8785 10.9326 5.896 10.9326 5.896C10.9326 5.896 10.4711 5.40381 10.3486 4.83287C10.2261 4.26412 10.2567 3.90975 10.4558 3.8485C10.657 3.78725 11.2433 4.33631 11.6567 4.46537C12.103 4.60319 13.6123 4.51131 14.2905 4.71256C14.9686 4.91381 15.6905 5.97256 15.6905 5.97256Z" fill="#865C50"/>
<path d="M20.5555 10.7784C20.5555 10.7784 23.2046 8.25401 24.7446 10.1309C26.5712 12.36 21.7258 14.8121 21.7258 14.8121L20.5555 10.7784ZM11.3177 11.4237C11.3177 11.4237 8.84803 8.1862 7.03241 9.94058C5.21678 11.695 8.97709 14.379 8.97709 14.379L11.3177 11.4237Z" fill="#FEC000"/>
<path d="M22.8338 12.9332C22.8338 12.9332 24.7741 11.5791 23.9735 10.715C23.1182 9.7941 21.541 11.3932 21.541 11.3932L22.8338 12.9332ZM10.1879 11.5025C10.1879 11.5025 8.58008 9.91004 7.74883 10.8944C7.00071 11.7803 9.13571 13.4822 9.13571 13.4822L10.1879 11.5025Z" fill="#FF8E06"/>
<path d="M16.1528 22.5711C16.1528 22.5711 17.7234 22.1402 18.7078 21.648C19.6921 21.1558 23.3584 19.093 23.634 16.5664C23.9118 14.042 23.634 13.3639 22.4637 11.8239C21.2934 10.2839 19.2415 9.92954 18.1828 10.1614C16.9206 10.4392 16.704 11.3602 16.1506 11.393C15.6278 11.4236 15.7809 10.8395 14.2715 10.2839C12.34 9.57298 7.05277 11.4761 7.98902 16.5664C8.48121 19.2461 12.3859 21.532 12.8846 21.8011C14.09 22.4486 16.1528 22.5711 16.1528 22.5711Z" fill="#FEC000"/>
<path d="M20.1463 14.1633C20.3353 13.6884 20.1108 13.1532 19.645 12.9678C19.1792 12.7824 18.6483 13.017 18.4594 13.4918C18.2704 13.9667 18.4948 14.5019 18.9606 14.6873C19.4265 14.8727 19.9573 14.6381 20.1463 14.1633Z" fill="#2E2F2F"/>
<path d="M13.0275 14.5917C13.5054 14.3974 13.7323 13.8452 13.5343 13.3584C13.3363 12.8716 12.7884 12.6345 12.3106 12.8288C11.8327 13.0231 11.6058 13.5753 11.8038 14.0621C12.0017 14.5489 12.5496 14.7861 13.0275 14.5917Z" fill="#2E2F2F"/>
<path d="M16.1105 15.4684C14.2424 15.4115 12.5996 17.5225 12.5996 21.0312C12.5996 24.4393 14.4065 25.24 15.8634 25.24C17.7118 25.24 19.4552 24.0281 19.2518 20.7228C19.0615 17.6647 18.1012 15.5297 16.1105 15.4684Z" fill="#FFD899"/>
<path d="M13.9339 17.3977C13.7502 17.5814 14.098 18.5877 14.4064 19.1018C14.7148 19.6158 15.5964 20.4558 16.0908 20.4361C16.583 20.4164 17.5083 19.3883 17.7948 18.6293C18.0814 17.8702 18.1645 17.3977 18.042 17.2118C17.9195 17.0258 16.4605 17.2533 15.907 17.2533C15.3536 17.2533 14.1198 17.2139 13.9339 17.3977Z" fill="#2E2F2F"/>
<path d="M16.05 19.7295C16.05 19.7295 15.2559 20.5936 14.9103 20.7248C14.4268 20.9086 13.6787 20.7511 13.6568 21.0486C13.6371 21.357 14.1184 21.6807 14.8884 21.5779C15.7393 21.4642 16.0587 20.9414 16.0587 20.9414C16.0587 20.9414 16.5421 21.6282 17.4762 21.6698C18.4103 21.7114 18.6268 21.1164 18.3687 21.0332C18.0187 20.9217 17.8 20.9436 17.2706 20.7773C16.8506 20.6417 16.05 19.7295 16.05 19.7295Z" fill="#2E2F2F"/>
</svg>
