<svg width="45" height="46" viewBox="0 0 45 46" fill="none" xmlns="http://www.w3.org/2000/svg">
<ellipse cx="22.7442" cy="22.9504" rx="22.2558" ry="22.4667" fill="white"/>
<path d="M22.4265 8.27705C22.4265 8.27705 22.9865 6.97342 24.2565 6.14552C24.8747 5.74392 25.9549 5.123 26.1508 5.47208C26.2364 5.62345 25.958 6.01577 25.6764 6.62434C25.5632 6.87456 25.3092 7.69011 25.3092 7.69011C25.3092 7.69011 26.4292 6.21039 28.3908 5.82115C29.9331 5.51224 31.6009 5.71303 31.7937 6.05902C32.0018 6.43281 30.9093 7.25453 30.5666 7.97122C30.2238 8.68791 29.9637 9.60231 29.9637 9.60231C29.9637 9.60231 32.0293 8.61686 32.5496 8.40679C33.1953 8.1473 34.5968 7.60361 34.7896 7.84148C34.9824 8.07934 34.1715 9.4602 33.994 9.71043C33.7798 10.0163 33.4554 10.5816 33.4554 10.5816C33.4554 10.5816 34.4469 10.1244 34.8325 9.88651C35.2211 9.64864 36.081 8.97211 36.2769 9.10495C36.4696 9.23469 36.4696 10.5569 36.3411 11.1284C36.1697 11.8883 35.371 12.7162 35.371 12.7162C35.371 12.7162 36.5125 12.9757 37.1368 13.782C37.761 14.5882 38.1252 15.2153 38.3853 16.0216C38.774 17.2171 38.9453 18.8482 38.8596 19.154C38.774 19.4599 38.2996 19.0459 37.4152 18.981C36.8919 18.9409 36.7695 18.9378 36.7695 18.9378C36.7695 18.9378 37.2684 19.5371 37.5009 20.0901C37.8039 20.8067 38.1344 21.9374 38.318 22.4162C38.5108 22.9167 38.6638 23.309 38.9423 23.8743C39.0249 24.0411 38.3608 24.2018 37.6937 23.5685C37.4703 23.3584 37.198 23.1545 37.198 23.1545C37.198 23.1545 37.5927 25.5239 37.5652 27.1118C37.5438 28.2856 37.2837 30.4172 36.9409 30.6118C36.5951 30.8064 35.9066 29.3082 35.9066 29.3082C35.9066 29.3082 35.6067 31.0134 35.2609 32.1564C34.8508 33.5033 34.4622 34.1335 34.2265 34.9397C33.945 35.8974 33.6665 36.5924 33.4737 36.2866C33.3054 36.024 33.1279 35.6132 32.9566 35.3073C32.825 35.0757 32.5251 34.4578 32.5251 34.4578C32.5251 34.4578 32.2221 36.3051 30.7594 37.547C29.2966 38.7888 28.348 39.7866 27.6564 39.8731C27.2494 39.9257 27.7206 38.0691 27.7206 38.0691C27.7206 38.0691 25.4377 39.8793 24.3391 40.701C23.8434 41.0717 23.3905 42.2889 23.0477 42.2024C22.7019 42.1159 21.8206 40.7659 21.2606 40.3551C20.7006 39.9442 19.6448 39.4623 19.4949 39.3758C19.3449 39.2893 18.6319 38.8321 18.6319 38.8321C18.6319 38.8321 18.8094 39.8423 18.6105 39.9411C18.179 40.1573 16.5204 38.9618 16.0461 38.2235C15.5717 37.4852 14.7333 35.9622 14.7333 35.9622C14.7333 35.9622 14.6262 37.4203 14.2804 37.1794C13.9131 36.9261 12.126 35.5915 11.5017 34.5907C11.0611 33.8832 10.296 31.8938 10.296 31.8938C10.296 31.8938 9.62889 32.5889 9.43304 32.6754C9.23719 32.7619 8.7445 32.9596 8.83019 32.1965C8.91587 31.4366 8.32526 29.7128 8.22734 28.6749C8.09881 27.328 8.35586 25.9348 8.35586 25.9348C8.35586 25.9348 7.25726 27.4145 6.74009 27.3929C6.22292 27.3712 6.52588 24.523 6.65441 23.6519C6.78294 22.7807 7.21442 21.2609 7.38579 20.7172C7.55716 20.1735 8.20285 19.3703 8.20285 19.3703C8.20285 19.3703 6.60851 19.914 6.37287 19.6977C6.13724 19.4815 6.5014 17.5446 6.71867 16.3707C6.82884 15.7683 7.3001 14.8261 7.90296 14.131C8.50581 13.436 9.43304 13.5657 9.51873 13.2599C9.60441 12.9541 9.17599 12.7131 8.87303 12.2157C8.42013 11.4774 8.16307 9.95447 8.3987 9.69189C8.54559 9.53125 9.36878 10.1707 10.3603 10.2788C11.3518 10.387 12.2331 10.3221 12.2331 10.3221C12.2331 10.3221 11.6608 9.64247 11.416 9.08332C11.0702 8.30176 11.0488 7.36574 11.2661 7.12479C11.4834 6.88383 12.2362 7.62523 13.2491 7.88472C14.262 8.14421 15.7707 8.16893 15.7707 8.16893C15.7707 8.16893 15.125 7.47386 14.9536 6.66759C14.7822 5.8644 14.8251 5.36396 15.1035 5.27746C15.3851 5.19096 16.2052 5.96635 16.7836 6.14861C17.4078 6.34322 19.5194 6.21348 20.468 6.49768C21.4167 6.78189 22.4265 8.27705 22.4265 8.27705Z" fill="#865C50"/>
<path d="M29.2323 15.0641C29.2323 15.0641 32.9382 11.4992 35.0925 14.1497C37.6478 17.2976 30.8695 20.7606 30.8695 20.7606L29.2323 15.0641ZM16.3092 15.9754C16.3092 15.9754 12.8543 11.4035 10.3143 13.881C7.77441 16.3585 13.0348 20.1489 13.0348 20.1489L16.3092 15.9754Z" fill="#FEC000"/>
<path d="M32.4209 18.1066C32.4209 18.1066 35.1353 16.1944 34.0153 14.9742C32.8187 13.6737 30.6124 15.9319 30.6124 15.9319L32.4209 18.1066ZM14.7301 16.0863C14.7301 16.0863 12.4809 13.8374 11.318 15.2275C10.2714 16.4786 13.2581 18.882 13.2581 18.882L14.7301 16.0863Z" fill="#FF8E06"/>
<path d="M23.0723 31.7179C23.0723 31.7179 25.2695 31.1093 26.6466 30.4142C28.0236 29.7192 33.1525 26.8061 33.5381 23.2381C33.9267 19.6732 33.5381 18.7155 31.9009 16.5408C30.2637 14.366 27.3932 13.8655 25.9121 14.193C24.1464 14.5853 23.8434 15.8858 23.0692 15.9322C22.3378 15.9754 22.5521 15.1506 20.4405 14.366C17.7384 13.362 10.342 16.0496 11.6517 23.2381C12.3403 27.0223 17.8027 30.2505 18.5004 30.6305C20.1865 31.5449 23.0723 31.7179 23.0723 31.7179Z" fill="#FEC000"/>
<path d="M28.659 19.8432C28.9234 19.1727 28.6094 18.4169 27.9577 18.155C27.3061 17.8932 26.5635 18.2245 26.2991 18.895C26.0347 19.5656 26.3487 20.3214 27.0004 20.5832C27.652 20.845 28.3946 20.5137 28.659 19.8432Z" fill="#2E2F2F"/>
<path d="M18.7019 20.4483C19.3704 20.1738 19.6878 19.394 19.4109 18.7065C19.1339 18.0191 18.3675 17.6842 17.699 17.9587C17.0305 18.2331 16.713 19.0129 16.99 19.7004C17.2669 20.3878 18.0334 20.7227 18.7019 20.4483Z" fill="#2E2F2F"/>
<path d="M23.014 21.6871C20.4006 21.6068 18.1024 24.5879 18.1024 29.5429C18.1024 34.3558 20.6301 35.4865 22.6682 35.4865C25.254 35.4865 27.693 33.7751 27.4084 29.1073C27.1422 24.7887 25.7987 21.7736 23.014 21.6871Z" fill="#FFD899"/>
<path d="M19.9693 24.4119C19.7123 24.6714 20.1988 26.0924 20.6303 26.8184C21.0618 27.5444 22.295 28.7306 22.9866 28.7028C23.6752 28.675 24.9696 27.2231 25.3705 26.1511C25.7714 25.0792 25.8877 24.4119 25.7163 24.1494C25.5449 23.8868 23.5038 24.2081 22.7296 24.2081C21.9554 24.2081 20.2294 24.1524 19.9693 24.4119Z" fill="#2E2F2F"/>
<path d="M22.9285 27.7048C22.9285 27.7048 21.8176 28.9251 21.3341 29.1104C20.6578 29.3699 19.6112 29.1475 19.5806 29.5676C19.5531 30.0032 20.2263 30.4604 21.3035 30.3152C22.4939 30.1545 22.9407 29.4162 22.9407 29.4162C22.9407 29.4162 23.617 30.3862 24.9237 30.4449C26.2304 30.5036 26.5334 29.6634 26.1723 29.546C25.6826 29.3884 25.3766 29.4193 24.636 29.1845C24.0485 28.993 22.9285 27.7048 22.9285 27.7048Z" fill="#2E2F2F"/>
</svg>
