<svg width="262" height="250" viewBox="0 0 262 250" fill="none" xmlns="http://www.w3.org/2000/svg">
<path d="M172.862 75.6141L174.039 26.2949C174.083 24.5514 175.063 23.0476 176.524 22.5681C179.531 21.5874 185.328 20.2798 193.959 20.8682C200.366 21.3041 204.267 22.5463 206.403 23.5053C207.754 24.1155 208.604 25.6628 208.56 27.341L207.384 76.7256L172.862 75.6141Z" fill="#356477"/>
<path d="M206.404 23.5053C204.268 22.5463 200.367 21.3259 193.959 20.8682C185.329 20.2798 179.532 21.5874 176.524 22.5681C175.086 23.0476 174.084 24.5514 174.04 26.2949L173.735 39.0442C173.931 38.957 174.105 38.8263 174.302 38.7609C177.592 37.7802 183.934 36.4943 193.415 37.1263C200.454 37.584 204.726 38.8263 207.079 39.807C207.515 39.9813 207.886 40.2646 208.234 40.5915L208.539 27.3192C208.583 25.6628 207.755 24.0937 206.404 23.5053Z" fill="#F44336"/>
<path d="M104.061 63.1919L105.412 5.28594C105.456 3.62962 106.611 2.21303 108.289 1.75536C111.754 0.81823 118.488 -0.424012 128.492 0.142625C135.923 0.556706 140.435 1.73357 142.941 2.6489C144.51 3.21554 145.491 4.69751 145.447 6.28846L144.074 64.2598L104.061 63.1919Z" fill="#356477"/>
<path d="M142.941 2.6489C140.456 1.73357 135.945 0.578499 128.491 0.142625C118.466 -0.424012 111.754 0.81823 108.289 1.75536C106.611 2.21303 105.456 3.62962 105.412 5.28594L105.063 17.3815C105.281 17.2943 105.477 17.1635 105.739 17.1199C109.553 16.1828 116.919 14.9624 127.903 15.5726C136.076 16.0085 141.023 17.1853 143.747 18.1007C144.248 18.275 144.684 18.5365 145.077 18.8416L145.447 6.26666C145.491 4.69751 144.51 3.21554 142.941 2.6489Z" fill="#F44336"/>
<path d="M179.206 37.6713C182.148 37.1918 185.984 36.8649 190.669 37.0175V20.7376C185.744 20.6504 181.93 21.1952 179.206 21.8272V37.6713ZM111.689 16.0519C114.718 15.6596 118.554 15.3981 123.152 15.4417V0.0117188C118.358 0.0335125 114.522 0.469387 111.689 0.992436V16.0519Z" fill="#FF7555"/>
<path d="M110.162 139.644L109.247 157.951L33.7314 154.529L34.2981 139.644C34.2981 139.644 51.2536 114.712 51.2536 63.4531L122.214 59.2251C122.214 59.2251 125.592 66.4606 123.064 87.971C118.836 124.432 110.162 139.644 110.162 139.644Z" fill="#EEEEEE"/>
<path d="M122.454 76.7692L50.7527 78.5127C50.5347 81.542 50.2732 84.4624 49.9681 87.252L122.062 86.0097L122.454 76.7692ZM121.43 103.554L47.3528 103.772C46.699 106.888 46.0016 109.808 45.2824 112.511H119.577L121.43 103.554ZM111.535 129.532L39.5289 129.379C37.7418 133.564 36.1945 136.462 35.2573 138.075L106.566 138.227C106.588 138.227 110.446 132.409 111.535 129.532Z" fill="#82AEC0"/>
<path d="M106.304 139.753L249.554 156.425L251.995 129.009L227.717 125.957L232.119 77.5972L122.497 59.7263C123.325 113.252 110.183 133.411 106.304 138.249V139.753Z" fill="#82AEC0"/>
<path d="M230.791 92.0029L122.259 76.7037C122.259 76.7037 121.823 83.6777 121.583 86.075L230.007 100.72L230.791 92.0029ZM227.697 125.958L228.481 117.349L119.36 103.575C118.772 106.627 118.183 109.83 117.508 112.467L227.697 125.958ZM111.536 129.532C109.553 133.324 107.286 136.767 106.262 138.249L106.24 138.576L249.73 154.311L250.493 145.616L111.536 129.532Z" fill="#365666"/>
<path d="M222.379 99.6742L223.381 90.9567L219.066 90.3465L218.064 99.0858L208.692 97.8217L209.717 89.0171L205.401 88.4068L204.377 97.2333L195.006 95.9693L196.03 87.0992L191.715 86.489L190.691 95.3808L181.319 94.1168L182.344 85.1596L178.028 84.5494L176.982 93.5284L167.611 92.2643L168.657 83.2417L164.342 82.6315L163.296 91.6977L153.925 90.4337L154.971 81.3239L150.656 80.7137L149.609 89.8452L140.238 88.5812L141.306 79.3842L136.991 78.774L135.923 87.9928L121.43 86.0313C121.43 86.0313 121.256 87.9492 121.212 89.126C121.169 90.3029 120.994 92.5694 120.994 92.5694L229.418 107.128L230.007 100.677L222.379 99.6742ZM231.663 82.4354L122.171 65.785L122.215 59.2032L232.273 75.8537L231.663 82.4354ZM220.134 125.02L221.049 116.434L216.734 115.889L215.819 124.475L206.447 123.32L207.363 114.712L203.048 114.167L202.132 122.776L192.761 121.62L193.676 112.99L189.361 112.445L188.446 121.076L179.075 119.921L179.99 111.268L175.675 110.724L174.759 119.376L165.388 118.221L166.303 109.569L161.988 109.024L161.073 117.698L151.702 116.543L152.617 107.869L148.302 107.324L147.386 115.998L138.015 114.843L138.93 106.147L134.528 105.624L133.591 114.32L117.529 112.467C117.529 112.467 117.093 113.993 115.764 118.678L251.408 135.547L252.018 128.965L220.134 125.02ZM240.315 153.134L241.23 144.548L236.915 144.046L235.978 152.655L225.887 151.478L226.803 142.869L222.488 142.368L221.551 150.977L211.46 149.822L212.397 141.213L208.06 140.712L207.123 149.32L197.033 148.165L197.97 139.535L193.633 139.034L192.696 147.664L182.605 146.509L183.542 137.857L179.205 137.356L178.268 146.008L168.178 144.853L169.115 136.201L164.778 135.699L163.841 144.351L153.75 143.175L154.687 134.522L150.35 134.021L149.413 142.695L139.323 141.518L140.26 132.844L135.923 132.343L134.986 141.017L124.895 139.862L125.832 131.188L121.496 130.665L120.558 139.361L106.218 138.227L104.802 159.563L248.03 174.209L249.752 154.246L240.315 153.134Z" fill="#EEEEEE"/>
<path d="M5.15977 151.304C5.15977 151.304 0.539498 151.086 0.953579 155.641C0.953579 155.641 -4.47306 191.818 10.5646 216.663C25.0139 240.505 44.9987 249.463 53.9124 249.463H229.265C240.205 249.463 251.56 241.225 255.483 228.998C258.555 219.387 261.28 184.648 261.846 174.056C261.934 172.356 260.648 170.896 258.948 170.765C258.948 170.765 100.137 151.064 5.15977 151.304Z" fill="#356477"/>
<path d="M260.866 188.309C260.866 188.309 95.1897 176.998 0.169076 177.783L0.125488 165.491C95.6256 164.685 259.602 182.556 261.28 182.686L260.866 188.309Z" fill="#F44336"/>
<path d="M33.9924 149.931L33.8398 151.74C112.886 154.028 215.294 165.622 248.443 169.523L248.813 165.165C224.797 162.353 164.537 155.684 103.231 151.304C79.6503 149.626 33.9924 149.931 33.9924 149.931Z" fill="#82AEC0"/>
</svg>
