<svg width="143" height="144" viewBox="0 0 143 144" fill="none" xmlns="http://www.w3.org/2000/svg">
<ellipse cx="71.3239" cy="72" rx="71.3239" ry="72" fill="white"/>
<path d="M70.3064 24.9757C70.3064 24.9757 72.1011 20.7979 76.171 18.1447C78.152 16.8577 81.6139 14.8678 82.2416 15.9865C82.5162 16.4716 81.6237 17.7289 80.7215 19.6792C80.3586 20.4811 79.5446 23.0947 79.5446 23.0947C79.5446 23.0947 83.134 18.3526 89.4203 17.1052C94.3631 16.1152 99.7079 16.7587 100.326 17.8675C100.993 19.0654 97.4915 21.6988 96.3931 23.9956C95.2947 26.2924 94.4611 29.2228 94.4611 29.2228C94.4611 29.2228 101.081 26.0647 102.748 25.3915C104.817 24.5599 109.309 22.8175 109.927 23.5798C110.545 24.3421 107.946 28.7674 107.377 29.5693C106.691 30.5494 105.651 32.3611 105.651 32.3611C105.651 32.3611 108.828 30.8959 110.064 30.1336C111.31 29.3713 114.065 27.2032 114.693 27.6289C115.311 28.0447 115.311 32.2819 114.899 34.1134C114.35 36.5488 111.79 39.202 111.79 39.202C111.79 39.202 115.448 40.0336 117.449 42.6175C119.449 45.2014 120.617 47.2111 121.45 49.795C122.696 53.6263 123.245 58.8535 122.97 59.8336C122.696 60.8137 121.176 59.4871 118.341 59.2792C116.664 59.1505 116.272 59.1406 116.272 59.1406C116.272 59.1406 117.871 61.0612 118.616 62.8333C119.587 65.1301 120.646 68.7535 121.234 70.288C121.852 71.8918 122.343 73.1491 123.235 74.9608C123.5 75.4954 121.372 76.0102 119.234 73.9807C118.518 73.3075 117.645 72.6541 117.645 72.6541C117.645 72.6541 118.91 80.2474 118.822 85.336C118.753 89.098 117.92 95.929 116.821 96.5527C115.713 97.1764 113.506 92.3749 113.506 92.3749C113.506 92.3749 112.545 97.8397 111.437 101.503C110.123 105.819 108.877 107.839 108.122 110.423C107.22 113.492 106.328 115.719 105.71 114.739C105.17 113.898 104.602 112.581 104.052 111.601C103.631 110.858 102.67 108.878 102.67 108.878C102.67 108.878 101.699 114.798 97.011 118.778C92.3232 122.758 89.283 125.956 87.0666 126.233C85.7623 126.401 87.2726 120.451 87.2726 120.451C87.2726 120.451 79.9565 126.253 76.4358 128.886C74.847 130.074 73.3956 133.975 72.2972 133.698C71.189 133.42 68.3646 129.094 66.5699 127.777C64.7752 126.461 61.3918 124.916 60.9112 124.639C60.4307 124.362 58.1457 122.897 58.1457 122.897C58.1457 122.897 58.7145 126.134 58.077 126.451C56.6942 127.144 51.3788 123.312 49.8587 120.946C48.3386 118.58 45.6515 113.7 45.6515 113.7C45.6515 113.7 45.3082 118.372 44.2 117.6C43.0232 116.788 37.2959 112.512 35.2952 109.304C33.883 107.037 31.4313 100.661 31.4313 100.661C31.4313 100.661 29.2933 102.889 28.6657 103.166C28.038 103.443 26.4591 104.077 26.7337 101.631C27.0083 99.196 25.1155 93.6718 24.8017 90.3454C24.3898 86.029 25.2136 81.5641 25.2136 81.5641C25.2136 81.5641 21.6929 86.3062 20.0355 86.2369C18.3781 86.1676 19.349 77.0398 19.7609 74.248C20.1728 71.4562 21.5556 66.5854 22.1048 64.843C22.654 63.1006 24.7233 60.5266 24.7233 60.5266C24.7233 60.5266 19.6138 62.269 18.8586 61.576C18.1035 60.883 19.2705 54.6757 19.9668 50.9137C20.3199 48.9832 21.8302 45.9637 23.7622 43.7362C25.6942 41.5087 28.6657 41.9245 28.9403 40.9444C29.2149 39.9643 27.8419 39.1921 26.871 37.5982C25.4196 35.2321 24.5958 30.3514 25.3509 29.5099C25.8216 28.9951 28.4597 31.0444 31.6372 31.3909C34.8147 31.7374 37.6391 31.5295 37.6391 31.5295C37.6391 31.5295 35.8052 29.3515 35.0206 27.5596C33.9125 25.0549 33.8438 22.0552 34.5401 21.283C35.2364 20.5108 37.6489 22.8868 40.8951 23.7184C44.1412 24.55 48.9761 24.6292 48.9761 24.6292C48.9761 24.6292 46.9068 22.4017 46.3576 19.8178C45.8084 17.2438 45.9457 15.64 46.8381 15.3628C47.7404 15.0856 50.3687 17.5705 52.2222 18.1546C54.2228 18.7783 60.9897 18.3625 64.0299 19.2733C67.0701 20.1841 70.3064 24.9757 70.3064 24.9757Z" fill="#865C50"/>
<path d="M92.1174 46.7264C92.1174 46.7264 103.994 35.3018 110.898 43.796C119.087 53.8841 97.3642 64.982 97.3642 64.982L92.1174 46.7264ZM50.7023 49.6469C50.7023 49.6469 39.6301 34.9949 31.4903 42.9347C23.3505 50.8745 40.2088 63.0218 40.2088 63.0218L50.7023 49.6469Z" fill="#FEC000"/>
<path d="M102.336 56.4772C102.336 56.4772 111.035 50.3491 107.446 46.4386C103.611 42.2707 96.5401 49.5076 96.5401 49.5076L102.336 56.4772ZM45.6415 50.0026C45.6415 50.0026 38.4333 42.7954 34.7067 47.2504C31.3527 51.2599 40.9243 58.9621 40.9243 58.9621L45.6415 50.0026Z" fill="#FF8E06"/>
<path d="M72.3753 100.098C72.3753 100.098 79.4167 98.1472 83.8299 95.9197C88.2431 93.6922 104.68 84.3565 105.915 72.922C107.161 61.4974 105.915 58.4284 100.669 51.4588C95.4219 44.4892 86.2228 42.8854 81.4762 43.9348C75.8176 45.1921 74.8467 49.36 72.3655 49.5085C70.0216 49.6471 70.7081 47.0038 63.9412 44.4892C55.2816 41.2717 31.578 49.8847 35.7754 72.922C37.982 85.0495 55.4876 95.395 57.7236 96.6127C63.1273 99.5431 72.3753 100.098 72.3753 100.098Z" fill="#FEC000"/>
<path d="M90.2795 62.0423C91.1267 59.8934 90.1206 57.4712 88.0321 56.6321C85.9437 55.7931 83.5639 56.8548 82.7167 59.0037C81.8694 61.1525 82.8756 63.5747 84.964 64.4138C87.0525 65.2529 89.4323 64.1912 90.2795 62.0423Z" fill="#2E2F2F"/>
<path d="M58.3699 63.9815C60.5122 63.102 61.5295 60.603 60.6419 58.3998C59.7543 56.1966 57.2981 55.1235 55.1557 56.003C53.0133 56.8825 51.9961 59.3815 52.8837 61.5847C53.7712 63.7879 56.2275 64.861 58.3699 63.9815Z" fill="#2E2F2F"/>
<path d="M72.1893 67.9516C63.8141 67.6942 56.449 77.2477 56.449 93.1273C56.449 108.552 64.5496 112.175 71.0811 112.175C79.368 112.175 87.1842 106.69 86.2722 91.7314C85.419 77.8912 81.1137 68.2288 72.1893 67.9516Z" fill="#FFD899"/>
<path d="M62.4312 76.6835C61.6074 77.5151 63.1667 82.0691 64.5495 84.3956C65.9323 86.7221 69.8846 90.5237 72.101 90.4346C74.3075 90.3455 78.4559 85.6925 79.7406 82.2572C81.0254 78.8219 81.398 76.6835 80.8488 75.842C80.2996 75.0005 73.7584 76.0301 71.2772 76.0301C68.796 76.0301 63.2648 75.8519 62.4312 76.6835Z" fill="#2E2F2F"/>
<path d="M71.9149 87.2366C71.9149 87.2366 68.3549 91.1471 66.8054 91.7411C64.638 92.5727 61.284 91.8599 61.186 93.2063C61.0977 94.6022 63.2552 96.0674 66.7073 95.6021C70.5223 95.0873 71.9541 92.7212 71.9541 92.7212C71.9541 92.7212 74.1214 95.8298 78.3091 96.0179C82.4967 96.206 83.4676 93.5132 82.3103 93.137C80.7412 92.6321 79.7605 92.7311 77.3872 91.9787C75.5042 91.3649 71.9149 87.2366 71.9149 87.2366Z" fill="#2E2F2F"/>
</svg>
