<svg width="229" height="264" viewBox="0 0 229 264" fill="none" xmlns="http://www.w3.org/2000/svg">
<path d="M114.703 201.826C58.6 201.98 0.407227 217.947 0.407227 256.94V263.626H229V256.94C229 217.925 170.807 201.958 114.703 201.826Z" fill="url(#paint0_radial_544_10522)"/>
<path d="M191.394 166.462C188.645 161.47 192.142 156.389 198.124 150.1C207.603 140.115 217.917 116.957 208.328 93.4463C208.394 93.3143 206.437 89.3556 206.503 89.2237L202.566 89.0258C201.313 88.8498 158.009 88.7618 114.661 88.7618C71.3137 88.7618 28.01 88.8498 26.7564 89.0258C26.7564 89.0258 20.9283 93.3143 20.9723 93.4463C11.4055 116.957 21.6981 140.093 31.177 150.1C37.137 156.389 40.6338 161.47 37.9067 166.462C35.2456 171.323 27.3282 172.026 27.3282 172.026C27.3282 172.026 29.1536 176.997 33.5522 179.68C37.6208 182.165 42.6352 182.737 46.088 182.825C46.088 182.825 59.6136 201.541 94.9779 201.541H134.345C169.709 201.541 183.235 182.825 183.235 182.825C186.688 182.737 191.702 182.165 195.771 179.68C200.169 176.997 201.995 172.026 201.995 172.026C201.995 172.026 194.055 171.323 191.394 166.462Z" fill="#AB872F"/>
<path d="M114.616 201.519V180.757L177.449 175.787L183.168 182.825C183.168 182.825 169.642 201.541 134.278 201.541L114.616 201.519Z" fill="url(#paint1_radial_544_10522)"/>
<path d="M183.036 173.742C173.623 159.446 194.494 154.102 194.494 154.102L194.516 154.124C190.887 158.633 189.238 162.569 191.371 166.462C194.032 171.322 201.95 172.026 201.95 172.026C201.95 172.026 191.151 181.615 183.036 173.742Z" fill="url(#paint2_radial_544_10522)"/>
<path d="M208.371 93.4462C217.717 116.209 207.887 139.653 198.672 149.55C197.418 150.913 192.052 156.169 190.82 160.37C190.82 160.37 169.839 131.098 163.571 113.899C162.318 110.425 161.152 106.862 160.998 103.167C160.888 100.396 161.306 97.097 162.912 94.7438C164.869 91.8627 207.249 91.005 207.249 91.005C207.249 91.027 208.371 93.4462 208.371 93.4462Z" fill="url(#paint3_radial_544_10522)"/>
<path d="M20.9483 93.4461C11.6234 116.209 21.4542 139.653 30.6471 149.528C31.9227 150.891 37.2669 156.147 38.4985 160.348C38.4985 160.348 59.4796 131.076 65.7475 113.877C67.0231 110.402 68.1667 106.84 68.3207 103.145C68.4306 100.374 68.0128 97.0749 66.4073 94.7217C64.4499 91.8406 62.1627 92.6104 58.8418 92.6104C52.5079 92.6104 24.7751 90.9829 22.6198 90.9829C22.6418 91.0269 20.9483 93.4461 20.9483 93.4461Z" fill="url(#paint4_radial_544_10522)"/>
<path d="M114.705 201.519V180.757L51.8719 175.787L46.1538 182.825C46.1538 182.825 59.6793 201.541 95.0436 201.541L114.705 201.519Z" fill="url(#paint5_radial_544_10522)"/>
<path d="M46.2851 173.742C55.698 159.446 34.8269 154.102 34.8269 154.102L34.8049 154.124C38.4337 158.633 40.0831 162.569 37.9498 166.462C35.2887 171.322 27.3713 172.026 27.3713 172.026C27.3713 172.026 38.1698 181.615 46.2851 173.742Z" fill="url(#paint6_radial_544_10522)"/>
<path d="M94.6687 188.961V235.057C94.6687 246.626 102.806 256.017 112.835 256.017H116.464C126.492 256.017 134.629 246.648 134.629 235.057V188.961H94.6687Z" fill="#C48E6A"/>
<path d="M89.6992 215.176L98.1664 263.56H132.013L139.579 215.176H89.6992Z" fill="#81D4FA"/>
<path d="M134.696 202.354C147.716 203.3 153.808 204.421 153.808 204.421L160.691 220.476L149.145 230.131L155.369 243.7L143.097 263.472H127.988L134.696 202.354Z" fill="url(#paint7_linear_544_10522)"/>
<path d="M94.646 202.354C81.6263 203.3 75.5344 204.421 75.5344 204.421L68.6506 220.476L80.1968 230.131L73.9729 243.7L86.2448 263.472H101.354L94.646 202.354Z" fill="url(#paint8_linear_544_10522)"/>
<path d="M46.3306 220.3C49.7834 218.497 53.8081 215.858 55.6775 214.23C59.9001 210.557 69.9068 201.101 77.3623 207.764C85.4116 214.824 77.1424 225.952 73.9534 230.571C72.37 232.88 71.1604 235.431 70.1707 238.026" stroke="#03A9F4" stroke-width="3" stroke-miterlimit="10"/>
<path d="M39.4014 235.739C38.3238 235.915 37.1581 236.377 36.0145 235.277C35.2668 234.552 34.3211 232.484 34.585 230.703C34.8489 228.9 36.8502 228.152 41.1168 226.326C44.4377 224.919 47.4947 223.489 50.2658 221.62L46.1312 216.474C46.1312 216.474 41.3587 219.157 38.7636 220.168C34.1671 221.928 28.9329 223.929 28.0751 229.735C27.1514 235.981 30.5823 240.424 33.2214 242.425C35.3767 244.075 37.444 244.866 39.4454 244.998C42.5464 245.196 44.6137 243.173 44.6137 240.05C44.6137 236.927 41.5567 235.387 39.4014 235.739Z" fill="url(#paint9_linear_544_10522)"/>
<path d="M55.3249 247.703C55.3029 248.803 55.017 250.013 56.2706 250.98C57.1063 251.618 59.2836 252.256 60.9991 251.75C62.7365 251.222 63.1983 249.155 64.3859 244.668C65.3096 241.193 66.2773 237.939 67.7288 234.926L73.403 238.268C73.403 238.268 71.4236 243.371 70.8078 246.098C69.7302 250.914 68.4986 256.368 62.8684 258.04C56.8204 259.865 51.9161 257.072 49.5628 254.763C47.6275 252.85 46.5498 250.936 46.132 248.957C45.4942 245.922 47.2096 243.569 50.2886 243.129C53.3676 242.689 55.3689 245.504 55.3249 247.703Z" fill="url(#paint10_linear_544_10522)"/>
<path d="M95.0651 197.032C84.8824 197.23 77.6248 202.421 74.8538 205.631L79.8461 209.942C79.9121 209.876 85.2343 203.916 95.0651 203.652V197.032ZM163.594 216.232C158.25 204.202 149.981 199.627 145.538 197.978C141.47 196.461 137.511 195.845 134.608 195.603V202.223C136.983 202.443 140.084 202.97 143.251 204.158C146.726 205.456 153.214 209.084 157.568 218.915C163.682 232.683 165.222 236.267 165.244 236.267L171.292 233.65C171.292 233.65 169.752 230.087 163.594 216.232Z" fill="#03A9F4"/>
<path d="M172.26 257.094C180.762 257.094 187.655 250.201 187.655 241.699C187.655 233.197 180.762 226.304 172.26 226.304C163.758 226.304 156.865 233.197 156.865 241.699C156.865 250.201 163.758 257.094 172.26 257.094Z" fill="url(#paint11_linear_544_10522)"/>
<path d="M172.26 250.496C177.119 250.496 181.057 246.558 181.057 241.699C181.057 236.841 177.119 232.902 172.26 232.902C167.402 232.902 163.463 236.841 163.463 241.699C163.463 246.558 167.402 250.496 172.26 250.496Z" fill="#9E9E9E"/>
<path d="M174.745 101.759H54.5325C41.5788 101.759 30.9783 113.064 30.9783 126.853C30.9783 140.642 41.5788 151.947 54.5325 151.947H174.723C187.676 151.947 198.277 140.642 198.277 126.853C198.277 113.064 187.698 101.759 174.745 101.759Z" fill="#C48E6A"/>
<path d="M114.639 15.1959C76.3715 15.1959 40.9192 56.1244 40.9192 115.043C40.9192 173.632 77.4491 202.596 114.639 202.596C151.829 202.596 188.358 173.61 188.358 115.021C188.358 56.1244 152.906 15.1959 114.639 15.1959Z" fill="#E0BB95"/>
<path d="M94.4053 100.418C92.36 97.7128 87.6536 93.7981 78.5046 93.7981C69.3556 93.7981 64.6272 97.7348 62.6039 100.418C61.7022 101.606 61.9221 102.991 62.5599 103.827C63.1317 104.597 64.8471 105.322 66.7385 104.684C68.6299 104.047 72.3246 102.133 78.5046 102.089C84.6846 102.133 88.3793 104.047 90.2707 104.684C92.1621 105.322 93.8775 104.619 94.4493 103.827C95.0651 102.991 95.307 101.606 94.4053 100.418ZM166.695 100.418C164.65 97.7128 159.944 93.7981 150.795 93.7981C141.646 93.7981 136.917 97.7348 134.894 100.418C133.992 101.606 134.212 102.991 134.85 103.827C135.422 104.597 137.137 105.322 139.029 104.684C140.92 104.047 144.615 102.133 150.795 102.089C156.975 102.133 160.669 104.047 162.561 104.684C164.452 105.322 166.168 104.619 166.739 103.827C167.355 102.991 167.597 101.606 166.695 100.418Z" fill="#AB872F"/>
<path d="M78.4818 131.406C84.4699 131.406 89.3242 126.384 89.3242 120.19C89.3242 113.995 84.4699 108.973 78.4818 108.973C72.4937 108.973 67.6394 113.995 67.6394 120.19C67.6394 126.384 72.4937 131.406 78.4818 131.406Z" fill="#5D4037"/>
<path d="M150.793 131.406C156.781 131.406 161.635 126.384 161.635 120.19C161.635 113.995 156.781 108.973 150.793 108.973C144.805 108.973 139.95 113.995 139.95 120.19C139.95 126.384 144.805 131.406 150.793 131.406Z" fill="#5D4037"/>
<path d="M133.156 158.303C126.162 162.459 103.18 162.459 96.1863 158.303C92.1616 155.905 88.0489 159.578 89.7204 163.229C91.3698 166.814 103.884 175.149 114.726 175.149C125.569 175.149 137.928 166.814 139.578 163.229C141.227 159.578 137.181 155.905 133.156 158.303Z" fill="#6D4C41"/>
<path d="M123.127 140.532C122.885 140.444 122.666 140.378 122.424 140.356H106.853C106.611 140.378 106.369 140.444 106.149 140.532C104.741 141.104 103.972 142.556 104.632 144.117C105.291 145.679 108.392 150.033 114.638 150.033C120.884 150.033 123.985 145.657 124.645 144.117C125.305 142.556 124.535 141.104 123.127 140.532Z" fill="#C48E6A"/>
<path d="M202.764 46.0738C197.398 37.9585 185.367 27.0721 174.569 26.3464C172.832 15.9658 161.725 7.16871 150.971 3.75983C121.874 -5.45512 102.939 4.88146 92.7781 10.4236C90.6668 11.5673 77.0093 19.1547 67.4645 13.7225C61.4824 10.3137 61.5924 1.09871 61.5924 1.09871C61.5924 1.09871 42.8546 8.24635 49.2545 28.1498C42.8106 28.4137 34.3654 31.1408 29.9009 40.1798C24.5786 50.9562 26.47 59.9513 28.0095 64.2618C22.4673 68.9683 15.4957 78.975 20.2681 91.9727C23.8749 101.759 38.2361 106.268 38.2361 106.268C37.2245 123.884 40.5014 134.727 42.2388 139.103C42.5467 139.873 43.6243 139.807 43.8223 139.015C45.9996 130.284 53.4331 99.8681 52.6854 94.5678C52.6854 94.5678 77.6471 89.6194 101.443 72.0912C106.282 68.5284 111.538 65.4934 117.124 63.2722C147.012 51.3741 153.258 71.6734 153.258 71.6734C153.258 71.6734 173.975 67.6927 180.221 96.4592C182.574 107.236 184.158 124.5 185.499 136.574C185.587 137.432 186.753 137.608 187.083 136.816C189.172 132.021 193.351 122.521 194.341 112.822C194.692 109.413 203.885 104.904 207.844 90.2572C213.144 70.7277 206.656 51.9459 202.764 46.0738Z" fill="#AB872F"/>
<path d="M194.295 112.91C194.647 109.501 203.84 104.992 207.799 90.3453C208.217 88.7838 208.569 87.2004 208.898 85.6169C212.109 67.8248 206.347 51.4842 202.762 46.074C197.792 38.5744 187.148 28.7217 177.053 26.6984C176.173 26.5884 175.316 26.4784 174.502 26.4344C174.502 26.4344 175.228 31.1629 173.314 34.9236C170.851 39.806 165.815 40.9716 165.815 40.9716C192.14 67.3189 190.271 89.3557 194.295 112.91Z" fill="url(#paint12_radial_544_10522)"/>
<path d="M99.1332 7.10273C96.714 8.26834 94.6027 9.43396 92.7553 10.4236C90.644 11.5673 76.9865 19.1547 67.4417 13.7225C61.5696 10.3796 61.5696 1.4506 61.5696 1.1427C58.8645 4.59556 50.6832 29.2494 74.6113 30.8989C84.9259 31.6026 91.2818 22.6076 95.0645 14.9981C96.4281 12.227 98.5614 8.18037 99.1332 7.10273Z" fill="url(#paint13_radial_544_10522)"/>
<path d="M147.98 2.88039C164.079 7.23495 171.93 15.4382 174.547 26.3686C175.317 29.5796 176.241 59.5337 119.06 25.4889C97.7928 12.8211 103.599 4.90372 106.084 4.00202C115.805 0.483183 129.946 -2.002 147.98 2.88039Z" fill="url(#paint14_radial_544_10522)"/>
<path d="M61.5041 1.1425C61.4821 1.16449 61.4381 1.16449 61.3721 1.20847H61.3501C59.3048 2.06619 43.2281 9.52172 49.2321 28.1496L66.3425 30.8987C51.1895 15.5477 61.57 1.09851 61.57 1.09851C61.57 1.09851 61.5261 1.1205 61.5041 1.1425Z" fill="url(#paint15_radial_544_10522)"/>
<path d="M59.8102 29.8435L49.2317 28.15C48.8138 28.15 47.4063 28.282 46.6365 28.3919C40.6765 29.2277 33.6608 32.3067 29.8561 40.1801C25.7654 48.6692 25.8754 55.9488 26.997 60.8092C27.3269 62.4367 27.9867 64.2841 27.9867 64.2841C27.9867 64.2841 33.221 59.3137 45.6908 58.9838L59.8102 29.8435Z" fill="url(#paint16_radial_544_10522)"/>
<path d="M27.4817 64.7007C22.2695 69.3191 15.2538 79.6337 20.4221 92.4335C24.3148 102.088 38.2142 106.267 38.2142 106.267C38.2142 106.311 40.9853 107.147 42.4148 107.147L45.6697 58.9825C39.0059 58.9825 32.606 60.9839 28.4714 63.8649C28.5374 63.9309 27.4597 64.6347 27.4817 64.7007Z" fill="url(#paint17_radial_544_10522)"/>
<defs>
<radialGradient id="paint0_radial_544_10522" cx="0" cy="0" r="1" gradientUnits="userSpaceOnUse" gradientTransform="translate(114.954 262.541) rotate(179.761) scale(164.979 89.257)">
<stop offset="0.559" stop-color="#F5F5F5"/>
<stop offset="1" stop-color="#C6C6C6"/>
</radialGradient>
<radialGradient id="paint1_radial_544_10522" cx="0" cy="0" r="1" gradientUnits="userSpaceOnUse" gradientTransform="translate(146.71 171.522) scale(51.5048 25.2992)">
<stop offset="0.728" stop-color="#BFA055" stop-opacity="0"/>
<stop offset="1" stop-color="#BFA055"/>
</radialGradient>
<radialGradient id="paint2_radial_544_10522" cx="0" cy="0" r="1" gradientUnits="userSpaceOnUse" gradientTransform="translate(197.443 163.857) rotate(154.924) scale(15.2204 11.2914)">
<stop offset="0.663" stop-color="#BFA055"/>
<stop offset="1" stop-color="#BFA055" stop-opacity="0"/>
</radialGradient>
<radialGradient id="paint3_radial_544_10522" cx="0" cy="0" r="1" gradientUnits="userSpaceOnUse" gradientTransform="translate(157.996 120.808) rotate(-94.2783) scale(66.8548 55.7192)">
<stop offset="0.725" stop-color="#BFA055" stop-opacity="0"/>
<stop offset="1" stop-color="#BFA055"/>
</radialGradient>
<radialGradient id="paint4_radial_544_10522" cx="0" cy="0" r="1" gradientUnits="userSpaceOnUse" gradientTransform="translate(71.3302 120.807) rotate(-85.7217) scale(66.8548 55.7192)">
<stop offset="0.725" stop-color="#BFA055" stop-opacity="0"/>
<stop offset="1" stop-color="#BFA055"/>
</radialGradient>
<radialGradient id="paint5_radial_544_10522" cx="0" cy="0" r="1" gradientUnits="userSpaceOnUse" gradientTransform="translate(82.6156 171.522) rotate(180) scale(51.5048 25.2992)">
<stop offset="0.728" stop-color="#BFA055" stop-opacity="0"/>
<stop offset="1" stop-color="#BFA055"/>
</radialGradient>
<radialGradient id="paint6_radial_544_10522" cx="0" cy="0" r="1" gradientUnits="userSpaceOnUse" gradientTransform="translate(31.8863 163.858) rotate(25.0761) scale(15.2204 11.2914)">
<stop offset="0.663" stop-color="#BFA055"/>
<stop offset="1" stop-color="#BFA055" stop-opacity="0"/>
</radialGradient>
<linearGradient id="paint7_linear_544_10522" x1="144.335" y1="247.604" x2="144.335" y2="203.172" gradientUnits="userSpaceOnUse">
<stop offset="0.335" stop-color="#E0E0E0"/>
<stop offset="0.668" stop-color="#D0D0D0"/>
<stop offset="0.987" stop-color="#BDBDBD"/>
</linearGradient>
<linearGradient id="paint8_linear_544_10522" x1="85.0132" y1="247.604" x2="85.0132" y2="203.172" gradientUnits="userSpaceOnUse">
<stop offset="0.335" stop-color="#E0E0E0"/>
<stop offset="0.668" stop-color="#D0D0D0"/>
<stop offset="0.987" stop-color="#BDBDBD"/>
</linearGradient>
<linearGradient id="paint9_linear_544_10522" x1="48.6757" y1="220.65" x2="27.9872" y2="244.473" gradientUnits="userSpaceOnUse">
<stop stop-color="#757575"/>
<stop offset="1"/>
</linearGradient>
<linearGradient id="paint10_linear_544_10522" x1="68.0433" y1="237.47" x2="47.3548" y2="261.29" gradientUnits="userSpaceOnUse">
<stop stop-color="#757575"/>
<stop offset="1"/>
</linearGradient>
<linearGradient id="paint11_linear_544_10522" x1="167.105" y1="230.808" x2="178.926" y2="255.825" gradientUnits="userSpaceOnUse">
<stop stop-color="#757575"/>
<stop offset="1"/>
</linearGradient>
<radialGradient id="paint12_radial_544_10522" cx="0" cy="0" r="1" gradientUnits="userSpaceOnUse" gradientTransform="translate(154.262 85.532) rotate(72.0851) scale(78.3655 58.1453)">
<stop offset="0.699" stop-color="#BFA055" stop-opacity="0"/>
<stop offset="1" stop-color="#BFA055"/>
</radialGradient>
<radialGradient id="paint13_radial_544_10522" cx="0" cy="0" r="1" gradientUnits="userSpaceOnUse" gradientTransform="translate(77.8684 0.09041) rotate(28.2026) scale(20.5482 24.3642)">
<stop offset="0.58" stop-color="#BFA055"/>
<stop offset="1" stop-color="#BFA055" stop-opacity="0"/>
</radialGradient>
<radialGradient id="paint14_radial_544_10522" cx="0" cy="0" r="1" gradientUnits="userSpaceOnUse" gradientTransform="translate(123.792 37.4074) rotate(-157.19) scale(64.2618 36.1154)">
<stop offset="0.699" stop-color="#BFA055" stop-opacity="0"/>
<stop offset="1" stop-color="#BFA055"/>
</radialGradient>
<radialGradient id="paint15_radial_544_10522" cx="0" cy="0" r="1" gradientUnits="userSpaceOnUse" gradientTransform="translate(69.6172 18.8354) scale(18.8588 23.0699)">
<stop offset="0.702" stop-color="#BFA055" stop-opacity="0"/>
<stop offset="1" stop-color="#BFA055"/>
</radialGradient>
<radialGradient id="paint16_radial_544_10522" cx="0" cy="0" r="1" gradientUnits="userSpaceOnUse" gradientTransform="translate(67.0189 52.1251) rotate(-164.942) scale(35.3722 33.102)">
<stop offset="0.66" stop-color="#BFA055" stop-opacity="0"/>
<stop offset="1" stop-color="#BFA055"/>
</radialGradient>
<radialGradient id="paint17_radial_544_10522" cx="0" cy="0" r="1" gradientUnits="userSpaceOnUse" gradientTransform="translate(58.6372 86.2774) rotate(7.83355) scale(37.1381 52.1852)">
<stop offset="0.598" stop-color="#BFA055" stop-opacity="0"/>
<stop offset="1" stop-color="#BFA055"/>
</radialGradient>
</defs>
</svg>
