<svg width="32" height="32" viewBox="0 0 32 32" fill="none" xmlns="http://www.w3.org/2000/svg">
<circle cx="16" cy="16" r="16" fill="white"/>
<path d="M15.6924 5.97281C15.6924 5.97281 16.0927 5.04968 17.0005 4.46343C17.4424 4.17906 18.2146 3.73937 18.3546 3.98656C18.4158 4.09374 18.2168 4.37156 18.0155 4.80249C17.9346 4.97968 17.753 5.55718 17.753 5.55718C17.753 5.55718 18.5537 4.50937 19.9558 4.23374C21.0583 4.01499 22.2505 4.15718 22.3883 4.40218C22.5371 4.66687 21.7562 5.24874 21.5112 5.75624C21.2662 6.26374 21.0802 6.91124 21.0802 6.91124C21.0802 6.91124 22.5568 6.21343 22.9287 6.06468C23.3902 5.88093 24.3921 5.49593 24.5299 5.66437C24.6677 5.83281 24.088 6.81062 23.9612 6.98781C23.808 7.20437 23.5762 7.60468 23.5762 7.60468C23.5762 7.60468 24.2849 7.28093 24.5605 7.11249C24.8383 6.94406 25.453 6.46499 25.593 6.55906C25.7308 6.65093 25.7308 7.58718 25.639 7.99187C25.5165 8.52999 24.9455 9.11624 24.9455 9.11624C24.9455 9.11624 25.7615 9.29999 26.2077 9.87093C26.654 10.4419 26.9143 10.8859 27.1002 11.4569C27.378 12.3034 27.5005 13.4584 27.4393 13.675C27.378 13.8916 27.039 13.5984 26.4068 13.5525C26.0327 13.5241 25.9452 13.5219 25.9452 13.5219C25.9452 13.5219 26.3018 13.9462 26.468 14.3378C26.6846 14.8453 26.9208 15.6459 27.0521 15.985C27.1899 16.3394 27.2993 16.6172 27.4983 17.0175C27.5574 17.1356 27.0827 17.2494 26.6058 16.8009C26.4462 16.6522 26.2515 16.5078 26.2515 16.5078C26.2515 16.5078 26.5337 18.1856 26.514 19.31C26.4987 20.1412 26.3127 21.6506 26.0677 21.7884C25.8205 21.9262 25.3283 20.8653 25.3283 20.8653C25.3283 20.8653 25.114 22.0728 24.8668 22.8822C24.5737 23.8359 24.2958 24.2822 24.1274 24.8531C23.9262 25.5312 23.7271 26.0234 23.5893 25.8069C23.469 25.6209 23.3421 25.33 23.2196 25.1134C23.1255 24.9494 22.9112 24.5119 22.9112 24.5119C22.9112 24.5119 22.6946 25.82 21.649 26.6994C20.6033 27.5787 19.9252 28.2853 19.4308 28.3466C19.1399 28.3837 19.4768 27.0691 19.4768 27.0691C19.4768 27.0691 17.8449 28.3509 17.0596 28.9328C16.7052 29.1953 16.3815 30.0572 16.1365 29.9959C15.8893 29.9347 15.2593 28.9787 14.859 28.6878C14.4587 28.3969 13.704 28.0556 13.5968 27.9944C13.4896 27.9331 12.9799 27.6094 12.9799 27.6094C12.9799 27.6094 13.1068 28.3247 12.9646 28.3947C12.6562 28.5478 11.4705 27.7012 11.1315 27.1784C10.7924 26.6556 10.193 25.5772 10.193 25.5772C10.193 25.5772 10.1165 26.6097 9.86928 26.4391C9.60678 26.2597 8.32928 25.3147 7.88303 24.6059C7.56803 24.105 7.02116 22.6962 7.02116 22.6962C7.02116 22.6962 6.54428 23.1884 6.40428 23.2497C6.26428 23.3109 5.9121 23.4509 5.97335 22.9106C6.0346 22.3725 5.61241 21.1519 5.54241 20.4169C5.45053 19.4631 5.63428 18.4766 5.63428 18.4766C5.63428 18.4766 4.84897 19.5244 4.47928 19.5091C4.1096 19.4937 4.32616 17.4769 4.41803 16.86C4.50991 16.2431 4.81835 15.1669 4.94085 14.7819C5.06335 14.3969 5.52491 13.8281 5.52491 13.8281C5.52491 13.8281 4.38522 14.2131 4.21678 14.06C4.04835 13.9069 4.30866 12.5353 4.46397 11.7041C4.54272 11.2775 4.8796 10.6103 5.31053 10.1181C5.74147 9.62593 6.40428 9.71781 6.46553 9.50124C6.52678 9.28468 6.22053 9.11406 6.00397 8.76187C5.68022 8.23906 5.49647 7.16062 5.66491 6.97468C5.76991 6.86093 6.35835 7.31374 7.0671 7.39031C7.77585 7.46687 8.40585 7.42093 8.40585 7.42093C8.40585 7.42093 7.99678 6.93968 7.82178 6.54374C7.5746 5.99031 7.55928 5.32749 7.7146 5.15687C7.86991 4.98624 8.40803 5.51124 9.1321 5.69499C9.85616 5.87874 10.9346 5.89624 10.9346 5.89624C10.9346 5.89624 10.473 5.40406 10.3505 4.83312C10.228 4.26437 10.2587 3.90999 10.4577 3.84874C10.659 3.78749 11.2452 4.33656 11.6587 4.46562C12.1049 4.60343 13.6143 4.51156 14.2924 4.71281C14.9705 4.91406 15.6924 5.97281 15.6924 5.97281Z" fill="#865C50"/>
<path d="M20.5575 10.7786C20.5575 10.7786 23.2065 8.25426 24.7465 10.1311C26.5731 12.3602 21.7278 14.8124 21.7278 14.8124L20.5575 10.7786ZM11.3197 11.4239C11.3197 11.4239 8.84998 8.18644 7.03436 9.94082C5.21873 11.6952 8.97905 14.3793 8.97905 14.3793L11.3197 11.4239Z" fill="#FEC000"/>
<path d="M22.8358 12.9334C22.8358 12.9334 24.7761 11.5793 23.9755 10.7153C23.1202 9.79434 21.543 11.3934 21.543 11.3934L22.8358 12.9334ZM10.1898 11.5028C10.1898 11.5028 8.58203 9.91028 7.75078 10.8947C7.00266 11.7806 9.13766 13.4825 9.13766 13.4825L10.1898 11.5028Z" fill="#FF8E06"/>
<path d="M16.1528 22.5716C16.1528 22.5716 17.7234 22.1407 18.7078 21.6485C19.6921 21.1563 23.3584 19.0935 23.634 16.5669C23.9118 14.0425 23.634 13.3644 22.4637 11.8244C21.2934 10.2844 19.2415 9.93003 18.1828 10.1619C16.9206 10.4397 16.704 11.3607 16.1506 11.3935C15.6278 11.4241 15.7809 10.84 14.2715 10.2844C12.34 9.57347 7.05277 11.4766 7.98902 16.5669C8.48121 19.2466 12.3859 21.5325 12.8846 21.8016C14.09 22.4491 16.1528 22.5716 16.1528 22.5716Z" fill="#FEC000"/>
<path d="M20.1463 14.1633C20.3353 13.6884 20.1108 13.1532 19.645 12.9678C19.1792 12.7824 18.6483 13.017 18.4594 13.4918C18.2704 13.9667 18.4948 14.5019 18.9606 14.6873C19.4265 14.8727 19.9573 14.6381 20.1463 14.1633Z" fill="#2E2F2F"/>
<path d="M13.0294 14.5917C13.5073 14.3974 13.7342 13.8452 13.5362 13.3584C13.3383 12.8716 12.7904 12.6345 12.3125 12.8288C11.8347 13.0231 11.6078 13.5753 11.8057 14.0621C12.0037 14.5489 12.5516 14.7861 13.0294 14.5917Z" fill="#2E2F2F"/>
<path d="M16.1125 15.4687C14.2444 15.4118 12.6016 17.5227 12.6016 21.0315C12.6016 24.4396 14.4084 25.2402 15.8653 25.2402C17.7138 25.2402 19.4572 24.0283 19.2538 20.723C19.0634 17.6649 18.1031 15.5299 16.1125 15.4687Z" fill="#FFD899"/>
<path d="M13.9359 17.3982C13.7521 17.5819 14.0999 18.5882 14.4084 19.1022C14.7168 19.6163 15.5984 20.4563 16.0927 20.4366C16.5849 20.4169 17.5102 19.3888 17.7968 18.6297C18.0834 17.8707 18.1665 17.3982 18.044 17.2122C17.9215 17.0263 16.4624 17.2538 15.909 17.2538C15.3555 17.2538 14.1218 17.2144 13.9359 17.3982Z" fill="#2E2F2F"/>
<path d="M16.05 19.73C16.05 19.73 15.2559 20.594 14.9103 20.7253C14.4268 20.909 13.6787 20.7515 13.6568 21.049C13.6371 21.3575 14.1184 21.6812 14.8884 21.5784C15.7393 21.4647 16.0587 20.9419 16.0587 20.9419C16.0587 20.9419 16.5421 21.6287 17.4762 21.6703C18.4103 21.7119 18.6268 21.1169 18.3687 21.0337C18.0187 20.9222 17.8 20.944 17.2706 20.7778C16.8506 20.6422 16.05 19.73 16.05 19.73Z" fill="#2E2F2F"/>
</svg>
