<svg width="32" height="32" viewBox="0 0 32 32" fill="none" xmlns="http://www.w3.org/2000/svg">
<circle cx="16" cy="16" r="16" fill="white"/>
<path d="M15.6914 5.97281C15.6914 5.97281 16.0917 5.04968 16.9996 4.46343C17.4414 4.17906 18.2136 3.73937 18.3536 3.98656C18.4149 4.09374 18.2158 4.37156 18.0146 4.80249C17.9336 4.97968 17.7521 5.55718 17.7521 5.55718C17.7521 5.55718 18.5527 4.50937 19.9549 4.23374C21.0574 4.01499 22.2496 4.15718 22.3874 4.40218C22.5361 4.66687 21.7552 5.24874 21.5102 5.75624C21.2652 6.26374 21.0792 6.91124 21.0792 6.91124C21.0792 6.91124 22.5558 6.21343 22.9277 6.06468C23.3892 5.88093 24.3911 5.49593 24.5289 5.66437C24.6667 5.83281 24.0871 6.81062 23.9602 6.98781C23.8071 7.20437 23.5752 7.60468 23.5752 7.60468C23.5752 7.60468 24.2839 7.28093 24.5596 7.11249C24.8374 6.94406 25.4521 6.46499 25.5921 6.55906C25.7299 6.65093 25.7299 7.58718 25.638 7.99187C25.5155 8.52999 24.9446 9.11624 24.9446 9.11624C24.9446 9.11624 25.7605 9.29999 26.2067 9.87093C26.653 10.4419 26.9133 10.8859 27.0992 11.4569C27.3771 12.3034 27.4996 13.4584 27.4383 13.675C27.3771 13.8916 27.038 13.5984 26.4058 13.5525C26.0317 13.5241 25.9442 13.5219 25.9442 13.5219C25.9442 13.5219 26.3008 13.9462 26.4671 14.3378C26.6836 14.8453 26.9199 15.6459 27.0511 15.985C27.1889 16.3394 27.2983 16.6172 27.4974 17.0175C27.5564 17.1356 27.0817 17.2494 26.6049 16.8009C26.4452 16.6522 26.2505 16.5078 26.2505 16.5078C26.2505 16.5078 26.5327 18.1856 26.513 19.31C26.4977 20.1412 26.3117 21.6506 26.0667 21.7884C25.8196 21.9262 25.3274 20.8653 25.3274 20.8653C25.3274 20.8653 25.113 22.0728 24.8658 22.8822C24.5727 23.8359 24.2949 24.2822 24.1264 24.8531C23.9252 25.5312 23.7261 26.0234 23.5883 25.8069C23.468 25.6209 23.3411 25.33 23.2186 25.1134C23.1246 24.9494 22.9102 24.5119 22.9102 24.5119C22.9102 24.5119 22.6936 25.82 21.648 26.6994C20.6024 27.5787 19.9242 28.2853 19.4299 28.3466C19.1389 28.3837 19.4758 27.0691 19.4758 27.0691C19.4758 27.0691 17.8439 28.3509 17.0586 28.9328C16.7042 29.1953 16.3805 30.0572 16.1355 29.9959C15.8883 29.9347 15.2583 28.9787 14.858 28.6878C14.4577 28.3969 13.703 28.0556 13.5958 27.9944C13.4886 27.9331 12.9789 27.6094 12.9789 27.6094C12.9789 27.6094 13.1058 28.3247 12.9636 28.3947C12.6552 28.5478 11.4696 27.7012 11.1305 27.1784C10.7914 26.6556 10.1921 25.5772 10.1921 25.5772C10.1921 25.5772 10.1155 26.6097 9.86831 26.4391C9.60581 26.2597 8.32831 25.3147 7.88206 24.6059C7.56706 24.105 7.02018 22.6962 7.02018 22.6962C7.02018 22.6962 6.54331 23.1884 6.40331 23.2497C6.26331 23.3109 5.91112 23.4509 5.97237 22.9106C6.03362 22.3725 5.61143 21.1519 5.54143 20.4169C5.44956 19.4631 5.63331 18.4766 5.63331 18.4766C5.63331 18.4766 4.84799 19.5244 4.47831 19.5091C4.10862 19.4937 4.32518 17.4769 4.41706 16.86C4.50893 16.2431 4.81737 15.1669 4.93987 14.7819C5.06237 14.3969 5.52393 13.8281 5.52393 13.8281C5.52393 13.8281 4.38424 14.2131 4.21581 14.06C4.04737 13.9069 4.30768 12.5353 4.46299 11.7041C4.54174 11.2775 4.87862 10.6103 5.30956 10.1181C5.74049 9.62593 6.40331 9.71781 6.46456 9.50124C6.52581 9.28468 6.21956 9.11406 6.00299 8.76187C5.67924 8.23906 5.49549 7.16062 5.66393 6.97468C5.76893 6.86093 6.35737 7.31374 7.06612 7.39031C7.77487 7.46687 8.40487 7.42093 8.40487 7.42093C8.40487 7.42093 7.99581 6.93968 7.82081 6.54374C7.57362 5.99031 7.55831 5.32749 7.71362 5.15687C7.86893 4.98624 8.40706 5.51124 9.13112 5.69499C9.85518 5.87874 10.9336 5.89624 10.9336 5.89624C10.9336 5.89624 10.4721 5.40406 10.3496 4.83312C10.2271 4.26437 10.2577 3.90999 10.4567 3.84874C10.658 3.78749 11.2442 4.33656 11.6577 4.46562C12.1039 4.60343 13.6133 4.51156 14.2914 4.71281C14.9696 4.91406 15.6914 5.97281 15.6914 5.97281Z" fill="#865C50"/>
<path d="M20.5565 10.7786C20.5565 10.7786 23.2056 8.25426 24.7456 10.1311C26.5721 12.3602 21.7268 14.8124 21.7268 14.8124L20.5565 10.7786ZM11.3187 11.4239C11.3187 11.4239 8.84901 8.18644 7.03338 9.94082C5.21776 11.6952 8.97807 14.3793 8.97807 14.3793L11.3187 11.4239Z" fill="#FEC000"/>
<path d="M22.8358 12.9334C22.8358 12.9334 24.7761 11.5793 23.9755 10.7153C23.1202 9.79434 21.543 11.3934 21.543 11.3934L22.8358 12.9334ZM10.1898 11.5028C10.1898 11.5028 8.58203 9.91028 7.75078 10.8947C7.00266 11.7806 9.13766 13.4825 9.13766 13.4825L10.1898 11.5028Z" fill="#FF8E06"/>
<path d="M16.1528 22.5716C16.1528 22.5716 17.7234 22.1407 18.7078 21.6485C19.6921 21.1563 23.3584 19.0935 23.634 16.5669C23.9118 14.0425 23.634 13.3644 22.4637 11.8244C21.2934 10.2844 19.2415 9.93003 18.1828 10.1619C16.9206 10.4397 16.704 11.3607 16.1506 11.3935C15.6278 11.4241 15.7809 10.84 14.2715 10.2844C12.34 9.57347 7.05277 11.4766 7.98902 16.5669C8.48121 19.2466 12.3859 21.5325 12.8846 21.8016C14.09 22.4491 16.1528 22.5716 16.1528 22.5716Z" fill="#FEC000"/>
<path d="M20.1463 14.1633C20.3353 13.6884 20.1108 13.1532 19.645 12.9678C19.1792 12.7824 18.6483 13.017 18.4594 13.4918C18.2704 13.9667 18.4948 14.5019 18.9606 14.6873C19.4265 14.8727 19.9573 14.6381 20.1463 14.1633Z" fill="#2E2F2F"/>
<path d="M13.0294 14.5917C13.5073 14.3974 13.7342 13.8452 13.5362 13.3584C13.3383 12.8716 12.7904 12.6345 12.3125 12.8288C11.8347 13.0231 11.6078 13.5753 11.8057 14.0621C12.0037 14.5489 12.5516 14.7861 13.0294 14.5917Z" fill="#2E2F2F"/>
<path d="M16.1115 15.4687C14.2434 15.4118 12.6006 17.5227 12.6006 21.0315C12.6006 24.4396 14.4075 25.2402 15.8643 25.2402C17.7128 25.2402 19.4562 24.0283 19.2528 20.723C19.0625 17.6649 18.1021 15.5299 16.1115 15.4687Z" fill="#FFD899"/>
<path d="M13.9349 17.3982C13.7511 17.5819 14.0989 18.5882 14.4074 19.1022C14.7158 19.6163 15.5974 20.4563 16.0918 20.4366C16.5839 20.4169 17.5093 19.3888 17.7958 18.6297C18.0824 17.8707 18.1655 17.3982 18.043 17.2122C17.9205 17.0263 16.4614 17.2538 15.908 17.2538C15.3546 17.2538 14.1208 17.2144 13.9349 17.3982Z" fill="#2E2F2F"/>
<path d="M16.05 19.73C16.05 19.73 15.2559 20.594 14.9103 20.7253C14.4268 20.909 13.6787 20.7515 13.6568 21.049C13.6371 21.3575 14.1184 21.6812 14.8884 21.5784C15.7393 21.4647 16.0587 20.9419 16.0587 20.9419C16.0587 20.9419 16.5421 21.6287 17.4762 21.6703C18.4103 21.7119 18.6268 21.1169 18.3687 21.0337C18.0187 20.9222 17.8 20.944 17.2706 20.7778C16.8506 20.6422 16.05 19.73 16.05 19.73Z" fill="#2E2F2F"/>
</svg>
