<svg width="263" height="221" viewBox="0 0 263 221" fill="none" xmlns="http://www.w3.org/2000/svg">
<path d="M57.9811 20.2939C56.8246 18.2209 43.2298 4.60432 43.2298 4.60432C43.2298 4.60432 40.2403 0 33.9994 0C27.7585 0 25.9255 6.19728 21.343 14.1185C17.4151 20.9049 -0.194763 49.0545 0.00162989 92.9156C0.176201 130.274 8.40287 150.35 25.4672 172.04C40.2185 190.785 73.1907 210.555 110.331 217.472C147.449 224.39 197.267 221.618 225.177 202.263C253.086 182.907 258.607 161.282 261.16 145.527C264.39 125.517 263.823 99.4184 255.77 96.4506C248.657 93.8539 237.877 99.5056 237.877 99.5056L57.9811 20.2939Z" fill="#7A9C41"/>
<path d="M228.908 90.4063L237.026 90.6682L251.122 95.7525C251.122 95.7525 214.069 173.415 139.397 190.479C69.1971 206.518 17.5677 172.237 11.7195 107.973C5.60952 40.7407 42.2477 3.44795 42.2477 3.44795L52.4601 8.81602L107.275 110.395L228.908 90.4063Z" fill="#FFF6A0"/>
<path d="M60.5775 165.211C99.7033 193.099 164.862 175.445 199.078 139.789C234.56 102.802 237.047 90.6688 237.047 90.6688C237.047 90.6688 194.997 73.4081 174.245 63.5884C153.493 53.7688 92.0004 26.8194 82.1589 22.0841C72.3174 17.3489 51.9362 8.5112 51.9362 8.5112C51.9362 8.5112 33.7372 33.0385 26.9289 65.8361C20.1206 98.6336 23.7866 139.003 60.5775 165.211Z" fill="#FF6C75"/>
<path d="M84.625 62.5408C85.0614 64.4392 83.883 71.2257 74.7398 75.3936C70.0046 77.5539 66.295 75.5027 64.9639 72.2077C63.48 68.5417 65.6185 63.741 70.8338 61.5152C76.8129 58.9402 84.3195 61.1878 84.625 62.5408ZM101.1 89.5557C103.937 92.1524 100.271 100.466 98.307 102.998C96.343 105.551 90.364 111.05 85.5633 105.878C80.6098 100.51 86.938 94.1164 88.9674 92.4143C90.9968 90.7122 98.3288 87.0244 101.1 89.5557ZM130.384 100.488C127.569 100.335 121.329 106.664 122.289 114.17C123.162 120.957 126.718 122.31 129.643 122.528C132.545 122.746 136.233 119.909 136.778 112.905C137.367 105.093 132.436 100.597 130.384 100.488ZM160.258 94.0291C158.272 95.4256 157.378 102.758 160.913 108.628C163.728 113.276 168.659 115.48 172.631 112.381C176.602 109.282 175.948 103.652 171.627 98.7861C167.328 93.92 162.135 92.698 160.258 94.0291Z" fill="#2F2F2F"/>
<path d="M252.41 124.36C253.283 125.757 254.461 128.747 252.323 132.522C250.446 135.839 248.198 137.541 248.831 141.774C249.464 146.007 252.693 145.265 252.519 153.798C252.388 160.038 247.762 164.665 243.725 167.894C239.688 171.124 237.178 173.83 236.808 179.394C236.437 185.089 235.455 190.261 232.05 193.491C226.028 199.142 220.965 195.782 215.619 201.128C211.386 205.362 212.193 209.486 212.193 209.486C212.193 209.486 208.047 211.515 200.649 213.872C191.484 216.774 186.422 217.341 186.422 217.341C186.422 217.341 191.637 213.414 193.077 209.115C194.518 204.816 195.871 198.073 200.889 193.949C210.862 186.05 217.845 192.16 222.253 187.664C226.202 183.627 221.445 178.608 226.551 169.182C230.807 161.348 239.928 161.37 240.561 155.347C241.194 149.324 237.266 148.626 238.4 140.988C239.841 131.365 251.952 123.64 252.41 124.36Z" fill="#C1CA32"/>
<path d="M116.441 218.498C116.441 218.498 117.837 211.624 126.282 208.918C131.672 206.758 136.342 209.9 141.623 208.111C146.925 206.322 147.558 199.492 155.348 195.629C163.16 191.767 168.812 197.331 176.253 194.822C183.694 192.312 180.203 182.973 186.837 176.426C194.845 168.527 201.981 173.895 207.742 169.596C215.466 163.857 213.655 154.321 219.503 154.147C222.558 154.059 224.086 159.886 222.187 167.065C220.311 174.244 215.008 178.39 209.88 179.983C204.403 181.685 201.348 180.441 197.486 185.635C194.867 189.148 193.754 197.179 186.269 201.696C175.14 208.438 171.016 204.118 164.644 208.438C157.203 214.374 156.483 220.68 156.483 220.68C156.483 220.68 143.456 221.095 137.258 220.746C127.526 220.2 116.441 218.498 116.441 218.498ZM71.6196 205.252C71.6196 205.252 83.5559 206.147 89.7532 205.602C95.9505 205.056 107.625 203.179 108.345 208.657C109.065 214.134 103.042 215.923 103.042 215.923C103.042 215.923 93.0701 213.763 86.6109 211.428C80.13 209.115 71.6196 205.252 71.6196 205.252Z" fill="#C1CA32"/>
</svg>
