<svg width="212" height="246" viewBox="0 0 212 246" fill="none" xmlns="http://www.w3.org/2000/svg">
<path d="M49.6119 83.8665C38.5811 96.3299 46.3988 113.132 46.3988 113.132L16.233 132.799C16.233 132.799 11.7307 134.846 7.06457 141.108C3.64687 145.692 36.6164 188.976 36.6164 188.976C36.6164 188.976 41.9783 187.994 46.3579 186.091C50.8602 184.126 56.3859 179.01 56.3859 179.01L92.0773 215.335C92.0773 215.335 94.7378 219.428 100.222 220.697C107.754 222.457 110.557 219.572 110.557 219.572L157.095 231.053C157.095 231.053 159.428 233.672 161.762 235.371C164.095 237.07 167.901 238.645 167.901 238.645L205.741 197.899C205.741 197.899 203.265 194.113 201.096 191.821C197.78 188.301 193.196 186.009 193.196 186.009L191.805 141.087C191.805 141.087 189.042 139.327 181.511 137.997C173.427 136.565 167.696 133.331 167.696 133.331L156.441 94.2424L160.042 89.5763C160.042 89.5763 167.062 76.6218 157.28 73.4293C147.497 70.2367 123.717 68.3334 123.717 68.3334L117.761 48.9937C117.761 48.9937 114.712 52.1044 112.583 55.7063C110.455 59.3082 108.838 63.872 108.838 63.872L73.3516 75.1279L68.7674 75.353C68.8083 75.3121 59.1077 73.1223 49.6119 83.8665Z" fill="#4C186E"/>
<path d="M27.8366 104.189C27.8366 104.189 43.9223 101.549 43.6972 99.6249C43.4925 97.7216 43.0013 76.1922 43.3083 76.1922C43.513 76.1922 52.2107 78.648 59.9261 80.7764C69.6881 83.4778 74.5793 85.2583 74.5793 85.2583L78.6109 71.0145C78.6109 71.0145 71.182 68.4563 60.7652 65.0591C52.3949 62.3372 43.0832 59.7176 41.7325 58.1213C39.3995 55.3585 33.5259 47.0906 32.8301 39.6617C31.5613 25.8476 38.4376 19.5852 47.7902 19.1759C56.9177 18.7666 61.3792 24.0671 64.7969 24.2718C68.1941 24.4764 71.5709 18.6848 69.4629 12.3815C66.0657 2.18976 49.2842 -2.94702 35.0404 1.75999C15.0663 8.34981 13.163 33.1946 16.1305 44.0412C20.203 58.899 27.3864 67.6172 27.3864 67.6172L27.8366 104.189Z" fill="#727F37"/>
<path d="M83.932 60.0044C70.3226 66.5942 59.4556 91.746 78.4064 108.875C93.9191 122.894 115.367 115.24 121.957 103.984C127.666 94.2223 129.611 78.7096 121.097 68.4975C112.583 58.2853 98.1963 53.0871 83.932 60.0044Z" fill="#A363B1"/>
<path d="M117.782 48.9938C117.782 48.9938 122.345 44.0208 130.143 41.9743C136.63 40.2756 145.88 39.8049 156.052 46.6813C166.714 53.885 168.863 65.9391 167.492 75.9057C166.059 86.2202 160.288 95.1226 154.455 96.7393C142.974 99.9319 160.186 93.7718 157.218 88.2462C154.251 82.7206 137.735 91.3774 124.064 74.8619C113.873 62.5623 117.782 48.9938 117.782 48.9938Z" fill="#A363B1"/>
<path d="M127.912 115.24C122.509 131.429 130.245 149.663 149.38 153.899C168.494 158.156 179.975 145.611 184.642 134.56C189.308 123.508 185.071 101.631 166.161 95.9008C147.252 90.1705 132.578 101.222 127.912 115.24Z" fill="#A363B1"/>
<path d="M71.6118 142.644C66.7411 158.033 75.4388 172.175 86.0603 177.496C99.5265 184.229 119.623 178.355 125.149 162.208C130.245 147.33 126.418 130.344 110.271 124.389C94.1236 118.433 76.9123 125.862 71.6118 142.644ZM15.5165 116.1C10.9323 129.873 15.5165 148.394 34.2218 153.92C52.927 159.446 65.0629 147.76 69.0741 134.171C72.2667 123.345 71.6323 105.704 51.8628 98.2749C32.5846 91.0097 19.5482 103.985 15.5165 116.1ZM146.801 160.203C140.559 161.41 137.183 167.1 134.379 173.771C129.529 185.232 124.474 188.343 122.591 192.497C120.176 197.818 127.155 202.361 130.02 203.958C134.911 206.679 153.657 209.79 161.823 193.623C172.26 172.912 155.99 158.422 146.801 160.203ZM181.92 189.284C182.063 191.515 206.519 190.389 206.212 165.585C205.966 146.573 191.722 141.027 191.722 141.027C191.722 141.027 182.39 147.924 182.718 159.732C183.045 171.561 185.337 169.78 184.621 179.42C184.396 182.428 181.858 188.465 181.92 189.284ZM205.884 197.9C205.884 197.9 189.471 198.596 179.955 211.55C171.093 223.625 167.962 238.667 167.962 238.667C167.962 238.667 190.576 250.536 204.452 235.269C219.965 218.16 205.884 197.9 205.884 197.9ZM110.475 211.366C107.508 213.044 105.686 225.487 111.601 234.901C114.732 239.874 120.421 244.356 128.812 245.625C140.293 247.364 148.213 242.801 153.514 237.193C159.612 230.747 161.679 222.479 159.879 219.286C156.481 213.31 147.64 221.414 132.619 219.143C117.597 216.892 115.633 208.46 110.475 211.366ZM59.1485 171.663C56.488 172.216 47.1149 182.469 48.0154 195.464C48.4247 201.379 49.9596 207.518 56.2015 213.924C64.7969 222.724 77.0761 223.706 85.3031 221.373C92.8343 219.225 98.3599 214.313 98.5237 210.077C98.7078 204.899 97.9506 199.639 88.8436 195.874C84.7096 194.175 77.8742 192.313 71.2435 186.828C60.4378 177.864 61.8499 171.09 59.1485 171.663ZM7.30996 140.986C7.30996 140.986 2.35737 146.737 0.720146 155.352C-0.405443 161.328 -0.794283 168.164 4.03552 175.961C15.23 194.052 36.739 188.956 36.739 188.956C36.739 188.956 46.3986 181.343 42.3874 171.581C41.1186 168.471 38.3762 167.059 32.4822 164.705C22.3519 160.653 16.3351 154.37 13.2654 150.175C10.216 146 7.30996 140.986 7.30996 140.986Z" fill="#A363B1"/>
<path d="M153.78 103.329C150.731 99.8708 140.539 102.838 135.545 114.463C131.739 123.283 132.312 136.974 141.357 138.509C151.611 140.249 145.717 125.78 149.912 117.532C152.634 112.191 157.32 107.382 153.78 103.329ZM96.9069 130.323C92.5478 125.473 83.6659 131.285 79.798 141.292C74.3337 155.393 81.4352 162.433 84.8119 161.799C90.7878 160.673 90.2966 153.408 93.2027 146.143C95.4948 140.453 101.143 135.03 96.9069 130.323ZM129.713 46.2927C125.21 45.4536 123.88 50.6723 123.88 54.1309C123.88 57.5895 124.596 61.2323 128.076 61.4165C131.35 61.6007 132.823 58.3263 133.356 53.5783C133.826 49.5671 132.639 46.8453 129.713 46.2927ZM92.8139 64.7319C87.2269 61.6621 78.57 67.5766 76.5849 80.9404C74.8863 92.4623 79.3477 99.9936 85.6715 98.5201C92.7934 96.8624 90.8697 86.3228 92.5683 80.3878C94.3488 74.1869 97.9302 67.5561 92.8139 64.7319ZM35.3883 106.44C28.205 104.803 23.4366 111.925 22.311 119.19C21.4106 124.92 22.5566 133.004 28.2869 134.211C34.4265 135.501 39.42 128.072 40.2386 122.096C41.0367 116.12 41.0367 107.729 35.3883 106.44ZM8.72209 156.846C5.18159 157.276 3.87182 163.149 5.6523 167.979C7.43277 172.829 9.52023 175.081 13.2449 174.119C17.3994 173.034 14.5342 167.181 13.4086 163.784C12.2626 160.407 12.7537 156.375 8.72209 156.846ZM58.8006 183.922C54.114 184.413 52.1494 190.552 53.5615 197.449C54.7075 202.995 58.8211 209.033 63.9783 207.068C69.2788 205.062 64.9606 198.738 63.6304 193.684C62.2797 188.649 63.1392 183.471 58.8006 183.922ZM148.52 176.043C144.693 173.136 139.986 176.124 136.712 180.954C133.437 185.784 133.315 189.836 136.528 192.415C140.068 195.259 145.41 192.988 148.295 188.404C150.751 184.495 152.552 179.112 148.52 176.043ZM116.328 219.265C112.338 219.572 111.151 223.44 112.276 228.045C113.197 231.81 116.144 234.246 119.091 233.038C121.608 231.995 123.205 228.72 121.711 223.768C120.606 220.207 118.355 219.101 116.328 219.265Z" fill="#DABCF3"/>
</svg>
