<svg width="246" height="247" viewBox="0 0 246 247" fill="none" xmlns="http://www.w3.org/2000/svg">
<path d="M1.30359 153.273C7.55295 211.853 49.9461 244.965 123.074 246.092C196.202 247.219 223.514 211.771 234.825 193.372C247.815 172.206 268.612 72.7078 153.89 49.329C110.063 40.3955 76.009 47.6898 52.5278 60.8442C10.6264 84.2844 -1.31909 128.747 1.30359 153.273Z" fill="#FF8E00"/>
<path d="M227.469 14.8655C227.182 11.9969 217.101 1.91602 191.202 0.174391C165.303 -1.56723 145.961 9.92749 137.171 26.0939C130.389 38.5721 126.434 48.8169 126.434 48.8169L142.416 50.3537L209.356 26.9544L227.469 14.8655Z" fill="#5C6A23"/>
<path d="M175.077 29.2488C193.046 22.938 227.469 14.865 227.469 14.865C227.469 14.865 221.424 28.3882 209.335 40.764C197.246 53.1398 177.556 65.9663 150.325 59.1843C139.199 56.4181 131.823 49.1648 131.823 49.1648C131.823 49.1648 148.03 38.756 175.077 29.2488Z" fill="#767E3A"/>
<path d="M106.744 16.2381C105.207 19.5165 110.309 22.0982 113.464 27.5484C119.263 37.5474 119.263 51.6443 119.263 51.6443C119.263 51.6443 106.887 52.9557 107.277 63.7537C107.625 73.3634 116.21 77.3179 126.107 77.3179C136.905 77.3179 141.105 69.286 140.716 64.0201C140.101 55.8652 131.639 52.7098 131.639 52.7098C131.639 52.7098 132.827 34.0232 131.639 24.6799C130.45 15.3366 128.873 12.9598 126.107 11.7714C123.34 10.583 108.731 12.0172 106.744 16.2381Z" fill="#5C6A23"/>
<path d="M29.6002 151.101C36.7306 153.355 42.9185 145.282 50.9914 129.71C55.1918 121.575 64.5556 109.548 69.1248 104.569C78.8984 93.9346 91.2742 82.9111 83.8364 73.9571C75.8864 64.4089 52.6921 74.5103 37.4887 97.049C22.2854 119.588 19.1914 147.822 29.6002 151.101Z" fill="#FFE265"/>
<path d="M164.381 76.1297C163.214 80.8014 165.262 84.7559 168.705 85.0428C172.844 85.3911 174.893 81.4161 174.975 77.3591C175.036 74.0808 172.864 71.8884 170.037 71.622C167.189 71.3761 165.078 73.3022 164.381 76.1297ZM192.268 96.2506C189.215 99.529 188.887 105.819 192.801 108.258C197.206 111.003 201.796 107.377 203.312 104.283C204.5 101.844 205.156 97.8693 202.349 95.2876C198.968 92.1937 194.727 93.6075 192.268 96.2506ZM211.036 109.917C210.258 113.851 211.918 118.359 216.097 118.994C220.277 119.629 223.105 115.572 223.351 112.581C223.679 108.811 222.203 105.778 218.884 104.508C215.565 103.197 211.733 106.352 211.036 109.917ZM213.454 129.362C210.688 128.01 205.217 129.137 203.353 135.693C201.837 141.021 203.578 146.184 207.451 147.127C212.655 148.376 216.097 144.34 216.978 139.791C217.982 134.689 216.651 130.94 213.454 129.362ZM195.792 172.944C199.685 175.935 197.964 181.119 194.993 184.151C191.735 187.512 186.879 187.86 184.482 185.483C182.105 183.106 182.802 178.25 186.162 174.89C189.522 171.53 193.702 171.325 195.792 172.944ZM144.158 208.862C145.736 212.099 143.461 216.279 140.449 218.472C138.052 220.234 131.885 222.098 128.975 217.857C126.578 214.374 128.361 210.706 132.336 207.715C136.311 204.723 142.396 205.256 144.158 208.862Z" fill="#FF6110"/>
</svg>
