<svg width="69" height="80" viewBox="0 0 69 80" fill="none" xmlns="http://www.w3.org/2000/svg">
<path d="M16.5213 27.244C12.9507 31.2783 15.4812 36.7169 15.4812 36.7169L5.71686 43.083C5.71686 43.083 4.25949 43.7454 2.74913 45.7725C1.64285 47.2564 12.3148 61.267 12.3148 61.267C12.3148 61.267 14.0504 60.949 15.468 60.3329C16.9254 59.697 18.7139 58.0409 18.7139 58.0409L30.2669 69.7992C30.2669 69.7992 31.1281 71.1241 32.9034 71.5348C35.3412 72.1045 36.2488 71.1705 36.2488 71.1705L51.3126 74.8868C51.3126 74.8868 52.0678 75.7347 52.823 76.2845C53.5782 76.8343 54.8103 77.3444 54.8103 77.3444L67.0589 64.1552C67.0589 64.1552 66.2573 62.9297 65.5551 62.1878C64.482 61.0484 62.9981 60.3065 62.9981 60.3065L62.5476 45.7659C62.5476 45.7659 61.6533 45.1962 59.2156 44.7656C56.5989 44.3019 54.7441 43.2552 54.7441 43.2552L51.1007 30.6026L52.2666 29.0923C52.2666 29.0923 54.5387 24.899 51.3723 23.8656C48.2058 22.8322 40.5082 22.2161 40.5082 22.2161L38.5805 15.9561C38.5805 15.9561 37.5935 16.963 36.9046 18.1289C36.2156 19.2948 35.6923 20.772 35.6923 20.772L24.2056 24.4154L22.7217 24.4883C22.735 24.475 19.595 23.7662 16.5213 27.244Z" fill="#4C186E"/>
<path d="M9.47276 33.822C9.47276 33.822 14.6795 32.9675 14.6067 32.3448C14.5404 31.7287 14.3814 24.7598 14.4808 24.7598C14.5471 24.7598 17.3624 25.5548 19.8598 26.2437C23.0197 27.1181 24.6029 27.6944 24.6029 27.6944L25.9079 23.0838C25.9079 23.0838 23.5033 22.2558 20.1314 21.1561C17.4221 20.2751 14.4079 19.4272 13.9707 18.9105C13.2155 18.0162 11.3143 15.3399 11.0891 12.9353C10.6784 8.46379 12.9042 6.43672 15.9316 6.30423C18.886 6.17174 20.3302 7.88746 21.4364 7.95371C22.5361 8.01995 23.6291 6.14524 22.9468 4.10493C21.8472 0.805973 16.4151 -0.856753 11.8046 0.66686C5.33913 2.79992 4.72306 10.8419 5.6836 14.3529C7.00186 19.1622 9.32702 21.9842 9.32702 21.9842L9.47276 33.822Z" fill="#727F37"/>
<path d="M27.6302 19.5201C23.2249 21.6532 19.7074 29.7946 25.8416 35.3392C30.8629 39.8769 37.8053 37.3994 39.9383 33.756C41.7865 30.5961 42.4158 25.5748 39.6601 22.2693C36.9043 18.9637 32.2474 17.2811 27.6302 19.5201Z" fill="#A363B1"/>
<path d="M38.5871 15.956C38.5871 15.956 40.0643 14.3463 42.5882 13.6838C44.6881 13.134 47.6824 12.9816 50.9747 15.2074C54.426 17.5392 55.1216 21.441 54.6777 24.6671C54.214 28.0058 52.3459 30.8874 50.458 31.4107C46.7417 32.4441 52.3128 30.4502 51.3523 28.6616C50.3917 26.873 45.0458 29.6751 40.6207 24.3292C37.3218 20.348 38.5871 15.956 38.5871 15.956Z" fill="#A363B1"/>
<path d="M41.8661 37.3995C40.1173 42.6394 42.6213 48.5417 48.8151 49.913C55.0023 51.2909 58.7186 47.2301 60.229 43.6529C61.7394 40.0757 60.3681 32.9943 54.2472 31.1394C48.1262 29.2846 43.3765 32.8618 41.8661 37.3995Z" fill="#A363B1"/>
<path d="M23.6425 46.2694C22.0658 51.251 24.8812 55.8285 28.3193 57.5508C32.6781 59.7302 39.1833 57.829 40.9719 52.6024C42.6214 47.7864 41.3826 42.2882 36.156 40.3605C30.9293 38.4328 25.3582 40.8374 23.6425 46.2694ZM5.48495 37.6776C4.00109 42.1358 5.48495 48.1309 11.5397 49.9195C17.5944 51.7081 21.5226 47.9255 22.821 43.5269C23.8544 40.0226 23.6491 34.3124 17.2499 31.9077C11.0097 29.5561 6.78996 33.7559 5.48495 37.6776ZM47.9805 51.9532C45.9601 52.344 44.867 54.1856 43.9595 56.3452C42.3895 60.0548 40.7533 61.0617 40.1438 62.4065C39.3622 64.1288 41.6211 65.5995 42.5485 66.1162C44.1317 66.9972 50.1997 68.0041 52.8428 62.7708C56.2213 56.0669 50.9549 51.3769 47.9805 51.9532ZM59.348 61.3665C59.3944 62.0885 67.3105 61.7242 67.2112 53.6954C67.1317 47.5413 62.5211 45.7461 62.5211 45.7461C62.5211 45.7461 59.5004 47.9785 59.6063 51.8008C59.7123 55.6297 60.4543 55.0534 60.2224 58.1735C60.1495 59.1473 59.3281 61.1015 59.348 61.3665ZM67.1052 64.1553C67.1052 64.1553 61.7924 64.3806 58.7121 68.5738C55.8437 72.4822 54.8302 77.3512 54.8302 77.3512C54.8302 77.3512 62.1501 81.1933 66.6415 76.2515C71.6628 70.7135 67.1052 64.1553 67.1052 64.1553ZM36.2222 68.5142C35.2617 69.0574 34.6721 73.085 36.5865 76.1323C37.6001 77.742 39.4417 79.1927 42.1577 79.6035C45.874 80.1665 48.4376 78.6893 50.1533 76.8742C52.1274 74.7875 52.7965 72.1112 52.2135 71.0778C51.1139 69.1435 48.2521 71.7668 43.3898 71.0315C38.5275 70.3028 37.8915 67.5735 36.2222 68.5142ZM19.6082 55.6628C18.747 55.8417 15.713 59.1605 16.0045 63.367C16.137 65.2815 16.6338 67.2688 18.6543 69.3422C21.4365 72.1907 25.4112 72.5087 28.0742 71.7535C30.512 71.058 32.3005 69.4681 32.3535 68.0969C32.4132 66.4209 32.1681 64.7184 29.2202 63.4995C27.8821 62.9497 25.6695 62.3469 23.5232 60.5715C20.0255 57.67 20.4826 55.4774 19.6082 55.6628ZM2.82857 45.7329C2.82857 45.7329 1.22546 47.5943 0.695507 50.3832C0.331164 52.3175 0.205301 54.5301 1.76866 57.054C5.39221 62.9099 12.3545 61.2605 12.3545 61.2605C12.3545 61.2605 15.4812 58.7962 14.1828 55.6364C13.7721 54.6294 12.8844 54.1724 10.9766 53.4106C7.6975 52.0989 5.74993 50.0652 4.75627 48.7072C3.76923 47.3558 2.82857 45.7329 2.82857 45.7329Z" fill="#A363B1"/>
<path d="M50.2392 33.5438C49.2522 32.4243 45.9532 33.3848 44.3369 37.1475C43.1047 40.0026 43.2902 44.4344 46.2182 44.9312C49.537 45.4943 47.6292 40.8108 48.9872 38.1412C49.8683 36.4122 51.3852 34.8555 50.2392 33.5438ZM31.83 42.2814C30.419 40.7114 27.544 42.5928 26.292 45.8321C24.5233 50.3963 26.8219 52.6751 27.915 52.4698C29.8493 52.1054 29.6903 49.7538 30.631 47.4021C31.3729 45.5605 33.2013 43.805 31.83 42.2814ZM42.4489 15.0816C40.9915 14.81 40.561 16.4992 40.561 17.6188C40.561 18.7383 40.7928 19.9174 41.919 19.977C42.9789 20.0367 43.4558 18.9768 43.6281 17.4399C43.7804 16.1415 43.3962 15.2605 42.4489 15.0816ZM30.5051 21.0502C28.6967 20.0565 25.8945 21.971 25.252 26.2967C24.7021 30.0263 26.1463 32.4641 28.1932 31.9871C30.4985 31.4505 29.8758 28.0389 30.4256 26.1179C31.0019 24.1107 32.1612 21.9644 30.5051 21.0502ZM11.917 34.5507C9.59187 34.0208 8.04838 36.3261 7.68404 38.6777C7.39257 40.5326 7.76353 43.1492 9.61836 43.5401C11.6057 43.9574 13.222 41.5527 13.487 39.6184C13.7454 37.6841 13.7454 34.9681 11.917 34.5507ZM3.28543 50.8667C2.13941 51.0058 1.71545 52.907 2.29177 54.4703C2.8681 56.0403 3.54379 56.769 4.74943 56.4577C6.09418 56.1066 5.16676 54.212 4.80242 53.1123C4.43146 52.0193 4.59044 50.7143 3.28543 50.8667ZM19.4954 59.6307C17.9784 59.7897 17.3424 61.777 17.7995 64.0095C18.1705 65.8047 19.502 67.7589 21.1713 67.1229C22.8871 66.4738 21.4893 64.4268 21.0587 62.7906C20.6215 61.161 20.8997 59.485 19.4954 59.6307ZM48.5367 57.0803C47.298 56.1397 45.7744 57.1068 44.7145 58.6702C43.6546 60.2336 43.6148 61.5452 44.6548 62.3799C45.8009 63.3007 47.5298 62.5654 48.4639 61.0815C49.2588 59.8162 49.8418 58.074 48.5367 57.0803ZM38.1166 71.0711C36.8248 71.1705 36.4406 72.4225 36.8049 73.913C37.103 75.1319 38.0569 75.9202 39.0109 75.5293C39.8257 75.1915 40.3424 74.1316 39.8588 72.5285C39.5011 71.3758 38.7724 71.0181 38.1166 71.0711Z" fill="#DABCF3"/>
</svg>
