<svg width="66" height="84" viewBox="0 0 66 84" fill="none" xmlns="http://www.w3.org/2000/svg">
<path d="M65.3315 83.9974V79.3309C65.3315 71.5985 59.0666 65.3313 51.3319 65.3313H13.9996C10.2867 65.3313 6.72582 66.8063 4.10039 69.4317C1.47495 72.0571 0 75.618 0 79.3309V83.9974H65.3315Z" fill="#E1E8ED"/>
<path d="M60.6654 17.4995C60.6654 27.1639 48.1311 34.999 32.6662 34.999C17.2036 34.999 4.66699 27.1639 4.66699 17.4995C4.66699 7.83511 17.2036 0 32.6662 0C48.1311 0 60.6654 7.83511 60.6654 17.4995Z" fill="#292F33"/>
<path d="M22.4932 65.5671C26.5624 68.5257 29.1383 70.1473 32.6662 70.1473C36.1941 70.1473 38.77 68.5234 42.8392 65.5671V56.675H22.4932V65.5671Z" fill="#FFDC5D"/>
<path d="M22.4741 60.6017C25.3114 63.8076 28.8299 64.6756 32.6565 64.6756C36.4807 64.6756 39.9993 63.8053 42.8389 60.6017V52.4563H22.4741V60.6017Z" fill="#F9CA55"/>
<path d="M31.9564 12.5297C27.4649 11.0761 32.8664 11.1741 30.2228 14.6086C23.3537 14.7416 11.657 19.9961 9.1534 25.2133C6.65914 30.4119 8.65175 36.5787 9.48006 42.6755C10.4204 49.582 14.3029 51.7916 17.4062 52.7155C21.872 58.6164 26.6202 58.3644 34.593 58.3644C50.1606 58.3644 57.5757 47.9487 58.2313 30.2555C58.6303 19.5528 43.2518 16.1836 31.9564 12.5297Z" fill="#FFAC33"/>
<path d="M49.9626 31.0115C48.4554 28.9256 46.5281 27.2456 42.3002 26.653C43.8868 27.3786 45.4058 29.8892 45.6041 31.2775C45.8024 32.6658 46.0008 33.7881 44.7455 32.3998C39.7173 26.842 34.2411 29.0306 28.8163 25.6357C25.0247 23.2627 23.8697 20.6401 23.8697 20.6401C23.8697 20.6401 23.4077 24.14 17.6609 27.7076C15.995 28.7412 14.007 31.0442 12.9057 34.4461C12.1124 36.8913 12.3597 39.0706 12.3597 42.7945C12.3597 53.6675 21.3218 62.8093 32.3745 62.8093C43.4272 62.8093 52.3892 53.5859 52.3892 42.7945C52.3892 36.0304 51.6799 33.3891 49.9626 31.0115Z" fill="#FFDC5D"/>
<path d="M34.5953 48.3546H30.1481C29.8529 48.3546 29.5699 48.2373 29.3611 48.0286C29.1524 47.8199 29.0352 47.5368 29.0352 47.2416C29.0352 46.9465 29.1524 46.6634 29.3611 46.4546C29.5699 46.2459 29.8529 46.1287 30.1481 46.1287H34.5953C34.8905 46.1287 35.1736 46.2459 35.3823 46.4546C35.591 46.6634 35.7083 46.9465 35.7083 47.2416C35.7083 47.5368 35.591 47.8199 35.3823 48.0286C35.1736 48.2373 34.8905 48.3546 34.5953 48.3546Z" fill="#C1694F"/>
<path d="M23.4775 40.571C22.8878 40.571 22.3222 40.3367 21.9052 39.9197C21.4882 39.5027 21.2539 38.9371 21.2539 38.3474V36.1237C21.2539 35.534 21.4882 34.9684 21.9052 34.5514C22.3222 34.1344 22.8878 33.9001 23.4775 33.9001C24.0672 33.9001 24.6328 34.1344 25.0498 34.5514C25.4668 34.9684 25.7011 35.534 25.7011 36.1237V38.3474C25.7011 38.9371 25.4668 39.5027 25.0498 39.9197C24.6328 40.3367 24.0672 40.571 23.4775 40.571ZM41.2687 40.571C40.6789 40.571 40.1133 40.3367 39.6963 39.9197C39.2793 39.5027 39.0451 38.9371 39.0451 38.3474V36.1237C39.0451 35.534 39.2793 34.9684 39.6963 34.5514C40.1133 34.1344 40.6789 33.9001 41.2687 33.9001C41.8584 33.9001 42.424 34.1344 42.841 34.5514C43.258 34.9684 43.4923 35.534 43.4923 36.1237V38.3474C43.4923 38.9371 43.258 39.5027 42.841 39.9197C42.424 40.3367 41.8584 40.571 41.2687 40.571Z" fill="#662113"/>
<path d="M32.6657 57.641C26.2399 57.641 24.2659 55.9961 23.9369 55.6624C23.643 55.3833 23.472 54.9989 23.4615 54.5937C23.4509 54.1885 23.6018 53.7957 23.8809 53.5018C24.16 53.2079 24.5444 53.0368 24.9496 53.0263C25.3548 53.0158 25.7476 53.1667 26.0415 53.4458C26.1629 53.5321 27.7238 54.5821 32.6657 54.5821C37.7989 54.5821 39.2828 53.4505 39.2968 53.4388C39.4378 53.299 39.6053 53.1889 39.7895 53.1148C39.9737 53.0407 40.1708 53.0043 40.3693 53.0075C40.5678 53.0108 40.7637 53.0537 40.9453 53.1338C41.127 53.2139 41.2908 53.3295 41.4271 53.4738C41.7098 53.77 41.8648 54.1654 41.8586 54.5748C41.8525 54.9842 41.6858 55.3748 41.3944 55.6624C41.0654 55.9961 39.0915 57.641 32.6657 57.641Z" fill="#C1694F"/>
<path d="M10.4995 20.9995C10.4995 18.4213 20.4229 16.333 32.6655 16.333C44.9082 16.333 54.8316 18.4213 54.8316 20.9995C54.8316 23.5778 44.9082 25.6661 32.6655 25.6661C20.4229 25.6661 10.4995 23.5778 10.4995 20.9995Z" fill="#292F33"/>
<path d="M54.8316 18.6661H10.4995V10.6257C10.4995 10.6257 19.7346 2.33325 32.6655 2.33325C45.5965 2.33325 54.8316 10.6257 54.8316 10.6257V18.6661Z" fill="#66757F"/>
<path d="M25.666 11.6663C25.666 5.15187 28.7996 9.33308 32.6658 9.33308C36.532 9.33308 39.6656 5.15187 39.6656 11.6663C39.6656 15.5326 36.532 16.3329 32.6658 16.3329C28.7996 16.3329 25.666 15.5326 25.666 11.6663Z" fill="#FFAC33"/>
<path d="M27.9996 11.6666C27.9856 11.0451 28.0958 10.4271 28.3239 9.84889C28.552 9.27065 28.8932 8.74379 29.3277 8.29926C29.7622 7.85473 30.2811 7.50148 30.854 7.26025C31.4269 7.01903 32.0422 6.89469 32.6638 6.89453C33.2854 6.89438 33.9008 7.01841 34.4738 7.25935C35.0468 7.50029 35.5659 7.85327 36.0006 8.29759C36.4353 8.7419 36.7768 9.26859 37.0052 9.84672C37.2335 10.4249 37.3441 11.0428 37.3304 11.6642C37.3034 12.8835 36.8002 14.0438 35.9284 14.8967C35.0567 15.7496 33.8857 16.2273 32.6661 16.2276C31.4466 16.2279 30.2753 15.7508 29.4032 14.8983C28.531 14.0458 28.0272 12.8858 27.9996 11.6666ZM54.8322 20.9996H10.5001C9.85848 20.9996 9.3335 20.4746 9.3335 19.833C9.3335 19.1913 9.85848 18.6664 10.5001 18.6664H54.8322C55.4738 18.6664 55.9988 19.1913 55.9988 19.833C55.9988 20.4746 55.4738 20.9996 54.8322 20.9996Z" fill="#FDCB58"/>
<path d="M17.6815 67.7955L3.85457 69.9841C3.54895 70.0318 3.23688 69.9564 2.98673 69.7745C2.73657 69.5926 2.56872 69.3189 2.51994 69.0135L2.15362 66.7082C2.10595 66.4029 2.18138 66.0911 2.36336 65.8413C2.54534 65.5915 2.81899 65.4241 3.12425 65.3759L16.9512 63.1873C17.2564 63.1402 17.5678 63.2155 17.8178 63.3968C18.0677 63.5782 18.2359 63.8509 18.2858 64.1556L18.6521 66.4609C18.6992 66.7664 18.6236 67.0782 18.4418 67.3282C18.26 67.5782 17.9867 67.7462 17.6815 67.7955Z" fill="#292F33"/>
<path d="M4.2793 65.1914L6.5869 64.8251L7.31488 69.431L5.00728 69.7973L4.2793 65.1914ZM8.88283 64.4611L11.1858 64.0971L11.9161 68.7053L9.61081 69.0716L8.88283 64.4611ZM13.498 63.7308L15.8033 63.3691L16.5266 67.9797L14.2213 68.3413L13.498 63.7308Z" fill="#FDCB58"/>
<path d="M61.4771 69.9839L47.6502 67.793C47.3447 67.7442 47.071 67.5763 46.8891 67.3262C46.7072 67.076 46.6318 66.7639 46.6795 66.4583L47.0458 64.1577C47.0946 63.8523 47.2625 63.5786 47.5126 63.3967C47.7628 63.2148 48.0749 63.1394 48.3805 63.1871L62.2074 65.3757C62.8397 65.476 63.2784 66.0757 63.178 66.7103L62.8117 69.0133C62.7629 69.3187 62.5951 69.5924 62.3449 69.7743C62.0948 69.9562 61.7827 70.0316 61.4771 69.9839Z" fill="#292F33"/>
<path d="M48.8027 67.9798L49.5307 63.3716L51.836 63.7356L51.1057 68.3438L48.8027 67.9798ZM53.4133 68.7078L54.1366 64.0972L56.4442 64.4589L55.7209 69.0694L53.4133 68.7078ZM58.0215 69.4427L58.7495 64.8322L61.0594 65.1962L60.3291 69.8067L58.0215 69.4427Z" fill="#FDCB58"/>
<path d="M32.668 72.0467C32.668 72.0467 40.5568 77.8658 42.2181 78.5285C42.5821 78.6755 41.3641 69.998 41.3641 69.998H23.972C23.972 69.998 22.7493 78.8201 23.4306 78.4561C24.9216 77.6558 32.668 72.0467 32.668 72.0467Z" fill="#99AAB5"/>
<path d="M35.7273 78.0198C35.7273 78.0198 36.6023 76.5615 36.9663 75.9058C37.3933 75.1382 38.0232 72.2426 38.0232 72.2426L32.918 69.998C32.918 69.9817 32.5447 70.012 32.5447 70.012L32.1154 70.11L31.7141 70.2547C31.2054 70.418 31.9334 70.2733 31.9334 70.2897L27.3275 72.2426C27.3275 72.2426 27.9972 75.1382 28.4242 75.9058C28.7882 76.5615 29.6561 78.0198 29.6561 78.0198C29.6561 78.0198 27.8992 79.3311 27.2412 83.9999H38.1329C37.4773 80.2784 35.7273 78.0198 35.7273 78.0198Z" fill="#292F33"/>
<path d="M21.6809 62.1232C23.0016 63.4438 32.6683 70.0166 32.6683 70.0166C32.6683 70.0166 27.7078 72.9145 23.1392 78.2624C22.6796 78.799 19.5413 67.471 19.4457 64.9417C19.4177 64.2348 21.0486 61.4908 21.6809 62.1232ZM43.7023 62.1232C42.3817 63.4438 32.715 70.0166 32.715 70.0166C32.715 70.0166 37.6755 72.9145 42.244 78.2624C42.7013 78.799 45.8419 67.471 45.9376 64.9417C45.9656 64.2348 44.3346 61.4908 43.7023 62.1232Z" fill="#F5F8FA"/>
<path d="M32.7034 71.6033C33.6134 71.552 36.3036 73.4023 36.0213 74.5199C34.9457 78.7828 34.0404 77.7655 32.7758 77.7655C31.3501 77.7655 30.5265 78.8691 29.5325 74.7042C29.3132 73.7989 31.3921 71.6757 32.7034 71.6033ZM37.4423 83.9977H28.0532C28.0532 83.9977 29.3179 78.9415 32.7641 78.9415C36.2103 78.9415 37.4423 83.9977 37.4423 83.9977Z" fill="#323A3F"/>
</svg>
