<svg width="32" height="32" viewBox="0 0 32 32" fill="none" xmlns="http://www.w3.org/2000/svg">
<circle cx="16" cy="16" r="16" fill="white"/>
<path d="M15.6924 5.97256C15.6924 5.97256 16.0927 5.04944 17.0005 4.46319C17.4424 4.17881 18.2146 3.73912 18.3546 3.98631C18.4158 4.0935 18.2168 4.37131 18.0155 4.80225C17.9346 4.97944 17.753 5.55694 17.753 5.55694C17.753 5.55694 18.5537 4.50912 19.9558 4.2335C21.0583 4.01475 22.2505 4.15694 22.3883 4.40194C22.5371 4.66662 21.7562 5.2485 21.5112 5.756C21.2662 6.2635 21.0802 6.911 21.0802 6.911C21.0802 6.911 22.5568 6.21319 22.9287 6.06444C23.3902 5.88069 24.3921 5.49569 24.5299 5.66412C24.6677 5.83256 24.088 6.81037 23.9612 6.98756C23.808 7.20412 23.5762 7.60444 23.5762 7.60444C23.5762 7.60444 24.2849 7.28069 24.5605 7.11225C24.8383 6.94381 25.453 6.46475 25.593 6.55881C25.7308 6.65069 25.7308 7.58694 25.639 7.99162C25.5165 8.52975 24.9455 9.116 24.9455 9.116C24.9455 9.116 25.7615 9.29975 26.2077 9.87069C26.654 10.4416 26.9143 10.8857 27.1002 11.4566C27.378 12.3032 27.5005 13.4582 27.4393 13.6747C27.378 13.8913 27.039 13.5982 26.4068 13.5522C26.0327 13.5238 25.9452 13.5216 25.9452 13.5216C25.9452 13.5216 26.3018 13.946 26.468 14.3376C26.6846 14.8451 26.9208 15.6457 27.0521 15.9847C27.1899 16.3391 27.2993 16.6169 27.4983 17.0172C27.5574 17.1354 27.0827 17.2491 26.6058 16.8007C26.4462 16.6519 26.2515 16.5076 26.2515 16.5076C26.2515 16.5076 26.5337 18.1854 26.514 19.3097C26.4987 20.141 26.3127 21.6504 26.0677 21.7882C25.8205 21.926 25.3283 20.8651 25.3283 20.8651C25.3283 20.8651 25.114 22.0726 24.8668 22.8819C24.5737 23.8357 24.2958 24.2819 24.1274 24.8529C23.9262 25.531 23.7271 26.0232 23.5893 25.8066C23.469 25.6207 23.3421 25.3297 23.2196 25.1132C23.1255 24.9491 22.9112 24.5116 22.9112 24.5116C22.9112 24.5116 22.6946 25.8197 21.649 26.6991C20.6033 27.5785 19.9252 28.2851 19.4308 28.3463C19.1399 28.3835 19.4768 27.0688 19.4768 27.0688C19.4768 27.0688 17.8449 28.3507 17.0596 28.9326C16.7052 29.1951 16.3815 30.0569 16.1365 29.9957C15.8893 29.9344 15.2593 28.9785 14.859 28.6876C14.4587 28.3966 13.704 28.0554 13.5968 27.9941C13.4896 27.9329 12.9799 27.6091 12.9799 27.6091C12.9799 27.6091 13.1068 28.3244 12.9646 28.3944C12.6562 28.5476 11.4705 27.701 11.1315 27.1782C10.7924 26.6554 10.193 25.5769 10.193 25.5769C10.193 25.5769 10.1165 26.6094 9.86928 26.4388C9.60678 26.2594 8.32928 25.3144 7.88303 24.6057C7.56803 24.1047 7.02116 22.696 7.02116 22.696C7.02116 22.696 6.54428 23.1882 6.40428 23.2494C6.26428 23.3107 5.9121 23.4507 5.97335 22.9104C6.0346 22.3722 5.61241 21.1516 5.54241 20.4166C5.45053 19.4629 5.63428 18.4763 5.63428 18.4763C5.63428 18.4763 4.84897 19.5241 4.47928 19.5088C4.1096 19.4935 4.32616 17.4766 4.41803 16.8597C4.50991 16.2429 4.81835 15.1666 4.94085 14.7816C5.06335 14.3966 5.52491 13.8279 5.52491 13.8279C5.52491 13.8279 4.38522 14.2129 4.21678 14.0597C4.04835 13.9066 4.30866 12.5351 4.46397 11.7038C4.54272 11.2772 4.8796 10.6101 5.31053 10.1179C5.74147 9.62569 6.40428 9.71756 6.46553 9.501C6.52678 9.28444 6.22053 9.11381 6.00397 8.76162C5.68022 8.23881 5.49647 7.16037 5.66491 6.97444C5.76991 6.86069 6.35835 7.3135 7.0671 7.39006C7.77585 7.46662 8.40585 7.42069 8.40585 7.42069C8.40585 7.42069 7.99678 6.93944 7.82178 6.5435C7.5746 5.99006 7.55928 5.32725 7.7146 5.15662C7.86991 4.986 8.40803 5.511 9.1321 5.69475C9.85616 5.8785 10.9346 5.896 10.9346 5.896C10.9346 5.896 10.473 5.40381 10.3505 4.83287C10.228 4.26412 10.2587 3.90975 10.4577 3.8485C10.659 3.78725 11.2452 4.33631 11.6587 4.46537C12.1049 4.60319 13.6143 4.51131 14.2924 4.71256C14.9705 4.91381 15.6924 5.97256 15.6924 5.97256Z" fill="#865C50"/>
<path d="M20.5575 10.7789C20.5575 10.7789 23.2065 8.2545 24.7465 10.1314C26.5731 12.3604 21.7278 14.8126 21.7278 14.8126L20.5575 10.7789ZM11.3197 11.4242C11.3197 11.4242 8.84998 8.18669 7.03436 9.94106C5.21873 11.6954 8.97905 14.3795 8.97905 14.3795L11.3197 11.4242Z" fill="#FEC000"/>
<path d="M22.8358 12.9336C22.8358 12.9336 24.7761 11.5796 23.9755 10.7155C23.1202 9.79459 21.543 11.3936 21.543 11.3936L22.8358 12.9336ZM10.1898 11.503C10.1898 11.503 8.58203 9.91052 7.75078 10.8949C7.00266 11.7808 9.13766 13.4827 9.13766 13.4827L10.1898 11.503Z" fill="#FF8E06"/>
<path d="M16.1528 22.5716C16.1528 22.5716 17.7234 22.1407 18.7078 21.6485C19.6921 21.1563 23.3584 19.0935 23.634 16.5669C23.9118 14.0425 23.634 13.3644 22.4637 11.8244C21.2934 10.2844 19.2415 9.93003 18.1828 10.1619C16.9206 10.4397 16.704 11.3607 16.1506 11.3935C15.6278 11.4241 15.7809 10.84 14.2715 10.2844C12.34 9.57347 7.05277 11.4766 7.98902 16.5669C8.48121 19.2466 12.3859 21.5325 12.8846 21.8016C14.09 22.4491 16.1528 22.5716 16.1528 22.5716Z" fill="#FEC000"/>
<path d="M20.1463 14.1633C20.3353 13.6884 20.1108 13.1532 19.645 12.9678C19.1792 12.7824 18.6483 13.017 18.4594 13.4918C18.2704 13.9667 18.4948 14.5019 18.9606 14.6873C19.4265 14.8727 19.9573 14.6381 20.1463 14.1633Z" fill="#2E2F2F"/>
<path d="M13.0294 14.5917C13.5073 14.3974 13.7342 13.8452 13.5362 13.3584C13.3383 12.8716 12.7904 12.6345 12.3125 12.8288C11.8347 13.0231 11.6078 13.5753 11.8057 14.0621C12.0037 14.5489 12.5516 14.7861 13.0294 14.5917Z" fill="#2E2F2F"/>
<path d="M16.1125 15.4689C14.2444 15.412 12.6016 17.523 12.6016 21.0317C12.6016 24.4398 14.4084 25.2405 15.8653 25.2405C17.7138 25.2405 19.4572 24.0286 19.2538 20.7233C19.0634 17.6651 18.1031 15.5301 16.1125 15.4689Z" fill="#FFD899"/>
<path d="M13.9359 17.3982C13.7521 17.5819 14.0999 18.5882 14.4084 19.1022C14.7168 19.6163 15.5984 20.4563 16.0927 20.4366C16.5849 20.4169 17.5102 19.3888 17.7968 18.6297C18.0834 17.8707 18.1665 17.3982 18.044 17.2122C17.9215 17.0263 16.4624 17.2538 15.909 17.2538C15.3555 17.2538 14.1218 17.2144 13.9359 17.3982Z" fill="#2E2F2F"/>
<path d="M16.05 19.73C16.05 19.73 15.2559 20.594 14.9103 20.7253C14.4268 20.909 13.6787 20.7515 13.6568 21.049C13.6371 21.3575 14.1184 21.6812 14.8884 21.5784C15.7393 21.4647 16.0587 20.9419 16.0587 20.9419C16.0587 20.9419 16.5421 21.6287 17.4762 21.6703C18.4103 21.7119 18.6268 21.1169 18.3687 21.0337C18.0187 20.9222 17.8 20.944 17.2706 20.7778C16.8506 20.6422 16.05 19.73 16.05 19.73Z" fill="#2E2F2F"/>
</svg>
