<svg width="32" height="32" viewBox="0 0 32 32" fill="none" xmlns="http://www.w3.org/2000/svg">
<circle cx="16" cy="16" r="16" fill="white"/>
<path d="M15.6914 5.97256C15.6914 5.97256 16.0917 5.04944 16.9996 4.46319C17.4414 4.17881 18.2136 3.73912 18.3536 3.98631C18.4149 4.0935 18.2158 4.37131 18.0146 4.80225C17.9336 4.97944 17.7521 5.55694 17.7521 5.55694C17.7521 5.55694 18.5527 4.50912 19.9549 4.2335C21.0574 4.01475 22.2496 4.15694 22.3874 4.40194C22.5361 4.66662 21.7552 5.2485 21.5102 5.756C21.2652 6.2635 21.0792 6.911 21.0792 6.911C21.0792 6.911 22.5558 6.21319 22.9277 6.06444C23.3892 5.88069 24.3911 5.49569 24.5289 5.66412C24.6667 5.83256 24.0871 6.81037 23.9602 6.98756C23.8071 7.20412 23.5752 7.60444 23.5752 7.60444C23.5752 7.60444 24.2839 7.28069 24.5596 7.11225C24.8374 6.94381 25.4521 6.46475 25.5921 6.55881C25.7299 6.65069 25.7299 7.58694 25.638 7.99162C25.5155 8.52975 24.9446 9.116 24.9446 9.116C24.9446 9.116 25.7605 9.29975 26.2067 9.87069C26.653 10.4416 26.9133 10.8857 27.0992 11.4566C27.3771 12.3032 27.4996 13.4582 27.4383 13.6747C27.3771 13.8913 27.038 13.5982 26.4058 13.5522C26.0317 13.5238 25.9442 13.5216 25.9442 13.5216C25.9442 13.5216 26.3008 13.946 26.4671 14.3376C26.6836 14.8451 26.9199 15.6457 27.0511 15.9847C27.1889 16.3391 27.2983 16.6169 27.4974 17.0172C27.5564 17.1354 27.0817 17.2491 26.6049 16.8007C26.4452 16.6519 26.2505 16.5076 26.2505 16.5076C26.2505 16.5076 26.5327 18.1854 26.513 19.3097C26.4977 20.141 26.3117 21.6504 26.0667 21.7882C25.8196 21.926 25.3274 20.8651 25.3274 20.8651C25.3274 20.8651 25.113 22.0726 24.8658 22.8819C24.5727 23.8357 24.2949 24.2819 24.1264 24.8529C23.9252 25.531 23.7261 26.0232 23.5883 25.8066C23.468 25.6207 23.3411 25.3297 23.2186 25.1132C23.1246 24.9491 22.9102 24.5116 22.9102 24.5116C22.9102 24.5116 22.6936 25.8197 21.648 26.6991C20.6024 27.5785 19.9242 28.2851 19.4299 28.3463C19.1389 28.3835 19.4758 27.0688 19.4758 27.0688C19.4758 27.0688 17.8439 28.3507 17.0586 28.9326C16.7042 29.1951 16.3805 30.0569 16.1355 29.9957C15.8883 29.9344 15.2583 28.9785 14.858 28.6876C14.4577 28.3966 13.703 28.0554 13.5958 27.9941C13.4886 27.9329 12.9789 27.6091 12.9789 27.6091C12.9789 27.6091 13.1058 28.3244 12.9636 28.3944C12.6552 28.5476 11.4696 27.701 11.1305 27.1782C10.7914 26.6554 10.1921 25.5769 10.1921 25.5769C10.1921 25.5769 10.1155 26.6094 9.86831 26.4388C9.60581 26.2594 8.32831 25.3144 7.88206 24.6057C7.56706 24.1047 7.02018 22.696 7.02018 22.696C7.02018 22.696 6.54331 23.1882 6.40331 23.2494C6.26331 23.3107 5.91112 23.4507 5.97237 22.9104C6.03362 22.3722 5.61143 21.1516 5.54143 20.4166C5.44956 19.4629 5.63331 18.4763 5.63331 18.4763C5.63331 18.4763 4.84799 19.5241 4.47831 19.5088C4.10862 19.4935 4.32518 17.4766 4.41706 16.8597C4.50893 16.2429 4.81737 15.1666 4.93987 14.7816C5.06237 14.3966 5.52393 13.8279 5.52393 13.8279C5.52393 13.8279 4.38424 14.2129 4.21581 14.0597C4.04737 13.9066 4.30768 12.5351 4.46299 11.7038C4.54174 11.2772 4.87862 10.6101 5.30956 10.1179C5.74049 9.62569 6.40331 9.71756 6.46456 9.501C6.52581 9.28444 6.21956 9.11381 6.00299 8.76162C5.67924 8.23881 5.49549 7.16037 5.66393 6.97444C5.76893 6.86069 6.35737 7.3135 7.06612 7.39006C7.77487 7.46662 8.40487 7.42069 8.40487 7.42069C8.40487 7.42069 7.99581 6.93944 7.82081 6.5435C7.57362 5.99006 7.55831 5.32725 7.71362 5.15662C7.86893 4.986 8.40706 5.511 9.13112 5.69475C9.85518 5.8785 10.9336 5.896 10.9336 5.896C10.9336 5.896 10.4721 5.40381 10.3496 4.83287C10.2271 4.26412 10.2577 3.90975 10.4567 3.8485C10.658 3.78725 11.2442 4.33631 11.6577 4.46537C12.1039 4.60319 13.6133 4.51131 14.2914 4.71256C14.9696 4.91381 15.6914 5.97256 15.6914 5.97256Z" fill="#865C50"/>
<path d="M20.5565 10.7784C20.5565 10.7784 23.2056 8.25401 24.7456 10.1309C26.5721 12.36 21.7268 14.8121 21.7268 14.8121L20.5565 10.7784ZM11.3187 11.4237C11.3187 11.4237 8.84901 8.1862 7.03338 9.94058C5.21776 11.695 8.97807 14.379 8.97807 14.379L11.3187 11.4237Z" fill="#FEC000"/>
<path d="M22.8358 12.9332C22.8358 12.9332 24.7761 11.5791 23.9755 10.715C23.1202 9.7941 21.543 11.3932 21.543 11.3932L22.8358 12.9332ZM10.1898 11.5025C10.1898 11.5025 8.58203 9.91004 7.75078 10.8944C7.00266 11.7803 9.13766 13.4822 9.13766 13.4822L10.1898 11.5025Z" fill="#FF8E06"/>
<path d="M16.1528 22.5711C16.1528 22.5711 17.7234 22.1402 18.7078 21.648C19.6921 21.1558 23.3584 19.093 23.634 16.5664C23.9118 14.042 23.634 13.3639 22.4637 11.8239C21.2934 10.2839 19.2415 9.92954 18.1828 10.1614C16.9206 10.4392 16.704 11.3602 16.1506 11.393C15.6278 11.4236 15.7809 10.8395 14.2715 10.2839C12.34 9.57298 7.05277 11.4761 7.98902 16.5664C8.48121 19.2461 12.3859 21.532 12.8846 21.8011C14.09 22.4486 16.1528 22.5711 16.1528 22.5711Z" fill="#FEC000"/>
<path d="M20.1463 14.1633C20.3353 13.6884 20.1108 13.1532 19.645 12.9678C19.1792 12.7824 18.6483 13.017 18.4594 13.4918C18.2704 13.9667 18.4948 14.5019 18.9606 14.6873C19.4265 14.8727 19.9573 14.6381 20.1463 14.1633Z" fill="#2E2F2F"/>
<path d="M13.0294 14.5917C13.5073 14.3974 13.7342 13.8452 13.5362 13.3584C13.3383 12.8716 12.7904 12.6345 12.3125 12.8288C11.8347 13.0231 11.6078 13.5753 11.8057 14.0621C12.0037 14.5489 12.5516 14.7861 13.0294 14.5917Z" fill="#2E2F2F"/>
<path d="M16.1115 15.4684C14.2434 15.4115 12.6006 17.5225 12.6006 21.0312C12.6006 24.4393 14.4075 25.24 15.8643 25.24C17.7128 25.24 19.4562 24.0281 19.2528 20.7228C19.0625 17.6647 18.1021 15.5297 16.1115 15.4684Z" fill="#FFD899"/>
<path d="M13.9349 17.3977C13.7511 17.5814 14.0989 18.5877 14.4074 19.1018C14.7158 19.6158 15.5974 20.4558 16.0918 20.4361C16.5839 20.4164 17.5093 19.3883 17.7958 18.6293C18.0824 17.8702 18.1655 17.3977 18.043 17.2118C17.9205 17.0258 16.4614 17.2533 15.908 17.2533C15.3546 17.2533 14.1208 17.2139 13.9349 17.3977Z" fill="#2E2F2F"/>
<path d="M16.05 19.7295C16.05 19.7295 15.2559 20.5936 14.9103 20.7248C14.4268 20.9086 13.6787 20.7511 13.6568 21.0486C13.6371 21.357 14.1184 21.6807 14.8884 21.5779C15.7393 21.4642 16.0587 20.9414 16.0587 20.9414C16.0587 20.9414 16.5421 21.6282 17.4762 21.6698C18.4103 21.7114 18.6268 21.1164 18.3687 21.0332C18.0187 20.9217 17.8 20.9436 17.2706 20.7773C16.8506 20.6417 16.05 19.7295 16.05 19.7295Z" fill="#2E2F2F"/>
</svg>
