<svg width="198" height="280" viewBox="0 0 198 280" fill="none" xmlns="http://www.w3.org/2000/svg">
<path d="M109.832 106.228C109.832 106.228 121.71 100.956 132.254 98.9648C142.797 96.9968 151.395 97.3248 151.395 97.3248C151.395 97.3248 160.626 83.8062 161.938 76.5432C163.25 69.2802 163.414 62.5326 163.578 61.3611C163.977 58.5496 182.72 58.3856 186.656 69.6082C190.615 80.8307 185.672 94.3493 182.368 99.2928C179.065 104.236 175.433 107.868 175.433 107.868C175.433 107.868 191.599 123.05 195.231 139.872C198.862 156.694 197.878 181.435 197.878 181.435C197.878 181.435 196.894 200.225 187.663 201.561C178.432 202.873 167.21 194.462 165.57 192.494C163.93 190.526 160.743 184.973 155.355 186.73C149.263 188.698 147.693 195.727 146.452 201.912C144.905 209.503 142.609 228.856 142.609 228.856C142.609 228.856 131.621 233.26 125.014 232.253C118.407 231.269 110.16 223.35 110.16 223.35C110.16 223.35 110.816 213.463 107.512 211.471C104.209 209.48 100.905 215.103 100.905 215.103L87.7148 229.606L69.5807 214.751C69.5807 214.751 68.2687 208.144 66.2772 204.864C64.3092 201.561 60.3496 194.321 59.0142 189.354C55.7341 177.148 56.7181 153.742 56.7181 153.742L36.5925 55.457L41.5361 50.8415C41.5361 50.8415 46.1516 27.0844 53.4146 16.8693C60.6776 6.65418 66.6052 4.00669 70.5647 2.01522C74.5242 0.0237448 86.7308 -1.28828 86.7308 2.01522C86.7308 5.31872 81.1312 9.60625 77.8277 14.8778C74.5242 20.1493 70.8927 27.7404 68.9247 34.3474C66.9566 40.9544 64.7543 48.85 64.7543 48.85L71.9002 50.49C71.9002 50.49 75.8597 40.931 79.4912 35.9874C83.1227 31.0439 88.2303 24.2729 94.5093 19.4933C99.8277 15.4401 107.208 11.2463 115.455 11.2463C123.702 11.2463 134.596 13.5658 133.589 19.6573C133.05 22.9843 126.818 21.4614 120.562 25.5849C112.948 30.5987 104.724 38.9395 98.6328 52.9501C92.5412 66.9607 90.3857 73.0757 90.3857 73.0757C90.3857 73.0757 106.388 88.0937 108.028 93.2013C109.668 98.3088 109.832 106.228 109.832 106.228Z" fill="#B68859"/>
<path d="M37.2719 154.609C37.2719 154.609 50.6968 163.09 56.6244 163.395C65.7383 163.887 79.1632 158.498 87.5742 149.267C95.9853 140.036 102.92 126.588 101.702 110.187C100.648 96.0596 95.8213 90.8817 95.8213 90.8817C95.8213 90.8817 104.232 99.1288 116.439 98.1448C128.645 97.1607 138.533 89.7337 142.328 82.3067C145.327 76.4494 148.092 69.2801 146.288 67.9681C144.484 66.6561 138.415 67.9681 138.415 67.9681L115.431 78.3472L76.0237 80.9947L34.7884 139.872L37.2719 154.609ZM5.59579 60.9394C3.95575 62.064 6.41581 69.5144 12.2028 73.9659C17.9898 78.4175 26.2134 79.7295 26.2134 79.7295L38.42 63.0714C38.42 63.0714 8.73529 58.7839 5.59579 60.9394Z" fill="#6D4938"/>
<path d="M110.043 219.812C110.043 219.812 116.744 225.974 126.139 225.154C135.534 224.334 144.015 218.289 144.015 218.289C144.015 218.289 142.141 237.525 141.977 241.156C141.813 244.788 141.485 255.448 141.485 255.448C141.485 255.448 129.606 268.193 123.187 267.045C116.744 265.897 107.794 254.628 107.958 252.472C108.122 250.317 109.504 240.664 109.832 235.697C110.16 230.754 110.043 219.812 110.043 219.812ZM85.5828 216.884C95.6339 216.181 103.225 212.315 103.225 212.315C103.225 212.315 103.764 226.396 103.553 230.121C103.178 236.634 102.663 244.413 102.007 246.404C101.351 248.372 79.9598 251.184 79.9598 251.184C79.9598 251.184 69.5807 241.953 69.5807 241.461C69.5807 240.969 70.1196 233.94 70.3539 228.715C70.5179 224.92 69.3699 213.112 69.3699 213.112C69.3699 213.112 76.0237 217.563 85.5828 216.884ZM164.586 191.229C164.586 191.229 171.685 192.002 176.464 191.51C181.244 191.018 191.131 187.386 193.614 185.746C196.098 184.106 197.902 181.459 197.902 181.459C197.902 181.459 196.918 201.912 197.082 205.872C197.246 209.831 197.246 219.227 197.246 219.227C197.246 219.227 189.491 231.761 181.244 232.581C172.997 233.401 164.586 218.172 164.586 218.172C164.586 218.172 165.804 210.136 165.804 205.193C165.781 200.249 164.586 191.229 164.586 191.229Z" fill="#855B52"/>
<path d="M122.905 258.282C131.621 259.055 141.649 254.323 141.649 254.323C141.649 254.323 142.469 269.341 140.172 273.675C138.204 277.424 132.136 281.477 117.259 279.064C107.606 277.494 106.435 271.777 105.872 268.169C105.333 264.538 107.84 252.003 107.84 252.003C107.84 252.003 111.87 257.298 122.905 258.282ZM181.08 223.115C188.015 222.881 197.246 219.202 197.246 219.202C197.246 219.202 197.738 233.869 192.138 239C185.695 244.881 170.419 243.077 166.132 238.274C161.844 233.494 164.586 217.703 164.586 217.703C164.586 217.703 171.661 223.443 181.08 223.115ZM84.7627 244.928C92.8691 245.256 102.686 242.35 102.686 242.35C102.686 242.35 103.904 260.063 95.6572 263.132C86.8947 266.412 75.4379 265.662 70.9161 259.946C67.6594 255.822 69.44 240.804 69.44 240.804C69.44 240.804 76.3516 244.6 84.7627 244.928Z" fill="#46484A"/>
<path d="M46.667 67.3121C48.2836 68.2726 51.6106 58.245 72.8842 58.409C96.3133 58.573 108.66 69.9595 110.488 70.1235C112.292 70.2875 124.826 70.1235 128.786 69.7955C132.746 69.4675 139.681 66.328 139.517 68.6475C139.353 70.967 136.705 83.6656 125.014 86.9456C113.299 90.2491 93.5252 83.1501 89.7297 82.8221C85.9342 82.4941 82.6307 82.8221 82.9587 88.5857C83.2867 94.3492 39.9194 120.426 39.9194 120.426C39.9194 120.426 8.19643 105.642 7.70442 103.815C7.21241 102.011 10.7736 97.2076 13.7023 92.7092C17.4041 86.9925 19.3018 80.6666 21.2933 77.3631C23.2613 74.0596 26.4008 69.7721 26.4008 69.7721C26.4008 69.7721 20.239 70.2641 16.1858 68.5069C13.3977 67.312 6.46268 62.6731 6.13467 61.0331C5.80666 59.393 13.8897 61.1971 20.4733 60.541C27.0803 59.885 39.4274 52.95 39.4274 52.95C39.4274 52.95 43.5509 56.2535 44.699 59.393C45.847 62.5325 45.847 66.82 46.667 67.3121Z" fill="#855B52"/>
<path d="M18.1303 145.33C18.1303 145.33 16.2326 152.594 17.3572 160.513C18.2475 166.721 22.9099 172.719 23.7299 174.851C24.5499 176.983 26.0494 181.95 25.8854 183.59C25.7214 185.23 27.9706 185.629 28.4626 184.41C29.0717 182.934 28.4157 180.872 30.1026 181.271C31.9769 181.716 30.1026 185.347 32.5158 185.441C35.0461 185.558 33.3358 182.138 35.1633 182.138C37.0845 182.138 35.3741 186.05 38.1388 185.98C40.6691 185.933 38.3028 182.512 40.716 182.583C42.684 182.63 41.044 186.214 43.7852 185.816C45.3315 185.605 43.5275 181.927 45.5424 181.482C47.2996 181.107 46.3624 184.785 48.4007 184.012C49.7128 183.52 50.1579 180.099 49.6659 176.14C49.1739 172.18 47.6979 166.581 46.8544 162.059C46.0344 157.56 45.0972 152.758 45.0504 148.47C45.0035 144.182 44.9332 139.169 44.9332 139.169L18.1303 145.33Z" fill="#46484A"/>
<path d="M48.3774 107.446C49.666 107.563 54.5392 102.174 56.7415 98.3318C58.9439 94.4894 64.7777 86.0081 73.3528 85.0241C82.1621 84.0166 87.3165 88.6556 89.4017 95.9186C91.3229 102.619 89.5189 110.327 80.7095 114.498C72.2282 118.528 68.9481 116.911 61.8022 118.996C58.0067 120.097 52.126 123.401 51.798 123.823C51.47 124.268 53.7426 140.059 41.2549 146.9C30.8055 152.617 14.7566 150.415 6.50956 140.082C-2.53407 128.743 -0.847174 111.71 5.85355 103.463C12.484 95.3094 20.4733 92.3339 32.2347 95.778C45.4019 99.6438 47.159 107.329 48.3774 107.446Z" fill="#FFF3DD"/>
<path d="M83.0056 101.73C83.0056 106.556 79.9364 110.961 73.8917 111.078C68.7139 111.172 66.6989 106.884 66.5349 102.058C66.3241 95.8961 70.7287 92.8034 75.11 92.7097C80.8033 92.5926 83.0056 96.9035 83.0056 101.73ZM13.1869 113.913C13.1869 113.913 21.7619 109.204 22.8397 108.642C23.9174 108.079 26.7055 107.072 28.2049 109.391C29.681 111.711 27.2912 113.772 25.3934 114.593C23.4957 115.413 15.5064 120.286 15.5064 120.286C15.5064 120.286 14.5926 126.307 15.4127 126.963C17.615 128.72 20.9419 129.681 23.6597 129.447C26.3775 129.189 28.5329 128.041 29.353 127.877C30.173 127.713 32.4925 127.619 32.9845 129.283C33.4765 130.923 32.305 132.844 30.2667 133.828C27.8301 134.976 25.3934 136.194 21.2699 135.468C18.0601 134.906 15.5064 134.156 14.0069 133.148C12.5309 132.164 10.9611 130.337 10.9611 130.337C10.9611 130.337 8.73535 133.055 6.67359 132.984C4.61183 132.891 1.96435 131.579 1.89406 131.344C1.80034 131.087 -0.917433 128.955 0.324309 126.635C1.56605 124.316 4.35411 127.455 6.08787 127.713C7.82162 127.971 8.89936 126.799 9.06336 126.237C9.22737 125.651 9.15708 119.231 9.15708 119.231C9.15708 119.231 5.45528 114.452 4.61183 113.632C3.79182 112.812 1.63634 110.094 3.8621 108.431C6.08787 106.767 7.5639 108.431 8.14963 108.923C8.73536 109.415 13.1869 113.913 13.1869 113.913Z" fill="#2E2E2E"/>
</svg>
