<svg width="255" height="251" viewBox="0 0 255 251" fill="none" xmlns="http://www.w3.org/2000/svg">
<path d="M41.2777 199.556C38.8632 199.576 36.491 200.191 34.3705 201.346C32.2501 202.501 30.4468 204.161 29.12 206.178L3.88545 244.573H4.07346C1.81739 244.615 0 246.432 0 248.709V248.751C0 249.607 0.689355 250.297 1.54583 250.297H39.1261C39.9826 250.297 40.6719 249.607 40.6719 248.751V248.709C40.6719 246.704 39.2514 245.032 37.3714 244.656L41.236 220.801L41.2777 199.556Z" fill="#F44336"/>
<path opacity="0.85" d="M84.3952 38.0169C89.0118 38.0587 92.8972 41.6308 97.4094 42.529C114.581 45.9758 118.717 37.8498 124.524 36.0742C130.331 34.2986 138.687 41.8606 152.955 35.4684C160.37 32.1469 163.065 21.9946 159.744 14.8713C158.658 12.5317 152.286 -0.858537 129.725 2.54646C128.013 2.79713 126.341 3.2567 124.67 3.6536C112.847 6.47369 107.311 -2.1328 85.3561 1.62732C49.4261 7.76884 50.387 43.5317 53.3533 49.7568C53.3533 49.7568 65.323 37.808 84.3952 38.0169Z" fill="#BDBDBD"/>
<path opacity="0.65" d="M50.2613 10.2128C58.1784 2.65083 72.258 0.833443 81.1987 7.24653C82.5147 8.18656 83.7681 9.33549 85.3975 9.73239C86.9642 10.1293 88.6353 9.77417 90.2438 9.52349C96.3227 8.62524 103.154 9.77417 107.227 14.0774C111.301 18.3807 110.945 26.0053 105.765 29.1179C95.7169 35.1341 87.7371 26.7156 70.5868 32.4602C60.33 35.907 53.1022 44.9939 50.3448 54.8538C50.3448 54.8747 32.0456 27.6138 50.2613 10.2128Z" fill="#E0E0E0"/>
<path d="M87.7565 37.1608C87.7565 36.6289 87.5453 36.1188 87.1692 35.7428C86.7931 35.3667 86.283 35.1554 85.7511 35.1554H30.8325C30.3007 35.1554 29.7906 35.3667 29.4145 35.7428C29.0384 36.1188 28.8271 36.6289 28.8271 37.1608V48.5665C33.2348 65.0483 43.8676 80.8199 45.8939 83.7236V124.646H70.6689V83.7445C72.6325 81.0288 82.6804 66.6568 87.7357 48.5665V37.1608H87.7565ZM248.376 170.123L236.01 174.906H41.2146V220.801H63.0651V237.429H94.9843V220.801H248.376V170.123Z" fill="#424242"/>
<path d="M77.063 178.562L41.2165 178.541C41.2165 178.541 42.8877 165.464 42.8877 149.818C42.8877 134.171 41.1121 120.948 41.1121 120.948H76.1438C76.1438 120.948 78.1074 129.346 78.1074 148.982C78.1074 168.618 77.063 178.562 77.063 178.562Z" fill="#424242"/>
<path d="M107.436 197.3H101.294C101.085 192.537 100.5 189.968 99.7484 188.464C99.0799 187.169 97.8683 186.166 96.406 186.166C95.1944 186.166 61.8547 200.851 61.8547 200.851C61.8547 208.956 63.3379 215.537 65.1762 215.537H95.654C100.271 215.537 101.273 210.836 101.378 203.63H106.308L147.397 220.989L160.6 221.072L107.436 197.3Z" fill="#212121"/>
<path d="M209 178.562H140.127L139.166 120.948L157.173 115.371L156.713 147.081H210.504L209 178.562Z" fill="#606060"/>
<path d="M75.9123 178.562H136.91C138.75 169.119 139.688 159.522 139.709 149.901C139.709 126.797 136.053 120.927 136.053 120.927H75.4736C75.4736 120.927 77.3746 134.192 77.3746 149.838C77.3746 165.506 75.9123 178.562 75.9123 178.562Z" fill="#00796B"/>
<path d="M98.3075 225.939C102.82 225.939 106.496 229.616 106.496 234.128C106.496 238.64 102.82 242.317 98.3075 242.317C93.7953 242.317 90.1188 238.64 90.1188 234.128C90.1188 229.616 93.7953 225.939 98.3075 225.939ZM98.3075 217.583C89.1787 217.583 81.7629 224.999 81.7629 234.128C81.7629 243.257 89.1787 250.672 98.3075 250.672C107.436 250.672 114.852 243.257 114.852 234.128C114.852 224.999 107.436 217.583 98.3075 217.583Z" fill="#546E7A"/>
<path d="M98.3072 243.695C103.591 243.695 107.875 239.412 107.875 234.128C107.875 228.844 103.591 224.561 98.3072 224.561C93.0232 224.561 88.7397 228.844 88.7397 234.128C88.7397 239.412 93.0232 243.695 98.3072 243.695Z" fill="#F44336"/>
<path d="M59.7454 225.939C64.2576 225.939 67.9341 229.616 67.9341 234.128C67.9341 238.64 64.2576 242.317 59.7454 242.317C55.2333 242.317 51.5567 238.64 51.5567 234.128C51.5567 229.616 55.2333 225.939 59.7454 225.939ZM59.7454 217.583C50.6167 217.583 43.2009 224.999 43.2009 234.128C43.2009 243.257 50.6167 250.672 59.7454 250.672C68.8742 250.672 76.29 243.257 76.29 234.128C76.29 224.999 68.8951 217.583 59.7454 217.583Z" fill="#546E7A"/>
<path d="M59.7451 243.695C65.0291 243.695 69.3126 239.412 69.3126 234.128C69.3126 228.844 65.0291 224.561 59.7451 224.561C54.4612 224.561 50.1777 228.844 50.1777 234.128C50.1777 239.412 54.4612 243.695 59.7451 243.695Z" fill="#F44336"/>
<path d="M156.672 72.986V166.3H249.066V72.986H156.672ZM239.603 154.518H166.218V83.2427H239.582V154.518H239.603Z" fill="#C62828"/>
<path d="M55.3167 49.8195H34.072V38.4347C34.072 37.3276 34.9703 36.4293 36.0774 36.4293H53.3113C54.4184 36.4293 55.3167 37.3276 55.3167 38.4347V49.8195ZM49.5512 83.765H61.2911V120.928H49.5512V83.765ZM44.9346 133.336C45.2897 136.219 45.7702 140.689 45.9164 145.431C45.9582 146.998 47.2324 148.23 48.7991 148.23H71.4434C73.0728 148.23 74.3888 146.872 74.3471 145.243C74.2008 138.433 74.0546 134.464 73.5115 132.291C73.3538 131.662 72.9911 131.102 72.4806 130.701C71.97 130.301 71.3405 130.081 70.6914 130.077H47.7964C46.0626 130.098 44.7048 131.623 44.9346 133.336Z" fill="#2F7889"/>
<path d="M80.7178 133.336C80.9894 136.219 81.3445 140.689 81.4698 145.431C81.5116 146.998 82.4934 148.23 83.6841 148.23H101.064C102.318 148.23 103.32 146.872 103.299 145.243C103.174 138.433 102.673 134.464 102.255 132.292C102.004 130.996 101.127 130.077 100.103 130.077H82.9321C81.5952 130.098 80.5507 131.623 80.7178 133.336ZM112.888 133.336C113.159 136.219 113.514 140.689 113.64 145.431C113.681 146.998 114.663 148.23 115.854 148.23H133.234C134.487 148.23 135.49 146.872 135.469 145.243C135.344 138.433 134.843 134.464 134.425 132.292C134.174 130.996 133.297 130.077 132.273 130.077H115.102C113.765 130.098 112.721 131.623 112.888 133.336Z" fill="#4CA854"/>
<path d="M162.208 83.7026V152.283C162.208 154.309 163.858 155.959 165.905 155.959H240.439C242.466 155.959 244.116 154.309 244.116 152.283V83.7026C244.116 81.6763 242.466 80.026 240.439 80.026H165.885C163.858 80.026 162.208 81.6763 162.208 83.7026ZM219.8 136.908C219.8 137.994 218.819 138.872 217.586 138.872H188.717C187.505 138.872 186.503 137.994 186.503 136.908V101.208C187.881 99.3697 192.978 93.6669 203.152 93.6669C213.346 93.6669 218.422 99.3697 219.8 101.208V136.908Z" fill="#F44336"/>
<path d="M34.0299 210.377H31.7947L11.887 244.573H16.6916L34.0299 210.377ZM38.9807 210.314H36.7873L25.11 244.573H29.5804L38.9807 210.314Z" fill="#424242"/>
<path d="M111.049 150.319C111.049 135.299 108.793 120.927 108.793 120.927H104.531C104.531 120.927 106.85 133.816 106.85 150.319C106.85 166.968 104.928 178.562 104.928 178.562H109.127C109.127 178.562 111.049 166.049 111.049 150.319ZM141.986 150.319C141.986 135.299 139.73 120.927 139.73 120.927H135.469C135.469 120.927 137.787 133.816 137.787 150.319C137.787 166.968 135.949 178.562 135.949 178.562H140.148C140.127 178.562 141.986 166.049 141.986 150.319Z" fill="#E2A610"/>
<path d="M218.505 197.195C228.574 197.195 237.536 203.587 240.815 213.113C242.862 219.066 242.486 225.48 239.729 231.141C238.377 233.931 236.488 236.427 234.168 238.485C231.849 240.543 229.145 242.122 226.214 243.131C223.282 244.144 220.181 244.569 217.085 244.382C213.99 244.195 210.961 243.4 208.173 242.042C205.386 240.684 202.893 238.79 200.837 236.467C198.782 234.145 197.205 231.441 196.195 228.509C194.148 222.555 194.524 216.142 197.282 210.481C200.039 204.82 204.844 200.558 210.797 198.49C213.304 197.613 215.894 197.195 218.505 197.195ZM218.505 190.928C215.267 190.928 211.988 191.45 208.75 192.578C193.166 197.968 184.873 214.972 190.263 230.556C194.524 242.922 206.118 250.693 218.505 250.693C221.743 250.693 225.023 250.171 228.261 249.043C243.844 243.653 252.137 226.649 246.748 211.066C242.466 198.678 230.893 190.928 218.505 190.928Z" fill="#546E7A"/>
<path d="M218.505 200.934C226.965 200.934 234.506 206.324 237.284 214.325C239.018 219.338 238.684 224.728 236.365 229.49C234.046 234.253 229.994 237.846 224.98 239.58C222.87 240.311 220.698 240.666 218.505 240.666C210.044 240.666 202.503 235.277 199.725 227.276C197.991 222.263 198.325 216.873 200.644 212.11C202.963 207.348 207.015 203.755 212.029 202.021C214.118 201.29 216.311 200.934 218.505 200.934ZM218.505 196.757C215.893 196.757 213.261 197.174 210.65 198.073C198.095 202.397 191.432 216.079 195.777 228.634C199.203 238.577 208.519 244.844 218.505 244.844C221.116 244.844 223.748 244.427 226.359 243.528C238.914 239.204 245.577 225.521 241.232 212.967C239.599 208.237 236.533 204.135 232.459 201.229C228.386 198.324 223.508 196.761 218.505 196.757Z" fill="#F44336"/>
<path d="M239.563 220.8H197.429M207.957 202.543L229.035 239.037M207.957 239.037L229.035 202.543" stroke="#F44336" stroke-width="3" stroke-miterlimit="10"/>
<path d="M153.56 197.195C163.629 197.195 172.59 203.587 175.87 213.113C177.917 219.066 177.541 225.48 174.784 231.141C173.432 233.931 171.542 236.427 169.223 238.485C166.903 240.543 164.2 242.122 161.268 243.131C158.337 244.144 155.235 244.569 152.14 244.382C149.044 244.195 146.016 243.4 143.228 242.042C140.44 240.684 137.947 238.79 135.892 236.467C133.837 234.145 132.259 231.441 131.25 228.509C129.203 222.555 129.579 216.142 132.336 210.481C135.094 204.82 139.898 200.558 145.852 198.49C148.358 197.613 150.949 197.195 153.56 197.195ZM153.56 190.928C150.322 190.928 147.042 191.45 143.805 192.578C128.221 197.968 119.928 214.972 125.317 230.556C129.579 242.922 141.172 250.693 153.56 250.693C156.798 250.693 160.078 250.171 163.315 249.043C178.899 243.653 187.192 226.649 181.803 211.066C177.541 198.678 165.947 190.928 153.56 190.928Z" fill="#546E7A"/>
<path d="M153.559 200.934C162.02 200.934 169.561 206.324 172.339 214.325C174.073 219.338 173.739 224.728 171.42 229.49C169.101 234.253 165.049 237.846 160.035 239.58C157.925 240.311 155.753 240.666 153.559 240.666C145.099 240.666 137.558 235.277 134.78 227.276C133.046 222.263 133.38 216.873 135.699 212.11C138.017 207.348 142.07 203.755 147.083 202.021C149.193 201.29 151.366 200.934 153.559 200.934ZM153.559 196.757C150.948 196.757 148.316 197.174 145.705 198.073C133.15 202.397 126.486 216.079 130.831 228.634C134.257 238.577 143.574 244.844 153.559 244.844C156.17 244.844 158.803 244.427 161.414 243.528C173.968 239.204 180.632 225.521 176.287 212.967C172.861 203.003 163.544 196.757 153.559 196.757Z" fill="#F44336"/>
<path d="M174.638 220.8H132.504M143.032 202.543L164.11 239.037M143.032 239.037L164.11 202.543" stroke="#F44336" stroke-width="3" stroke-miterlimit="10"/>
<path d="M243.593 178.729H162.166C159.137 178.729 156.672 176.264 156.672 173.235V166.321H249.066V173.235C249.069 173.956 248.93 174.67 248.657 175.337C248.383 176.003 247.98 176.609 247.472 177.12C246.963 177.631 246.359 178.036 245.693 178.312C245.027 178.588 244.314 178.73 243.593 178.729Z" fill="#E2A610"/>
<path d="M156.672 164.232H249.087" stroke="#FFCA28" stroke-width="3" stroke-miterlimit="10" stroke-linecap="round"/>
<path d="M111.028 197.3H65.1758M225.963 220.801H162.96L105.137 195.462" stroke="#E2A610" stroke-width="3" stroke-miterlimit="10" stroke-linecap="round"/>
<path d="M41.0276 120.948C41.0276 120.948 35.0532 129.764 35.0532 149.839C35.0532 169.913 41.2156 178.562 41.2156 178.562C41.2156 178.562 42.9077 173.339 42.9077 152.868C42.9077 132.396 41.0276 120.948 41.0276 120.948Z" fill="#616161"/>
<path d="M30.2898 144.658H36.494C36.494 144.658 37.2878 145.18 37.2878 149.755C37.2878 154.33 36.494 154.852 36.494 154.852H30.2898V144.658Z" fill="#424242"/>
<path d="M32.9215 149.755C32.9215 154.748 32.9424 158.801 31.5219 158.801C30.1015 158.801 27.7827 154.748 27.7827 149.755C27.7827 144.763 30.1015 140.71 31.5219 140.71C32.9424 140.71 32.9215 144.763 32.9215 149.755Z" fill="#757575"/>
<path d="M42.1356 171.668C41.676 175.951 41.1956 178.562 41.1956 178.562L75.8931 178.583C75.8931 178.583 76.2482 176.368 76.5615 172.023C76.6139 171.296 76.5154 170.565 76.2722 169.877C76.029 169.189 75.6464 168.558 75.1484 168.025C74.6503 167.491 74.0475 167.067 73.3776 166.777C72.7078 166.487 71.9854 166.339 71.2556 166.341H48.0682C46.5937 166.331 45.1684 166.872 44.0712 167.857C42.974 168.842 42.2838 170.201 42.1356 171.668Z" fill="#212121"/>
<path d="M63.0032 184.578H95.0686V212.194H63.0032V184.578Z" fill="#606060"/>
<path d="M95.0682 212.194C96.8564 212.194 98.3061 206.012 98.3061 198.386C98.3061 190.76 96.8564 184.578 95.0682 184.578C93.28 184.578 91.8303 190.76 91.8303 198.386C91.8303 206.012 93.28 212.194 95.0682 212.194Z" fill="#606060"/>
<path d="M63.0035 212.194C64.7917 212.194 66.2414 206.012 66.2414 198.386C66.2414 190.76 64.7917 184.578 63.0035 184.578C61.2153 184.578 59.7656 190.76 59.7656 198.386C59.7656 206.012 61.2153 212.194 63.0035 212.194Z" fill="#606060"/>
<path d="M93.2513 193.373H64.57C63.4837 193.373 62.7317 192.391 62.9197 191.325C63.2331 189.529 63.5464 188.213 64.5491 187.398C64.7998 187.189 65.1549 187.127 65.4891 187.127H92.4575C92.8962 187.127 93.3558 187.273 93.6273 187.607C94.5674 188.673 94.9016 189.759 94.9225 191.43C94.9225 192.579 94.2958 193.373 93.2513 193.373Z" fill="#78909C"/>
<path d="M249.067 76.1403H156.715L150.782 72.986H255L249.067 76.1403Z" fill="#004D40"/>
<path d="M150.782 65.1316H255V72.9861H150.782V65.1316Z" fill="#00796B"/>
<path d="M219.8 136.908C219.8 137.995 218.819 138.872 217.586 138.872H188.717C187.505 138.872 186.502 137.995 186.502 136.908V101.208C187.881 99.3698 192.978 93.667 203.151 93.667C213.346 93.667 218.422 99.3698 219.8 101.208V136.908Z" stroke="#C62828" stroke-width="2" stroke-miterlimit="10"/>
</svg>
