<svg width="301" height="334" viewBox="0 0 301 334" fill="none" xmlns="http://www.w3.org/2000/svg">
<g filter="url(#filter0_d_234_978)">
<path d="M148.892 46.1444C148.892 46.1444 153.124 36.2932 162.72 30.0369C167.392 27.0022 175.555 22.31 177.035 24.9479C177.682 26.0917 175.578 29.0565 173.45 33.6553C172.595 35.5461 170.675 41.709 170.675 41.709C170.675 41.709 179.139 30.5271 193.962 27.5858C205.617 25.2514 218.22 26.7687 219.677 29.3833C221.25 32.2079 212.994 38.4175 210.404 43.8333C207.814 49.2492 205.849 56.1591 205.849 56.1591C205.849 56.1591 221.458 48.7123 225.389 47.1249C230.269 45.164 240.86 41.0554 242.317 42.8529C243.774 44.6504 237.645 55.0852 236.304 56.9761C234.685 59.2872 232.234 63.5592 232.234 63.5592C232.234 63.5592 239.727 60.1042 242.64 58.3067C245.577 56.5092 252.075 51.3969 253.555 52.4007C255.012 53.3811 255.012 63.3724 254.041 67.6911C252.746 73.4338 246.71 79.69 246.71 79.69C246.71 79.69 255.336 81.6509 260.054 87.7438C264.771 93.8366 267.523 98.5755 269.489 104.668C272.425 113.703 273.72 126.028 273.073 128.339C272.425 130.65 268.841 127.522 262.158 127.032C258.204 126.729 257.279 126.705 257.279 126.705C257.279 126.705 261.048 131.234 262.805 135.413C265.095 140.828 267.592 149.372 268.98 152.991C270.437 156.773 271.593 159.737 273.697 164.009C274.322 165.27 269.304 166.484 264.262 161.698C262.574 160.111 260.516 158.57 260.516 158.57C260.516 158.57 263.499 176.475 263.291 188.474C263.129 197.345 261.164 213.452 258.574 214.923C255.96 216.394 250.757 205.072 250.757 205.072C250.757 205.072 248.491 217.958 245.878 226.595C242.779 236.773 239.842 241.535 238.062 247.628C235.934 254.865 233.83 260.117 232.373 257.806C231.101 255.822 229.76 252.717 228.465 250.406C227.47 248.655 225.204 243.986 225.204 243.986C225.204 243.986 222.915 257.946 211.861 267.331C200.807 276.715 193.639 284.255 188.412 284.909C185.337 285.306 188.898 271.276 188.898 271.276C188.898 271.276 171.647 284.955 163.345 291.165C159.599 293.966 156.176 303.164 153.586 302.51C150.973 301.857 144.313 291.655 140.081 288.55C135.849 285.446 127.871 281.804 126.738 281.15C125.605 280.497 120.217 277.042 120.217 277.042C120.217 277.042 121.558 284.675 120.055 285.422C116.794 287.056 104.26 278.022 100.676 272.443C97.0917 266.864 90.7555 255.355 90.7555 255.355C90.7555 255.355 89.9461 266.374 87.333 264.553C84.558 262.638 71.053 252.554 66.3355 244.99C63.0055 239.644 57.2242 224.611 57.2242 224.611C57.2242 224.611 52.183 229.863 50.703 230.517C49.223 231.17 45.4999 232.664 46.1474 226.898C46.7949 221.156 42.3317 208.13 41.5917 200.286C40.6205 190.108 42.563 179.58 42.563 179.58C42.563 179.58 34.2611 190.762 30.353 190.598C26.4449 190.435 28.7342 168.912 29.7055 162.328C30.6767 155.745 33.9374 144.26 35.2324 140.151C36.5274 136.043 41.4067 129.973 41.4067 129.973C41.4067 129.973 29.3586 134.082 27.578 132.448C25.7974 130.814 28.5492 116.177 30.1911 107.306C31.0236 102.754 34.5849 95.6341 39.1405 90.3817C43.6961 85.1292 50.703 86.1097 51.3505 83.7986C51.998 81.4875 48.7605 79.6667 46.4711 75.9083C43.0486 70.329 41.1061 58.8203 42.8867 56.836C43.9967 55.6222 50.2174 60.4544 57.7099 61.2714C65.2024 62.0885 71.8624 61.5983 71.8624 61.5983C71.8624 61.5983 67.538 56.4625 65.688 52.2372C63.0749 46.3312 62.913 39.2579 64.5549 37.437C66.1967 35.6162 71.8855 41.2188 79.5399 43.1797C87.1942 45.1406 98.5949 45.3274 98.5949 45.3274C98.5949 45.3274 93.7155 40.0749 92.4205 33.9821C91.1255 27.9126 91.4492 24.1308 93.5536 23.4772C95.6811 22.8236 101.879 28.683 106.249 30.0603C110.967 31.5309 126.923 30.5505 134.092 32.6982C141.26 34.8458 148.892 46.1444 148.892 46.1444Z" fill="#865C50"/>
</g>
<path d="M200.322 97.4317C200.322 97.4317 228.326 70.4925 244.606 90.5218C263.915 114.31 212.694 140.478 212.694 140.478L200.322 97.4317ZM102.665 104.318C102.665 104.318 76.5567 69.7688 57.3629 88.4909C38.1692 107.213 77.9211 135.856 77.9211 135.856L102.665 104.318Z" fill="#FEC000"/>
<path d="M224.418 120.426C224.418 120.426 244.93 105.976 236.466 96.7547C227.424 86.9268 210.751 103.991 210.751 103.991L224.418 120.426ZM90.7323 105.159C90.7323 105.159 73.7354 88.164 64.9479 98.6689C57.0392 108.123 79.6092 126.285 79.6092 126.285L90.7323 105.159Z" fill="#FF8E06"/>
<path d="M153.771 223.28C153.771 223.28 170.375 218.681 180.781 213.429C191.187 208.176 229.945 186.163 232.859 159.2C235.796 132.261 232.859 125.024 220.487 108.59C208.115 92.1558 186.424 88.3741 175.231 90.8485C161.888 93.8133 159.599 103.641 153.748 103.991C148.221 104.318 149.84 98.0852 133.884 92.1558C113.464 84.569 57.5711 104.878 67.4686 159.2C72.6718 187.797 113.95 212.192 119.222 215.063C131.964 221.973 153.771 223.28 153.771 223.28Z" fill="#FEC000"/>
<path d="M195.989 133.549C197.987 128.482 195.614 122.77 190.69 120.792C185.765 118.813 180.154 121.317 178.156 126.384C176.158 131.451 178.531 137.162 183.455 139.141C188.38 141.119 193.991 138.616 195.989 133.549Z" fill="#2E2F2F"/>
<path d="M120.746 138.121C125.798 136.047 128.196 130.155 126.103 124.96C124.011 119.764 118.219 117.234 113.167 119.308C108.115 121.382 105.717 127.274 107.809 132.47C109.902 137.665 115.694 140.195 120.746 138.121Z" fill="#2E2F2F"/>
<path d="M153.332 147.482C133.583 146.875 116.216 169.402 116.216 206.846C116.216 243.216 135.317 251.76 150.719 251.76C170.259 251.76 188.69 238.828 186.539 203.554C184.527 170.919 174.375 148.135 153.332 147.482Z" fill="#FFD899"/>
<path d="M130.322 168.071C128.38 170.032 132.057 180.77 135.317 186.256C138.578 191.742 147.897 200.706 153.124 200.496C158.327 200.286 168.109 189.314 171.138 181.214C174.167 173.113 175.046 168.071 173.751 166.087C172.456 164.103 157.032 166.53 151.181 166.53C145.331 166.53 132.288 166.11 130.322 168.071Z" fill="#2E2F2F"/>
<path d="M152.684 192.956C152.684 192.956 144.29 202.177 140.636 203.578C135.526 205.539 127.617 203.858 127.386 207.033C127.177 210.324 132.265 213.779 140.405 212.682C149.401 211.468 152.777 205.889 152.777 205.889C152.777 205.889 157.887 213.219 167.762 213.662C177.636 214.106 179.926 207.756 177.197 206.869C173.497 205.679 171.184 205.912 165.588 204.138C161.148 202.691 152.684 192.956 152.684 192.956Z" fill="#2E2F2F"/>
<defs>
<filter id="filter0_d_234_978" x="0" y="0.426514" width="300.75" height="333.117" filterUnits="userSpaceOnUse" color-interpolation-filters="sRGB">
<feFlood flood-opacity="0" result="BackgroundImageFix"/>
<feColorMatrix in="SourceAlpha" type="matrix" values="0 0 0 0 0 0 0 0 0 0 0 0 0 0 0 0 0 0 127 0" result="hardAlpha"/>
<feOffset dy="4"/>
<feGaussianBlur stdDeviation="13.5"/>
<feComposite in2="hardAlpha" operator="out"/>
<feColorMatrix type="matrix" values="0 0 0 0 0 0 0 0 0 0 0 0 0 0 0 0 0 0 0.37 0"/>
<feBlend mode="normal" in2="BackgroundImageFix" result="effect1_dropShadow_234_978"/>
<feBlend mode="normal" in="SourceGraphic" in2="effect1_dropShadow_234_978" result="shape"/>
</filter>
</defs>
</svg>
