<svg width="47" height="37" viewBox="0 0 47 37" fill="none" xmlns="http://www.w3.org/2000/svg">
<path d="M3.33301 21.665H43.33V31.6643H3.33301V21.665Z" fill="black"/>
<path d="M32.9808 5.01636C34.2141 5.01636 35.3473 5.7163 35.8973 6.81622L36.6505 8.32277L38.2171 13.3274L41.6568 18.332H43.4C45.1999 18.332 46.6648 19.7969 46.6648 21.5934L46.0215 24.1266L46.6648 26.658V28.4012C46.6648 30.2011 45.1982 31.6643 43.3984 31.6643H42.4468C42.5642 30.7263 42.4808 29.774 42.2021 28.8707C41.9234 27.9674 41.4558 27.1337 40.8302 26.4249C40.2047 25.7161 39.4355 25.1485 38.5738 24.7597C37.7121 24.3709 36.7776 24.1698 35.8323 24.1698C34.8869 24.1698 33.9524 24.3709 33.0907 24.7597C32.229 25.1485 31.4598 25.7161 30.8343 26.4249C30.2087 27.1337 29.7411 27.9674 29.4624 28.8707C29.1837 29.774 29.1003 30.7263 29.2178 31.6643H17.4487C17.5661 30.7263 17.4827 29.774 17.204 28.8707C16.9253 27.9674 16.4577 27.1337 15.8321 26.4249C15.2066 25.7161 14.4374 25.1485 13.5757 24.7597C12.7141 24.3709 11.7795 24.1698 10.8342 24.1698C9.88883 24.1698 8.9543 24.3709 8.0926 24.7597C7.23091 25.1485 6.46176 25.7161 5.83621 26.4249C5.21065 27.1337 4.74301 27.9674 4.4643 28.8707C4.1856 29.774 4.10221 30.7263 4.21968 31.6643H3.26642C1.46655 31.6643 0 30.1994 0 28.4012V26.6714L2.19983 24.1749L0 21.6784C0 19.7619 1.46655 18.3487 3.26642 18.3487L8.3327 18.347L11.9941 13.494L13.3406 8.33277L14.0989 6.81622C14.3706 6.27551 14.7872 5.82089 15.3021 5.50309C15.8171 5.18528 16.4102 5.01677 17.0154 5.01636H32.9808Z" fill="#636363"/>
<path d="M16.6653 30.8309C16.6653 32.3779 16.0508 33.8615 14.9569 34.9554C13.863 36.0493 12.3794 36.6638 10.8324 36.6638C9.28542 36.6638 7.8018 36.0493 6.70793 34.9554C5.61405 33.8615 4.99951 32.3779 4.99951 30.8309C4.99951 29.284 5.61405 27.8003 6.70793 26.7065C7.8018 25.6126 9.28542 24.998 10.8324 24.998C12.3794 24.998 13.863 25.6126 14.9569 26.7065C16.0508 27.8003 16.6653 29.284 16.6653 30.8309ZM41.6634 30.8309C41.6634 32.3779 41.0489 33.8615 39.955 34.9554C38.8611 36.0493 37.3775 36.6638 35.8305 36.6638C34.2835 36.6638 32.7999 36.0493 31.706 34.9554C30.6121 33.8615 29.9976 32.3779 29.9976 30.8309C29.9976 29.284 30.6121 27.8003 31.706 26.7065C32.7999 25.6126 34.2835 24.998 35.8305 24.998C37.3775 24.998 38.8611 25.6126 39.955 26.7065C41.0489 27.8003 41.6634 29.284 41.6634 30.8309Z" fill="#321B41"/>
<path d="M23.3314 3.33301H26.6645V4.99955H23.3314V3.33301ZM9.99906 24.2147V18.3319H36.6637V24.2147C35.655 24.0873 34.6306 24.1922 33.6687 24.5215C32.7068 24.8508 31.833 25.3957 31.1141 26.1146C30.3952 26.8335 29.8503 27.7073 29.521 28.6692C29.1917 29.6311 29.0868 30.6555 29.2143 31.6642H17.4485C17.576 30.6555 17.4711 29.6311 17.1418 28.6692C16.8125 27.7073 16.2675 26.8335 15.5486 26.1146C14.8297 25.3957 13.9559 24.8508 12.994 24.5215C12.0322 24.1922 11.0077 24.0873 9.99906 24.2147ZM13.3321 30.8309C13.3321 31.4939 13.0688 32.1297 12.6 32.5985C12.1312 33.0673 11.4953 33.3307 10.8323 33.3307C10.1693 33.3307 9.5335 33.0673 9.0647 32.5985C8.59589 32.1297 8.33252 31.4939 8.33252 30.8309C8.33252 30.1679 8.59589 29.5321 9.0647 29.0633C9.5335 28.5945 10.1693 28.3311 10.8323 28.3311C11.4953 28.3311 12.1312 28.5945 12.6 29.0633C13.0688 29.5321 13.3321 30.1679 13.3321 30.8309ZM38.3302 30.8309C38.3302 31.1592 38.2656 31.4843 38.1399 31.7875C38.0143 32.0908 37.8302 32.3664 37.5981 32.5985C37.3659 32.8307 37.0904 33.0148 36.7871 33.1404C36.4838 33.2661 36.1587 33.3307 35.8304 33.3307C35.5021 33.3307 35.1771 33.2661 34.8738 33.1404C34.5705 33.0148 34.2949 32.8307 34.0628 32.5985C33.8307 32.3664 33.6465 32.0908 33.5209 31.7875C33.3953 31.4843 33.3306 31.1592 33.3306 30.8309C33.3306 30.1679 33.594 29.5321 34.0628 29.0633C34.5316 28.5945 35.1674 28.3311 35.8304 28.3311C36.4934 28.3311 37.1292 28.5945 37.5981 29.0633C38.0669 29.5321 38.3302 30.1679 38.3302 30.8309Z" fill="#D3D3D3"/>
<path d="M3.33308 23.3316C3.33308 22.415 2.58314 21.665 1.66654 21.665H0V26.6647H1.66654C2.58314 26.6647 3.33308 25.9147 3.33308 24.9981V23.3316Z" fill="#FFF478"/>
<path fill-rule="evenodd" clip-rule="evenodd" d="M23.3315 1.66654C23.3315 0.749943 24.0815 0 24.9981 0C25.9147 0 26.6646 0.749943 26.6646 1.66654V3.33308H23.3315V1.66654ZM43.33 24.2815C43.2634 22.8483 44.4133 21.665 45.8298 21.665H46.6631V26.6646H45.9132C44.5633 26.6646 43.3967 25.6314 43.33 24.2815Z" fill="#F92F60"/>
<path d="M21.6982 18.332H8.33252L13.3321 8.33276H21.6982C22.5981 8.33276 23.3314 9.06604 23.3314 9.96597V16.6988C23.3314 17.5987 22.5981 18.332 21.6982 18.332ZM28.2977 18.332H41.6633L36.6637 8.33276H28.2977C27.3977 8.33276 26.6645 9.06604 26.6645 9.96597V16.6988C26.6645 17.5987 27.3977 18.332 28.2977 18.332Z" fill="#26C9FC"/>
<path d="M15.2155 19.9985H15.8654C16.3154 19.9985 16.6654 19.6319 16.6654 19.1986V15.7988C16.6654 15.6938 16.6447 15.5898 16.6045 15.4927C16.5643 15.3957 16.5053 15.3075 16.4311 15.2332C16.3568 15.1589 16.2686 15.1 16.1715 15.0598C16.0745 15.0196 15.9705 14.9989 15.8654 14.9989H15.2155C14.1822 14.9989 13.3323 15.8488 13.3323 16.8821V18.1153C13.3323 19.1653 14.1822 19.9985 15.2155 19.9985Z" fill="#D3D3D3"/>
<path d="M15.2155 19.9985H15.8654C16.3154 19.9985 16.6654 19.6319 16.6654 19.1986V15.7988C16.6654 15.6938 16.6447 15.5898 16.6045 15.4927C16.5643 15.3957 16.5053 15.3075 16.4311 15.2332C16.3568 15.1589 16.2686 15.1 16.1715 15.0598C16.0745 15.0196 15.9705 14.9989 15.8654 14.9989H15.2155C14.1822 14.9989 13.3323 15.8488 13.3323 16.8821V18.1153C13.3323 19.1653 14.1822 19.9985 15.2155 19.9985Z" fill="#9B9B9B"/>
</svg>
