<svg width="25" height="27" viewBox="0 0 25 27" fill="none" xmlns="http://www.w3.org/2000/svg">
<path d="M12.1683 2.97281C12.1683 2.97281 12.5768 2.04968 13.5031 1.46343C13.954 1.17906 14.7419 0.739369 14.8847 0.986556C14.9472 1.09374 14.7441 1.37156 14.5387 1.80249C14.4562 1.97968 14.2709 2.55718 14.2709 2.55718C14.2709 2.55718 15.0878 1.50937 16.5186 1.23374C17.6435 1.01499 18.86 1.15718 19.0006 1.40218C19.1524 1.66687 18.3555 2.24874 18.1055 2.75624C17.8555 3.26374 17.6658 3.91124 17.6658 3.91124C17.6658 3.91124 19.1724 3.21343 19.5519 3.06468C20.0228 2.88093 21.0451 2.49593 21.1857 2.66437C21.3263 2.83281 20.7349 3.81062 20.6054 3.98781C20.4492 4.20437 20.2126 4.60468 20.2126 4.60468C20.2126 4.60468 20.9357 4.28093 21.217 4.11249C21.5004 3.94406 22.1276 3.46499 22.2705 3.55906C22.4111 3.65093 22.4111 4.58718 22.3174 4.99187C22.1924 5.52999 21.6098 6.11624 21.6098 6.11624C21.6098 6.11624 22.4424 6.29999 22.8977 6.87093C23.353 7.44187 23.6186 7.88593 23.8084 8.45687C24.0918 9.30343 24.2168 10.4584 24.1543 10.675C24.0918 10.8916 23.7459 10.5984 23.1008 10.5525C22.7191 10.5241 22.6299 10.5219 22.6299 10.5219C22.6299 10.5219 22.9937 10.9462 23.1633 11.3378C23.3843 11.8453 23.6253 12.6459 23.7593 12.985C23.8999 13.3394 24.0115 13.6172 24.2146 14.0175C24.2749 14.1356 23.7905 14.2494 23.3039 13.8009C23.141 13.6522 22.9423 13.5078 22.9423 13.5078C22.9423 13.5078 23.2303 15.1856 23.2102 16.31C23.1946 17.1412 23.0048 18.6506 22.7548 18.7884C22.5026 18.9262 22.0004 17.8653 22.0004 17.8653C22.0004 17.8653 21.7817 19.0728 21.5295 19.8822C21.2304 20.8359 20.9469 21.2822 20.775 21.8531C20.5697 22.5312 20.3666 23.0234 20.226 22.8069C20.1032 22.6209 19.9737 22.33 19.8487 22.1134C19.7528 21.9494 19.534 21.5119 19.534 21.5119C19.534 21.5119 19.3131 22.82 18.2461 23.6994C17.1792 24.5787 16.4873 25.2853 15.9829 25.3466C15.686 25.3837 16.0297 24.0691 16.0297 24.0691C16.0297 24.0691 14.3646 25.3509 13.5634 25.9328C13.2018 26.1953 12.8714 27.0572 12.6214 26.9959C12.3692 26.9347 11.7264 25.9787 11.3179 25.6878C10.9095 25.3969 10.1394 25.0556 10.03 24.9944C9.92068 24.9331 9.40062 24.6094 9.40062 24.6094C9.40062 24.6094 9.53007 25.3247 9.38499 25.3947C9.07028 25.5478 7.86052 24.7012 7.51455 24.1784C7.16859 23.6556 6.55701 22.5772 6.55701 22.5772C6.55701 22.5772 6.47889 23.6097 6.22667 23.4391C5.95883 23.2597 4.65532 22.3147 4.19999 21.6059C3.87858 21.105 3.32057 19.6962 3.32057 19.6962C3.32057 19.6962 2.83399 20.1884 2.69114 20.2497C2.54829 20.3109 2.18893 20.4509 2.25143 19.9106C2.31392 19.3725 1.88314 18.1519 1.81172 17.4169C1.71797 16.4631 1.90546 15.4766 1.90546 15.4766C1.90546 15.4766 1.10416 16.5244 0.726951 16.5091C0.349738 16.4937 0.570709 14.4769 0.664454 13.86C0.758199 13.2431 1.07292 12.1669 1.19791 11.7819C1.3229 11.3969 1.79386 10.8281 1.79386 10.8281C1.79386 10.8281 0.630974 11.2131 0.459107 11.06C0.287241 10.9069 0.552853 9.53531 0.711327 8.70406C0.79168 8.27749 1.13541 7.61031 1.57512 7.11812C2.01483 6.62593 2.69114 6.71781 2.75363 6.50124C2.81613 6.28468 2.50365 6.11406 2.28268 5.76187C1.95233 5.23906 1.76484 4.16062 1.93671 3.97468C2.04385 3.86093 2.64426 4.31374 3.36744 4.39031C4.09062 4.46687 4.73344 4.42093 4.73344 4.42093C4.73344 4.42093 4.31605 3.93968 4.13749 3.54374C3.88527 2.99031 3.86965 2.32749 4.02812 2.15687C4.1866 1.98624 4.73567 2.51124 5.47448 2.69499C6.21328 2.87874 7.31367 2.89624 7.31367 2.89624C7.31367 2.89624 6.84271 2.40406 6.71772 1.83312C6.59272 1.26437 6.62397 0.909994 6.82709 0.848744C7.03243 0.787494 7.63062 1.33656 8.05247 1.46562C8.50781 1.60343 10.0479 1.51156 10.7398 1.71281C11.4318 1.91406 12.1683 2.97281 12.1683 2.97281Z" fill="#865C50"/>
<path d="M17.1329 7.77863C17.1329 7.77863 19.8359 5.25426 21.4072 7.13113C23.271 9.3602 18.327 11.8124 18.327 11.8124L17.1329 7.77863ZM7.70702 8.42394C7.70702 8.42394 5.18706 5.18644 3.33448 6.94082C1.4819 8.6952 5.31875 11.3793 5.31875 11.3793L7.70702 8.42394Z" fill="#FEC000"/>
<path d="M19.4586 9.9334C19.4586 9.9334 21.4384 8.57934 20.6215 7.71528C19.7488 6.79434 18.1395 8.3934 18.1395 8.3934L19.4586 9.9334ZM6.55523 8.50278C6.55523 8.50278 4.91469 6.91028 4.06652 7.89465C3.30317 8.78059 5.48163 10.4825 5.48163 10.4825L6.55523 8.50278Z" fill="#FF8E06"/>
<path d="M12.6386 19.5716C12.6386 19.5716 14.2412 19.1407 15.2456 18.6485C16.25 18.1563 19.9909 16.0935 20.2721 13.5669C20.5556 11.0425 20.2721 10.3644 19.078 8.8244C17.8838 7.2844 15.7902 6.93003 14.7099 7.1619C13.422 7.43972 13.2011 8.36065 12.6363 8.39347C12.1029 8.42409 12.2591 7.84003 10.719 7.2844C8.74815 6.57347 3.35334 8.47659 4.30865 13.5669C4.81085 16.2466 8.79502 18.5325 9.30393 18.8016C10.5338 19.4491 12.6386 19.5716 12.6386 19.5716Z" fill="#FEC000"/>
<path d="M16.714 11.1633C16.9068 10.6884 16.6778 10.1532 16.2025 9.96783C15.7272 9.78242 15.1855 10.017 14.9927 10.4918C14.7999 10.9667 15.0289 11.5019 15.5042 11.6873C15.9795 11.8727 16.5211 11.6381 16.714 11.1633Z" fill="#2E2F2F"/>
<path d="M9.45227 11.5917C9.93987 11.3974 10.1714 10.8452 9.96938 10.3584C9.76738 9.87157 9.20835 9.63446 8.72076 9.82879C8.23316 10.0231 8.00165 10.5753 8.20365 11.0621C8.40565 11.5489 8.96468 11.7861 9.45227 11.5917Z" fill="#2E2F2F"/>
<path d="M12.5971 12.4687C10.6909 12.4118 9.01465 14.5227 9.01465 18.0315C9.01465 21.4396 10.8583 22.2402 12.3448 22.2402C14.2309 22.2402 16.0098 21.0283 15.8023 17.723C15.6081 14.6649 14.6282 12.5299 12.5971 12.4687Z" fill="#FFD899"/>
<path d="M10.3764 14.3982C10.1889 14.5819 10.5438 15.5882 10.8585 16.1022C11.1732 16.6163 12.0727 17.4563 12.5771 17.4366C13.0793 17.4169 14.0235 16.3888 14.3159 15.6297C14.6083 14.8707 14.6931 14.3982 14.5681 14.2122C14.4431 14.0263 12.9543 14.2538 12.3896 14.2538C11.8249 14.2538 10.5661 14.2144 10.3764 14.3982Z" fill="#2E2F2F"/>
<path d="M12.5342 16.73C12.5342 16.73 11.724 17.594 11.3713 17.7253C10.8781 17.909 10.1147 17.7515 10.0924 18.049C10.0723 18.3575 10.5633 18.6812 11.349 18.5784C12.2173 18.4647 12.5432 17.9419 12.5432 17.9419C12.5432 17.9419 13.0364 18.6287 13.9895 18.6703C14.9426 18.7119 15.1636 18.1169 14.9002 18.0337C14.5431 17.9222 14.3199 17.944 13.7797 17.7778C13.3512 17.6422 12.5342 16.73 12.5342 16.73Z" fill="#2E2F2F"/>
</svg>
