<svg width="24" height="27" viewBox="0 0 24 27" fill="none" xmlns="http://www.w3.org/2000/svg">
<path d="M11.6914 2.97281C11.6914 2.97281 12.0917 2.04968 12.9996 1.46343C13.4414 1.17906 14.2136 0.739369 14.3536 0.986556C14.4149 1.09374 14.2158 1.37156 14.0146 1.80249C13.9336 1.97968 13.7521 2.55718 13.7521 2.55718C13.7521 2.55718 14.5527 1.50937 15.9549 1.23374C17.0574 1.01499 18.2496 1.15718 18.3874 1.40218C18.5361 1.66687 17.7552 2.24874 17.5102 2.75624C17.2652 3.26374 17.0792 3.91124 17.0792 3.91124C17.0792 3.91124 18.5558 3.21343 18.9277 3.06468C19.3892 2.88093 20.3911 2.49593 20.5289 2.66437C20.6667 2.83281 20.0871 3.81062 19.9602 3.98781C19.8071 4.20437 19.5752 4.60468 19.5752 4.60468C19.5752 4.60468 20.2839 4.28093 20.5596 4.11249C20.8374 3.94406 21.4521 3.46499 21.5921 3.55906C21.7299 3.65093 21.7299 4.58718 21.638 4.99187C21.5155 5.52999 20.9446 6.11624 20.9446 6.11624C20.9446 6.11624 21.7605 6.29999 22.2067 6.87093C22.653 7.44187 22.9133 7.88593 23.0992 8.45687C23.3771 9.30343 23.4996 10.4584 23.4383 10.675C23.3771 10.8916 23.038 10.5984 22.4058 10.5525C22.0317 10.5241 21.9442 10.5219 21.9442 10.5219C21.9442 10.5219 22.3008 10.9462 22.4671 11.3378C22.6836 11.8453 22.9199 12.6459 23.0511 12.985C23.1889 13.3394 23.2983 13.6172 23.4974 14.0175C23.5564 14.1356 23.0817 14.2494 22.6049 13.8009C22.4452 13.6522 22.2505 13.5078 22.2505 13.5078C22.2505 13.5078 22.5327 15.1856 22.513 16.31C22.4977 17.1412 22.3117 18.6506 22.0667 18.7884C21.8196 18.9262 21.3274 17.8653 21.3274 17.8653C21.3274 17.8653 21.113 19.0728 20.8658 19.8822C20.5727 20.8359 20.2949 21.2822 20.1264 21.8531C19.9252 22.5312 19.7261 23.0234 19.5883 22.8069C19.468 22.6209 19.3411 22.33 19.2186 22.1134C19.1246 21.9494 18.9102 21.5119 18.9102 21.5119C18.9102 21.5119 18.6936 22.82 17.648 23.6994C16.6024 24.5787 15.9242 25.2853 15.4299 25.3466C15.1389 25.3837 15.4758 24.0691 15.4758 24.0691C15.4758 24.0691 13.8439 25.3509 13.0586 25.9328C12.7042 26.1953 12.3805 27.0572 12.1355 26.9959C11.8883 26.9347 11.2583 25.9787 10.858 25.6878C10.4577 25.3969 9.70299 25.0556 9.59581 24.9944C9.48862 24.9331 8.97893 24.6094 8.97893 24.6094C8.97893 24.6094 9.10581 25.3247 8.96362 25.3947C8.65518 25.5478 7.46956 24.7012 7.13049 24.1784C6.79143 23.6556 6.19206 22.5772 6.19206 22.5772C6.19206 22.5772 6.11549 23.6097 5.86831 23.4391C5.60581 23.2597 4.32831 22.3147 3.88206 21.6059C3.56706 21.105 3.02018 19.6962 3.02018 19.6962C3.02018 19.6962 2.54331 20.1884 2.40331 20.2497C2.26331 20.3109 1.91112 20.4509 1.97237 19.9106C2.03362 19.3725 1.61143 18.1519 1.54143 17.4169C1.44956 16.4631 1.63331 15.4766 1.63331 15.4766C1.63331 15.4766 0.847994 16.5244 0.478307 16.5091C0.108619 16.4937 0.325182 14.4769 0.417057 13.86C0.508932 13.2431 0.817369 12.1669 0.939869 11.7819C1.06237 11.3969 1.52393 10.8281 1.52393 10.8281C1.52393 10.8281 0.384244 11.2131 0.215807 11.06C0.0473694 10.9069 0.307682 9.53531 0.462994 8.70406C0.541744 8.27749 0.878619 7.61031 1.30956 7.11812C1.74049 6.62593 2.40331 6.71781 2.46456 6.50124C2.52581 6.28468 2.21956 6.11406 2.00299 5.76187C1.67924 5.23906 1.49549 4.16062 1.66393 3.97468C1.76893 3.86093 2.35737 4.31374 3.06612 4.39031C3.77487 4.46687 4.40487 4.42093 4.40487 4.42093C4.40487 4.42093 3.99581 3.93968 3.82081 3.54374C3.57362 2.99031 3.55831 2.32749 3.71362 2.15687C3.86893 1.98624 4.40706 2.51124 5.13112 2.69499C5.85518 2.87874 6.93362 2.89624 6.93362 2.89624C6.93362 2.89624 6.47206 2.40406 6.34956 1.83312C6.22706 1.26437 6.25768 0.909994 6.45674 0.848744C6.65799 0.787494 7.24424 1.33656 7.65768 1.46562C8.10393 1.60343 9.61331 1.51156 10.2914 1.71281C10.9696 1.91406 11.6914 2.97281 11.6914 2.97281Z" fill="#865C50"/>
<path d="M16.5565 7.77863C16.5565 7.77863 19.2056 5.25426 20.7456 7.13113C22.5721 9.3602 17.7268 11.8124 17.7268 11.8124L16.5565 7.77863ZM7.31869 8.42394C7.31869 8.42394 4.84901 5.18644 3.03338 6.94082C1.21776 8.6952 4.97807 11.3793 4.97807 11.3793L7.31869 8.42394Z" fill="#FEC000"/>
<path d="M18.8358 9.9334C18.8358 9.9334 20.7761 8.57934 19.9755 7.71528C19.1202 6.79434 17.543 8.3934 17.543 8.3934L18.8358 9.9334ZM6.18985 8.50278C6.18985 8.50278 4.58203 6.91028 3.75078 7.89465C3.00266 8.78059 5.13766 10.4825 5.13766 10.4825L6.18985 8.50278Z" fill="#FF8E06"/>
<path d="M12.1533 19.5716C12.1533 19.5716 13.7239 19.1407 14.7083 18.6485C15.6926 18.1563 19.3589 16.0935 19.6345 13.5669C19.9123 11.0425 19.6345 10.3644 18.4642 8.8244C17.2939 7.2844 15.242 6.93003 14.1833 7.1619C12.9211 7.43972 12.7045 8.36065 12.1511 8.39347C11.6283 8.42409 11.7814 7.84003 10.272 7.2844C8.34045 6.57347 3.05326 8.47659 3.98951 13.5669C4.4817 16.2466 8.38638 18.5325 8.88513 18.8016C10.0904 19.4491 12.1533 19.5716 12.1533 19.5716Z" fill="#FEC000"/>
<path d="M16.1468 11.1633C16.3358 10.6884 16.1113 10.1532 15.6455 9.96783C15.1797 9.78242 14.6488 10.017 14.4599 10.4918C14.2709 10.9667 14.4953 11.5019 14.9611 11.6873C15.427 11.8727 15.9578 11.6381 16.1468 11.1633Z" fill="#2E2F2F"/>
<path d="M9.02895 11.5917C9.50682 11.3974 9.73372 10.8452 9.53574 10.3584C9.33777 9.87157 8.78989 9.63446 8.31203 9.82879C7.83416 10.0231 7.60727 10.5753 7.80524 11.0621C8.00321 11.5489 8.55109 11.7861 9.02895 11.5917Z" fill="#2E2F2F"/>
<path d="M12.1115 12.4687C10.2434 12.4118 8.60059 14.5227 8.60059 18.0315C8.60059 21.4396 10.4075 22.2402 11.8643 22.2402C13.7128 22.2402 15.4562 21.0283 15.2528 17.723C15.0625 14.6649 14.1021 12.5299 12.1115 12.4687Z" fill="#FFD899"/>
<path d="M9.93488 14.3982C9.75113 14.5819 10.0989 15.5882 10.4074 16.1022C10.7158 16.6163 11.5974 17.4563 12.0918 17.4366C12.5839 17.4169 13.5093 16.3888 13.7958 15.6297C14.0824 14.8707 14.1655 14.3982 14.043 14.2122C13.9205 14.0263 12.4614 14.2538 11.908 14.2538C11.3546 14.2538 10.1208 14.2144 9.93488 14.3982Z" fill="#2E2F2F"/>
<path d="M12.0504 16.73C12.0504 16.73 11.2564 17.594 10.9108 17.7253C10.4273 17.909 9.6792 17.7515 9.65732 18.049C9.63763 18.3575 10.1189 18.6812 10.8889 18.5784C11.7398 18.4647 12.0592 17.9419 12.0592 17.9419C12.0592 17.9419 12.5426 18.6287 13.4767 18.6703C14.4108 18.7119 14.6273 18.1169 14.3692 18.0337C14.0192 17.9222 13.8004 17.944 13.2711 17.7778C12.8511 17.6422 12.0504 16.73 12.0504 16.73Z" fill="#2E2F2F"/>
</svg>
