<svg width="296" height="246" viewBox="0 0 296 246" fill="none" xmlns="http://www.w3.org/2000/svg">
<path d="M257.579 104.448L258.122 104.852C258.508 105.143 258.919 105.442 259.536 105.878C260.788 106.761 262.673 107.963 265.108 109.484C266.323 110.249 267.672 111.103 269.099 112.1C270.524 113.097 272.03 114.241 273.498 115.588C274.962 116.939 276.372 118.507 277.589 120.242C278.816 121.974 279.818 123.88 280.599 125.822C281.382 127.766 281.945 129.751 282.352 131.698L282.63 133.153L282.847 134.592L283.203 137.233C283.258 137.681 283.326 138.092 283.397 138.494L283.602 139.703C283.72 140.502 283.922 141.286 284.071 142.051C284.388 143.477 284.767 144.888 285.208 146.281C285.642 147.554 286.074 148.713 286.54 149.687C286.982 150.68 287.461 151.473 287.862 152.117C288.279 152.744 288.641 153.192 288.891 153.469C289.15 153.743 289.252 153.826 289.214 153.802C289.343 153.884 289.454 153.99 289.542 154.115C289.63 154.239 289.692 154.38 289.725 154.529C289.758 154.678 289.762 154.831 289.736 154.981C289.71 155.132 289.654 155.275 289.572 155.404C289.491 155.533 289.384 155.644 289.26 155.732C289.135 155.819 288.994 155.881 288.846 155.915C288.697 155.948 288.543 155.952 288.393 155.925C288.243 155.899 288.099 155.844 287.97 155.762C287.719 155.603 287.478 155.428 287.25 155.237C286.858 154.909 286.334 154.411 285.743 153.735C285.173 153.052 284.5 152.204 283.862 151.172C283.194 150.15 282.553 148.952 281.893 147.623C281.217 146.19 280.605 144.728 280.06 143.241C279.789 142.445 279.468 141.649 279.218 140.79L278.818 139.496C278.68 139.067 278.553 138.634 278.438 138.198L277.728 135.574L277.395 134.33L277.013 133.098C276.474 131.465 275.816 129.875 275.02 128.403C274.224 126.93 273.297 125.575 272.235 124.392C271.193 123.227 270.031 122.175 268.767 121.255C266.272 119.443 263.507 118.094 261.001 116.879C258.492 115.678 256.266 114.59 254.717 113.74C254.109 113.407 253.505 113.065 252.906 112.715L252.322 112.372C251.251 111.725 250.479 110.682 250.171 109.469C249.863 108.256 250.044 106.97 250.676 105.89C251.308 104.81 252.34 104.022 253.548 103.696C254.756 103.371 256.044 103.533 257.133 104.149C257.288 104.242 257.44 104.344 257.579 104.448ZM60.5694 13.0109C60.3898 13.3299 60.3029 13.5285 60.3029 13.5285L60.3089 13.5362C57.6482 19.4065 58.3879 26.5997 58.3879 26.5997C58.5031 26.5761 58.59 26.5442 58.7052 26.52C58.6816 26.6352 58.6526 26.7232 58.6284 26.8385C58.6284 26.8385 66.5969 27.6828 72.6386 24.5654C72.6888 24.5435 72.7284 24.537 72.7827 24.5116C72.8011 24.4968 72.8229 24.4856 72.8454 24.4673C73.5182 24.1156 74.1595 23.7066 74.7622 23.2448C80.9976 18.9273 84.0507 10.8187 84.6935 8.90078C84.7154 8.81274 84.7432 8.73238 84.7727 8.64434C84.7839 8.59057 84.8324 8.44876 84.8324 8.44876L84.8253 8.42926C85.5143 6.0256 85.4782 3.53094 85.3429 1.93972C85.2619 0.986054 84.3951 0.135198 83.4503 0.0648845C82.2828 -0.0219736 80.6496 -0.0574264 79.0306 0.193103L79.0247 0.184831C79.0005 0.191921 78.9869 0.203147 78.9692 0.19842C77.3622 0.462832 75.7999 0.949863 74.3273 1.64547C69.0378 3.70229 65.5871 6.6726 63.3938 9.14363C62.1914 10.2444 61.2832 11.5786 60.5694 13.0109Z" fill="#D19B61"/>
<path d="M252.562 202.733C258.787 214.423 249.757 237.039 246.756 243.878C246.217 245.107 245.123 245.884 243.923 245.884H236.356C234.138 245.884 232.605 243.341 233.391 240.962C236.555 231.378 243.158 217.572 243.158 210.538C243.158 204.214 229.657 190.782 221.115 170.427C220.788 185.133 220.018 199.478 219.888 207.359C219.67 220.6 213.746 237.039 210.745 243.878C210.206 245.107 209.111 245.884 207.912 245.884H200.345C198.127 245.884 196.594 243.341 197.38 240.962C200.544 231.378 207.147 217.572 207.147 210.538C207.147 202.343 199.595 177.735 184.475 149.022C173.169 147.146 161.401 149.127 147.598 151.367C141.802 166.575 136.377 206.644 137.749 212.817C138.965 218.29 142.863 233.15 144.843 240.637C145.436 242.881 143.743 245.076 141.422 245.076H132.371C130.284 245.076 128.665 243.281 128.85 241.202C129.464 234.292 128.473 221.983 128.077 219.976C126.964 214.322 124.66 204.055 126.169 197.101C127.494 190.994 128.993 180.829 118.911 161.284C113.684 175.595 109.425 206.927 110.734 212.817C111.95 218.29 115.848 233.15 117.828 240.637C118.421 242.881 116.728 245.076 114.406 245.076H105.356C103.269 245.076 101.65 243.281 101.835 241.202C102.449 234.292 101.458 221.983 101.062 219.976C99.949 214.322 97.6446 204.055 99.1537 197.101C100.546 190.685 101.296 177.23 89.0534 154.496C50.4842 147.985 82.5798 61.2734 53.5621 54.2964C41.0409 55.246 19.0983 52.7684 10.1513 52.7684C-3.47003 52.7684 -0.23146 44.2912 2.1078 39.2877C9.02927 24.4799 25.0106 19.5171 29.3789 19.5171C40.3537 19.5171 45.0583 6.49374 58.6619 6.49374C60.8783 6.49374 63.9118 7.65953 67.1893 9.69508C67.5003 9.5438 67.8181 9.40716 68.1418 9.28561C71.111 7.8362 75.4326 6.40393 81.1067 6.51619C82.7333 6.43361 84.3635 6.57819 85.9501 6.94576C85.9649 6.95698 85.982 6.95226 86.0068 6.95462L86.0092 6.96466C87.601 7.34991 89.0977 8.0046 90.1447 8.52929C90.9914 8.95413 91.4689 10.0709 91.1811 10.9838C90.7001 12.507 89.7837 14.8274 88.2309 16.7873L88.2303 16.808C88.2303 16.808 88.1316 16.9203 88.1009 16.9658C88.04 17.0361 87.9839 17.0999 87.9295 17.1726C87.1289 18.0961 84.6466 20.7721 81.1782 23.1043C84.9935 28.5149 87.7363 34.7959 87.9945 41.2429L88.0069 41.2323C88.1452 42.1091 88.2911 43.1036 88.446 44.1913C106.907 166.178 130.369 16.8092 178.261 16.8092C223.292 16.8092 224.522 50.7872 239.768 69.2792C252.195 84.3517 267.891 103.315 267.891 124.665C267.891 133.109 261.697 143.423 250.826 153.528C243.254 174.181 246.82 191.951 252.562 202.733ZM285.817 150.133C285.465 150.321 285.153 150.578 284.9 150.886C284.647 151.195 284.458 151.551 284.342 151.933C284.227 152.316 284.188 152.717 284.228 153.114C284.267 153.511 284.385 153.897 284.573 154.249L284.592 154.284L284.716 154.515L284.872 154.785L284.918 154.867L284.926 154.924C284.931 154.963 284.939 155.001 284.948 155.041C284.967 155.123 284.979 155.197 285.014 155.293C285.068 155.434 285.125 155.586 285.193 155.741C285.328 156.038 285.467 156.449 285.644 156.837C285.795 157.268 285.999 157.697 286.172 158.193C286.367 158.672 286.555 159.188 286.754 159.72C286.959 160.248 287.141 160.808 287.348 161.366C287.521 161.935 287.752 162.499 287.905 163.082C288.116 163.654 288.243 164.239 288.425 164.811C288.598 165.385 288.72 165.95 288.906 166.506C289.03 167.059 289.192 167.603 289.336 168.126C289.449 168.646 289.593 169.152 289.724 169.63C289.819 170.102 289.935 170.55 290.046 170.96C290.162 171.37 290.214 171.726 290.301 172.036C290.442 172.648 290.575 173.034 290.575 173.034L290.615 173.153C290.678 173.333 290.785 173.493 290.927 173.62C291.069 173.746 291.241 173.834 291.427 173.875C291.612 173.917 291.805 173.91 291.988 173.855C292.17 173.801 292.335 173.701 292.468 173.565C292.468 173.565 292.757 173.268 293.172 172.686C293.376 172.395 293.66 172.038 293.875 171.599C294.131 171.105 294.365 170.6 294.578 170.087C294.79 169.518 294.966 168.885 295.142 168.203C295.291 167.525 295.388 166.798 295.47 166.04C295.494 165.664 295.5 165.281 295.506 164.892C295.516 164.502 295.52 164.105 295.477 163.715C295.428 162.919 295.329 162.128 295.183 161.345C295.041 160.564 294.855 159.792 294.626 159.033C294.404 158.299 294.144 157.578 293.847 156.871L293.393 155.87C293.235 155.547 293.058 155.239 292.896 154.936C292.576 154.333 292.194 153.783 291.859 153.283C291.479 152.781 291.162 152.341 290.791 151.949C290.617 151.753 290.447 151.576 290.292 151.413C290.109 151.226 289.922 151.044 289.729 150.868L289.481 150.645L289.365 150.546L289.284 150.493C289.196 150.438 289.109 150.382 289.021 150.327L288.797 150.194C288.347 149.929 287.837 149.784 287.315 149.774C286.793 149.763 286.277 149.887 285.817 150.133Z" fill="#AF773F"/>
<path d="M41.6192 23.1692C42.1012 23.1341 42.5854 23.1943 43.0441 23.3463C43.5028 23.4984 43.9271 23.7393 44.2927 24.0554C44.6583 24.3714 44.958 24.7564 45.1748 25.1883C45.3916 25.6202 45.5212 26.0906 45.5562 26.5726L46.0176 32.9192C46.0527 33.4012 45.9925 33.8854 45.8405 34.3441C45.6884 34.8028 45.4475 35.2271 45.1315 35.5927C44.8154 35.9583 44.4304 36.258 43.9985 36.4748C43.5666 36.6916 43.0962 36.8212 42.6142 36.8562C42.1322 36.8913 41.648 36.8311 41.1893 36.679C40.7306 36.527 40.3063 36.286 39.9407 35.97C39.5751 35.6539 39.2754 35.269 39.0586 34.837C38.8418 34.4051 38.7122 33.9347 38.6772 33.4527L38.2158 27.1062C38.1453 26.1329 38.4643 25.1714 39.1025 24.4332C39.7407 23.6949 40.6459 23.2403 41.6192 23.1692ZM7.03843 37.8683C6.55989 37.9032 6.11481 38.1268 5.80103 38.4898C5.48725 38.8527 5.33044 39.3255 5.36508 39.804L5.59197 42.9238C5.63788 43.3938 5.86566 43.8272 6.22671 44.1316C6.58776 44.436 7.05347 44.5872 7.52445 44.553C7.99544 44.5187 8.43439 44.3018 8.74762 43.9484C9.06086 43.595 9.22356 43.1332 9.20102 42.6615L8.97412 39.5417C8.9569 39.3047 8.89317 39.0734 8.78657 38.8611C8.67997 38.6487 8.53259 38.4595 8.35285 38.3041C8.1731 38.1487 7.9645 38.0302 7.73898 37.9555C7.51345 37.8807 7.2754 37.8511 7.03843 37.8683ZM116.033 233.819H102.009C102.058 236.485 102.022 239.095 101.834 241.201C101.649 243.281 103.268 245.076 105.355 245.076H114.406C116.727 245.076 118.42 242.881 117.827 240.637C117.327 238.746 116.704 236.381 116.033 233.819ZM143.048 233.819H129.024C129.073 236.485 129.037 239.094 128.85 241.201C128.665 243.281 130.283 245.076 132.371 245.076H141.421C143.742 245.076 145.435 242.881 144.842 240.637C144.342 238.746 143.719 236.381 143.048 233.819ZM235.996 233.819C235.028 236.332 234.117 238.76 233.391 240.962C232.605 243.341 234.139 245.883 236.356 245.883H243.923C245.122 245.883 246.217 245.106 246.756 243.877C248.195 240.584 249.487 237.228 250.629 233.82H235.996V233.819ZM199.985 233.819C199.017 236.333 198.106 238.76 197.379 240.962C196.594 243.341 198.127 245.883 200.344 245.883H207.912C209.111 245.883 210.205 245.106 210.745 243.877C211.786 241.505 213.18 237.971 214.565 233.82H199.985V233.819Z" fill="#2B3B47"/>
</svg>
