<svg width="224" height="256" viewBox="0 0 224 256" fill="none" xmlns="http://www.w3.org/2000/svg">
<path d="M112.737 196.229H112.439C57.8069 196.293 1.68408 211.352 1.68408 249.455V255.866H223.194V249.455C223.194 213.545 167.625 196.229 112.737 196.229Z" fill="url(#paint0_linear_544_7891)"/>
<path d="M138.702 218.104C138.702 218.104 153.356 219.36 168.18 223.918C195.869 232.438 204.197 217.827 204.197 217.827C204.197 217.827 173.91 197.976 135.571 197.699C135.55 197.699 133.015 216.57 138.702 218.104ZM19.9817 217.529C19.9817 217.529 28.5013 232.438 56.19 223.918C71.0141 219.36 85.6678 218.104 85.6678 218.104C91.3333 216.549 88.7988 197.699 88.7988 197.699C50.4606 197.976 19.9817 217.529 19.9817 217.529Z" fill="#283593"/>
<path d="M73.57 246.729H50.3328C47.7769 246.729 45.7109 244.663 45.7109 242.107C45.7109 239.552 47.7769 237.486 50.3328 237.486H73.5913C76.1472 237.486 78.2132 239.552 78.2132 242.107C78.1919 244.663 76.1259 246.729 73.57 246.729Z" fill="#E0E0E0"/>
<path d="M218.678 232.8L208.029 232.97L203.045 242.108L213.332 255.867H223.961C224.536 240.17 218.678 232.8 218.678 232.8Z" fill="url(#paint1_linear_544_7891)"/>
<path d="M16.7646 232.97L6.11511 232.8C6.11511 232.8 0.279182 240.17 0.832956 255.867H11.4612L21.7486 242.108L16.7646 232.97Z" fill="url(#paint2_linear_544_7891)"/>
<path d="M208.987 234.547L218.699 234.376C219.573 234.355 220.276 233.631 220.276 232.758C220.276 231.884 219.594 231.245 218.657 231.181L207.07 231.373L200.638 243.194L209.647 255.867H213.566L204.387 242.981L208.987 234.547Z" fill="#BDBDBD"/>
<path d="M214.333 240.319L221.532 240.02C222.129 239.999 222.576 239.509 222.555 238.913C222.534 238.316 222.022 237.912 221.447 237.891L213.205 238.231L209.861 243.087L218.274 255.888H220.83L212.438 243.13L214.333 240.319ZM17.7223 231.394L6.13567 231.203H6.11438C5.24112 231.203 4.53825 231.905 4.51695 232.779C4.49565 233.652 5.19852 234.397 6.09308 234.397L15.8267 234.568L20.406 243.002L11.2261 255.888H15.1452L24.1546 243.215L17.7223 231.394Z" fill="#BDBDBD"/>
<path d="M11.5884 238.231L3.32434 237.89C2.72797 237.912 2.23809 238.316 2.21679 238.913C2.1955 239.509 2.64277 239.999 3.23915 240.02L10.4382 240.318L12.3764 243.109L3.98461 255.867H6.54049L14.9536 243.066L11.5884 238.231Z" fill="#BDBDBD"/>
<path d="M112.418 251.5L132.269 215.122H89.8835L112.418 251.5Z" fill="#212121"/>
<path d="M93.0576 175.292V205.068C93.0576 214.674 100.938 222.47 110.651 222.47H114.165C123.877 222.47 131.758 214.674 131.758 205.068V175.292H93.0576ZM170.607 99.3615H54.187C41.6418 99.3615 31.3757 110.309 31.3757 123.664C31.3757 137.018 41.6418 147.966 54.187 147.966H170.586C183.131 147.966 193.397 137.018 193.397 123.664C193.397 110.309 183.152 99.3615 170.607 99.3615Z" fill="#99674F"/>
<path d="M112.398 15.5288C75.338 15.5288 41.004 55.1662 41.004 112.226C41.004 168.967 76.3817 197.018 112.398 197.018C148.415 197.018 183.792 168.946 183.792 112.205C183.792 55.1662 149.459 15.5288 112.398 15.5288Z" fill="#BA8D68"/>
<path d="M76.4448 198.743L59.4056 233.311L82.5577 226.346L112.419 251.5L93.0155 196.804L76.4448 198.743ZM131.865 196.804L112.483 251.5L143.984 226.708L165.496 233.311L148.457 198.743L131.865 196.804Z" fill="#3674CE"/>
<path d="M130.331 154.121C123.558 158.147 101.3 158.147 94.5271 154.121C90.6294 151.8 86.6465 155.357 88.2652 158.892C89.8626 162.364 101.982 170.436 112.482 170.436C122.983 170.436 134.953 162.364 136.55 158.892C138.147 155.357 134.228 151.8 130.331 154.121Z" fill="#5D4037"/>
<path d="M120.618 136.912C120.383 136.826 120.17 136.763 119.936 136.741H104.856C104.622 136.763 104.388 136.826 104.175 136.912C102.812 137.465 102.066 138.871 102.705 140.383C103.344 141.896 106.347 146.113 112.396 146.113C118.445 146.113 121.448 141.874 122.087 140.383C122.726 138.871 121.981 137.465 120.618 136.912Z" fill="#99674F"/>
<path d="M77.3814 128.073C83.1806 128.073 87.8818 123.209 87.8818 117.21C87.8818 111.211 83.1806 106.348 77.3814 106.348C71.5822 106.348 66.881 111.211 66.881 117.21C66.881 123.209 71.5822 128.073 77.3814 128.073Z" fill="#49362E"/>
<path d="M147.412 128.072C153.211 128.072 157.913 123.209 157.913 117.21C157.913 111.211 153.211 106.347 147.412 106.347C141.613 106.347 136.912 111.211 136.912 117.21C136.912 123.209 141.613 128.072 147.412 128.072Z" fill="#49362E"/>
<path d="M61.3217 100.001C68.0948 90.3947 84.0264 90.0752 92.0135 98.2541C93.398 99.6811 94.8676 101.513 93.824 103.579C92.6738 105.858 90.3096 105.496 88.3714 104.708C83.1958 102.62 77.8497 101.683 72.2907 102.812C69.8839 103.302 67.8179 104.303 65.5389 105.112C62.4718 106.156 59.3409 102.961 61.3217 100.001ZM159.425 105.112C154.675 103.046 149.862 101.854 144.622 102.45C142.237 102.727 139.894 103.345 137.679 104.218C135.911 104.921 134.015 106.049 132.183 104.814C126.965 101.215 136.209 95.3574 138.935 94.1859C144.814 91.6514 151.821 91.8857 157.508 94.8462C159.766 96.0177 162.215 97.7216 163.557 99.958C165.24 102.748 162.726 106.454 159.425 105.112Z" fill="#613E31"/>
<path d="M112.44 0.172363H112.355C15.5938 0.683539 35.4018 111.225 35.4018 111.225C35.4018 111.225 39.7468 122.62 41.7276 127.647C42.0045 128.371 43.0695 128.286 43.2399 127.54C45.3059 118.297 52.7392 85.5175 56.4878 75.5495C57.5588 72.7095 59.5941 70.3363 62.2378 68.8451C64.8815 67.3539 67.9653 66.8395 70.9499 67.392C80.4279 69.1172 95.5502 71.2471 112.206 71.2471H112.547C129.203 71.2471 144.325 69.1172 153.803 67.392C159.98 66.2632 166.071 69.6923 168.265 75.5495C171.992 85.4749 179.383 118.062 181.47 127.434C181.641 128.201 182.706 128.265 182.983 127.54L189.33 111.204C189.394 111.225 209.223 0.683539 112.44 0.172363Z" fill="#543930"/>
<path d="M189.394 111.225C189.394 111.225 209.223 0.683539 112.44 0.172363H112.355C110.843 0.172363 109.373 0.214962 107.925 0.278859C105.05 0.406653 102.26 0.619642 99.5758 0.939127H99.4906C99.299 0.960426 99.1286 1.00302 98.9369 1.02432C17.4895 11.2691 35.402 111.225 35.402 111.225L41.7491 127.583C42.0259 128.307 43.0696 128.243 43.24 127.476C45.3273 118.126 52.7393 85.4962 56.488 75.5708C57.5589 72.7308 59.5942 70.3576 62.2379 68.8664C64.8816 67.3752 67.9654 66.8608 70.95 67.4133C80.428 69.1385 95.5503 71.2684 112.206 71.2684H112.547C129.203 71.2684 144.325 69.1385 153.803 67.4133C159.98 66.2845 166.071 69.7136 168.265 75.5708C172.014 85.5387 179.447 118.382 181.492 127.583C181.662 128.35 182.706 128.414 182.983 127.689C185.027 122.663 189.394 111.225 189.394 111.225Z" fill="url(#paint3_radial_544_7891)"/>
<path d="M112.418 43.3663C47.1791 43.3663 36.7213 67.6259 36.7213 67.6259C36.7213 67.6259 56.8276 88.7971 112.418 89.2018C168.008 88.7971 189.137 66.2841 189.137 66.2841C189.137 66.2841 177.657 43.3663 112.418 43.3663Z" fill="url(#paint4_linear_544_7891)"/>
<path d="M27.3071 65.3042C30.6297 78.5308 33.8032 84.1325 33.8032 84.1325C37.1685 79.8514 57.2108 59.9794 112.695 59.9794H112.993C168.477 59.9794 187.603 79.9792 190.969 84.239C190.969 84.239 194.973 78.2752 198.317 65.0486C206.027 34.4632 167.859 0.193125 112.929 0.193125C58.1267 0.171826 19.6394 34.7614 27.3071 65.3042Z" fill="url(#paint5_linear_544_7891)"/>
<path d="M182.811 67.6684C182.425 65.3409 181.234 63.2228 179.446 61.6834C172.097 55.4854 150.16 40.1288 112.95 40.1288C74.7824 40.1288 53.4195 55.4854 46.3482 61.6834C44.6343 63.2196 43.4929 65.2922 43.1107 67.5619L43.0894 67.6897C42.6205 70.3134 43.1688 73.0172 44.623 75.2508C55.9753 68.2435 76.9762 59.9794 112.716 59.9794H113.014C149.329 59.9794 170.074 68.5416 181 75.6555C182.555 73.5043 183.322 70.6928 182.811 67.6684Z" fill="#3B78E7"/>
<path d="M129.905 21.3644L129.244 20.5125C129.088 20.3185 128.89 20.1622 128.665 20.0553C128.44 19.9483 128.194 19.8935 127.945 19.8948C127.391 19.8948 126.88 20.1504 126.582 20.5977C125.411 22.3868 123.685 23.5795 120.64 23.5795C117.679 23.5795 115.528 20.8532 114.229 19.1706C113.824 18.6381 113.185 18.2974 112.482 18.2974C111.779 18.2974 111.14 18.6381 110.736 19.1706C109.458 20.8532 107.413 23.5795 104.452 23.5795C101.407 23.5795 99.6814 22.3655 98.5099 20.5977C98.3585 20.3769 98.1548 20.1972 97.9169 20.0745C97.679 19.9519 97.4144 19.8901 97.1468 19.8948C96.6356 19.8948 96.1457 20.1291 95.8476 20.5125L95.1873 21.3644C94.3992 22.3868 94.2714 23.7499 94.8678 24.8788C95.7624 26.5827 96.2309 28.457 96.2309 30.3526V37.7646C96.2309 43.1746 105.049 54.2075 112.525 54.2075C120.001 54.2075 128.818 43.1746 128.818 37.7646V30.3526C128.818 28.457 129.287 26.5827 130.182 24.8788C130.821 23.7286 130.714 22.3868 129.905 21.3644Z" fill="#FFCC00"/>
<defs>
<linearGradient id="paint0_linear_544_7891" x1="112.445" y1="197.243" x2="112.445" y2="259.528" gradientUnits="userSpaceOnUse">
<stop offset="0.003" stop-color="#3B78E7"/>
<stop offset="0.223" stop-color="#386EDA"/>
<stop offset="0.629" stop-color="#3052B8"/>
<stop offset="1" stop-color="#283593"/>
</linearGradient>
<linearGradient id="paint1_linear_544_7891" x1="224.007" y1="244.336" x2="203.051" y2="244.336" gradientUnits="userSpaceOnUse">
<stop offset="0.004" stop-color="#666666"/>
<stop offset="0.099" stop-color="#606060"/>
<stop offset="0.68" stop-color="#3F3F3F"/>
<stop offset="1" stop-color="#333333"/>
</linearGradient>
<linearGradient id="paint2_linear_544_7891" x1="0.783968" y1="244.336" x2="21.7401" y2="244.336" gradientUnits="userSpaceOnUse">
<stop offset="0.004" stop-color="#666666"/>
<stop offset="0.099" stop-color="#606060"/>
<stop offset="0.68" stop-color="#3F3F3F"/>
<stop offset="1" stop-color="#333333"/>
</linearGradient>
<radialGradient id="paint3_radial_544_7891" cx="0" cy="0" r="1" gradientUnits="userSpaceOnUse" gradientTransform="translate(112.4 91.9047) scale(81.1322 91.5333)">
<stop offset="0.794" stop-color="#6D4C41" stop-opacity="0"/>
<stop offset="1" stop-color="#6D4C41"/>
</radialGradient>
<linearGradient id="paint4_linear_544_7891" x1="112.94" y1="43.5921" x2="112.94" y2="87.9664" gradientUnits="userSpaceOnUse">
<stop offset="0.004" stop-color="#666666"/>
<stop offset="0.099" stop-color="#606060"/>
<stop offset="0.68" stop-color="#3F3F3F"/>
<stop offset="1" stop-color="#333333"/>
</linearGradient>
<linearGradient id="paint5_linear_544_7891" x1="112.831" y1="0.923681" x2="112.831" y2="64.9037" gradientUnits="userSpaceOnUse">
<stop offset="0.003" stop-color="#3B78E7"/>
<stop offset="0.011" stop-color="#3B77E6"/>
<stop offset="0.298" stop-color="#335BC2"/>
<stop offset="0.568" stop-color="#2D46A8"/>
<stop offset="0.809" stop-color="#293998"/>
<stop offset="1" stop-color="#283593"/>
</linearGradient>
</defs>
</svg>
