<svg width="73" height="74" viewBox="0 0 73 74" fill="none" xmlns="http://www.w3.org/2000/svg">
<path d="M0.0858013 40.845C0.900186 52.999 14.5658 72.2481 37.7388 73.8029C53.5761 74.8702 68.8766 67.4173 72.1897 49.8587C75.2375 33.7191 69.0555 18.5234 64.1384 11.7184C56.4634 1.10053 38.4668 -4.93949 19.2362 6.38169C1.94284 16.58 -0.543496 31.424 0.0858013 40.845Z" fill="#95683D"/>
<path d="M4.83641 47.4096C13.2209 62.8335 37.8005 63.87 51.1453 53.2892C65.798 41.6718 69.2098 24.7178 61.2511 12.8722C52.009 -0.879759 30.7178 1.08217 17.7062 10.1453C4.94129 19.0418 -1.49358 35.7676 4.83641 47.4096Z" fill="#B7D118"/>
<path d="M21.6425 28.9008C21.1551 30.3691 23.0923 31.5907 22.7962 34.441C22.3643 38.5438 19.5448 40.9068 20.3469 41.7088C21.3525 42.7145 24.3509 40.8266 28.1946 40.1232C32.5133 39.3335 33.2351 41.3016 34.3827 40.697C35.7523 39.9752 35.049 36.7855 37.8376 34.293C40.5708 31.8436 43.236 31.7758 43.7419 30.9799C44.2478 30.1902 43.3101 27.8828 43.9579 25.0756C44.6057 22.2685 46.9316 19.7204 46.1419 18.6407C45.3522 17.5611 42.1132 20.6582 38.4176 20.4669C35.9744 20.3435 34.6726 19.1713 33.667 19.6772C32.6614 20.1831 32.211 23.3173 29.3483 25.7975C25.5972 29.0488 22.0003 27.8211 21.6425 28.9008Z" fill="#E5DDA0"/>
<path d="M46.6599 7.07884C44.5931 6.15341 43.1494 10.6449 42.3474 12.2551C41.5453 13.8654 39.8981 17.0242 41.6009 17.888C43.0507 18.6283 45.2224 13.7482 45.9689 12.2551C46.7216 10.7621 48.4244 7.86855 46.6599 7.07884ZM48.9057 15.2474C49.6213 16.0803 51.0959 15.1178 52.2742 14.1122C53.4218 13.1374 53.7981 11.8973 53.2737 11.2186C52.4717 10.1821 51.4352 10.4166 49.9977 11.7924C48.9427 12.8104 47.8692 14.0381 48.9057 15.2474ZM47.8136 20.5347C48.2085 22.2128 52.5149 21.164 55.6552 20.5347C59.3939 19.7882 62.0592 19.4303 61.6705 17.3142C61.2386 14.9821 57.5184 16.2592 54.7174 16.9625C49.9421 18.1532 47.3262 18.4556 47.8136 20.5347ZM46.1664 26.55C46.4687 28.7156 51.9719 27.6976 56.63 27.6421C60.7142 27.5927 63.4535 27.2534 63.2438 25.458C63.0217 23.5825 59.542 23.9465 55.6367 24.2365C51.719 24.5203 45.8147 24.0822 46.1664 26.55ZM47.7334 31.6214C47.0856 33.4106 48.6712 33.8672 52.3915 35.5268C55.1431 36.7484 57.4197 38.1797 58.16 36.2918C58.8263 34.5952 56.377 33.6327 54.2547 32.6456C50.8059 31.0292 48.3936 29.8076 47.7334 31.6214ZM43.0507 33.6636C41.1937 36.0512 45.7962 38.4203 49.1339 41.0054C52.4902 43.6089 55.1061 45.4845 56.1796 43.8495C57.2839 42.1591 54.0202 40.2033 51.1452 38.1303C48.2702 36.0635 44.0687 32.3495 43.0507 33.6636ZM38.4482 38.8892C37.2698 39.7838 37.7264 40.8265 39.4847 43.0784C41.3232 45.4351 42.7237 47.2181 43.2975 47.9091C43.8713 48.6001 45.8209 51.2962 47.3077 50.2227C48.9118 49.0628 46.9005 46.6505 46.3268 45.8423C45.753 45.0403 42.0081 40.3884 41.0271 39.3519C40.0461 38.3154 39.2564 38.2723 38.4482 38.8892ZM33.1485 43.3622C32.0318 43.7632 31.7974 45.0279 32.5439 48.6495C33.2102 51.8762 33.6668 52.7337 34.1295 54.2268C34.3022 54.7882 34.9871 57.3116 36.7701 56.7995C38.2384 56.3738 37.1773 53.1656 36.8935 51.759C36.4739 49.6983 34.5861 42.8439 33.1485 43.3622ZM28.435 42.0974C26.7692 41.6964 26.2695 44.7133 25.9671 48.2731C25.7389 50.9754 25.4057 53.9553 27.2196 54.0047C29.3728 54.0602 29.2802 50.778 29.4591 48.2978C29.6874 45.1945 29.8355 42.4367 28.435 42.0974ZM17.8171 56.2751C19.9148 57.1203 21.0685 53.6468 21.9507 51.4443C23.0983 48.5693 24.0237 46.6012 24.3692 45.7374C24.6777 44.9724 24.4988 43.5226 23.1785 43.0598C21.8582 42.5971 21.0438 44.9231 20.0629 47.0454C19.0819 49.1677 15.7071 55.4299 17.8171 56.2751ZM11.6475 52.234C13.2208 53.3692 14.1462 51.6849 15.9292 49.4392C17.7122 47.1996 20.2356 44.4912 18.6932 43.4424C17.3236 42.5108 15.5035 45.1452 14.0043 46.9899C12.5051 48.8284 9.92623 50.9878 11.6475 52.234ZM6.08259 44.5776C6.64402 46.2248 9.05632 45.2624 11.8141 44.2876C14.5719 43.3128 19.5755 42.0295 18.8289 40.0984C18.3724 38.9201 14.6521 40.1663 11.2033 41.1473C9.48819 41.6285 5.3299 42.3627 6.08259 44.5776ZM6.05791 35.0271C6.21832 37.0939 9.45118 36.662 13.1282 36.8347C19.5199 37.1309 21.0068 36.8779 21.0438 35.4404C21.0993 33.2564 17.1385 33.6944 12.9247 33.3736C9.55606 33.1145 5.85431 32.4358 6.05791 35.0271ZM9.6486 25.4827C9.03165 26.9387 10.0928 27.9814 13.628 29.2153C17.5025 30.5664 19.1066 31.2513 19.8346 29.715C20.5626 28.1788 17.7308 27.2595 14.8249 26.0565C13.4923 25.5074 10.3828 23.7552 9.6486 25.4827ZM12.3447 18.7023C11.1046 20.399 13.0974 21.7748 16.3118 23.7552C19.5014 25.7172 22.4567 27.932 23.6967 26.0688C24.8011 24.4092 20.1801 21.7748 18.1688 20.5409C16.1575 19.307 13.3565 17.308 12.3447 18.7023ZM20.9019 11.2495C19.8531 11.9281 20.1616 13.7173 22.4505 17.1538C24.7394 20.5902 26.1276 23.2185 27.855 22.4596C29.4159 21.7748 27.0468 17.6658 25.7265 15.4448C24.4371 13.2608 22.6171 10.139 20.9019 11.2495ZM29.8663 7.37498C28.5028 7.59092 28.2499 9.67624 28.9162 12.8412C29.6319 16.253 30.3784 19.3748 31.9331 18.9615C33.494 18.5481 33.0128 15.2967 32.4884 11.7739C32.1923 9.81197 31.6061 7.10352 29.8663 7.37498ZM39.3551 5.4254C37.7264 5.19712 37.0971 6.63463 36.5048 10.2562C35.9063 13.8777 34.9932 17.0551 36.6775 17.7954C38.4605 18.5789 39.4724 12.8042 39.9968 10.3426C40.3916 8.47317 41.2184 5.69069 39.3551 5.4254Z" fill="#7FB240"/>
<path d="M37.9485 13.9024C36.3012 13.4891 35.4745 14.7538 35.24 16.3949C35.0056 18.036 35.5855 18.8751 36.5048 19.0479C37.6092 19.2515 38.3927 18.6098 38.8061 17.1415C39.2256 15.6731 39.0343 14.1801 37.9485 13.9024ZM41.1011 18.4679C42.0142 18.943 43.0507 18.4124 43.5196 17.3019C43.7911 16.6541 43.97 15.1302 42.9397 14.6798C41.8045 14.1862 40.9592 14.7353 40.5212 15.9014C40.1695 16.8391 40.2004 17.999 41.1011 18.4679ZM48.264 15.8458C49.0661 16.5183 50.1272 16.1358 50.6825 15.5867C51.1205 15.1487 51.466 14.1307 50.7689 13.3718C50.0717 12.613 48.9365 12.9091 48.4429 13.4274C47.9432 13.9579 47.3571 15.0932 48.264 15.8458ZM51.8732 19.455C52.1138 20.5964 51.2007 21.4355 49.7509 21.6946C48.2949 21.9537 47.5669 21.4602 47.3633 20.5594C47.1597 19.6586 47.826 18.727 48.8748 18.4062C49.9236 18.0854 51.5833 18.0854 51.8732 19.455ZM46.006 26.5501C46.0615 27.8889 47.462 28.2159 48.5108 28.1233C49.8496 28.0061 50.8984 27.3953 50.8676 26.3465C50.8367 25.2976 49.862 24.656 48.3627 24.6869C47.0795 24.7177 45.9381 25.094 46.006 26.5501ZM47.2152 31.3315C46.7648 32.2693 47.2707 33.1639 48.3504 33.6327C49.4301 34.0955 50.8799 33.7808 51.0835 32.8739C51.2871 31.9731 50.7936 30.9551 49.572 30.6343C48.3504 30.3135 47.5915 30.548 47.2152 31.3315ZM42.2055 33.3983C41.4405 34.3176 41.8292 35.4096 43.0199 36.4831C44.2106 37.5566 45.6234 37.6615 46.3391 36.8348C47.2399 35.7859 46.2219 34.3299 45.2039 33.5155C44.1859 32.7011 42.7916 32.7011 42.2055 33.3983ZM37.1711 37.5319C36.0236 38.5191 36.7331 39.9504 37.5783 40.9931C38.4235 42.0419 39.8179 42.4491 40.694 41.6902C41.57 40.9314 41.4528 39.4507 40.114 38.1365C39.0343 37.0877 37.9855 36.8348 37.1711 37.5319ZM32.5131 41.8383C31.2298 42.2085 31.347 43.5534 31.6123 44.6331C31.8715 45.7128 32.9018 46.6012 33.8519 46.2619C34.839 45.9102 35.1043 45.0958 34.8143 43.7015C34.5244 42.3072 33.42 41.5792 32.5131 41.8383ZM28.7311 40.9067C27.6761 40.808 27.016 41.5792 26.6952 42.8871C26.3744 44.1951 27.016 45.3611 28.0895 45.4783C29.163 45.5956 29.9836 44.5776 30.0699 43.1771C30.1563 41.7766 29.6627 40.9931 28.7311 40.9067ZM24.1348 42.4244C22.6541 41.7026 21.6916 43.1524 21.34 43.9113C20.9883 44.6701 20.6675 46.4408 21.8644 46.9652C23.0551 47.4896 24.1163 46.2927 24.542 45.3364C25.0047 44.2876 25.1528 42.918 24.1348 42.4244ZM16.8855 45.5339C17.8171 46.4655 19.0326 45.3735 19.304 45.0403C19.7421 44.485 19.7482 43.5781 19.304 43.0907C18.7241 42.4491 17.7925 42.7144 17.2064 43.1771C16.6202 43.646 16.1575 44.8059 16.8855 45.5339ZM17.3483 39.4507C16.5709 39.5864 15.6578 40.1787 15.8614 41.1658C16.065 42.1529 16.9102 42.4491 17.9282 42.2455C18.9462 42.0419 19.5014 41.1103 19.3842 40.3823C19.2732 39.6543 18.1626 39.3088 17.3483 39.4507ZM16.1267 35.4096C16.0773 36.5448 17.12 37.0569 18.6871 37.1864C20.8094 37.3592 21.6916 36.5386 21.7163 35.2368C21.741 34.0399 20.6366 33.46 18.9215 33.4908C17.2064 33.5217 16.1884 34.0708 16.1267 35.4096ZM17.2002 28.4811C16.6573 29.3264 17.231 30.7824 18.4588 30.9243C19.6927 31.0662 20.5935 29.9433 20.1863 28.7403C19.7791 27.531 17.9837 27.2657 17.2002 28.4811ZM19.5323 23.4714C18.7488 24.7547 19.6495 25.9454 21.2783 26.7043C22.6973 27.3645 23.7831 27.2287 24.3322 26.3835C24.8875 25.5383 24.4494 24.2303 23.1662 23.4159C21.6916 22.472 20.285 22.2499 19.5323 23.4714ZM26.1399 19.3378C25.4057 19.745 24.7394 20.9111 25.9672 22.5954C26.8124 23.7614 28.1203 23.965 28.7928 23.5825C29.3728 23.2555 29.6936 21.7193 28.9409 20.5532C28.2993 19.5846 27.1332 18.7887 26.1399 19.3378ZM31.2915 15.4078C30.2982 15.5435 29.8663 16.9502 30.2118 17.9682C30.5327 18.8998 31.2298 19.5414 32.2231 19.3378C33.2102 19.1342 33.3028 17.7399 33.2103 17.2155C33.1239 16.6911 32.5995 15.2351 31.2915 15.4078Z" fill="#303030"/>
</svg>
