<svg width="70" height="74" viewBox="0 0 70 74" fill="none" xmlns="http://www.w3.org/2000/svg">
<path d="M1.36719 1.67432H68.6328V47.7923H1.36719V1.67432Z" fill="#26A69A"/>
<path d="M67.2656 3.0415V46.4251H2.73438V3.0415H67.2656ZM70 0.307129H0V49.1595H70V0.307129Z" fill="#5D4037"/>
<path d="M4.375 64.8548V70.3072H52.0297V64.8548C52.0297 56.5587 40.332 52.3478 28.3828 52.3642C16.5102 52.3751 4.375 56.0665 4.375 64.8548Z" fill="#546E7A"/>
<path d="M24.4944 57.8438H31.9592L28.142 73.8891L24.4944 57.8438Z" fill="#455A64"/>
<path d="M28.1749 49.6243H23.2092V54.8688C23.2092 57.2423 25.2327 59.1673 27.7264 59.1673H28.6288C31.1225 59.1673 33.1459 57.2423 33.1459 54.8688V49.6243H28.1749ZM45.8061 28.8212C45.8061 28.8212 49.0272 29.379 49.0272 32.8516C49.0272 35.9141 46.6756 37.1227 44.3241 37.1227V28.8212H45.8061ZM10.653 28.8212C10.653 28.8212 7.43188 29.379 7.43188 32.8516C7.43188 35.9141 9.78345 37.1227 12.135 37.1227V28.8212H10.653Z" fill="#DBA689"/>
<path d="M28.2296 6.08752C14.339 6.08752 10.7078 16.8555 10.7078 31.9821C10.7078 47.6664 20.7867 51.7242 28.2296 51.7242C35.5632 51.7242 45.7515 47.7867 45.7515 31.9821C45.7515 16.8555 42.1148 6.08752 28.2296 6.08752Z" fill="#FADCBC"/>
<path d="M22.4545 33.3876C22.4545 34.9517 21.41 36.215 20.1139 36.215C18.8233 36.215 17.7678 34.9462 17.7678 33.3876C17.7678 31.8236 18.8178 30.5548 20.1139 30.5548C21.41 30.5548 22.4545 31.8181 22.4545 33.3876ZM33.9936 33.3876C33.9936 34.9517 35.0381 36.215 36.3397 36.215C37.6303 36.215 38.6803 34.9462 38.6803 33.3876C38.6803 31.8236 37.6303 30.5548 36.3397 30.5548C35.0436 30.5548 33.9936 31.8181 33.9936 33.3876Z" fill="#444444"/>
<path d="M33.2991 42.9414H23.16C22.5803 42.9414 22.3287 43.3297 22.7116 43.9203C23.2475 44.7406 25.2491 46.3156 28.2295 46.3156C31.21 46.3156 33.2116 44.7406 33.7475 43.9203C34.1303 43.3297 33.8787 42.9414 33.2991 42.9414Z" fill="#262626"/>
<path d="M30.6796 38.6321C29.8155 38.8782 28.9186 38.993 28.2296 38.993C27.5405 38.993 26.6436 38.8727 25.7796 38.6321C25.4132 38.5282 25.2655 38.8782 25.3967 39.1079C25.6702 39.5891 26.7749 40.5625 28.2296 40.5625C29.6842 40.5625 30.7889 39.5891 31.0624 39.1079C31.1936 38.8727 31.046 38.5227 30.6796 38.6321Z" fill="#DBA689"/>
<path d="M28.6452 4.11345C28.6452 4.11345 28.3717 4.10251 28.2569 4.10798C28.142 4.10798 27.8686 4.11345 27.8686 4.11345C12.8788 4.40329 8.36157 13.4213 8.36157 19.672C8.36157 25.7478 8.36704 30.2158 8.36704 30.2158C8.36704 30.2158 8.60767 29.9697 9.04517 29.6252C9.51548 29.2588 10.035 29.0564 10.035 29.0564L10.7897 34.1314L15.7827 23.697C15.8155 23.6314 15.8811 23.5931 15.9522 23.6041L18.9108 23.9322C21.8858 24.2603 24.8772 24.4244 27.8631 24.4299V24.4353C27.9944 24.4353 28.1202 24.4299 28.2514 24.4299C28.3827 24.4299 28.5084 24.4353 28.6397 24.4353V24.4244C31.6256 24.4134 34.617 24.2549 37.592 23.9267L40.5506 23.5986C40.6217 23.5931 40.6874 23.6314 40.7202 23.6916L45.7131 34.1259L46.4678 29.0509C46.4678 29.0509 46.9874 29.2588 47.4577 29.6197C47.9006 29.9642 48.1358 30.2103 48.1358 30.2103C48.1358 30.2103 48.1413 25.7478 48.1413 19.6666C48.1522 13.4213 43.635 4.40329 28.6452 4.11345Z" fill="#312D2D"/>
<path d="M22.46 33.4805C22.46 35.0336 21.4209 36.2969 20.1303 36.2969C18.8452 36.2969 17.7952 35.0391 17.7952 33.4805C17.7952 31.9219 18.8397 30.6641 20.1303 30.6641C21.4209 30.6641 22.46 31.9219 22.46 33.4805ZM33.9444 33.4805C33.9444 35.0336 34.9834 36.2969 36.2795 36.2969C37.5647 36.2969 38.6092 35.0391 38.6092 33.4805C38.6092 31.9219 37.5647 30.6641 36.2795 30.6641C34.9834 30.6641 33.9444 31.9219 33.9444 33.4805Z" fill="#262626"/>
<path d="M17.199 62.9188L21.4701 59.5391L16.3787 57.5156L23.149 52.1617L28.1419 73.8891L17.199 62.9188ZM34.9013 59.4735L39.2599 62.9188L28.1419 73.8891L33.3099 52.1617L40.0802 57.5156L34.9013 59.4735Z" fill="#E0E0E0"/>
<path d="M22.1813 28.2906H15.7008C15.5148 28.2906 15.3289 28.3071 15.1484 28.3289C15.575 28.4 15.9414 28.6297 16.182 28.9469H22.1758C24.0625 28.9469 25.5992 30.3688 25.5992 32.1188V35.2305C25.5992 36.9805 24.0625 38.4024 22.1758 38.4024H15.7008C13.8141 38.4024 12.2773 36.9805 12.2773 35.2305V32.5563H11.7961C11.7195 32.5563 11.643 32.5453 11.5664 32.5344V35.2305C11.5664 37.3414 13.4203 39.0586 15.6953 39.0586H22.1758C24.4508 39.0586 26.3047 37.3414 26.3047 35.2305V32.1188C26.3102 30.0078 24.4563 28.2906 22.1813 28.2906Z" fill="#231F20" stroke="#231F20" stroke-width="0.481" stroke-miterlimit="10"/>
<path d="M15.1484 21.4996C15.05 21.4832 14.9515 21.4723 14.8531 21.4723H11.796C10.8992 21.4723 10.1609 22.1504 10.1609 22.9871V24.2176C10.1609 24.9778 10.7734 25.6067 11.5664 25.7106V25.2949C11.5664 23.3535 13.1304 21.7512 15.1484 21.4996Z" fill="black"/>
<path d="M12.2772 32.5564V32.1189C12.2772 30.3689 13.814 28.9471 15.7007 28.9471H16.1874C15.9468 28.6299 15.5804 28.4002 15.1538 28.3291C13.1358 28.5807 11.5718 30.183 11.5718 32.1189V32.5346C11.6483 32.5455 11.7194 32.5564 11.8015 32.5564H12.2772Z" fill="black" stroke="black" stroke-width="0.481" stroke-miterlimit="10"/>
<path d="M34.0156 28.2906H40.4961C40.682 28.2906 40.868 28.3071 41.0484 28.3289C40.6219 28.4 40.2555 28.6297 40.0148 28.9469H34.0156C32.1289 28.9469 30.5922 30.3688 30.5922 32.1188V35.2305C30.5922 36.9805 32.1289 38.4024 34.0156 38.4024H40.4961C42.3828 38.4024 43.9195 36.9805 43.9195 35.2305V32.5563H44.4008C44.4773 32.5563 44.5539 32.5453 44.6305 32.5344V35.2305C44.6305 37.3414 42.7766 39.0586 40.5016 39.0586H34.0156C31.7406 39.0586 29.8867 37.3414 29.8867 35.2305V32.1188C29.8867 30.0078 31.7352 28.2906 34.0156 28.2906Z" fill="#231F20" stroke="#231F20" stroke-width="0.481" stroke-miterlimit="10"/>
<path d="M41.0483 28.329C41.1468 28.3126 41.2452 28.3016 41.3437 28.3016H44.4007C45.2976 28.3016 46.0358 28.9798 46.0358 29.8165V31.0469C46.0358 31.8071 45.4233 32.436 44.6304 32.5399V32.1243C44.6249 30.1829 43.0663 28.5805 41.0483 28.329Z" fill="black"/>
<path d="M43.9194 32.5564V32.1189C43.9194 30.3689 42.3827 28.9471 40.496 28.9471H40.0093C40.2499 28.6299 40.6163 28.4002 41.0429 28.3291C43.0608 28.5807 44.6249 30.183 44.6249 32.1189V32.5346C44.5483 32.5455 44.4772 32.5564 44.3952 32.5564H43.9194Z" fill="black" stroke="black" stroke-width="0.481" stroke-miterlimit="10"/>
<path d="M30.2804 32.5564H25.8179L25.2163 29.6853H30.9366L30.2804 32.5564Z" fill="#231F20"/>
<path d="M57.8866 56.9973L56.1038 56.6528L63.9514 19.5582H64.635L57.8866 56.9973Z" fill="#F15A29"/>
<path d="M55.6007 59.2056C56.421 59.4079 56.946 59.9876 57.3124 60.7095C58.2257 60.5454 59.8007 60.3814 60.2601 60.3923C60.8015 60.4087 61.5179 60.4689 61.6382 61.579C61.7148 62.3009 61.4413 62.897 60.5171 62.9845C60.1726 63.0173 59.8171 63.0392 59.4671 63.0556L59.5929 63.4603C59.9155 63.4548 60.2054 63.4439 60.4296 63.4439C61.3648 63.4329 61.8952 63.9306 61.8952 64.9204C61.8952 65.79 61.146 66.2001 60.5991 66.2329C60.3093 66.2493 59.4999 66.2056 58.7015 66.129L58.6194 66.2986L58.5866 66.3478C59.0898 66.4243 59.571 66.5064 59.9101 66.5665C60.8234 66.7306 61.2609 67.3376 61.1569 68.0595C61.0312 68.9345 60.2491 69.1751 59.7077 69.1587C59.303 69.1478 57.8812 68.9236 56.9296 68.7212L56.7437 68.9892C56.8093 69.0001 56.8804 69.0111 56.9569 69.022C56.9679 69.022 56.9788 69.0275 56.9952 69.0275L57.1866 69.0603C57.203 69.0603 57.214 69.0658 57.2304 69.0658C57.3069 69.0767 57.3835 69.0931 57.4601 69.104H57.471C57.553 69.115 57.6351 69.1314 57.7171 69.1478C57.7335 69.1478 57.7499 69.1532 57.7609 69.1532L57.9523 69.1861C57.9796 69.1915 58.0015 69.197 58.0288 69.197C58.0835 69.2079 58.1382 69.2189 58.1874 69.2243L58.2694 69.2408C58.3241 69.2517 58.3734 69.2626 58.4226 69.2681L58.4991 69.2845C58.5702 69.3009 58.6468 69.3118 58.7124 69.3282C59.5491 69.5032 59.8663 69.8806 59.7624 70.5423C59.6202 71.472 58.6851 71.6798 58.1874 71.6306C57.6898 71.5868 56.0163 71.2423 55.4694 71.0017L55.371 70.9525L55.1796 71.2259C52.7187 71.0618 50.9523 70.0337 50.9523 70.0337C49.5085 69.2243 49.2679 68.6009 49.0273 67.6111C48.7538 66.4845 48.8194 65.1501 48.8304 64.9423C48.9179 62.7001 49.4155 61.2509 51.2257 60.0478C51.6632 59.7579 52.303 59.2493 53.7194 59.0853C54.2718 59.0306 55.0538 59.0743 55.6007 59.2056Z" fill="#FADCBC"/>
<path d="M57.6512 62.9297C57.6512 62.9297 57.6731 61.8031 57.3177 60.7094L57.7114 60.6383C57.7114 60.6383 57.9903 61.4149 58.0887 62.5633C58.1052 62.7492 58.1106 62.9188 58.1106 63.0828L58.4606 63.061L60.8067 62.9297C60.8067 62.9297 60.6317 62.9625 60.6317 63.225C60.6317 63.3344 60.6973 63.4055 60.7466 63.4492C60.6481 63.4383 60.5387 63.4274 60.4294 63.4328L58.0997 63.493C58.0942 63.5586 58.0942 63.6242 58.0887 63.6953C58.0341 64.6469 57.8098 65.5602 57.2794 65.9102C59.0403 66.118 60.6044 66.2219 60.6044 66.2219C60.2981 66.3477 60.4294 66.7196 60.4294 66.7196C59.2427 66.3969 56.3661 66.2274 56.3661 66.2274C55.152 66.1235 54.988 66.9438 54.988 66.9438C54.7637 67.9336 55.8411 68.3875 55.8411 68.3875C55.9833 68.4696 57.2684 68.7266 58.1872 68.9016L59.1059 69.0711L59.363 69.1203C59.3356 69.1149 59.2262 69.1094 59.1825 69.2899C59.1606 69.3774 59.1825 69.4375 59.1989 69.4758C59.0622 69.4157 58.8981 69.361 58.7067 69.3227C58.2747 69.2352 56.9677 69.0219 56.8692 69.0055L56.5411 68.9617C55.4583 68.8196 55.1958 69.011 55.1958 69.011C54.5942 69.3281 54.7692 70.0938 54.7692 70.0938C54.9005 70.8321 55.7153 71.0617 55.7153 71.0617C56.027 71.1547 57.6786 71.5539 57.6786 71.5539L55.1794 71.2258C55.0044 71.1711 54.9387 71.0891 54.8403 71.0125C53.9598 70.2906 54.3317 69.3117 54.3317 69.3117C54.4684 68.9344 54.7528 68.7649 54.7528 68.7649C54.9223 68.661 55.1192 68.6063 55.3216 68.5844C54.2989 68.043 54.463 66.9492 54.463 66.9492C54.5942 66.2766 55.0809 65.9922 55.4637 65.8719C55.4309 65.8446 55.3927 65.8172 55.3598 65.7844C55.3598 65.7844 54.7036 65.3524 54.9442 63.4985C55.0262 62.875 55.0153 62.7875 54.9497 62.3938C54.9497 62.3938 54.7145 61.5516 54.0145 61.8196C54.0145 61.8196 53.7794 61.8797 53.413 62.1696C53.413 62.1696 53.1177 62.3992 53.1231 62.0383C53.1231 61.9289 53.1997 61.7321 53.3473 61.5625C53.3473 61.5625 53.5005 61.3821 53.8778 61.2781C53.8778 61.2781 54.8567 60.8899 55.3434 61.8688C55.6005 62.3828 55.5512 62.7219 55.4692 63.2469C55.4692 63.2469 55.3161 64.9039 55.7481 65.4344C55.7481 65.4344 56.1747 65.9211 56.8583 65.6203C56.8637 65.6313 57.7934 65.1227 57.6512 62.9297Z" fill="#DBA689"/>
</svg>
