<svg width="24" height="27" viewBox="0 0 24 27" fill="none" xmlns="http://www.w3.org/2000/svg">
<path d="M11.6914 2.97256C11.6914 2.97256 12.0917 2.04944 12.9996 1.46319C13.4414 1.17881 14.2136 0.739124 14.3536 0.986312C14.4149 1.0935 14.2158 1.37131 14.0146 1.80225C13.9336 1.97944 13.7521 2.55694 13.7521 2.55694C13.7521 2.55694 14.5527 1.50912 15.9549 1.2335C17.0574 1.01475 18.2496 1.15694 18.3874 1.40194C18.5361 1.66662 17.7552 2.2485 17.5102 2.756C17.2652 3.2635 17.0792 3.911 17.0792 3.911C17.0792 3.911 18.5558 3.21319 18.9277 3.06444C19.3892 2.88069 20.3911 2.49569 20.5289 2.66412C20.6667 2.83256 20.0871 3.81037 19.9602 3.98756C19.8071 4.20412 19.5752 4.60444 19.5752 4.60444C19.5752 4.60444 20.2839 4.28069 20.5596 4.11225C20.8374 3.94381 21.4521 3.46475 21.5921 3.55881C21.7299 3.65069 21.7299 4.58694 21.638 4.99162C21.5155 5.52975 20.9446 6.116 20.9446 6.116C20.9446 6.116 21.7605 6.29975 22.2067 6.87069C22.653 7.44162 22.9133 7.88569 23.0992 8.45662C23.3771 9.30319 23.4996 10.4582 23.4383 10.6747C23.3771 10.8913 23.038 10.5982 22.4058 10.5522C22.0317 10.5238 21.9442 10.5216 21.9442 10.5216C21.9442 10.5216 22.3008 10.946 22.4671 11.3376C22.6836 11.8451 22.9199 12.6457 23.0511 12.9847C23.1889 13.3391 23.2983 13.6169 23.4974 14.0172C23.5564 14.1354 23.0817 14.2491 22.6049 13.8007C22.4452 13.6519 22.2505 13.5076 22.2505 13.5076C22.2505 13.5076 22.5327 15.1854 22.513 16.3097C22.4977 17.141 22.3117 18.6504 22.0667 18.7882C21.8196 18.926 21.3274 17.8651 21.3274 17.8651C21.3274 17.8651 21.113 19.0726 20.8658 19.8819C20.5727 20.8357 20.2949 21.2819 20.1264 21.8529C19.9252 22.531 19.7261 23.0232 19.5883 22.8066C19.468 22.6207 19.3411 22.3297 19.2186 22.1132C19.1246 21.9491 18.9102 21.5116 18.9102 21.5116C18.9102 21.5116 18.6936 22.8197 17.648 23.6991C16.6024 24.5785 15.9242 25.2851 15.4299 25.3463C15.1389 25.3835 15.4758 24.0688 15.4758 24.0688C15.4758 24.0688 13.8439 25.3507 13.0586 25.9326C12.7042 26.1951 12.3805 27.0569 12.1355 26.9957C11.8883 26.9344 11.2583 25.9785 10.858 25.6876C10.4577 25.3966 9.70299 25.0554 9.59581 24.9941C9.48862 24.9329 8.97893 24.6091 8.97893 24.6091C8.97893 24.6091 9.10581 25.3244 8.96362 25.3944C8.65518 25.5476 7.46956 24.701 7.13049 24.1782C6.79143 23.6554 6.19206 22.5769 6.19206 22.5769C6.19206 22.5769 6.11549 23.6094 5.86831 23.4388C5.60581 23.2594 4.32831 22.3144 3.88206 21.6057C3.56706 21.1047 3.02018 19.696 3.02018 19.696C3.02018 19.696 2.54331 20.1882 2.40331 20.2494C2.26331 20.3107 1.91112 20.4507 1.97237 19.9104C2.03362 19.3722 1.61143 18.1516 1.54143 17.4166C1.44956 16.4629 1.63331 15.4763 1.63331 15.4763C1.63331 15.4763 0.847994 16.5241 0.478307 16.5088C0.108619 16.4935 0.325182 14.4766 0.417057 13.8597C0.508932 13.2429 0.817369 12.1666 0.939869 11.7816C1.06237 11.3966 1.52393 10.8279 1.52393 10.8279C1.52393 10.8279 0.384244 11.2129 0.215807 11.0597C0.0473694 10.9066 0.307682 9.53506 0.462994 8.70381C0.541744 8.27725 0.878619 7.61006 1.30956 7.11787C1.74049 6.62569 2.40331 6.71756 2.46456 6.501C2.52581 6.28444 2.21956 6.11381 2.00299 5.76162C1.67924 5.23881 1.49549 4.16037 1.66393 3.97444C1.76893 3.86069 2.35737 4.3135 3.06612 4.39006C3.77487 4.46662 4.40487 4.42069 4.40487 4.42069C4.40487 4.42069 3.99581 3.93944 3.82081 3.5435C3.57362 2.99006 3.55831 2.32725 3.71362 2.15662C3.86893 1.986 4.40706 2.511 5.13112 2.69475C5.85518 2.8785 6.93362 2.896 6.93362 2.896C6.93362 2.896 6.47206 2.40381 6.34956 1.83287C6.22706 1.26412 6.25768 0.909749 6.45674 0.848499C6.65799 0.787249 7.24424 1.33631 7.65768 1.46537C8.10393 1.60319 9.61331 1.51131 10.2914 1.71256C10.9696 1.91381 11.6914 2.97256 11.6914 2.97256Z" fill="#865C50"/>
<path d="M16.5565 7.77839C16.5565 7.77839 19.2056 5.25401 20.7456 7.13089C22.5721 9.35995 17.7268 11.8121 17.7268 11.8121L16.5565 7.77839ZM7.31869 8.4237C7.31869 8.4237 4.84901 5.1862 3.03338 6.94058C1.21776 8.69495 4.97807 11.379 4.97807 11.379L7.31869 8.4237Z" fill="#FEC000"/>
<path d="M18.8358 9.93316C18.8358 9.93316 20.7761 8.5791 19.9755 7.71504C19.1202 6.7941 17.543 8.39316 17.543 8.39316L18.8358 9.93316ZM6.18985 8.50254C6.18985 8.50254 4.58203 6.91004 3.75078 7.89441C3.00266 8.78035 5.13766 10.4822 5.13766 10.4822L6.18985 8.50254Z" fill="#FF8E06"/>
<path d="M12.1528 19.5711C12.1528 19.5711 13.7234 19.1402 14.7078 18.648C15.6921 18.1558 19.3584 16.093 19.634 13.5664C19.9118 11.042 19.634 10.3639 18.4637 8.82391C17.2934 7.28391 15.2415 6.92954 14.1828 7.16142C12.9206 7.43923 12.704 8.36016 12.1506 8.39298C11.6278 8.4236 11.7809 7.83954 10.2715 7.28391C8.33996 6.57298 3.05277 8.4761 3.98902 13.5664C4.48121 16.2461 8.3859 18.532 8.88465 18.8011C10.09 19.4486 12.1528 19.5711 12.1528 19.5711Z" fill="#FEC000"/>
<path d="M16.1463 11.1633C16.3353 10.6884 16.1108 10.1532 15.645 9.96783C15.1792 9.78242 14.6483 10.017 14.4594 10.4918C14.2704 10.9667 14.4948 11.5019 14.9606 11.6873C15.4265 11.8727 15.9573 11.6381 16.1463 11.1633Z" fill="#2E2F2F"/>
<path d="M9.02944 11.5917C9.50731 11.3974 9.7342 10.8452 9.53623 10.3584C9.33826 9.87157 8.79038 9.63446 8.31252 9.82879C7.83465 10.0231 7.60775 10.5753 7.80573 11.0621C8.0037 11.5489 8.55158 11.7861 9.02944 11.5917Z" fill="#2E2F2F"/>
<path d="M12.1115 12.4684C10.2434 12.4115 8.60059 14.5225 8.60059 18.0312C8.60059 21.4393 10.4075 22.24 11.8643 22.24C13.7128 22.24 15.4562 21.0281 15.2528 17.7228C15.0625 14.6647 14.1021 12.5297 12.1115 12.4684Z" fill="#FFD899"/>
<path d="M9.93488 14.3977C9.75113 14.5814 10.0989 15.5877 10.4074 16.1018C10.7158 16.6158 11.5974 17.4558 12.0918 17.4361C12.5839 17.4164 13.5093 16.3883 13.7958 15.6293C14.0824 14.8702 14.1655 14.3977 14.043 14.2118C13.9205 14.0258 12.4614 14.2533 11.908 14.2533C11.3546 14.2533 10.1208 14.2139 9.93488 14.3977Z" fill="#2E2F2F"/>
<path d="M12.05 16.7295C12.05 16.7295 11.2559 17.5936 10.9103 17.7248C10.4268 17.9086 9.67871 17.7511 9.65683 18.0486C9.63714 18.357 10.1184 18.6807 10.8884 18.5779C11.7393 18.4642 12.0587 17.9414 12.0587 17.9414C12.0587 17.9414 12.5421 18.6282 13.4762 18.6698C14.4103 18.7114 14.6268 18.1164 14.3687 18.0332C14.0187 17.9217 13.8 17.9436 13.2706 17.7773C12.8506 17.6417 12.05 16.7295 12.05 16.7295Z" fill="#2E2F2F"/>
</svg>
