<svg width="89" height="70" viewBox="0 0 89 70" fill="none" xmlns="http://www.w3.org/2000/svg">
<path d="M6.29419 41.6381H81.8244V60.5206H6.29419V41.6381Z" fill="black"/>
<path d="M62.281 10.1986C64.6098 10.1986 66.7498 11.5204 67.7884 13.5975L69.2108 16.4424L72.1691 25.8932L78.6647 35.3439H81.9566C85.3554 35.3439 88.1217 38.1102 88.1217 41.5027L86.9069 46.2863L88.1217 51.0667V54.3586C88.1217 57.7575 85.3523 60.5206 81.9534 60.5206H80.1564C80.3783 58.7493 80.2208 56.951 79.6945 55.2451C79.1682 53.5393 78.2851 51.9649 77.1038 50.6265C75.9225 49.288 74.47 48.2161 72.8428 47.4819C71.2156 46.7477 69.4508 46.368 67.6656 46.368C65.8804 46.368 64.1157 46.7477 62.4884 47.4819C60.8612 48.2161 59.4088 49.288 58.2275 50.6265C57.0462 51.9649 56.1631 53.5393 55.6368 55.2451C55.1105 56.951 54.953 58.7493 55.1748 60.5206H32.9501C33.1719 58.7493 33.0144 56.951 32.4881 55.2451C31.9618 53.5393 31.0787 51.9649 29.8974 50.6265C28.7161 49.288 27.2637 48.2161 25.6364 47.4819C24.0092 46.7477 22.2444 46.368 20.4592 46.368C18.6741 46.368 16.9093 46.7477 15.2821 47.4819C13.6548 48.2161 12.2024 49.288 11.0211 50.6265C9.83979 51.9649 8.95669 53.5393 8.43039 55.2451C7.90408 56.951 7.74661 58.7493 7.96844 60.5206H6.1683C2.76944 60.5206 0 57.7543 0 54.3586V51.0919L4.15416 46.3776L0 41.6632C0 38.0441 2.76944 35.3753 6.1683 35.3753L15.7355 35.3722L22.6496 26.2079L25.1925 16.4613L26.6244 13.5975C27.1375 12.5764 27.9241 11.7179 28.8965 11.1177C29.869 10.5176 30.9891 10.1994 32.1318 10.1986H62.281Z" fill="#636363"/>
<path d="M31.4708 58.9471C31.4708 61.8684 30.3103 64.6701 28.2446 66.7357C26.179 68.8014 23.3773 69.9619 20.456 69.9619C17.5347 69.9619 14.733 68.8014 12.6673 66.7357C10.6016 64.6701 9.44116 61.8684 9.44116 58.9471C9.44116 56.0258 10.6016 53.2241 12.6673 51.1584C14.733 49.0927 17.5347 47.9323 20.456 47.9323C23.3773 47.9323 26.179 49.0927 28.2446 51.1584C30.3103 53.2241 31.4708 56.0258 31.4708 58.9471ZM78.6772 58.9471C78.6772 61.8684 77.5167 64.6701 75.451 66.7357C73.3853 68.8014 70.5837 69.9619 67.6624 69.9619C64.741 69.9619 61.9394 68.8014 59.8737 66.7357C57.808 64.6701 56.6475 61.8684 56.6475 58.9471C56.6475 56.0258 57.808 53.2241 59.8737 51.1584C61.9394 49.0927 64.741 47.9323 67.6624 47.9323C70.5837 47.9323 73.3853 49.0927 75.451 51.1584C77.5167 53.2241 78.6772 56.0258 78.6772 58.9471Z" fill="#321B41"/>
<path d="M44.0592 7.02002H50.3534V10.1671H44.0592V7.02002ZM18.8824 46.4531V35.3438H69.2359V46.4531C67.3312 46.2123 65.3966 46.4105 63.5802 47.0323C61.7638 47.6541 60.1137 48.6832 58.7561 50.0408C57.3985 51.3983 56.3695 53.0485 55.7476 54.8649C55.1258 56.6813 54.9277 58.6158 55.1684 60.5206H32.9499C33.1907 58.6158 32.9926 56.6813 32.3707 54.8649C31.7489 53.0485 30.7198 51.3983 29.3623 50.0408C28.0047 48.6832 26.3546 47.6541 24.5382 47.0323C22.7218 46.4105 20.7872 46.2123 18.8824 46.4531ZM25.1766 58.947C25.1766 60.199 24.6793 61.3997 23.794 62.285C22.9087 63.1703 21.708 63.6677 20.456 63.6677C19.204 63.6677 18.0033 63.1703 17.118 62.285C16.2327 61.3997 15.7354 60.199 15.7354 58.947C15.7354 57.695 16.2327 56.4943 17.118 55.609C18.0033 54.7238 19.204 54.2264 20.456 54.2264C21.708 54.2264 22.9087 54.7238 23.794 55.609C24.6793 56.4943 25.1766 57.695 25.1766 58.947ZM72.383 58.947C72.383 59.567 72.2609 60.1808 72.0237 60.7535C71.7864 61.3263 71.4387 61.8467 71.0004 62.285C70.562 62.7234 70.0416 63.0711 69.4689 63.3083C68.8961 63.5456 68.2823 63.6677 67.6624 63.6677C67.0424 63.6677 66.4286 63.5456 65.8559 63.3083C65.2831 63.0711 64.7627 62.7234 64.3244 62.285C63.886 61.8467 63.5383 61.3263 63.3011 60.7535C63.0638 60.1808 62.9417 59.567 62.9417 58.947C62.9417 57.695 63.4391 56.4943 64.3244 55.609C65.2097 54.7238 66.4104 54.2264 67.6624 54.2264C68.9144 54.2264 70.1151 54.7238 71.0004 55.609C71.8857 56.4943 72.383 57.695 72.383 58.947Z" fill="#D3D3D3"/>
<path d="M6.29418 44.7852C6.29418 43.0543 4.87799 41.6381 3.14709 41.6381H0V51.0793H3.14709C4.87799 51.0793 6.29418 49.6631 6.29418 47.9322V44.7852Z" fill="#FFF478"/>
<path fill-rule="evenodd" clip-rule="evenodd" d="M44.0593 3.87292C44.0593 2.14202 45.4755 0.72583 47.2064 0.72583C48.9373 0.72583 50.3535 2.14202 50.3535 3.87292V7.02001H44.0593V3.87292ZM81.8244 46.579C81.6985 43.8725 83.87 41.638 86.5451 41.638H88.1186V51.0793H86.7024C84.1533 51.0793 81.9503 49.1281 81.8244 46.579Z" fill="#F92F60"/>
<path d="M40.975 35.3439H15.7354L25.1766 16.4613H40.975C42.6745 16.4613 44.0592 17.846 44.0592 19.5455V32.2597C44.0592 33.9591 42.6745 35.3439 40.975 35.3439ZM53.4375 35.3439H78.6772L69.2359 16.4613H53.4375C51.7381 16.4613 50.3534 17.846 50.3534 19.5455V32.2597C50.3534 33.9591 51.7381 35.3439 53.4375 35.3439Z" fill="#26C9FC"/>
<path d="M28.733 38.491H29.9603C30.8101 38.491 31.4709 37.7986 31.4709 36.9804V30.5603C31.4709 30.3619 31.4319 30.1655 31.356 29.9822C31.28 29.7989 31.1688 29.6324 31.0285 29.4921C30.8882 29.3519 30.7217 29.2406 30.5384 29.1647C30.3551 29.0888 30.1587 29.0497 29.9603 29.0497H28.733C26.7818 29.0497 25.1768 30.6547 25.1768 32.6059V34.9347C25.1768 36.9174 26.7818 38.491 28.733 38.491Z" fill="#D3D3D3"/>
<path d="M28.733 38.491H29.9603C30.8101 38.491 31.4709 37.7986 31.4709 36.9804V30.5603C31.4709 30.3619 31.4319 30.1655 31.356 29.9822C31.28 29.7989 31.1688 29.6324 31.0285 29.4921C30.8882 29.3519 30.7217 29.2406 30.5384 29.1647C30.3551 29.0888 30.1587 29.0497 29.9603 29.0497H28.733C26.7818 29.0497 25.1768 30.6547 25.1768 32.6059V34.9347C25.1768 36.9174 26.7818 38.491 28.733 38.491Z" fill="#9B9B9B"/>
</svg>
