<svg width="72" height="72" viewBox="0 0 72 72" fill="none" xmlns="http://www.w3.org/2000/svg">
<path d="M61.0693 48.0215C60.8815 48.2104 60.6582 48.3603 60.4122 48.4626C60.1662 48.5649 59.9025 48.6176 59.6361 48.6176C59.3697 48.6176 59.106 48.5649 58.86 48.4626C58.614 48.3603 58.3907 48.2104 58.2029 48.0215L55.3365 45.1551C55.1476 44.9673 54.9977 44.744 54.8955 44.4981C54.7932 44.2521 54.7405 43.9883 54.7405 43.722C54.7405 43.4556 54.7932 43.1918 54.8955 42.9459C54.9977 42.6999 55.1476 42.4766 55.3365 42.2888L61.0693 36.556C61.2574 36.3676 61.4808 36.2182 61.7267 36.1162C61.9726 36.0142 62.2362 35.9617 62.5025 35.9617C62.7687 35.9617 63.0323 36.0142 63.2782 36.1162C63.5242 36.2182 63.7476 36.3676 63.9356 36.556L66.802 39.4224C66.9909 39.6102 67.1408 39.8335 67.2431 40.0795C67.3454 40.3255 67.3981 40.5892 67.3981 40.8556C67.3981 41.122 67.3454 41.3857 67.2431 41.6317C67.1408 41.8777 66.9909 42.101 66.802 42.2888L61.0693 48.0215ZM30.6623 17.6145C30.4745 17.8034 30.2511 17.9533 30.0052 18.0556C29.7592 18.1579 29.4955 18.2106 29.2291 18.2106C28.9627 18.2106 28.699 18.1579 28.453 18.0556C28.207 17.9533 27.9837 17.8034 27.7959 17.6145L24.9295 14.7481C24.7406 14.5603 24.5907 14.337 24.4884 14.0911C24.3862 13.8451 24.3335 13.5813 24.3335 13.315C24.3335 13.0486 24.3862 12.7848 24.4884 12.5389C24.5907 12.2929 24.7406 12.0696 24.9295 11.8818L30.6623 6.14905C30.8504 5.96063 31.0738 5.81116 31.3197 5.70917C31.5656 5.60718 31.8292 5.55469 32.0955 5.55469C32.3617 5.55469 32.6253 5.60718 32.8712 5.70917C33.1172 5.81116 33.3406 5.96063 33.5286 6.14905L36.395 9.01541C36.5839 9.20323 36.7338 9.42654 36.8361 9.6725C36.9384 9.91846 36.9911 10.1822 36.9911 10.4486C36.9911 10.715 36.9384 10.9787 36.8361 11.2247C36.7338 11.4706 36.5839 11.694 36.395 11.8818L30.6623 17.6145Z" fill="#66757F"/>
<path d="M4.30984 44.3163C8.3641 44.3163 26.6083 46.3434 26.6083 46.3434C26.6083 46.3434 28.6354 64.5876 28.6354 68.6419C28.6354 72.6962 24.5812 72.6962 22.554 70.669C20.5269 68.6419 14.4455 58.5062 14.4455 58.5062C14.4455 58.5062 4.30984 52.4248 2.2827 50.3977C0.25557 48.3706 0.25557 44.3163 4.30984 44.3163ZM8.3641 11.9612C14.4455 11.8822 59.0424 13.9093 59.0424 13.9093C59.0424 13.9093 60.9155 58.5062 60.9925 64.5876C61.0696 70.669 55.3916 72.7002 53.1637 64.5897C50.9359 56.4791 42.8254 30.1264 42.8254 30.1264C42.8254 30.1264 14.5367 21.1725 8.35397 19.7839C0.25557 17.9636 2.28068 12.0383 8.3641 11.9612Z" fill="#55ACEE"/>
<path d="M54.9877 5.80069C59.042 1.74643 69.1777 -0.280707 71.2048 1.74643C73.2319 3.77356 71.2048 13.9092 67.1505 17.9635C63.0962 22.0178 28.635 54.4519 28.635 54.4519C28.635 54.4519 15.4586 63.574 12.4179 60.5333C9.37721 57.4926 18.4993 44.3162 18.4993 44.3162C18.4993 44.3162 50.9334 9.85496 54.9877 5.80069Z" fill="#CCD6DD"/>
<path d="M28.6351 44.3158C28.6351 44.3158 29.6487 45.3294 20.5266 54.4515C11.4045 63.5736 10.3909 62.56 10.3909 62.56C10.3909 62.56 9.37736 61.5465 18.4995 52.4244C27.6216 43.3023 28.6351 44.3158 28.6351 44.3158ZM59.0421 7.82743C60.655 7.82743 62.2018 8.46814 63.3423 9.60863C64.4828 10.7491 65.1235 12.2959 65.1235 13.9088H66.7554C66.9865 13.2703 67.1507 12.6013 67.1507 11.8817C67.1507 10.2688 66.5099 8.72198 65.3695 7.58149C64.229 6.44101 62.6821 5.80029 61.0693 5.80029C60.3496 5.80029 59.6807 5.96449 59.0421 6.19558V7.82743Z" fill="#66757F"/>
</svg>
