<svg width="24" height="27" viewBox="0 0 24 27" fill="none" xmlns="http://www.w3.org/2000/svg">
<path d="M11.6905 2.97281C11.6905 2.97281 12.0908 2.04968 12.9986 1.46343C13.4405 1.17906 14.2126 0.739369 14.3526 0.986556C14.4139 1.09374 14.2148 1.37156 14.0136 1.80249C13.9326 1.97968 13.7511 2.55718 13.7511 2.55718C13.7511 2.55718 14.5517 1.50937 15.9539 1.23374C17.0564 1.01499 18.2486 1.15718 18.3864 1.40218C18.5351 1.66687 17.7542 2.24874 17.5092 2.75624C17.2642 3.26374 17.0783 3.91124 17.0783 3.91124C17.0783 3.91124 18.5548 3.21343 18.9267 3.06468C19.3883 2.88093 20.3901 2.49593 20.528 2.66437C20.6658 2.83281 20.0861 3.81062 19.9592 3.98781C19.8061 4.20437 19.5742 4.60468 19.5742 4.60468C19.5742 4.60468 20.283 4.28093 20.5586 4.11249C20.8364 3.94406 21.4511 3.46499 21.5911 3.55906C21.7289 3.65093 21.7289 4.58718 21.637 4.99187C21.5145 5.52999 20.9436 6.11624 20.9436 6.11624C20.9436 6.11624 21.7595 6.29999 22.2058 6.87093C22.652 7.44187 22.9123 7.88593 23.0983 8.45687C23.3761 9.30343 23.4986 10.4584 23.4373 10.675C23.3761 10.8916 23.037 10.5984 22.4048 10.5525C22.0308 10.5241 21.9433 10.5219 21.9433 10.5219C21.9433 10.5219 22.2998 10.9462 22.4661 11.3378C22.6826 11.8453 22.9189 12.6459 23.0501 12.985C23.188 13.3394 23.2973 13.6172 23.4964 14.0175C23.5555 14.1356 23.0808 14.2494 22.6039 13.8009C22.4442 13.6522 22.2495 13.5078 22.2495 13.5078C22.2495 13.5078 22.5317 15.1856 22.512 16.31C22.4967 17.1412 22.3108 18.6506 22.0658 18.7884C21.8186 18.9262 21.3264 17.8653 21.3264 17.8653C21.3264 17.8653 21.112 19.0728 20.8648 19.8822C20.5717 20.8359 20.2939 21.2822 20.1255 21.8531C19.9242 22.5312 19.7251 23.0234 19.5873 22.8069C19.467 22.6209 19.3401 22.33 19.2176 22.1134C19.1236 21.9494 18.9092 21.5119 18.9092 21.5119C18.9092 21.5119 18.6926 22.82 17.647 23.6994C16.6014 24.5787 15.9233 25.2853 15.4289 25.3466C15.138 25.3837 15.4748 24.0691 15.4748 24.0691C15.4748 24.0691 13.843 25.3509 13.0576 25.9328C12.7033 26.1953 12.3795 27.0572 12.1345 26.9959C11.8873 26.9347 11.2573 25.9787 10.857 25.6878C10.4567 25.3969 9.70202 25.0556 9.59483 24.9944C9.48764 24.9331 8.97795 24.6094 8.97795 24.6094C8.97795 24.6094 9.10483 25.3247 8.96264 25.3947C8.6542 25.5478 7.46858 24.7012 7.12952 24.1784C6.79046 23.6556 6.19108 22.5772 6.19108 22.5772C6.19108 22.5772 6.11452 23.6097 5.86733 23.4391C5.60483 23.2597 4.32733 22.3147 3.88108 21.6059C3.56608 21.105 3.01921 19.6962 3.01921 19.6962C3.01921 19.6962 2.54233 20.1884 2.40233 20.2497C2.26233 20.3109 1.91014 20.4509 1.97139 19.9106C2.03264 19.3725 1.61046 18.1519 1.54046 17.4169C1.44858 16.4631 1.63233 15.4766 1.63233 15.4766C1.63233 15.4766 0.847018 16.5244 0.47733 16.5091C0.107643 16.4937 0.324205 14.4769 0.41608 13.86C0.507955 13.2431 0.816393 12.1669 0.938893 11.7819C1.06139 11.3969 1.52296 10.8281 1.52296 10.8281C1.52296 10.8281 0.383268 11.2131 0.21483 11.06C0.0463929 10.9069 0.306705 9.53531 0.462018 8.70406C0.540768 8.27749 0.877643 7.61031 1.30858 7.11812C1.73952 6.62593 2.40233 6.71781 2.46358 6.50124C2.52483 6.28468 2.21858 6.11406 2.00202 5.76187C1.67827 5.23906 1.49452 4.16062 1.66296 3.97468C1.76796 3.86093 2.35639 4.31374 3.06514 4.39031C3.77389 4.46687 4.40389 4.42093 4.40389 4.42093C4.40389 4.42093 3.99483 3.93968 3.81983 3.54374C3.57264 2.99031 3.55733 2.32749 3.71264 2.15687C3.86796 1.98624 4.40608 2.51124 5.13014 2.69499C5.8542 2.87874 6.93264 2.89624 6.93264 2.89624C6.93264 2.89624 6.47108 2.40406 6.34858 1.83312C6.22608 1.26437 6.25671 0.909994 6.45577 0.848744C6.65702 0.787494 7.24327 1.33656 7.65671 1.46562C8.10296 1.60343 9.61233 1.51156 10.2905 1.71281C10.9686 1.91406 11.6905 2.97281 11.6905 2.97281Z" fill="#865C50"/>
<path d="M16.5555 7.77863C16.5555 7.77863 19.2046 5.25426 20.7446 7.13113C22.5712 9.3602 17.7258 11.8124 17.7258 11.8124L16.5555 7.77863ZM7.31772 8.42394C7.31772 8.42394 4.84803 5.18644 3.03241 6.94082C1.21678 8.6952 4.97709 11.3793 4.97709 11.3793L7.31772 8.42394Z" fill="#FEC000"/>
<path d="M18.8338 9.9334C18.8338 9.9334 20.7741 8.57934 19.9735 7.71528C19.1182 6.79434 17.541 8.3934 17.541 8.3934L18.8338 9.9334ZM6.18789 8.50278C6.18789 8.50278 4.58008 6.91028 3.74883 7.89465C3.00071 8.78059 5.13571 10.4825 5.13571 10.4825L6.18789 8.50278Z" fill="#FF8E06"/>
<path d="M12.1528 19.5716C12.1528 19.5716 13.7234 19.1407 14.7078 18.6485C15.6921 18.1563 19.3584 16.0935 19.634 13.5669C19.9118 11.0425 19.634 10.3644 18.4637 8.8244C17.2934 7.2844 15.2415 6.93003 14.1828 7.1619C12.9206 7.43972 12.704 8.36065 12.1506 8.39347C11.6278 8.42409 11.7809 7.84003 10.2715 7.2844C8.33996 6.57347 3.05277 8.47659 3.98902 13.5669C4.48121 16.2466 8.3859 18.5325 8.88465 18.8016C10.09 19.4491 12.1528 19.5716 12.1528 19.5716Z" fill="#FEC000"/>
<path d="M16.1463 11.1633C16.3353 10.6884 16.1108 10.1532 15.645 9.96783C15.1792 9.78242 14.6483 10.017 14.4594 10.4918C14.2704 10.9667 14.4948 11.5019 14.9606 11.6873C15.4265 11.8727 15.9573 11.6381 16.1463 11.1633Z" fill="#2E2F2F"/>
<path d="M9.02749 11.5917C9.50535 11.3974 9.73225 10.8452 9.53428 10.3584C9.3363 9.87157 8.78843 9.63446 8.31056 9.82879C7.8327 10.0231 7.6058 10.5753 7.80377 11.0621C8.00175 11.5489 8.54962 11.7861 9.02749 11.5917Z" fill="#2E2F2F"/>
<path d="M12.1105 12.4687C10.2424 12.4118 8.59961 14.5227 8.59961 18.0315C8.59961 21.4396 10.4065 22.2402 11.8634 22.2402C13.7118 22.2402 15.4552 21.0283 15.2518 17.723C15.0615 14.6649 14.1012 12.5299 12.1105 12.4687Z" fill="#FFD899"/>
<path d="M9.93391 14.3982C9.75016 14.5819 10.098 15.5882 10.4064 16.1022C10.7148 16.6163 11.5964 17.4563 12.0908 17.4366C12.583 17.4169 13.5083 16.3888 13.7948 15.6297C14.0814 14.8707 14.1645 14.3982 14.042 14.2122C13.9195 14.0263 12.4605 14.2538 11.907 14.2538C11.3536 14.2538 10.1198 14.2144 9.93391 14.3982Z" fill="#2E2F2F"/>
<path d="M12.05 16.73C12.05 16.73 11.2559 17.594 10.9103 17.7253C10.4268 17.909 9.67871 17.7515 9.65683 18.049C9.63714 18.3575 10.1184 18.6812 10.8884 18.5784C11.7393 18.4647 12.0587 17.9419 12.0587 17.9419C12.0587 17.9419 12.5421 18.6287 13.4762 18.6703C14.4103 18.7119 14.6268 18.1169 14.3687 18.0337C14.0187 17.9222 13.8 17.944 13.2706 17.7778C12.8506 17.6422 12.05 16.73 12.05 16.73Z" fill="#2E2F2F"/>
</svg>
