<svg width="259" height="259" viewBox="0 0 259 259" fill="none" xmlns="http://www.w3.org/2000/svg">
<path d="M67.403 55.4468C66.6579 54.7039 66.0667 53.8212 65.6633 52.8494C65.2599 51.8775 65.0522 50.8357 65.0522 49.7834C65.0522 48.7312 65.2599 47.6893 65.6633 46.7175C66.0667 45.7456 66.6579 44.8629 67.403 44.12L81.9563 29.5667C82.6992 28.8216 83.5819 28.2304 84.5538 27.827C85.5256 27.4236 86.5675 27.2159 87.6197 27.2159C88.672 27.2159 89.7138 27.4236 90.6857 27.827C91.6575 28.2304 92.5402 28.8216 93.2831 29.5667C94.0283 30.3097 94.6195 31.1923 95.0229 32.1642C95.4263 33.136 95.6339 34.1779 95.6339 35.2301C95.6339 36.2824 95.4263 37.3243 95.0229 38.2961C94.6195 39.2679 94.0283 40.1506 93.2831 40.8936L78.7299 55.4468C77.9869 56.192 77.1043 56.7832 76.1324 57.1866C75.1606 57.59 74.1187 57.7976 73.0664 57.7976C72.0142 57.7976 70.9723 57.59 70.0005 57.1866C69.0286 56.7832 68.146 56.192 67.403 55.4468ZM111.452 55.4468C110.707 54.7039 110.115 53.8212 109.712 52.8494C109.309 51.8775 109.101 50.8357 109.101 49.7834C109.101 48.7312 109.309 47.6893 109.712 46.7175C110.115 45.7456 110.707 44.8629 111.452 44.12L126.005 29.5667C126.748 28.8216 127.631 28.2304 128.603 27.827C129.574 27.4236 130.616 27.2159 131.669 27.2159C132.721 27.2159 133.763 27.4236 134.734 27.827C135.706 28.2304 136.589 28.8216 137.332 29.5667C138.077 30.3097 138.668 31.1923 139.072 32.1642C139.475 33.136 139.683 34.1779 139.683 35.2301C139.683 36.2824 139.475 37.3243 139.072 38.2961C138.668 39.2679 138.077 40.1506 137.332 40.8936L122.779 55.4468C122.036 56.192 121.153 56.7832 120.181 57.1866C119.209 57.59 118.167 57.7976 117.115 57.7976C116.063 57.7976 115.021 57.59 114.049 57.1866C113.077 56.7832 112.195 56.192 111.452 55.4468ZM204.973 144.117C204.227 143.374 203.636 142.491 203.233 141.519C202.829 140.547 202.622 139.505 202.622 138.453C202.622 137.401 202.829 136.359 203.233 135.387C203.636 134.415 204.227 133.533 204.973 132.79L219.526 118.236C220.269 117.491 221.152 116.9 222.123 116.497C223.095 116.093 224.137 115.886 225.189 115.886C226.242 115.886 227.283 116.093 228.255 116.497C229.227 116.9 230.11 117.491 230.853 118.236C231.598 118.979 232.189 119.862 232.592 120.834C232.996 121.806 233.204 122.848 233.204 123.9C233.204 124.952 232.996 125.994 232.592 126.966C232.189 127.938 231.598 128.82 230.853 129.563L216.299 144.117C215.557 144.862 214.674 145.453 213.702 145.856C212.73 146.26 211.688 146.467 210.636 146.467C209.584 146.467 208.542 146.26 207.57 145.856C206.598 145.453 205.716 144.862 204.973 144.117ZM203.806 188.737C203.06 187.994 202.469 187.112 202.066 186.14C201.662 185.168 201.455 184.126 201.455 183.074C201.455 182.022 201.662 180.98 202.066 180.008C202.469 179.036 203.06 178.153 203.806 177.411L218.359 162.857C219.102 162.112 219.985 161.521 220.956 161.118C221.928 160.714 222.97 160.506 224.022 160.506C225.075 160.506 226.116 160.714 227.088 161.118C228.06 161.521 228.943 162.112 229.686 162.857C230.431 163.6 231.022 164.483 231.425 165.455C231.829 166.427 232.036 167.468 232.036 168.521C232.036 169.573 231.829 170.615 231.425 171.587C231.022 172.558 230.431 173.441 229.686 174.184L215.132 188.737C214.39 189.483 213.507 190.074 212.535 190.477C211.563 190.881 210.521 191.088 209.469 191.088C208.417 191.088 207.375 190.881 206.403 190.477C205.431 190.074 204.549 189.483 203.806 188.737Z" fill="#78A3AD"/>
<path d="M212.204 55.9501C212.204 55.9501 220.602 158.921 212.204 238.964C210.831 252.007 192.479 255.211 189.825 242.351C174.814 169.608 142.412 128.03 142.412 128.03L212.204 55.9501ZM203.12 48.2387C203.12 48.2387 100.148 39.8409 20.1054 48.2387C7.06242 49.6117 3.85887 67.9635 16.7188 70.6178C89.4623 85.6287 131.04 118.03 131.04 118.03L203.12 48.2387ZM89.3479 169.653H9.3049C0.289198 169.653 -3.30336 181.323 4.15634 186.38L43.5829 213.13L89.3479 169.653ZM89.3479 169.653V249.696C89.3479 258.712 77.6778 262.305 72.6208 254.845L45.8711 215.418L89.3479 169.653Z" fill="#016CA2"/>
<path d="M197.558 17.2329L52.1631 170.202C48.1206 174.456 45.8677 180.1 45.8704 185.968V199.4C45.8704 206.975 52.0258 213.13 59.5999 213.13H73.0319C78.8898 213.13 84.5418 210.887 88.7979 206.837L241.767 61.4419C248.907 54.6686 253.666 45.7674 255.337 36.0652L258.792 16.0659C260.417 6.70693 252.271 -1.41636 242.934 0.208299L222.935 3.66356C213.233 5.33398 204.332 10.0935 197.558 17.2329Z" fill="#40C0E7"/>
<path d="M98.5457 162.491L39.3944 221.78C39.3944 221.78 44.7489 190.66 98.5457 162.491Z" fill="#78A3AD"/>
<path d="M98.5457 162.491L39.3944 221.78C39.3944 221.78 70.057 216.837 98.5457 162.491Z" fill="#016CA2"/>
<path d="M217.489 20.2307L222.729 19.6816C234.056 18.8349 242.683 29.6812 239.296 40.5275" stroke="#016CA2" stroke-width="3" stroke-miterlimit="10" stroke-linecap="round"/>
</svg>
