<svg width="83" height="82" viewBox="0 0 83 82" fill="none" xmlns="http://www.w3.org/2000/svg">
<path d="M33.7414 45.537H33.6892C32.6563 45.5205 31.6719 45.0957 30.9512 44.3555C30.2306 43.6153 29.8323 42.6199 29.8435 41.5869C29.8696 39.4649 31.6194 37.7477 33.7414 37.7477C35.9483 37.7738 37.672 39.5497 37.6459 41.6979C37.6067 43.8133 35.8634 45.537 33.7414 45.537ZM33.7806 38.5704C32.0634 38.5704 30.6858 39.9284 30.6662 41.5999C30.6401 43.291 32.0047 44.6882 33.7023 44.7144L33.7414 45.1257V44.7144C35.4129 44.7144 36.7906 43.3563 36.8167 41.6848C36.8428 39.9872 35.4782 38.5899 33.7806 38.5704ZM46.3363 47.0322H46.2841C45.772 47.0271 45.2661 46.9206 44.7954 46.7188C44.3247 46.5171 43.8987 46.2242 43.5418 45.857C43.1839 45.4915 42.902 45.0586 42.7126 44.5834C42.5232 44.1082 42.43 43.6001 42.4384 43.0886C42.4645 40.9731 44.2143 39.2494 46.3363 39.2494C47.4267 39.2625 48.3995 39.6803 49.1243 40.4247C49.4817 40.7905 49.7633 41.2235 49.9526 41.6986C50.142 42.1737 50.2355 42.6816 50.2277 43.1931C50.1951 45.315 48.4452 47.0322 46.3363 47.0322ZM46.3755 40.0656C44.6583 40.0656 43.2806 41.4236 43.261 43.0951C43.248 43.9178 43.5549 44.6882 44.1294 45.2824C44.704 45.87 45.4679 46.1965 46.2906 46.2096L46.3363 46.6209V46.2096C48.0078 46.2096 49.3789 44.8515 49.405 43.18C49.4116 42.3573 49.1047 41.5803 48.5367 40.9927C47.9621 40.4116 47.1982 40.0786 46.3755 40.0656ZM58.9181 48.534H58.8594C58.3476 48.529 57.8421 48.422 57.3723 48.219C56.9025 48.0161 56.478 47.7214 56.1236 47.3522C55.4068 46.6099 55.0105 45.6156 55.0202 44.5838C55.0594 42.4683 56.8027 40.7446 58.9181 40.7446C61.125 40.7707 62.8487 42.5401 62.8226 44.6882C62.7965 46.8102 61.0467 48.534 58.9181 48.534ZM58.9573 41.5738C57.2466 41.5738 55.869 42.9319 55.8494 44.6034C55.8363 45.426 56.1432 46.1965 56.7178 46.7907C57.2858 47.3783 58.0563 47.7113 58.8724 47.7178L58.9181 48.1291V47.7178C60.5896 47.7178 61.9738 46.3597 61.9999 44.6882C62.0086 43.872 61.6932 43.0857 61.1227 42.5018C60.5523 41.9179 59.7735 41.5841 58.9573 41.5738Z" fill="white"/>
<path d="M48.2238 12.669C48.2891 12.6298 48.3544 12.5841 48.4197 12.5449C48.8898 12.2511 49.4382 11.9834 49.5166 11.4219C49.719 9.9659 50.5286 8.57517 51.6777 7.66761C52.5984 6.93634 53.7214 6.46624 54.8836 6.28995C55.3537 6.21812 55.8956 6.27036 56.3723 6.28342C56.9403 6.30953 57.5736 6.68823 58.0242 6.19854C58.2004 6.00266 58.2984 5.63049 58.4681 5.40197C60.231 3.05145 63.7242 2.64664 66.3228 3.69132C66.5709 3.78925 66.8125 3.99819 67.0475 4.07654C67.4197 4.2006 67.3479 4.14183 67.7462 3.95901C68.706 3.50197 69.5221 2.78375 70.5146 2.392C71.6898 1.92843 72.95 1.67379 74.2101 1.71949C76.3386 1.79131 78.3888 2.73152 79.7795 4.3573C82.5675 7.63497 81.451 12.0095 77.9513 14.223C76.9263 14.8693 75.7575 15.2937 74.5496 15.4374C73.061 15.6202 71.0957 15.7181 69.6331 15.346C68.7255 15.1109 67.8441 14.8106 66.9692 14.5037C66.7537 14.4319 66.5121 14.2817 66.2706 14.3862C66.0943 14.458 65.9049 14.7192 65.7352 14.8367C65.5066 15.0065 65.2781 15.1632 65.03 15.3003C64.2922 15.7116 63.4499 16.0511 62.6142 16.2274C62.0919 16.3384 61.5695 16.5017 61.0407 16.5147C60.5053 16.5278 59.9764 16.5212 59.4475 16.469C58.7424 16.3972 58.0894 16.2144 57.4169 16.0185C56.8293 15.8487 56.1699 15.4504 55.5626 15.4113C55.3733 16.3841 55.5822 17.3896 55.3994 18.3625C55.2296 19.2896 54.6224 20.1123 53.9042 20.713C52.6245 21.7903 50.6918 21.8752 49.1314 21.4704C47.7994 21.1309 46.7025 20.9154 46.1736 19.5051C45.7819 18.4539 45.7362 17.2068 45.9516 16.1099C46.2716 14.6212 47.0224 13.4786 48.2238 12.669V12.669Z" fill="white"/>
<path d="M50.8808 23.3377C50.1692 23.3377 49.4444 23.2462 48.7393 23.0634L48.5499 23.0112C47.1722 22.6586 45.4551 22.2212 44.652 20.073C44.1753 18.7933 44.0643 17.2328 44.3582 15.7833C44.7368 13.8637 45.7293 12.3555 47.3094 11.2978L47.7272 11.0301C47.7925 10.9844 47.8643 10.9517 47.9296 10.9125C48.243 9.14312 49.229 7.49776 50.6589 6.36167C51.7884 5.46717 53.1661 4.87301 54.6351 4.64449C55.1118 4.57267 55.6472 4.58572 56.163 4.61184L56.4372 4.6249C56.6135 4.63143 56.7898 4.65755 56.9661 4.69019C57.0248 4.59225 57.0836 4.49432 57.1554 4.40291C58.5396 2.55514 60.8444 1.49087 63.4627 1.49087C64.6575 1.49087 65.8654 1.7194 66.9427 2.15032C67.0603 2.20256 67.1843 2.25479 67.3018 2.32661C67.5695 2.17644 67.8307 2.01321 68.0854 1.84998C68.6142 1.51046 69.2149 1.13177 69.9201 0.851009C71.2586 0.322142 72.6036 0.0544434 73.9421 0.0544434L74.2751 0.0609726C76.9063 0.152382 79.3744 1.32111 81.0328 3.27988C82.5868 5.10153 83.2527 7.34758 82.9132 9.6067C82.5476 12.016 81.0589 14.1967 78.839 15.6005C77.6039 16.3784 76.2131 16.8755 74.7647 17.0565C72.584 17.3242 70.6448 17.2851 69.241 16.926C68.3857 16.7105 67.5891 16.4428 66.7273 16.1424C66.4465 16.3579 66.1592 16.5538 65.8458 16.7235C64.9121 17.2394 63.9132 17.6246 62.973 17.8205L62.6073 17.9053C62.1699 18.0098 61.6737 18.1273 61.1056 18.1469L60.5767 18.1534C60.1458 18.1534 59.7149 18.1339 59.284 18.0882C58.507 18.0098 57.8018 17.8205 57.1358 17.6311C57.1228 17.951 57.1032 18.2906 57.0379 18.6366C56.8159 19.8445 56.0846 21.0198 54.9812 21.9535C53.9235 22.8675 52.5001 23.3377 50.8808 23.3377V23.3377ZM55.4644 7.88951C55.3534 7.88951 55.2424 7.88951 55.1379 7.9091C54.2369 8.04621 53.375 8.41838 52.7025 8.95377C51.8668 9.61322 51.2922 10.6187 51.1485 11.6373C50.9657 12.9235 49.9668 13.5308 49.4183 13.8572L49.1375 14.0335C48.2887 14.6081 47.7925 15.372 47.5771 16.4363C47.4073 17.2916 47.4661 18.2187 47.7272 18.9304C47.9035 19.4005 48.1059 19.5115 49.3595 19.8315L49.5489 19.8772C50.809 20.2036 52.1606 20.0404 52.8527 19.4528C53.362 19.0153 53.7015 18.5126 53.7864 18.062C53.8451 17.7356 53.8386 17.3438 53.8321 16.926C53.8321 16.3775 53.8125 15.7572 53.9496 15.0978C54.0236 14.7043 54.2391 14.3515 54.5555 14.1061C54.8719 13.8606 55.2672 13.7396 55.6668 13.7658C56.3262 13.805 56.9138 14.0466 57.3905 14.2424C57.5602 14.3143 57.7235 14.3861 57.8867 14.4383C58.4743 14.6081 59.0554 14.7713 59.63 14.8301C59.9369 14.8627 60.2568 14.8758 60.5702 14.8758L61.0011 14.8693C61.2231 14.8627 61.5235 14.7909 61.8369 14.7125L62.2809 14.6146C62.9011 14.484 63.5932 14.2163 64.2462 13.8572C64.4225 13.7528 64.5922 13.6418 64.762 13.5177C64.9644 13.3088 65.2386 13.0411 65.6369 12.8648C66.3225 12.5775 67.1517 12.7995 67.4651 12.9235C68.4183 13.2631 69.2345 13.5373 70.0506 13.7462C71.0366 13.9943 72.6166 14.0139 74.3599 13.7985C75.3197 13.6809 76.2599 13.3414 77.0826 12.8256C78.4995 11.9311 79.4331 10.5795 79.6551 9.117C79.8575 7.7981 79.4658 6.5249 78.5321 5.42146C77.4613 4.16785 75.8747 3.41699 74.1641 3.35823H73.9421C73.028 3.35823 72.0812 3.54758 71.128 3.92627C70.7232 4.08297 70.3053 4.35067 69.8613 4.63143C69.4043 4.92524 68.9472 5.21253 68.4575 5.44105C68.1441 5.60428 67.8177 5.7871 67.328 5.7871C67.0211 5.7871 66.773 5.71528 66.5445 5.64346C66.2311 5.53899 65.9829 5.38229 65.8001 5.27782C63.4561 4.26579 60.9293 4.87301 59.7932 6.39432C59.6561 6.70772 59.5125 7.02112 59.2383 7.31494C58.9183 7.66752 58.3307 8.09192 57.4427 8.09192C57.0901 8.09192 56.7898 8.02662 56.5417 7.97439C56.4633 7.9548 56.385 7.93521 56.3132 7.92869L55.9998 7.91563C55.8235 7.90257 55.6407 7.88951 55.4644 7.88951V7.88951Z" fill="#78A3AD"/>
<path d="M37.2284 41.6849C37.2152 42.6086 36.8356 43.4893 36.1733 44.1333C35.5109 44.7773 34.6199 45.132 33.6961 45.1192C31.77 45.0866 30.2291 43.513 30.2552 41.5869C30.2813 39.6608 31.8679 38.1264 33.794 38.1526C35.7136 38.1852 37.2545 39.7653 37.2284 41.6849ZM46.3824 39.6543C45.9248 39.6475 45.4704 39.7309 45.0452 39.8999C44.6199 40.0689 44.2322 40.32 43.9041 40.639C43.576 40.958 43.314 41.3385 43.1332 41.7589C42.9523 42.1792 42.8561 42.6311 42.8501 43.0886C42.8428 43.546 42.926 44.0003 43.0949 44.4253C43.2638 44.8504 43.5151 45.2379 43.8342 45.5656C44.1534 45.8932 44.5342 46.1545 44.9547 46.3345C45.3752 46.5145 45.8271 46.6097 46.2845 46.6144C48.2106 46.6405 49.7906 45.1062 49.8102 43.1801C49.8429 41.2605 48.302 39.6804 46.3824 39.6543ZM58.9642 41.1625C58.5072 41.1564 58.0534 41.2404 57.6288 41.4097C57.2042 41.579 56.8172 41.8303 56.4898 42.1492C56.1623 42.4681 55.901 42.8485 55.7206 43.2685C55.5402 43.6884 55.4443 44.1398 55.4384 44.5969C55.4315 45.0539 55.5147 45.5078 55.6832 45.9327C55.8518 46.3576 56.1023 46.7451 56.4207 47.0731C56.739 47.4011 57.1188 47.6632 57.5384 47.8444C57.958 48.0256 58.4092 48.1224 58.8663 48.1292C60.7924 48.1553 62.379 46.6144 62.4116 44.6948C62.4377 42.7622 60.8903 41.1886 58.9642 41.1625Z" fill="#00BFEF"/>
<path d="M48.2238 12.669C48.2891 12.6298 48.3544 12.5841 48.4197 12.5449C48.8898 12.2511 49.4382 11.9834 49.5166 11.4219C49.719 9.9659 50.5286 8.57517 51.6777 7.66761C52.5984 6.93634 53.7214 6.46624 54.8836 6.28995C55.3537 6.21812 55.8956 6.27036 56.3723 6.28342C56.9403 6.30953 57.5736 6.68823 58.0242 6.19854C58.2004 6.00266 58.2984 5.63049 58.4681 5.40197C60.231 3.05145 63.7242 2.64664 66.3228 3.69132C66.5709 3.78925 66.8125 3.99819 67.0475 4.07654C67.4197 4.2006 67.3479 4.14183 67.7462 3.95901C68.706 3.50197 69.5221 2.78375 70.5146 2.392C71.6898 1.92843 72.95 1.67379 74.2101 1.71949C76.3386 1.79131 78.3888 2.73152 79.7795 4.3573C82.5675 7.63497 81.451 12.0095 77.9513 14.223C76.9263 14.8693 75.7575 15.2937 74.5496 15.4374C73.061 15.6202 71.0957 15.7181 69.6331 15.346C68.7255 15.1109 67.8441 14.8106 66.9692 14.5037C66.7537 14.4319 66.5121 14.2817 66.2706 14.3862C66.0943 14.458 65.9049 14.7192 65.7352 14.8367C65.5066 15.0065 65.2781 15.1632 65.03 15.3003C64.2922 15.7116 63.4499 16.0511 62.6142 16.2274C62.0919 16.3384 61.5695 16.5017 61.0407 16.5147C60.5053 16.5278 59.9764 16.5212 59.4475 16.469C58.7424 16.3972 58.0894 16.2144 57.4169 16.0185C56.8293 15.8487 56.1699 15.4504 55.5626 15.4113C55.3733 16.3841 55.5822 17.3896 55.3994 18.3625C55.2296 19.2896 54.6224 20.1123 53.9042 20.713C52.6245 21.7903 50.6918 21.8752 49.1314 21.4704C47.7994 21.1309 46.7025 20.9154 46.1736 19.5051C45.7819 18.4539 45.7362 17.2068 45.9516 16.1099C46.2716 14.6212 47.0224 13.4786 48.2238 12.669V12.669Z" fill="white"/>
<path d="M50.8808 23.3377C50.1692 23.3377 49.4444 23.2462 48.7393 23.0634L48.5499 23.0112C47.1722 22.6586 45.4551 22.2212 44.652 20.073C44.1753 18.7933 44.0643 17.2328 44.3582 15.7833C44.7368 13.8637 45.7293 12.3555 47.3094 11.2978L47.7272 11.0301C47.7925 10.9844 47.8643 10.9517 47.9296 10.9125C48.243 9.14312 49.229 7.49776 50.6589 6.36167C51.7884 5.46717 53.1661 4.87301 54.6351 4.64449C55.1118 4.57267 55.6472 4.58572 56.163 4.61184L56.4372 4.6249C56.6135 4.63143 56.7898 4.65755 56.9661 4.69019C57.0248 4.59225 57.0836 4.49432 57.1554 4.40291C58.5396 2.55514 60.8444 1.49087 63.4627 1.49087C64.6575 1.49087 65.8654 1.7194 66.9427 2.15032C67.0603 2.20256 67.1843 2.25479 67.3018 2.32661C67.5695 2.17644 67.8307 2.01321 68.0854 1.84998C68.6142 1.51046 69.2149 1.13177 69.9201 0.851009C71.2586 0.322142 72.6036 0.0544434 73.9421 0.0544434L74.2751 0.0609726C76.9063 0.152382 79.3744 1.32111 81.0328 3.27988C82.5868 5.10153 83.2527 7.34758 82.9132 9.6067C82.5476 12.016 81.0589 14.1967 78.839 15.6005C77.6039 16.3784 76.2131 16.8755 74.7647 17.0565C72.584 17.3242 70.6448 17.2851 69.241 16.926C68.3857 16.7105 67.5891 16.4428 66.7273 16.1424C66.4465 16.3579 66.1592 16.5538 65.8458 16.7235C64.9121 17.2394 63.9132 17.6246 62.973 17.8205L62.6073 17.9053C62.1699 18.0098 61.6737 18.1273 61.1056 18.1469L60.5767 18.1534C60.1458 18.1534 59.7149 18.1339 59.284 18.0882C58.507 18.0098 57.8018 17.8205 57.1358 17.6311C57.1228 17.951 57.1032 18.2906 57.0379 18.6366C56.8159 19.8445 56.0846 21.0198 54.9812 21.9535C53.9235 22.8675 52.5001 23.3377 50.8808 23.3377V23.3377ZM55.4644 7.88951C55.3534 7.88951 55.2424 7.88951 55.1379 7.9091C54.2369 8.04621 53.375 8.41838 52.7025 8.95377C51.8668 9.61322 51.2922 10.6187 51.1485 11.6373C50.9657 12.9235 49.9668 13.5308 49.4183 13.8572L49.1375 14.0335C48.2887 14.6081 47.7925 15.372 47.5771 16.4363C47.4073 17.2916 47.4661 18.2187 47.7272 18.9304C47.9035 19.4005 48.1059 19.5115 49.3595 19.8315L49.5489 19.8772C50.809 20.2036 52.1606 20.0404 52.8527 19.4528C53.362 19.0153 53.7015 18.5126 53.7864 18.062C53.8451 17.7356 53.8386 17.3438 53.8321 16.926C53.8321 16.3775 53.8125 15.7572 53.9496 15.0978C54.0236 14.7043 54.2391 14.3515 54.5555 14.1061C54.8719 13.8606 55.2672 13.7396 55.6668 13.7658C56.3262 13.805 56.9138 14.0466 57.3905 14.2424C57.5602 14.3143 57.7235 14.3861 57.8867 14.4383C58.4743 14.6081 59.0554 14.7713 59.63 14.8301C59.9369 14.8627 60.2568 14.8758 60.5702 14.8758L61.0011 14.8693C61.2231 14.8627 61.5235 14.7909 61.8369 14.7125L62.2809 14.6146C62.9011 14.484 63.5932 14.2163 64.2462 13.8572C64.4225 13.7528 64.5922 13.6418 64.762 13.5177C64.9644 13.3088 65.2386 13.0411 65.6369 12.8648C66.3225 12.5775 67.1517 12.7995 67.4651 12.9235C68.4183 13.2631 69.2345 13.5373 70.0506 13.7462C71.0366 13.9943 72.6166 14.0139 74.3599 13.7985C75.3197 13.6809 76.2599 13.3414 77.0826 12.8256C78.4995 11.9311 79.4331 10.5795 79.6551 9.117C79.8575 7.7981 79.4658 6.5249 78.5321 5.42146C77.4613 4.16785 75.8747 3.41699 74.1641 3.35823H73.9421C73.028 3.35823 72.0812 3.54758 71.128 3.92627C70.7232 4.08297 70.3053 4.35067 69.8613 4.63143C69.4043 4.92524 68.9472 5.21253 68.4575 5.44105C68.1441 5.60428 67.8177 5.7871 67.328 5.7871C67.0211 5.7871 66.773 5.71528 66.5445 5.64346C66.2311 5.53899 65.9829 5.38229 65.8001 5.27782C63.4561 4.26579 60.9293 4.87301 59.7932 6.39432C59.6561 6.70772 59.5125 7.02112 59.2383 7.31494C58.9183 7.66752 58.3307 8.09192 57.4427 8.09192C57.0901 8.09192 56.7898 8.02662 56.5417 7.97439C56.4633 7.9548 56.385 7.93521 56.3132 7.92869L55.9998 7.91563C55.8235 7.90257 55.6407 7.88951 55.4644 7.88951V7.88951Z" fill="#78A3AD"/>
<path d="M43.0785 18.9825C43.1373 18.7017 43.2352 18.4275 43.3266 18.1533C43.6008 17.2914 44.5149 16.5732 45.3768 16.188C46.3823 15.7571 47.5641 15.6918 48.6545 15.6918C50.6459 15.6983 52.2651 16.0313 54.0084 16.8474C55.6603 17.6179 56.6723 18.7279 56.6593 20.556C56.6332 25.1722 56.261 36.9183 56.3198 38.1784C56.3524 38.9554 56.3851 39.7324 56.3916 40.5028C56.4046 41.9131 55.693 42.8076 54.2826 42.899C52.0496 43.0492 50.0321 42.8925 47.884 42.4289C45.5792 41.9262 43.1177 41.2537 40.7541 41.0904C40.63 39.7781 40.7671 37.0946 40.7671 37.0946C40.7671 37.0946 42.6214 21.1894 43.0785 18.9825Z" fill="#ED6C30"/>
<mask id="mask0_334_1398" style="mask-type:luminance" maskUnits="userSpaceOnUse" x="40" y="15" width="17" height="28">
<path d="M43.0785 18.9825C43.1373 18.7017 43.2352 18.4275 43.3266 18.1533C43.6008 17.2914 44.5149 16.5732 45.3768 16.188C46.3823 15.7571 47.5641 15.6918 48.6545 15.6918C50.6459 15.6983 52.2651 16.0313 54.0084 16.8474C55.6603 17.6179 56.6723 18.7279 56.6593 20.556C56.6332 25.1722 56.261 36.9183 56.3198 38.1784C56.3524 38.9554 56.3851 39.7324 56.3916 40.5028C56.4046 41.9131 55.693 42.8076 54.2826 42.899C52.0496 43.0492 50.0321 42.8925 47.884 42.4289C45.5792 41.9262 43.1177 41.2537 40.7541 41.0904C40.63 39.7781 40.7671 37.0946 40.7671 37.0946C40.7671 37.0946 42.6214 21.1894 43.0785 18.9825Z" fill="white"/>
</mask>
<g mask="url(#mask0_334_1398)">
<path d="M42.2626 22.2732C42.465 21.7182 42.8045 21.3395 43.5031 20.9935C45.3313 20.0794 48.6286 20.1055 49.2488 20.1643C53.9629 20.5756 56.1176 22.3124 56.5746 22.8021C57.1819 23.4419 56.9599 23.9773 56.9403 24.7739C56.9272 25.1918 56.9925 25.6423 56.9142 26.0406C56.6465 25.7141 55.21 23.8337 51.508 23.011C49.6863 22.6062 47.7145 22.3907 45.6904 22.7433C44.4695 22.9588 42.8567 23.5725 41.8643 24.5193C41.7859 23.9839 41.9688 23.6052 42.0536 23.1024C42.1059 22.789 42.1712 22.5148 42.2626 22.2732Z" fill="white"/>
</g>
<path d="M19.0512 48.2205C18.7247 47.8679 18.7639 47.1431 18.9337 46.3858C19.1361 45.4847 21.5911 36.1545 22.0089 35.2469C23.2103 32.6352 25.6914 32.8311 26.3639 32.8311C29.0213 32.818 31.7179 33.2816 34.3035 33.5624C39.5399 34.1435 58.1351 36.8727 62.3465 37.6366C63.4173 37.8325 66.6035 38.3679 67.3936 38.5376C68.843 38.8445 69.9987 39.3995 70.5341 40.3985C71.0108 41.293 71.1479 42.2593 71.187 42.5727C71.6049 45.9091 72.1011 53.7115 72.1011 53.7115C72.1011 53.7115 71.4809 53.7703 71.2458 53.5222L19.0512 48.2205Z" fill="#FCC21B"/>
<path d="M37.2284 41.6849C37.2152 42.6086 36.8356 43.4893 36.1733 44.1333C35.5109 44.7773 34.6199 45.132 33.6961 45.1192C31.77 45.0866 30.2291 43.513 30.2552 41.5869C30.2813 39.6608 31.8679 38.1264 33.794 38.1526C35.7136 38.1852 37.2545 39.7653 37.2284 41.6849ZM46.3824 39.6543C45.9248 39.6475 45.4704 39.7309 45.0452 39.8999C44.6199 40.0689 44.2322 40.32 43.9041 40.639C43.576 40.958 43.314 41.3385 43.1332 41.7589C42.9523 42.1792 42.8561 42.6311 42.8501 43.0886C42.8428 43.546 42.926 44.0003 43.0949 44.4253C43.2638 44.8504 43.5151 45.2379 43.8342 45.5656C44.1534 45.8932 44.5342 46.1545 44.9547 46.3345C45.3752 46.5145 45.8271 46.6097 46.2845 46.6144C48.2106 46.6405 49.7906 45.1062 49.8102 43.1801C49.8429 41.2605 48.302 39.6804 46.3824 39.6543ZM58.9642 41.1625C58.5072 41.1564 58.0534 41.2404 57.6288 41.4097C57.2042 41.579 56.8172 41.8303 56.4898 42.1492C56.1623 42.4681 55.901 42.8485 55.7206 43.2685C55.5402 43.6884 55.4443 44.1398 55.4384 44.5969C55.4315 45.0539 55.5147 45.5078 55.6832 45.9327C55.8518 46.3576 56.1023 46.7451 56.4207 47.0731C56.739 47.4011 57.1188 47.6632 57.5384 47.8444C57.958 48.0256 58.4092 48.1224 58.8663 48.1292C60.7924 48.1553 62.379 46.6144 62.4116 44.6948C62.4377 42.7622 60.8903 41.1886 58.9642 41.1625Z" fill="white"/>
<path d="M9.92964 63.094C10.5891 64.6218 12.3389 67.2335 11.8035 68.9703C11.4052 70.2631 10.4585 70.7397 9.70111 71.3991H75.026C75.0456 69.5514 75.2153 67.5338 75.2741 67.3249C76.2339 63.5575 80.7782 58.2819 79.6813 54.4036C79.3418 53.2283 78.2318 52.8496 77.0174 52.6799C76.1164 52.5558 58.9967 50.2575 53.7407 49.6046C45.5792 48.586 37.372 47.8809 29.23 46.6207C25.9393 46.1115 19.0967 45.1712 13.3771 44.5249C10.354 44.1853 6.56709 43.8785 3.90316 43.6565C2.78667 43.5651 1.61794 43.6108 0.912781 44.2376C-0.686879 45.674 0.893193 48.8146 1.80075 50.2118C2.55162 51.3805 3.2176 52.5623 4.02722 53.6854C6.18186 56.7149 8.41486 59.6139 9.92964 63.094Z" fill="#006CA2"/>
<path d="M80.3342 69.3359H4.56256C3.41995 69.3359 2.50586 70.2566 2.50586 71.3926C2.50586 71.9381 2.72255 72.4612 3.10825 72.847C3.49396 73.2327 4.01709 73.4493 4.56256 73.4493H16.0932C16.4196 73.4559 16.5894 73.5277 16.8767 73.6126C17.053 73.6583 17.1966 73.5995 17.3468 73.7301C17.7712 74.1219 17.0856 75.0098 17.0856 75.5126C17.0856 76.0581 17.3023 76.5812 17.688 76.9669C18.0737 77.3526 18.5968 77.5693 19.1423 77.5693H26.1155C27.2124 77.5693 28.8578 77.5954 28.9362 78.9992C29.0014 80.194 29.6544 81.2779 30.9929 81.2779H56.7833C57.3288 81.2779 57.8519 81.0612 58.2376 80.6755C58.6233 80.2898 58.84 79.7667 58.84 79.2212C58.84 77.4844 60.0218 77.5758 61.4386 77.5758H68.6404C69.1858 77.5758 69.709 77.3591 70.0947 76.9734C70.4804 76.5877 70.6971 76.0646 70.6971 75.5191C70.6971 74.8662 70.0115 74.3308 70.6709 73.8738C71.141 73.5408 71.8462 73.4624 72.4142 73.4624H80.3342C80.8797 73.4624 81.4028 73.2457 81.7885 72.86C82.1742 72.4743 82.3909 71.9512 82.3909 71.4057C82.3909 70.2566 81.4703 69.3359 80.3342 69.3359Z" fill="#40C0E7"/>
</svg>
