<svg width="305" height="250" viewBox="0 0 305 250" fill="none" xmlns="http://www.w3.org/2000/svg">
<circle cx="141" cy="103" r="103" fill="white"/>
<path d="M24.0642 182C13.1769 182 6.12515 186.343 0.588809 194.089C-0.415506 195.495 -0.105877 197.421 1.29509 198.455L7.17912 202.8C8.594 203.844 10.6071 203.6 11.7148 202.249C15.1315 198.081 17.666 195.681 23.0029 195.681C27.1991 195.681 32.3894 198.311 32.3894 202.273C32.3894 205.268 29.8501 206.806 25.7068 209.068C20.8751 211.706 14.4812 214.988 14.4812 223.2V224.5C14.4812 226.26 15.9468 227.688 17.7548 227.688H27.6398C29.4478 227.688 30.9134 226.26 30.9134 224.5V223.733C30.9134 218.041 48 217.804 48 202.4C48.0001 190.8 35.642 182 24.0642 182ZM22.6974 231.6C17.4874 231.6 13.2488 235.727 13.2488 240.8C13.2488 245.873 17.4874 250 22.6974 250C27.9073 250 32.1459 245.873 32.1459 240.8C32.1459 235.727 27.9073 231.6 22.6974 231.6Z" fill="#E5F2FF"/>
<path d="M277.075 28C264.373 28 256.146 32.9821 249.687 41.8672C248.515 43.479 248.876 45.6889 250.511 46.8754L257.376 51.8584C259.026 53.0566 261.375 52.7764 262.667 51.2265C266.653 46.4458 269.61 43.6932 275.837 43.6932C280.732 43.6932 286.788 46.7095 286.788 51.2542C286.788 54.6899 283.825 56.4543 278.991 59.0487C273.354 62.0743 265.895 65.8396 265.895 75.2589V76.75C265.895 78.7693 267.605 80.4062 269.714 80.4062H281.246C283.356 80.4062 285.066 78.7693 285.066 76.75V75.8705C285.066 69.3411 305 69.0691 305 51.4C305 38.0937 290.582 28 277.075 28ZM275.48 84.8941C269.402 84.8941 264.457 89.6282 264.457 95.4472C264.457 101.266 269.402 106 275.48 106C281.559 106 286.504 101.266 286.504 95.447C286.504 89.6281 281.559 84.8941 275.48 84.8941Z" fill="#E5F2FF"/>
<path d="M25.0348 16C19.1375 16 15.3178 18.2994 12.3189 22.4003C11.7749 23.1442 11.9426 24.1641 12.7015 24.7117L15.8887 27.0116C16.6551 27.5646 17.7455 27.4353 18.3455 26.7199C20.1962 24.5134 21.5691 23.243 24.4599 23.243C26.7329 23.243 29.5443 24.6351 29.5443 26.7327C29.5443 28.3184 28.1688 29.1328 25.9245 30.3302C23.3073 31.7266 19.844 33.4644 19.844 37.8118V38.5C19.844 39.432 20.6378 40.1875 21.6172 40.1875H26.9716C27.9509 40.1875 28.7448 39.432 28.7448 38.5V38.0941C28.7448 35.0805 38 34.955 38 26.8C38.0001 20.6586 31.3061 16 25.0348 16ZM24.2944 42.2588C21.4724 42.2588 19.1764 44.4438 19.1764 47.1295C19.1764 49.815 21.4724 52 24.2944 52C27.1165 52 29.4124 49.815 29.4124 47.1294C29.4124 44.4437 27.1165 42.2588 24.2944 42.2588Z" fill="#E5F2FF"/>
<path d="M141.198 37C107.629 37 85.8859 50.2856 68.8155 73.9793C65.7189 78.2774 66.6735 84.1705 70.9932 87.3344L89.1356 100.622C93.4982 103.818 99.7053 103.07 103.121 98.9373C113.656 86.1887 121.47 78.8486 137.926 78.8486C150.864 78.8486 166.867 86.892 166.867 99.0112C166.867 108.173 159.038 112.878 146.263 119.797C131.365 127.865 111.65 137.906 111.65 163.024V167C111.65 172.385 116.169 176.75 121.744 176.75H152.223C157.797 176.75 162.316 172.385 162.316 167V164.655C162.316 147.243 215 146.518 215 99.4C215 63.9165 176.896 37 141.198 37ZM136.984 188.718C120.92 188.718 107.85 201.342 107.85 216.859C107.85 232.376 120.92 245 136.984 245C153.048 245 166.117 232.376 166.117 216.859C166.117 201.342 153.048 188.718 136.984 188.718Z" fill="#FFCE31"/>
</svg>
