<svg width="233" height="262" viewBox="0 0 233 262" fill="none" xmlns="http://www.w3.org/2000/svg">
<path d="M231.712 201.029C229.214 206.201 218.762 205.872 212.999 204.053C198.273 199.408 189.114 186.742 189.114 186.742L113.207 154.53L89.9571 142.324C89.9571 142.324 85.4431 134.655 94.4712 128.804C103.499 122.953 109.832 122.515 109.832 122.515L135.996 139.169C135.996 139.169 152.891 126.021 170.049 124.027C186.44 122.142 206.841 135.466 212.21 160.622C216.571 181.023 223.473 188.21 225.555 190.862C227.637 193.535 233.86 196.603 231.712 201.029Z" fill="#FF8E00"/>
<path d="M140.774 63.0433C134.046 40.7797 125.544 14.7251 112.703 5.8065C101.33 -2.08219 90.2643 -0.65784 85.0051 2.7825C85.0051 2.7825 75.5168 6.66111 73.0187 16.4562C68.8991 32.5404 74.3116 51.8458 77.8396 71.7866C81.3676 91.7275 83.2083 105.445 84.8079 121.463C84.9613 122.91 111.454 170.067 111.454 170.067L132.6 181.396C132.6 181.396 148.75 146.466 148.509 141.536C148.29 136.583 145.682 79.3028 140.774 63.0433Z" fill="#FFE4B4"/>
<path d="M85.6183 139.279C85.3335 144.604 98.1745 187.049 98.1745 187.049L132.622 181.352C132.622 181.352 157.055 166.889 157.734 140.659C158.786 101.106 152.015 82.4803 147.106 66.2208C140.357 44.001 125.325 14.7252 112.593 5.65324C105.121 0.328373 96.8378 -0.460495 93.4413 0.196895C93.4413 0.196895 116.056 17.9026 127.494 48.1864C138.933 78.4702 141.628 113.465 141.628 113.465C141.628 113.465 133.213 119.667 113.36 122.515C98.0211 124.729 84.7856 120.981 84.7856 120.981C84.7856 120.981 85.9909 132.53 85.6183 139.279Z" fill="#FFE265"/>
<path d="M157.449 176.115L143.666 147.321L144.411 137.066C144.411 137.066 147.347 128.454 129.006 142.369C120.504 148.811 115.376 160.688 115.376 160.688C115.376 160.688 112.791 154.289 103.719 145.831C95.6547 138.337 84.8077 134.699 84.8077 134.699C84.8077 134.699 62.2811 130.316 59.8269 132.223C43.9399 144.626 32.326 159.724 32.326 159.724L20.6464 203.878L1.23145 215.777C1.23145 215.777 6.53439 223.534 14.204 220.642C20.1862 218.385 27.5928 211.614 31.581 203.09C37.0592 191.366 48.5636 169.19 54.4143 162.178C65.7215 148.68 76.8094 143.749 85.0707 147.672C94.4713 152.12 86.9552 196.516 86.9552 196.516L26.5191 247.376L25.4892 254.3C25.4892 254.3 34.2763 262.737 58.4902 261.948C82.7041 261.159 115.091 252.197 135.58 224.258C153.658 199.627 157.449 176.115 157.449 176.115Z" fill="#FFA726"/>
<path d="M109.789 178.766C110.315 190.927 102.733 209.356 85.2022 224.717C67.6937 240.078 49.1991 245.162 37.7167 246.039C29.3897 246.674 26.9136 241.919 26.9136 241.919C26.9136 241.919 43.6989 226.47 56.1675 214.09C68.0005 202.322 80.8853 177.604 83.6902 166.232C86.4951 154.859 83.9532 147.211 83.9532 147.211C83.9532 147.211 89.3876 148.723 97.3858 156.743C105.143 164.522 109.504 172.017 109.789 178.766Z" fill="#FFB803"/>
<path d="M34.9995 252.788C33.1808 257.017 26.9355 257.193 24.2183 254.848C21.6545 252.635 19.1564 248.23 21.7422 243.3C23.4514 240.057 29.0611 239.158 32.2166 241.678C35.3721 244.198 36.643 248.953 34.9995 252.788Z" fill="#875B54"/>
<path d="M22.5307 206.99C15.3432 216.96 8.13381 218.472 5.15364 218.801C2.54599 219.108 -0.302699 215.777 0.0259962 212.709C0.354692 209.641 5.39469 205.325 6.00825 195.902C6.62181 186.479 5.87677 151.923 25.0507 132.069C38.571 118.089 55.1372 122.91 65.8308 126.613C77.883 130.776 84.8294 134.721 84.8294 134.721C84.8294 134.721 74.9685 134.041 57.964 147.452C48.0813 155.253 42.2743 165.969 36.796 178.262C32.8517 187.159 27.5926 199.978 22.5307 206.99Z" fill="#FEE4B4"/>
<path d="M213.7 232.715C211.684 236.747 206.753 239.245 202.393 239.048C193.167 238.654 184.753 233.898 175.44 221.89C162.27 204.886 150.81 164.084 142.22 153.215C136.413 145.874 129.181 142.236 129.181 142.236C129.181 142.236 133.17 138.862 137.158 136.78C141.146 134.698 150.788 135.684 150.788 135.684L191.94 201.818L213.7 232.715Z" fill="#FEB804"/>
<path d="M190.45 142.609C199.478 155.516 200.662 166.845 202.02 178.415C203.247 188.868 205.767 210.847 209.558 218.012C213.371 225.178 217.075 229.845 212.977 234.206C208.879 238.566 196.827 237.011 188.171 227.588C181.203 219.984 177.346 211.701 172.109 199.539C166.872 187.378 159.158 158.672 149.144 145.699C142.746 137.416 136.369 137.175 136.369 137.175C136.369 137.175 144.805 130.294 160.911 130.119C175.352 129.966 182.934 131.872 190.45 142.609Z" fill="#FFE4B4"/>
</svg>
