<svg width="265" height="265" viewBox="0 0 265 265" fill="none" xmlns="http://www.w3.org/2000/svg">
<path d="M5.2052 15.5825H259.451V186.535H5.2052V15.5825Z" fill="url(#paint0_linear_544_7196)"/>
<path d="M254.246 20.7878V181.354H10.3868V20.7878H254.246ZM264.633 10.401H0V191.741H264.633V10.401Z" fill="url(#paint1_linear_544_7196)"/>
<path d="M209.281 167.636C206.525 162.63 210.031 157.536 216.029 151.229C225.534 141.217 235.877 117.996 226.262 94.4214C226.328 94.289 224.365 90.3195 224.432 90.1872L220.484 89.9888C219.227 89.8123 175.805 89.7241 132.339 89.7241C88.8734 89.7241 45.4516 89.8123 44.1946 89.9888C44.1946 89.9888 38.3506 94.289 38.3947 94.4214C28.8018 117.996 39.1225 141.195 48.6272 151.229C54.6035 157.536 58.1099 162.63 55.3753 167.636C52.707 172.51 44.768 173.216 44.768 173.216C44.768 173.216 46.5984 178.2 51.0089 180.89C55.0887 183.382 60.1167 183.955 63.579 184.044C63.579 184.044 77.1414 202.811 112.602 202.811H152.077C187.537 202.811 201.1 184.044 201.1 184.044C204.562 183.955 209.59 183.382 213.67 180.89C218.08 178.2 219.911 173.216 219.911 173.216C219.911 173.216 211.95 172.51 209.281 167.636Z" fill="#312D2D"/>
<path d="M132.295 202.789V181.971L195.3 176.988L201.033 184.044C201.033 184.044 187.471 202.811 152.01 202.811L132.295 202.789Z" fill="url(#paint2_radial_544_7196)"/>
<path d="M200.901 174.936C191.462 160.602 212.39 155.243 212.39 155.243L212.412 155.265C208.773 159.786 207.119 163.733 209.259 167.637C211.927 172.51 219.866 173.216 219.866 173.216C219.866 173.216 209.038 182.831 200.901 174.936Z" fill="url(#paint3_radial_544_7196)"/>
<path d="M226.305 94.4225C235.677 117.247 225.819 140.755 216.579 150.679C215.322 152.046 209.941 157.317 208.707 161.529C208.707 161.529 187.668 132.177 181.383 114.932C180.126 111.447 178.957 107.875 178.803 104.17C178.693 101.391 179.112 98.0832 180.722 95.7236C182.684 92.8347 225.18 91.9746 225.18 91.9746C225.18 91.9967 226.305 94.4225 226.305 94.4225Z" fill="url(#paint4_radial_544_7196)"/>
<path d="M38.3709 94.4219C29.0205 117.247 38.8781 140.755 48.0961 150.656C49.3752 152.024 54.734 157.294 55.969 161.506C55.969 161.506 77.0073 132.154 83.2923 114.909C84.5714 111.425 85.7181 107.852 85.8725 104.147C85.9827 101.369 85.5637 98.0606 83.9539 95.701C81.9912 92.8121 79.6977 93.5839 76.3677 93.5839C70.0165 93.5839 42.2081 91.952 40.0469 91.952C40.0689 91.9961 38.3709 94.4219 38.3709 94.4219Z" fill="url(#paint5_radial_544_7196)"/>
<path d="M132.383 202.789V181.971L69.3787 176.988L63.645 184.044C63.645 184.044 77.2074 202.811 112.668 202.811L132.383 202.789Z" fill="url(#paint6_radial_544_7196)"/>
<path d="M63.7772 174.936C73.2157 160.602 52.2877 155.243 52.2877 155.243L52.2657 155.265C55.9044 159.786 57.5583 163.733 55.4192 167.637C52.7508 172.51 44.8118 173.216 44.8118 173.216C44.8118 173.216 55.6397 182.831 63.7772 174.936Z" fill="url(#paint7_radial_544_7196)"/>
<path d="M243.683 257.832C243.683 223.717 187.801 205.876 132.625 205.876H132.316C76.8758 205.942 20.9501 222.019 20.9501 257.832V265H243.683V257.832Z" fill="url(#paint8_linear_544_7196)"/>
<path d="M132.316 195.159H112.292V217.168L132.272 222.416L152.34 217.168V195.159H132.316Z" fill="#EDC391"/>
<path d="M17.6422 257.833V265H90.1736L93.1067 205.369C51.8681 211.456 17.6422 227.841 17.6422 257.833Z" fill="url(#paint9_linear_544_7196)"/>
<path d="M171.527 205.369L174.438 265H246.991V257.833C246.991 227.841 212.765 211.456 171.527 205.369Z" fill="url(#paint10_linear_544_7196)"/>
<path d="M110.33 194.696L132.361 222.967L96.5471 237.61L91.2324 205.546L110.33 194.696Z" fill="#66C0E8"/>
<path d="M154.304 194.696L132.273 222.967L168.087 237.61L173.402 205.546L154.304 194.696Z" fill="#66C0E8"/>
<path d="M98.9732 201.046C98.9732 201.046 96.4592 207.045 94.695 214.278C91.1886 228.656 90.9681 249.121 90.9681 249.121C90.9681 249.121 75.7737 243.961 71.0324 231.369C65.431 216.483 74.8916 208.302 74.8916 208.302C74.8916 208.302 76.8764 207.464 85.2123 202.877C93.5482 198.29 98.9732 201.046 98.9732 201.046ZM165.661 201.046C165.661 201.046 168.175 207.045 169.939 214.278C173.445 228.656 173.666 249.121 173.666 249.121C173.666 249.121 188.86 243.961 193.601 231.369C199.203 216.483 189.742 208.302 189.742 208.302C189.742 208.302 187.758 207.464 179.422 202.877C171.086 198.29 165.661 201.046 165.661 201.046Z" fill="#AF5214"/>
<path d="M192.123 102.758H71.6047C58.6156 102.758 47.9862 114.093 47.9862 127.92C47.9862 141.747 58.6156 153.082 71.6047 153.082H192.123C205.112 153.082 215.741 141.747 215.741 127.92C215.741 114.093 205.112 102.758 192.123 102.758Z" fill="#EDC391"/>
<path d="M131.852 15.9584C93.4805 15.9584 57.9315 56.9985 57.9315 116.078C57.9315 174.826 94.5611 203.87 131.852 203.87C169.143 203.87 205.773 174.804 205.773 116.056C205.773 56.9985 170.246 15.9584 131.852 15.9584Z" fill="#F9DDBD"/>
<path d="M96.9877 132.485C102.992 132.485 107.86 127.449 107.86 121.238C107.86 115.026 102.992 109.991 96.9877 109.991C90.9833 109.991 86.1157 115.026 86.1157 121.238C86.1157 127.449 90.9833 132.485 96.9877 132.485Z" fill="#312D2D"/>
<path d="M165.683 132.485C171.687 132.485 176.555 127.449 176.555 121.238C176.555 115.026 171.687 109.991 165.683 109.991C159.678 109.991 154.811 115.026 154.811 121.238C154.811 127.449 159.678 132.485 165.683 132.485Z" fill="#312D2D"/>
<path d="M113.285 101.412C111.234 98.6997 106.515 94.7743 97.3409 94.7743C88.1669 94.7743 83.4256 98.7217 81.3968 101.412C80.4926 102.603 80.7131 103.992 81.3527 104.83C81.926 105.602 83.6461 106.33 85.5427 105.69C87.4392 105.051 91.1441 103.132 97.3409 103.088C103.538 103.132 107.243 105.051 109.139 105.69C111.036 106.33 112.756 105.624 113.329 104.83C113.947 103.992 114.189 102.603 113.285 101.412ZM181.626 101.412C179.576 98.6997 174.856 94.7743 165.682 94.7743C156.508 94.7743 151.767 98.7217 149.738 101.412C148.834 102.603 149.055 103.992 149.694 104.83C150.267 105.602 151.988 106.33 153.884 105.69C155.781 105.051 159.485 103.132 165.682 103.088C171.879 103.132 175.584 105.051 177.481 105.69C179.377 106.33 181.097 105.624 181.671 104.83C182.31 103.992 182.531 102.603 181.626 101.412Z" fill="#454140"/>
<path d="M140.365 141.637C140.122 141.548 139.902 141.482 139.659 141.46H124.046C123.803 141.482 123.561 141.548 123.34 141.637C121.929 142.21 121.157 143.665 121.818 145.231C122.48 146.797 125.589 151.163 131.852 151.163C138.115 151.163 141.225 146.775 141.886 145.231C142.57 143.665 141.776 142.21 140.365 141.637Z" fill="#DBA689"/>
<path d="M150.665 159.455C143.652 163.623 120.607 163.623 113.594 159.455C109.559 157.051 105.435 160.734 107.111 164.395C108.765 167.989 121.313 176.347 132.185 176.347C143.057 176.347 155.45 167.989 157.104 164.395C158.78 160.734 154.701 157.051 150.665 159.455Z" fill="#444444"/>
<path d="M198.099 108.271C197.944 105.647 197.834 105.382 194.372 104.279C191.659 103.419 176.84 102.207 165.681 102.824C164.887 102.868 164.115 102.912 163.388 102.978C153.265 103.838 141.114 107.918 131.985 108.139C128.103 108.227 112.115 104.037 100.802 103.155C100.074 103.111 99.3465 103.045 98.5967 103.022C87.416 102.449 72.5304 103.75 69.8179 104.632C66.3556 105.757 66.2454 106.022 66.1131 108.646C65.9587 111.27 66.3998 113.498 68.4507 114.181C71.2514 115.107 71.2734 118.592 73.1479 128.604C74.8459 137.733 78.9257 144.945 96.4576 146.202C97.2074 146.246 97.9131 146.29 98.6188 146.29C114.122 146.51 119.459 136.3 121.223 132.904C124.509 126.597 123.472 117.908 132.161 117.886C140.828 117.864 140.012 126.398 143.342 132.683C145.128 136.057 150.332 146.312 165.703 146.091C166.453 146.091 167.225 146.047 168.019 145.981C185.529 144.614 189.586 137.381 191.218 128.251C193.027 118.217 193.049 114.71 195.827 113.784C197.834 113.123 198.275 110.895 198.099 108.271ZM108.675 141.879C105.984 143.136 102.39 143.776 98.5967 143.776C90.6798 143.754 81.9028 140.975 78.7272 135.374C74.2285 127.391 73.0597 111.248 78.7934 107.874C81.3074 106.397 89.7977 105.382 98.5747 105.757C107.682 106.154 117.099 108.05 120.495 112.505C126.119 119.849 117.187 137.866 108.675 141.879ZM185.639 135.043C182.485 140.689 173.642 143.533 165.681 143.555C161.932 143.577 158.382 142.96 155.735 141.725C147.201 137.756 138.159 119.805 143.717 112.417C147.091 107.918 156.551 105.978 165.681 105.536C174.436 105.117 182.904 106.088 185.396 107.543C191.152 110.895 190.094 127.038 185.639 135.043Z" fill="#212121" stroke="#212121" stroke-width="0.55" stroke-miterlimit="10"/>
<path opacity="0.67" d="M215.388 259.729L216.645 254.877L216.667 254.767L220.924 238.007L205.707 233.64L128.699 211.522C128.589 211.5 128.501 211.5 128.412 211.455C124.969 210.549 121.307 211.027 118.212 212.787C115.116 214.547 112.833 217.449 111.851 220.872L99.1705 264.999H213.889L215.388 259.729Z" fill="url(#paint11_linear_544_7196)"/>
<path d="M224.387 238.272C225.026 236.045 223.747 233.729 221.52 233.112L136.198 208.633C132.721 207.639 128.991 208.066 125.828 209.819C122.665 211.572 120.327 214.508 119.327 217.984L105.853 265H216.734L224.387 238.272Z" fill="#424242"/>
<path d="M222.909 256.863C223.681 254.172 222.071 251.349 219.336 250.578L127.774 224.335C117.784 221.468 116.041 229.517 113.241 239.287L105.853 265H220.571L222.909 256.863Z" fill="url(#paint12_linear_544_7196)"/>
<path d="M130.684 208.192C128.05 208.533 125.573 209.638 123.559 211.37C121.545 213.102 120.081 215.386 119.349 217.939L105.853 265H114.387L130.684 208.192Z" fill="url(#paint13_linear_544_7196)"/>
<path opacity="0.2" d="M133.045 215.535C133.442 215.535 133.883 215.58 134.346 215.69L216.492 239.286L215.809 241.668C189.808 234.413 140.19 220.453 129.935 217.057C130.465 216.329 131.501 215.535 133.045 215.535ZM133.045 208.192C123.077 208.192 118.093 220.475 126.164 223.496C135.052 226.804 220.837 250.665 220.837 250.665L224.321 238.492C225.005 236.155 223.902 233.773 221.873 233.2L136.22 208.589C135.118 208.324 134.059 208.192 133.045 208.192Z" fill="#424242"/>
<path d="M219.138 238.801L131.368 213.617C128.986 212.933 126.384 214.631 125.59 217.388L125.458 217.873C124.664 220.629 125.965 223.452 128.347 224.136L216.116 249.32C216.116 249.32 215.367 247.49 216.271 244.248C217.175 240.984 219.138 238.801 219.138 238.801Z" fill="url(#paint14_linear_544_7196)"/>
<path d="M220.682 46.9203C215.301 38.7828 203.238 27.8667 192.41 27.139C190.668 16.7301 179.531 7.90899 168.748 4.49082C139.572 -4.74928 120.585 5.6155 110.396 11.1728C108.279 12.3195 94.5844 19.9277 85.0135 14.4807C79.0151 11.0625 79.1254 1.82244 79.1254 1.82244C79.1254 1.82244 60.3365 8.98957 66.7538 28.9473C60.2924 29.2119 51.8241 31.9465 47.3474 41.0101C42.0106 51.816 43.9072 60.8356 45.4509 65.1579C39.8936 69.8772 32.9029 79.9112 37.6883 92.9443C41.305 102.758 55.7054 107.279 55.7054 107.279C54.691 124.943 57.9768 135.815 59.719 140.203C60.0277 140.975 61.1083 140.909 61.3068 140.115C63.49 131.36 70.9438 100.861 70.194 95.5466C70.194 95.5466 95.2239 90.5847 119.085 73.0087C123.937 69.4361 129.207 66.3928 134.809 64.1655C164.778 52.235 171.041 72.5897 171.041 72.5897C171.041 72.5897 191.815 68.5981 198.078 97.4431C200.437 108.249 202.025 125.56 203.37 137.667C203.459 138.527 204.627 138.704 204.958 137.91C207.053 133.102 211.243 123.576 212.236 113.85C212.589 110.432 221.807 105.911 225.776 91.2242C231.091 71.6414 224.585 52.8084 220.682 46.9203Z" fill="#312D2D"/>
<path d="M212.19 113.938C212.543 110.52 221.761 105.999 225.731 91.3123C226.15 89.7465 226.503 88.1587 226.833 86.571C230.053 68.7303 224.275 52.3451 220.681 46.9201C215.697 39.4002 205.023 29.5205 194.901 27.4917C194.019 27.3814 193.159 27.2712 192.343 27.2271C192.343 27.2271 193.071 31.9684 191.152 35.7394C188.682 40.6351 183.632 41.8039 183.632 41.8039C210.029 68.2231 208.155 90.3199 212.19 113.938Z" fill="url(#paint15_radial_544_7196)"/>
<path d="M116.769 7.84262C114.343 9.01142 112.226 10.1802 110.373 11.1726C108.256 12.3193 94.5616 19.9275 84.9908 14.4805C79.1027 11.1285 79.1027 2.17507 79.1027 1.86633C76.3902 5.32861 68.1866 30.0497 92.1799 31.7037C102.523 32.4094 108.896 23.3898 112.689 15.7596C114.056 12.9809 116.195 8.92321 116.769 7.84262Z" fill="url(#paint16_radial_544_7196)"/>
<path d="M165.749 3.60878C181.892 7.97522 189.765 16.2009 192.389 27.1611C193.161 30.3808 194.087 60.4166 136.75 26.279C115.425 13.5766 121.247 5.63763 123.739 4.73347C133.486 1.20503 147.666 -1.28693 165.749 3.60878Z" fill="url(#paint17_radial_544_7196)"/>
<path d="M79.0377 1.86637C79.0156 1.88842 78.9715 1.88842 78.9053 1.93253H78.8833C76.8324 2.79259 60.7118 10.2685 66.7322 28.9471L83.8893 31.7037C68.6949 16.3109 79.1038 1.82227 79.1038 1.82227C79.1038 1.82227 79.0597 1.84432 79.0377 1.86637Z" fill="url(#paint18_radial_544_7196)"/>
<path d="M77.3391 30.6458L66.7317 28.9478C66.3127 28.9478 64.9013 29.0801 64.1295 29.1903C58.1532 30.0283 51.1184 33.1157 47.3033 41.0106C43.2015 49.523 43.3117 56.8224 44.4364 61.6961C44.7672 63.328 45.4288 65.1804 45.4288 65.1804C45.4288 65.1804 50.6773 60.1965 63.1812 59.8657L77.3391 30.6458Z" fill="url(#paint19_radial_544_7196)"/>
<path d="M44.9217 65.5983C39.6952 70.2294 32.6604 80.5721 37.8428 93.4068C41.7461 103.088 55.6834 107.278 55.6834 107.278C55.6834 107.322 58.4621 108.16 59.8955 108.16L63.1593 59.8646C56.4773 59.8646 50.06 61.8714 45.9141 64.7603C45.9802 64.8265 44.8996 65.5322 44.9217 65.5983Z" fill="url(#paint20_radial_544_7196)"/>
<defs>
<linearGradient id="paint0_linear_544_7196" x1="132.315" y1="16.6741" x2="132.315" y2="186.687" gradientUnits="userSpaceOnUse">
<stop stop-color="#26A69A"/>
<stop offset="1" stop-color="#00796B"/>
</linearGradient>
<linearGradient id="paint1_linear_544_7196" x1="132.314" y1="10.39" x2="132.314" y2="191.732" gradientUnits="userSpaceOnUse">
<stop stop-color="#8D6E63"/>
<stop offset="0.779" stop-color="#795548"/>
</linearGradient>
<radialGradient id="paint2_radial_544_7196" cx="0" cy="0" r="1" gradientUnits="userSpaceOnUse" gradientTransform="translate(164.476 172.71) scale(51.6453 25.3682)">
<stop offset="0.728" stop-color="#454140" stop-opacity="0"/>
<stop offset="1" stop-color="#454140"/>
</radialGradient>
<radialGradient id="paint3_radial_544_7196" cx="0" cy="0" r="1" gradientUnits="userSpaceOnUse" gradientTransform="translate(215.347 165.025) rotate(154.924) scale(15.2619 11.3222)">
<stop offset="0.663" stop-color="#454140"/>
<stop offset="1" stop-color="#454140" stop-opacity="0"/>
</radialGradient>
<radialGradient id="paint4_radial_544_7196" cx="0" cy="0" r="1" gradientUnits="userSpaceOnUse" gradientTransform="translate(175.792 121.859) rotate(-94.2783) scale(67.0372 55.8712)">
<stop offset="0.725" stop-color="#454140" stop-opacity="0"/>
<stop offset="1" stop-color="#454140"/>
</radialGradient>
<radialGradient id="paint5_radial_544_7196" cx="0" cy="0" r="1" gradientUnits="userSpaceOnUse" gradientTransform="translate(88.8902 121.857) rotate(-85.7217) scale(67.0372 55.8712)">
<stop offset="0.725" stop-color="#454140" stop-opacity="0"/>
<stop offset="1" stop-color="#454140"/>
</radialGradient>
<radialGradient id="paint6_radial_544_7196" cx="0" cy="0" r="1" gradientUnits="userSpaceOnUse" gradientTransform="translate(100.206 172.71) rotate(180) scale(51.6453 25.3682)">
<stop offset="0.728" stop-color="#454140" stop-opacity="0"/>
<stop offset="1" stop-color="#454140"/>
</radialGradient>
<radialGradient id="paint7_radial_544_7196" cx="0" cy="0" r="1" gradientUnits="userSpaceOnUse" gradientTransform="translate(49.3391 165.026) rotate(25.0761) scale(15.2619 11.3222)">
<stop offset="0.663" stop-color="#454140"/>
<stop offset="1" stop-color="#454140" stop-opacity="0"/>
</radialGradient>
<linearGradient id="paint8_linear_544_7196" x1="132.316" y1="216.686" x2="132.316" y2="249.699" gradientUnits="userSpaceOnUse">
<stop stop-color="#E1F5FE"/>
<stop offset="1" stop-color="#81D4FA"/>
</linearGradient>
<linearGradient id="paint9_linear_544_7196" x1="55.3811" y1="209.524" x2="55.3811" y2="262.861" gradientUnits="userSpaceOnUse">
<stop stop-color="#FFA000"/>
<stop offset="0.341" stop-color="#FF9300"/>
<stop offset="0.972" stop-color="#FF7100"/>
<stop offset="1" stop-color="#FF6F00"/>
</linearGradient>
<linearGradient id="paint10_linear_544_7196" x1="209.255" y1="208.909" x2="209.255" y2="263.22" gradientUnits="userSpaceOnUse">
<stop stop-color="#FFA000"/>
<stop offset="0.341" stop-color="#FF9300"/>
<stop offset="0.972" stop-color="#FF7100"/>
<stop offset="1" stop-color="#FF6F00"/>
</linearGradient>
<linearGradient id="paint11_linear_544_7196" x1="166.65" y1="223.732" x2="160.865" y2="248.089" gradientUnits="userSpaceOnUse">
<stop offset="0.002" stop-color="#212121" stop-opacity="0.2"/>
<stop offset="1" stop-color="#212121" stop-opacity="0.6"/>
</linearGradient>
<linearGradient id="paint12_linear_544_7196" x1="171.658" y1="236.115" x2="167.312" y2="250.697" gradientUnits="userSpaceOnUse">
<stop stop-color="#EF5350"/>
<stop offset="1" stop-color="#E53935"/>
</linearGradient>
<linearGradient id="paint13_linear_544_7196" x1="119.978" y1="231.671" x2="124.086" y2="218.757" gradientUnits="userSpaceOnUse">
<stop stop-color="#212121"/>
<stop offset="1" stop-color="#424242"/>
</linearGradient>
<linearGradient id="paint14_linear_544_7196" x1="125.532" y1="217.625" x2="217.622" y2="244.052" gradientUnits="userSpaceOnUse">
<stop offset="0.01" stop-color="#BDBDBD"/>
<stop offset="0.987" stop-color="#F8F8F7"/>
</linearGradient>
<radialGradient id="paint15_radial_544_7196" cx="0" cy="0" r="1" gradientUnits="userSpaceOnUse" gradientTransform="translate(172.048 86.4858) rotate(72.0851) scale(78.5793 58.3039)">
<stop offset="0.699" stop-color="#454140" stop-opacity="0"/>
<stop offset="1" stop-color="#454140"/>
</radialGradient>
<radialGradient id="paint16_radial_544_7196" cx="0" cy="0" r="1" gradientUnits="userSpaceOnUse" gradientTransform="translate(95.446 0.811172) rotate(28.2026) scale(20.6043 24.4307)">
<stop offset="0.58" stop-color="#454140"/>
<stop offset="1" stop-color="#454140" stop-opacity="0"/>
</radialGradient>
<radialGradient id="paint17_radial_544_7196" cx="0" cy="0" r="1" gradientUnits="userSpaceOnUse" gradientTransform="translate(141.495 38.23) rotate(-157.19) scale(64.4371 36.2139)">
<stop offset="0.699" stop-color="#454140" stop-opacity="0"/>
<stop offset="1" stop-color="#454140"/>
</radialGradient>
<radialGradient id="paint18_radial_544_7196" cx="0" cy="0" r="1" gradientUnits="userSpaceOnUse" gradientTransform="translate(87.1729 19.6075) scale(18.9102 23.1329)">
<stop offset="0.702" stop-color="#454140" stop-opacity="0"/>
<stop offset="1" stop-color="#454140"/>
</radialGradient>
<radialGradient id="paint19_radial_544_7196" cx="0" cy="0" r="1" gradientUnits="userSpaceOnUse" gradientTransform="translate(84.5675 52.9882) rotate(-164.942) scale(35.4687 33.1923)">
<stop offset="0.66" stop-color="#454140" stop-opacity="0"/>
<stop offset="1" stop-color="#454140"/>
</radialGradient>
<radialGradient id="paint20_radial_544_7196" cx="0" cy="0" r="1" gradientUnits="userSpaceOnUse" gradientTransform="translate(76.1622 87.234) rotate(7.83355) scale(37.2394 52.3275)">
<stop offset="0.598" stop-color="#454140" stop-opacity="0"/>
<stop offset="1" stop-color="#454140"/>
</radialGradient>
</defs>
</svg>
