<svg width="282" height="178" viewBox="0 0 282 178" fill="none" xmlns="http://www.w3.org/2000/svg">
<path d="M41.7456 114.708C40.7969 115.032 1.25426 127.133 1.25426 127.133C1.25426 127.133 -1.4066 114.846 1.02288 102.352C3.59119 89.1171 6.94619 81.2502 6.94619 81.2502C6.94619 81.2502 10.602 72.3421 21.9164 65.0305C31.4261 58.8759 53.222 52.351 58.2429 49.1579C61.5748 47.0524 67.1973 43.2578 75.7352 33.8638C84.2731 24.4698 91.0293 14.6362 106.115 7.64853C121.201 0.660883 129.068 1.74836 145.45 0.660882C161.831 -0.4266 179.532 0.0130203 192.882 0.660882C206.233 1.30874 216.691 7.4403 220.208 9.61526C223.702 11.7902 232.448 19.2406 237.03 24.0302C241.611 28.8429 247.071 36.0387 251.236 39.5557C255.378 43.0495 261.949 47.2144 267.618 50.4768C273.31 53.7624 276.804 56.5852 277.891 59.4312C278.979 62.2771 278.955 62.416 278.955 62.416L275.045 102.907L41.7456 114.708Z" fill="#F92612"/>
<path d="M1.25403 127.133C1.25403 127.133 7.24674 116.304 21.4303 104.966C33.5083 95.3179 44.3831 89.9499 61.2738 87.4742C76.1514 85.2992 105.976 85.9933 155.7 86.2247C205.423 86.433 240.801 86.5024 245.336 86.2941C249.871 86.0859 255.887 82.1987 263.036 77.6637C270.163 73.1286 273.009 79.7924 273.009 79.7924L281.014 103.347C281.014 103.347 281.315 130.511 280.806 137.082C280.459 141.432 274.536 148.975 271.505 150.27C268.474 151.566 213.776 152.422 197.579 152.422C181.359 152.422 43.1105 152.006 29.1815 150.918C22.7029 150.409 14.0493 147.031 9.93074 142.913C2.34151 135.346 1.25403 127.133 1.25403 127.133Z" fill="#D70617"/>
<path d="M10.4405 81.2038C10.4405 81.2038 28.9277 78.8901 30.2466 79.8156C31.8894 80.9725 24.6241 93.4901 22.7036 96.0121C21.755 97.2616 5.46588 105.128 5.46588 105.128L5.51216 93.814L10.4405 81.2038Z" fill="#FFFEFF"/>
<path d="M0.237253 107.905L7.41 104.157C7.41 104.157 8.68259 97.0074 9.46928 93.6061C10.7419 87.9836 13.8655 80.7415 13.8655 80.7415L6.85469 81.3893C6.85469 81.3893 4.56404 85.2996 2.45849 94.0689C0.214115 103.532 0.237253 107.905 0.237253 107.905Z" fill="#D5CCC2"/>
<path d="M67.5454 67.4833C68.0545 72.4811 73.5844 72.3654 89.3876 72.3654C101.998 72.3654 229.141 73.5454 232.172 72.2034C233.652 71.5556 235.689 68.8022 238.211 65.1464C242.005 59.6858 243.764 57.0944 243.417 55.0582C242.746 51.0785 222.084 25.0021 209.149 17.274C200.195 11.9292 180.921 11.906 164.979 11.7209C150.541 11.559 123.146 11.2119 110.05 19.611C90.5445 32.1286 66.8744 60.9353 67.5454 67.4833Z" fill="#546D81"/>
<path d="M84.6909 62.4625C85.709 63.7351 105.816 63.3649 124.511 63.2955C143.646 63.226 161.648 64.1516 162.249 63.2955C162.527 62.9021 163.476 22.3645 162.689 21.6472C162.11 21.1151 157.159 21.4853 150.865 21.5547C140.361 21.6704 125.067 23.3132 115.441 28.7043C98.8976 37.9363 82.6779 59.9405 84.6909 62.4625ZM174.212 22.3876C174.05 22.6884 173.749 63.6194 174.003 63.7814C175.345 64.6143 226.596 63.9665 227.105 63.2955C227.614 62.6245 233.144 57.2565 232.982 55.9145C232.82 54.5725 215.536 33.2162 203.666 25.974C198.46 22.7579 174.489 21.9249 174.212 22.3876Z" fill="#AFE3FB"/>
<path d="M79.6919 77.7104C81.1959 81.6901 89.1785 83.4255 94.3151 82.9627C101.904 82.2686 106.462 77.8492 107.272 68.756C108.221 58.3208 103.455 53.5313 100.146 52.9066C96.6289 52.2356 79.5531 70.3988 79.5531 70.3988C79.5531 70.3988 78.4425 74.4017 79.6919 77.7104Z" fill="#AF0F21"/>
<path d="M90.5907 75.4888C96.2132 74.8872 100.239 69.7043 102.183 65.5626C104.103 61.4209 105.538 55.1737 101.211 53.2764C95.843 50.9395 91.0071 53.6929 87.6984 57.4181C84.783 60.7037 79.1374 68.1772 79.5539 70.3753C79.9704 72.5965 82.8626 76.3218 90.5907 75.4888Z" fill="#F92612"/>
<path d="M34.7135 145.643C34.9217 158.415 45.1024 176.787 67.2685 176.925C89.4346 177.064 100.934 160.081 100.24 142.681C99.5227 125.004 85.7788 112.509 65.9959 113.065C47.4856 113.62 34.4358 127.966 34.7135 145.643Z" fill="#4E433D"/>
<path d="M50.1447 144.579C50.2603 151.312 55.7209 161.007 67.6369 161.076C79.5529 161.145 85.3143 152.7 84.9441 143.537C84.5507 134.213 76.9384 127.271 66.9428 127.41C56.9935 127.572 49.9827 135.254 50.1447 144.579Z" fill="#C8C8C8"/>
<path d="M198.344 146.708C198.552 159.387 208.502 177.62 230.205 177.759C251.908 177.898 263.153 161.053 262.482 143.792C261.788 126.231 248.345 113.852 228.979 114.407C210.862 114.939 198.067 129.169 198.344 146.708Z" fill="#4E433D"/>
<path d="M212.828 145.712C212.944 152.445 218.404 162.14 230.32 162.21C242.236 162.279 247.997 153.834 247.627 144.671C247.234 135.347 239.622 128.405 229.626 128.544C219.7 128.706 212.689 136.388 212.828 145.712Z" fill="#C8C8C8"/>
<path d="M274.075 66.5114C273.404 67.46 261.788 77.0391 261.788 78.5199C261.788 80.0008 275.023 99.1358 275.023 99.1358L278.124 101.01C278.124 101.01 279.605 76.7615 279.605 76.2293C279.605 75.7434 274.075 66.5114 274.075 66.5114Z" fill="#FFFEFF"/>
<path d="M281.039 106.911C281.039 106.911 282.127 89.4877 281.988 80.0706C281.849 69.8205 278.934 62.3007 278.934 62.3007L274.028 66.5812C274.028 66.5812 275.694 75.6512 275.694 81.5977C275.694 87.5441 275.023 99.1362 275.023 99.1362L281.039 106.911Z" fill="#D5CCC2"/>
</svg>
