<svg width="260" height="263" viewBox="0 0 260 263" fill="none" xmlns="http://www.w3.org/2000/svg">
<path d="M183.407 166.065C180.67 161.094 182.969 154.634 190.107 149.773C213.603 133.767 192.845 106.527 189.056 95.9074C189.122 95.7761 187.173 91.8347 187.239 91.7033L183.298 91.5062C182.049 91.331 150.146 88.7034 107.009 88.6815C63.8509 88.6815 31.0277 91.3091 29.7577 91.5062C29.7577 91.5062 23.9551 95.7761 23.9989 95.9074C21.7873 104.798 2.62767 126.497 23.8894 149.773C29.7139 156.145 33.305 161.094 30.5898 166.065C27.9403 170.904 20.0575 171.604 20.0575 171.604C20.0575 171.604 21.8749 176.553 26.2542 179.225C30.3051 181.699 35.2976 182.268 38.7354 182.356C38.7354 182.356 52.2019 200.99 87.4118 200.99H126.607C161.817 200.99 175.283 182.356 175.283 182.356C178.721 182.268 183.714 181.699 187.765 179.225C192.144 176.553 193.961 171.604 193.961 171.604C193.961 171.604 186.057 170.904 183.407 166.065Z" fill="#543930"/>
<path d="M106.965 200.969V180.298L169.524 175.349L175.217 182.356C175.217 182.356 161.751 200.99 126.541 200.99L106.965 200.969Z" fill="url(#paint0_radial_544_9757)"/>
<path d="M175.085 173.313C165.713 159.08 186.493 153.759 186.493 153.759L186.515 153.781C182.902 158.27 181.26 162.189 183.384 166.065C186.033 170.904 193.916 171.605 193.916 171.605C193.916 171.605 183.187 181.152 175.085 173.313Z" fill="url(#paint1_radial_544_9757)"/>
<path d="M189.1 95.9073C189.122 104.797 212.814 121.68 190.677 149.226C189.516 150.671 184.086 155.817 182.86 159.999C182.86 159.999 161.97 130.855 155.729 113.731C154.481 110.272 153.321 106.724 153.168 103.046C153.058 100.287 153.474 97.0022 155.073 94.6592C157.021 91.7907 188.005 93.4768 188.005 93.4768C187.983 93.5206 189.1 95.9073 189.1 95.9073Z" fill="url(#paint2_radial_544_9757)"/>
<path d="M23.9981 95.9078C21.7865 104.798 2.86772 126.235 23.385 149.226C24.6112 150.606 29.9759 155.817 31.2021 159.999C31.2021 159.999 52.0916 130.855 58.3321 113.732C59.6022 110.272 60.7408 106.725 60.8941 103.046C61.0035 100.287 60.5875 97.0026 58.989 94.6596C57.0402 91.7912 54.763 92.5575 51.4566 92.5575C45.1503 92.5575 27.83 93.4772 25.6841 93.4772C25.6841 93.521 23.9981 95.9078 23.9981 95.9078Z" fill="url(#paint3_radial_544_9757)"/>
<path d="M107.074 200.969V180.298L44.5154 175.349L38.8223 182.356C38.8223 182.356 52.2888 200.99 87.4987 200.99L107.074 200.969Z" fill="url(#paint4_radial_544_9757)"/>
<path d="M38.953 173.313C48.3248 159.08 27.5448 153.759 27.5448 153.759L27.5229 153.781C31.1359 158.27 32.7781 162.189 30.6542 166.065C28.0047 170.904 20.1218 171.605 20.1218 171.605C20.1218 171.605 30.8512 181.152 38.953 173.313Z" fill="url(#paint5_radial_544_9757)"/>
<path d="M214.236 255.228C214.236 228.908 182.946 211.588 143.685 205.522V198.428C142.371 198.428 124.394 202.128 124.394 202.128H90.3229L70.7472 198.056L70.7691 206.355C32.1651 212.267 0.721436 228.01 0.721436 255.228V262.739H214.215V255.228H214.236Z" fill="url(#paint6_radial_544_9757)"/>
<path d="M107.424 186.276H87.542V201.647C87.542 201.647 105.037 203.662 105.037 226.04H110.95C111.607 201.428 127.328 201.428 127.328 201.428V186.298L107.424 186.276Z" fill="#99674F"/>
<path d="M106.747 227.836C106.66 227.047 106.068 220.785 105.959 219.756C104.776 209.114 98.7329 202.61 91.4851 200.968L70.1358 195.538C68.7563 195.538 67.6177 196.983 67.6177 198.757L70.9022 224.792L100.616 232.609L106.747 227.836Z" fill="#F8F8F7"/>
<path d="M86.2071 257.856C88.9523 257.856 91.1777 255.631 91.1777 252.885C91.1777 250.14 88.9523 247.915 86.2071 247.915C83.462 247.915 81.2366 250.14 81.2366 252.885C81.2366 255.631 83.462 257.856 86.2071 257.856Z" fill="#9E9E9E"/>
<path d="M144.124 257.856C146.869 257.856 149.095 255.631 149.095 252.885C149.095 250.14 146.869 247.915 144.124 247.915C141.379 247.915 139.154 250.14 139.154 252.885C139.154 255.631 141.379 257.856 144.124 257.856Z" fill="#9E9E9E"/>
<path d="M107.754 227.748C107.841 226.96 108.433 220.697 108.542 219.668C109.725 209.026 115.768 202.523 123.016 200.881L144.365 195.45C145.745 195.45 146.861 196.895 146.861 198.669L143.577 224.704L113.863 232.521L107.754 227.748Z" fill="#F8F8F7"/>
<path d="M111.496 219.733C106.701 219.558 97.9205 217.938 88.5487 219.69C64.528 224.222 50.1199 242.594 53.3168 258.491C53.6234 259.98 54.127 261.381 54.7401 262.739H67.1556L69.8051 240.995C72.8706 237.667 111.759 228.426 111.759 228.426L111.496 219.733Z" fill="url(#paint7_radial_544_9757)"/>
<path d="M108.542 219.668C108.433 220.61 108.126 224.025 108.017 225.098L108.214 227.157L73.1131 237.207C69.544 238.521 67.1572 241.915 67.1572 245.725V262.739H69.4126C69.4126 262.739 72.0183 246.842 72.4124 244.718C72.8066 242.594 74.4926 242.222 75.478 241.849L113.732 230.397C113.732 202.764 123.038 200.881 123.038 200.881C115.768 202.523 109.724 209.026 108.542 219.668Z" fill="url(#paint8_linear_544_9757)"/>
<path d="M166.59 101.754H46.9245C34.0274 101.754 23.4731 112.987 23.4731 126.738C23.4731 140.489 34.0274 151.722 46.9245 151.722H166.59C179.487 151.722 190.042 140.467 190.042 126.738C190.042 113.009 179.487 101.754 166.59 101.754Z" fill="#99674F"/>
<path d="M106.746 15.5468C68.6454 15.5468 33.3479 56.2966 33.3479 114.958C33.3479 173.291 69.7184 202.129 106.746 202.129C143.773 202.129 180.144 173.291 180.144 114.958C180.144 56.2966 144.868 15.5468 106.746 15.5468Z" fill="#BA8D68"/>
<path d="M24.0853 96.0612C24.9831 104.798 30.939 106.134 30.939 106.134C29.9317 123.673 33.1943 134.468 34.9242 138.847C35.2307 139.614 36.3037 139.548 36.5007 138.76C38.6685 130.067 46.0477 99.7836 45.3251 94.5065C45.3251 94.5065 70.156 89.5798 93.8702 72.1281C98.6875 68.5808 103.921 65.5591 109.483 63.3475C139.24 51.5013 145.459 71.712 145.459 71.712C145.459 71.712 166.086 67.7487 172.304 96.3896C174.647 107.119 176.224 124.308 177.56 136.329C177.647 137.183 178.808 137.358 179.136 136.57C181.216 131.797 185.377 122.337 186.362 112.681C186.712 109.287 191.376 104.798 188.814 94.9664C185.902 83.7333 174.144 30.2396 106.461 30.2396C38.778 30.2396 22.6839 82.332 24.0853 96.0612Z" fill="#543930"/>
<path d="M72.6547 131.271C78.6167 131.271 83.4498 126.271 83.4498 120.104C83.4498 113.936 78.6167 108.936 72.6547 108.936C66.6927 108.936 61.8596 113.936 61.8596 120.104C61.8596 126.271 66.6927 131.271 72.6547 131.271Z" fill="#49362E"/>
<path d="M140.864 131.271C146.826 131.271 151.659 126.271 151.659 120.104C151.659 113.936 146.826 108.937 140.864 108.937C134.902 108.937 130.069 113.936 130.069 120.104C130.069 126.271 134.902 131.271 140.864 131.271Z" fill="#49362E"/>
<path d="M125.423 158.05C118.438 162.189 95.5778 162.189 88.6146 158.05C84.6075 155.664 80.5128 159.32 82.177 162.955C83.8192 166.524 96.2785 174.823 107.074 174.823C117.869 174.823 130.175 166.524 131.817 162.955C133.481 159.298 129.43 155.664 125.423 158.05Z" fill="#5D4037"/>
<path d="M88.6821 100.309C86.6457 97.6158 81.9598 93.7181 72.8508 93.7181C63.7417 93.7181 59.0339 97.6377 57.0194 100.309C56.1217 101.491 56.3406 102.871 56.9757 103.703C57.545 104.469 59.2529 105.192 61.136 104.557C63.0192 103.922 66.6978 102.017 72.8508 101.973C79.0038 102.017 82.6824 103.922 84.5655 104.557C86.4487 105.192 88.1566 104.491 88.7259 103.703C89.339 102.871 89.5799 101.491 88.6821 100.309ZM156.496 100.309C154.46 97.6158 149.774 93.7181 140.665 93.7181C131.556 93.7181 126.848 97.6377 124.834 100.309C123.936 101.491 124.155 102.871 124.79 103.703C125.359 104.469 127.067 105.192 128.95 104.557C130.833 103.922 134.512 102.017 140.665 101.973C146.818 102.017 150.497 103.922 152.38 104.557C154.263 105.192 155.971 104.491 156.54 103.703C157.175 102.871 157.394 101.491 156.496 100.309Z" fill="#613E31"/>
<path d="M115.198 140.336C114.957 140.249 114.738 140.183 114.498 140.161H98.9946C98.7538 140.183 98.5129 140.249 98.2939 140.336C96.8926 140.906 96.1262 142.351 96.7831 143.905C97.44 145.46 100.527 149.796 106.746 149.796C112.965 149.796 116.052 145.438 116.709 143.905C117.388 142.373 116.6 140.906 115.198 140.336Z" fill="#99674F"/>
<path d="M222.032 108.63C199.587 106.835 179.924 123.564 178.129 146.008C176.486 166.328 190.084 184.327 209.331 188.882L206.594 210.297C206.616 210.297 222.075 212.048 222.272 212.092L224.046 189.692C242.746 187.261 257.855 172.065 259.409 152.533C261.205 130.089 244.476 110.426 222.032 108.63Z" fill="url(#paint9_linear_544_9757)"/>
<path d="M219.165 185.224C237.667 185.224 252.667 170.225 252.667 151.722C252.667 133.22 237.667 118.22 219.165 118.22C200.662 118.22 185.663 133.22 185.663 151.722C185.663 170.225 200.662 185.224 219.165 185.224Z" fill="url(#paint10_linear_544_9757)"/>
<path d="M242.901 148.854C247.499 165.211 235.697 182.269 220.107 171.999C204.516 161.73 190.743 164.313 195.692 149.664C200.64 135.015 204.538 122.14 216.034 124.746C227.552 127.33 238.303 132.497 242.901 148.854Z" fill="white"/>
<path d="M218.726 159.759C224.966 159.759 230.025 154.7 230.025 148.46C230.025 142.22 224.966 137.161 218.726 137.161C212.486 137.161 207.427 142.22 207.427 148.46C207.427 154.7 212.486 159.759 218.726 159.759Z" fill="url(#paint11_linear_544_9757)"/>
<path d="M242.9 148.854C245.067 155.248 244.87 162.758 241.236 168.889C239.462 171.933 236.572 174.517 233.024 175.59C229.477 176.685 225.645 176.028 222.404 174.561C219.186 172.831 216.602 170.991 213.58 169.48C210.624 167.926 207.515 166.678 204.427 165.298C201.384 163.897 198.011 162.605 195.69 159.736C194.661 158.226 194.267 156.386 194.398 154.656C194.486 153.802 194.661 152.948 194.836 152.116L195.69 149.708L195.165 152.182C195.077 153.014 194.968 153.846 194.968 154.678C195.012 156.321 195.537 157.897 196.522 159.101C198.668 161.444 201.931 162.583 205.062 163.765C208.237 164.926 211.412 166.174 214.522 167.663C217.587 169.13 220.587 171.188 223.346 172.612C226.236 173.947 229.455 174.495 232.455 173.641C235.455 172.853 238.017 170.685 239.834 168.035C241.652 165.364 242.746 162.167 243.206 158.882C243.71 155.576 243.535 152.182 242.9 148.854Z" fill="#F7CB4D"/>
<path d="M205.851 213.734C205.851 212.924 209.333 188.881 209.333 188.881L209.793 188.64C211.881 187.591 214.201 187.088 216.536 187.176C218.871 187.264 221.146 187.941 223.15 189.144L224.026 189.669L222.252 215.639L205.851 213.734Z" fill="#757575"/>
<path d="M196.194 22.9697C175.064 8.95576 142.591 0 106.746 0C70.9008 0 37.9243 8.95576 16.7939 22.9697C3.50263 31.7722 -2.16862 44.4066 1.0283 56.2089C3.43694 64.9895 23.4506 79.2881 23.4506 79.2881C47.8873 90.762 50.2084 71.2082 106.483 71.1425C162.758 71.2082 165.079 90.762 189.515 79.2881C189.515 79.2881 209.551 64.9895 211.938 56.187C215.135 44.4066 209.485 31.7722 196.194 22.9697Z" fill="url(#paint12_radial_544_9757)"/>
<path d="M24.0848 96.0618L21.7856 78.0627C21.7856 78.0627 36.9601 53.3413 107.752 53.3413C178.544 53.3413 191.398 77.9094 191.398 77.9094L188.858 94.9451C134.795 82.9895 77.9946 84.1062 24.0848 96.0618Z" fill="url(#paint13_radial_544_9757)"/>
<path d="M57.828 14.2769C57.828 14.2769 63.4116 35.6043 76.8781 55.4865C52.0253 54.6982 47.011 27.8966 57.828 14.2769Z" fill="url(#paint14_linear_544_9757)"/>
<path d="M25.8601 25.3566C27.0426 36.6772 26.0791 48.3481 46.5307 62.4277C18.7875 70.7923 7.29171 44.6914 25.8601 25.3566Z" fill="url(#paint15_linear_544_9757)"/>
<path d="M156.166 14.2769C156.166 14.2769 150.583 35.6043 137.116 55.4865C161.969 54.6982 166.983 27.8966 156.166 14.2769Z" fill="url(#paint16_linear_544_9757)"/>
<path d="M188.158 25.3566C186.975 36.6772 187.939 48.3481 167.487 62.4277C195.23 70.7923 206.726 44.6914 188.158 25.3566Z" fill="url(#paint17_linear_544_9757)"/>
<path d="M107.007 7.4884C110.182 11.2765 111.825 15.0647 113.007 18.8528C114.168 22.6409 114.649 26.4291 114.671 30.2172C114.671 34.0053 114.189 37.7935 113.029 41.5816C111.847 45.3697 110.204 49.1579 107.007 52.946C103.81 49.1579 102.168 45.3697 100.986 41.5816C99.8252 37.7935 99.3435 34.0053 99.3435 30.2172C99.3654 26.4291 99.8471 22.6409 101.008 18.8528C102.168 15.0647 103.81 11.2765 107.007 7.4884Z" fill="url(#paint18_linear_544_9757)"/>
<path d="M200.922 215.464C198.492 215.836 196.127 216.427 193.916 217.412C190.719 218.814 175.522 214.194 174.427 228.864C174.296 232.915 173.792 245.703 177.165 252.009C184.215 265.169 211.236 262.213 213.272 262.563C226.126 264.687 220.783 223.259 213.579 217.916C212.681 217.325 211.214 216.558 209.922 215.836C207.404 214.456 203.441 215.091 200.922 215.464Z" fill="url(#paint19_radial_544_9757)"/>
<path d="M218.596 253.805L204.056 253.345C203.189 253.281 202.329 253.538 201.638 254.067C200.948 254.596 200.476 255.36 200.312 256.214C199.918 258.097 201.297 259.892 203.29 260.286L217.654 262.564C219.953 262.98 222.165 261.491 222.428 259.257L222.559 258.119C222.778 255.841 220.983 253.871 218.596 253.805Z" fill="url(#paint20_radial_544_9757)"/>
<path d="M200.069 221.683C199.697 221.683 178.063 239.506 178.063 239.506C178.063 239.506 178.545 248.221 186.909 255.338C189.274 257.33 196.084 260.177 199.281 260.286C221.134 261.097 218.441 221.595 200.069 221.683Z" fill="url(#paint21_radial_544_9757)"/>
<path d="M174.342 238.521C174.342 238.521 177.342 240.886 181.809 242.703C195.385 248.243 197.224 231.58 197.553 228.996C199.326 215.748 211.041 218.814 220.982 218.267C223.041 218.157 230.113 217.15 232.084 212.508C234.164 204.778 226.216 204.8 209.465 203.618C204.91 203.289 200.356 203.333 195.823 203.924C174.189 206.705 173.685 228.558 174.342 238.521Z" fill="url(#paint22_radial_544_9757)"/>
<path d="M223.347 230.266L202.545 231.821C199.742 231.996 199.677 234.12 199.502 236.77C199.261 239.638 199.589 242.112 202.633 242.331L223.522 243.536C227.048 243.755 230.069 241.105 230.069 237.711V235.981C229.982 232.543 226.938 229.916 223.347 230.266Z" fill="url(#paint23_radial_544_9757)"/>
<path d="M223.192 218.004L205.325 220.325C202.653 220.631 200.748 222.777 200.704 225.317C200.617 228.076 203.026 230.31 205.938 230.375L224.003 230.704C227.375 230.748 230.156 228.054 229.98 224.814L229.893 223.171C229.652 219.865 226.608 217.478 223.192 218.004Z" fill="url(#paint24_radial_544_9757)"/>
<path d="M221.332 242.857L204.844 243.601C202.391 243.667 200.464 245.462 200.223 247.761C199.917 250.258 201.931 252.513 204.581 252.798L221.025 254.462C224.091 254.768 226.85 252.535 226.938 249.579L226.981 248.068C227.047 245.068 224.485 242.659 221.332 242.857Z" fill="url(#paint25_radial_544_9757)"/>
<path d="M224.134 243.558C224.397 241.215 205.5 243.426 203.201 241.477C200.574 239.244 200.902 234.93 204.165 233.507C207.843 231.887 225.689 231.427 225.667 230.42C225.667 228.558 201.603 233.047 202.282 225.449C202.741 220.303 207.712 220.347 211.391 219.734C213.58 219.362 223.193 218.727 223.193 218.048C223.193 217.369 220.828 217.566 220.565 217.544C218.814 217.369 207.537 217.895 204.581 218.792C200.705 219.975 197.552 223.413 198.647 227.792C198.822 228.536 199.15 229.193 199.544 229.828C200.311 231.011 198.581 234.23 198.362 235.894C197.815 240.185 200.158 242.485 200.114 244.039C200.092 245.222 198.931 246.054 198.603 247.871C198.253 249.886 199.939 252.163 199.523 254.55C199.369 255.36 199.304 256.017 199.457 256.849C199.698 258.097 200.333 259.192 201.23 260.09C203.311 262.192 206.179 262.454 208.982 262.608C210.865 262.717 218.595 263.177 220.346 262.192C216.208 262.104 203.661 261.798 201.975 257.068C201.865 253.849 205.303 254.813 207.449 255.031C209.88 255.272 214.434 255.382 216.887 255.163C217.565 255.097 220.412 254.791 220.412 254.287C220.412 253.521 213.668 253.761 212.836 253.718C209.814 253.586 203.442 254.024 202.084 250.411C201.581 249.097 201.8 247.455 202.698 246.338C204.843 243.601 223.981 244.762 224.134 243.558Z" fill="#91674D"/>
<defs>
<radialGradient id="paint0_radial_544_9757" cx="0" cy="0" r="1" gradientUnits="userSpaceOnUse" gradientTransform="translate(138.928 171.103) scale(51.28 25.1887)">
<stop offset="0.728" stop-color="#6D4C41" stop-opacity="0"/>
<stop offset="1" stop-color="#6D4C41"/>
</radialGradient>
<radialGradient id="paint1_radial_544_9757" cx="0" cy="0" r="1" gradientUnits="userSpaceOnUse" gradientTransform="translate(189.442 163.47) rotate(154.924) scale(15.154 11.2421)">
<stop offset="0.663" stop-color="#6D4C41"/>
<stop offset="1" stop-color="#6D4C41" stop-opacity="0"/>
</radialGradient>
<radialGradient id="paint2_radial_544_9757" cx="0" cy="0" r="1" gradientUnits="userSpaceOnUse" gradientTransform="translate(150.397 121.776) rotate(-94.2783) scale(64.5748 53.8189)">
<stop offset="0.725" stop-color="#6D4C41" stop-opacity="0"/>
<stop offset="1" stop-color="#6D4C41"/>
</radialGradient>
<radialGradient id="paint3_radial_544_9757" cx="0" cy="0" r="1" gradientUnits="userSpaceOnUse" gradientTransform="translate(63.6463 121.475) rotate(-85.7217) scale(65.0784 54.2387)">
<stop offset="0.725" stop-color="#6D4C41" stop-opacity="0"/>
<stop offset="1" stop-color="#6D4C41"/>
</radialGradient>
<radialGradient id="paint4_radial_544_9757" cx="0" cy="0" r="1" gradientUnits="userSpaceOnUse" gradientTransform="translate(75.1139 171.103) rotate(180) scale(51.28 25.1887)">
<stop offset="0.728" stop-color="#6D4C41" stop-opacity="0"/>
<stop offset="1" stop-color="#6D4C41"/>
</radialGradient>
<radialGradient id="paint5_radial_544_9757" cx="0" cy="0" r="1" gradientUnits="userSpaceOnUse" gradientTransform="translate(24.6101 163.473) rotate(25.0761) scale(15.154 11.2421)">
<stop offset="0.663" stop-color="#6D4C41"/>
<stop offset="1" stop-color="#6D4C41" stop-opacity="0"/>
</radialGradient>
<radialGradient id="paint6_radial_544_9757" cx="0" cy="0" r="1" gradientUnits="userSpaceOnUse" gradientTransform="translate(108.565 266.77) scale(147.474 86.479)">
<stop offset="0.559" stop-color="#F8F8F7"/>
<stop offset="1" stop-color="#C6C6C6"/>
</radialGradient>
<radialGradient id="paint7_radial_544_9757" cx="0" cy="0" r="1" gradientUnits="userSpaceOnUse" gradientTransform="translate(96.0736 252.006) rotate(-15.6164) scale(43.6825 32.9972)">
<stop offset="0.153" stop-color="#BDBDBD"/>
<stop offset="1" stop-color="#BDBDBD" stop-opacity="0"/>
</radialGradient>
<linearGradient id="paint8_linear_544_9757" x1="95.0909" y1="262.651" x2="95.0909" y2="214.354" gradientUnits="userSpaceOnUse">
<stop offset="0.299" stop-color="#BDBDBD"/>
<stop offset="0.657" stop-color="#CDCDCD"/>
<stop offset="1" stop-color="#E0E0E0"/>
</linearGradient>
<linearGradient id="paint9_linear_544_9757" x1="222.603" y1="108.431" x2="213.198" y2="208.385" gradientUnits="userSpaceOnUse">
<stop offset="0.119" stop-color="#757575"/>
<stop offset="0.226" stop-color="#7A7A7A"/>
<stop offset="0.359" stop-color="#8A8A8A"/>
<stop offset="0.479" stop-color="#9E9E9E"/>
<stop offset="0.488" stop-color="#969696"/>
<stop offset="0.524" stop-color="#7B7B7B"/>
<stop offset="0.566" stop-color="#656565"/>
<stop offset="0.615" stop-color="#545454"/>
<stop offset="0.676" stop-color="#494949"/>
<stop offset="0.76" stop-color="#424242"/>
<stop offset="0.996" stop-color="#404040"/>
</linearGradient>
<linearGradient id="paint10_linear_544_9757" x1="213.993" y1="179.669" x2="226.032" y2="114.656" gradientUnits="userSpaceOnUse">
<stop stop-color="#212121"/>
<stop offset="0.996" stop-color="#404040"/>
</linearGradient>
<linearGradient id="paint11_linear_544_9757" x1="218.065" y1="137.248" x2="219.308" y2="158.143" gradientUnits="userSpaceOnUse">
<stop stop-color="#FFCA28"/>
<stop offset="0.341" stop-color="#FFC825"/>
<stop offset="0.629" stop-color="#FFC21A"/>
<stop offset="0.898" stop-color="#FFB809"/>
<stop offset="1" stop-color="#FFB300"/>
</linearGradient>
<radialGradient id="paint12_radial_544_9757" cx="0" cy="0" r="1" gradientUnits="userSpaceOnUse" gradientTransform="translate(107.569 38.2741) scale(119.797 50.5543)">
<stop offset="0.462" stop-color="#FAFAFA"/>
<stop offset="0.634" stop-color="#EAEAEA"/>
<stop offset="0.969" stop-color="#C1C1C1"/>
<stop offset="1" stop-color="#BDBDBD"/>
</radialGradient>
<radialGradient id="paint13_radial_544_9757" cx="0" cy="0" r="1" gradientUnits="userSpaceOnUse" gradientTransform="translate(106.679 64.8353) rotate(0.372417) scale(89.0209 86.9111)">
<stop offset="0.303" stop-color="#F8F8F7"/>
<stop offset="0.504" stop-color="#E8E8E7"/>
<stop offset="0.895" stop-color="#BFBFBF"/>
<stop offset="1" stop-color="#B3B3B3"/>
</radialGradient>
<linearGradient id="paint14_linear_544_9757" x1="52.7457" y1="11.2332" x2="69.1683" y2="58.3112" gradientUnits="userSpaceOnUse">
<stop stop-color="#757575" stop-opacity="0"/>
<stop offset="1" stop-color="#757575" stop-opacity="0.9"/>
</linearGradient>
<linearGradient id="paint15_linear_544_9757" x1="12.5141" y1="30.1038" x2="44.2643" y2="63.2226" gradientUnits="userSpaceOnUse">
<stop stop-color="#757575" stop-opacity="0"/>
<stop offset="1" stop-color="#757575" stop-opacity="0.9"/>
</linearGradient>
<linearGradient id="paint16_linear_544_9757" x1="161.251" y1="11.2332" x2="144.828" y2="58.3112" gradientUnits="userSpaceOnUse">
<stop stop-color="#757575" stop-opacity="0"/>
<stop offset="1" stop-color="#757575" stop-opacity="0.9"/>
</linearGradient>
<linearGradient id="paint17_linear_544_9757" x1="201.484" y1="30.106" x2="169.736" y2="63.2248" gradientUnits="userSpaceOnUse">
<stop stop-color="#757575" stop-opacity="0"/>
<stop offset="1" stop-color="#757575" stop-opacity="0.9"/>
</linearGradient>
<linearGradient id="paint18_linear_544_9757" x1="106.999" y1="7.48183" x2="106.999" y2="52.9657" gradientUnits="userSpaceOnUse">
<stop stop-color="#757575" stop-opacity="0"/>
<stop offset="1" stop-color="#757575" stop-opacity="0.9"/>
</linearGradient>
<radialGradient id="paint19_radial_544_9757" cx="0" cy="0" r="1" gradientUnits="userSpaceOnUse" gradientTransform="translate(178.463 242.75) rotate(-91.4153) scale(44.3192 46.855)">
<stop offset="0.307" stop-color="#BA8D68"/>
<stop offset="1" stop-color="#A47B62"/>
</radialGradient>
<radialGradient id="paint20_radial_544_9757" cx="0" cy="0" r="1" gradientUnits="userSpaceOnUse" gradientTransform="translate(230.834 232.314) rotate(-20.035) scale(32.4729 32.4729)">
<stop stop-color="#A47B62"/>
<stop offset="1" stop-color="#BA8D68"/>
</radialGradient>
<radialGradient id="paint21_radial_544_9757" cx="0" cy="0" r="1" gradientUnits="userSpaceOnUse" gradientTransform="translate(206.339 231.2) rotate(-0.269288) scale(29.6573 29.6573)">
<stop stop-color="#A47B62"/>
<stop offset="1" stop-color="#BA8D68"/>
</radialGradient>
<radialGradient id="paint22_radial_544_9757" cx="0" cy="0" r="1" gradientUnits="userSpaceOnUse" gradientTransform="translate(222.326 215.47) rotate(9.96603) scale(33.3697 32.4502)">
<stop stop-color="#A47B62"/>
<stop offset="1" stop-color="#BA8D68"/>
</radialGradient>
<radialGradient id="paint23_radial_544_9757" cx="0" cy="0" r="1" gradientUnits="userSpaceOnUse" gradientTransform="translate(239.071 234.774) rotate(-3.193) scale(36.9113 36.9114)">
<stop stop-color="#A47B62"/>
<stop offset="1" stop-color="#BA8D68"/>
</radialGradient>
<radialGradient id="paint24_radial_544_9757" cx="0" cy="0" r="1" gradientUnits="userSpaceOnUse" gradientTransform="translate(237.834 235.782) rotate(4.956) scale(35.2713 35.2713)">
<stop stop-color="#A47B62"/>
<stop offset="1" stop-color="#BA8D68"/>
</radialGradient>
<radialGradient id="paint25_radial_544_9757" cx="0" cy="0" r="1" gradientUnits="userSpaceOnUse" gradientTransform="translate(235.347 232.58) rotate(-12.368) scale(35.2844 35.2844)">
<stop stop-color="#A47B62"/>
<stop offset="1" stop-color="#BA8D68"/>
</radialGradient>
</defs>
</svg>
