<svg width="222" height="119" viewBox="0 0 222 119" fill="none" xmlns="http://www.w3.org/2000/svg">
<path d="M31.0143 3.06711L35.1874 11.1895C35.4978 11.7875 35.9434 12.3022 36.4876 12.6917C37.0319 13.0812 37.6593 13.3343 38.3186 13.4303L47.1327 14.6552C51.8462 15.3148 53.6736 21.2116 50.1877 24.4907L44.1519 30.1425C43.6374 30.6222 43.2512 31.2265 43.0294 31.8989C42.8076 32.5712 42.7574 33.2896 42.8835 33.987L44.3562 42.2753C45.1752 46.8924 40.4413 50.4919 36.2868 48.3812L27.8627 44.141C27.2828 43.853 26.6457 43.7033 26 43.7033C25.3543 43.7033 24.7172 43.853 24.1373 44.141L15.7132 48.3812C11.5568 50.4731 6.82478 46.8924 7.64379 42.2753L9.11652 33.9851C9.37652 32.5717 8.89366 31.1206 7.84994 30.1406L1.8123 24.4907C-1.6736 21.2305 0.153847 15.3129 4.86733 14.6534L13.6814 13.4284C14.3426 13.3384 14.9726 13.0877 15.5177 12.6976C16.0629 12.3074 16.5071 11.7894 16.8126 11.1877L20.9875 3.06711C23.1121 -1.02237 28.9065 -1.02237 31.0125 3.06711H31.0143Z" fill="#FCD53F"/>
<path d="M115.611 3.06711L119.864 11.1895C120.18 11.7875 120.635 12.3022 121.189 12.6917C121.744 13.0812 122.384 13.3343 123.055 13.4303L132.039 14.6552C136.843 15.3148 138.706 21.2116 135.153 24.4907L129.001 30.1425C128.477 30.6222 128.083 31.2265 127.857 31.8989C127.631 32.5712 127.58 33.2896 127.708 33.987L129.209 42.2753C130.044 46.8924 125.219 50.4919 120.985 48.3812L112.399 44.141C111.807 43.853 111.158 43.7033 110.5 43.7033C109.842 43.7033 109.193 43.853 108.601 44.141L100.015 48.3812C95.7791 50.4731 90.956 46.8924 91.7908 42.2753L93.2918 33.9851C93.5568 32.5717 93.0647 31.1206 92.0009 30.1406L85.8471 24.4907C82.2942 21.2305 84.1568 15.3129 88.9609 14.6534L97.9445 13.4284C98.6184 13.3384 99.2605 13.0877 99.8162 12.6976C100.372 12.3074 100.825 11.7894 101.136 11.1877L105.391 3.06711C107.557 -1.02237 113.462 -1.02237 115.609 3.06711H115.611Z" fill="#FCD53F"/>
<path d="M73.6108 73.0671L77.8641 81.1895C78.1804 81.7875 78.6346 82.3022 79.1893 82.6917C79.744 83.0812 80.3836 83.3343 81.0555 83.4303L90.0391 84.6552C94.8432 85.3148 96.7058 91.2116 93.1529 94.4907L87.001 100.143C86.4766 100.622 86.083 101.227 85.8569 101.899C85.6308 102.571 85.5796 103.29 85.7082 103.987L87.2092 112.275C88.044 116.892 83.219 120.492 78.9847 118.381L70.3986 114.141C69.8075 113.853 69.1581 113.703 68.5 113.703C67.8419 113.703 67.1925 113.853 66.6014 114.141L58.0153 118.381C53.7791 120.473 48.956 116.892 49.7908 112.275L51.2918 103.985C51.5568 102.572 51.0647 101.121 50.0009 100.141L43.8471 94.4907C40.2942 91.2305 42.1568 85.3129 46.9609 84.6534L55.9445 83.4284C56.6184 83.3384 57.2605 83.0877 57.8162 82.6976C58.3718 82.3074 58.8246 81.7894 59.1359 81.1877L63.3911 73.0671C65.5566 68.9776 71.4624 68.9776 73.6089 73.0671H73.6108Z" fill="#FCD53F"/>
<path d="M200.611 3.06711L204.864 11.1895C205.18 11.7875 205.635 12.3022 206.189 12.6917C206.744 13.0812 207.384 13.3343 208.055 13.4303L217.039 14.6552C221.843 15.3148 223.706 21.2116 220.153 24.4907L214.001 30.1425C213.477 30.6222 213.083 31.2265 212.857 31.8989C212.631 32.5712 212.58 33.2896 212.708 33.987L214.209 42.2753C215.044 46.8924 210.219 50.4919 205.985 48.3812L197.399 44.141C196.807 43.853 196.158 43.7033 195.5 43.7033C194.842 43.7033 194.193 43.853 193.601 44.141L185.015 48.3812C180.779 50.4731 175.956 46.8924 176.791 42.2753L178.292 33.9851C178.557 32.5717 178.065 31.1206 177.001 30.1406L170.847 24.4907C167.294 21.2305 169.157 15.3129 173.961 14.6534L182.945 13.4284C183.618 13.3384 184.261 13.0877 184.816 12.6976C185.372 12.3074 185.825 11.7894 186.136 11.1877L190.391 3.06711C192.557 -1.02237 198.462 -1.02237 200.609 3.06711H200.611Z" fill="#FCD53F"/>
<path d="M157.611 73.0671L161.864 81.1895C162.18 81.7875 162.635 82.3022 163.189 82.6917C163.744 83.0812 164.384 83.3343 165.055 83.4303L174.039 84.6552C178.843 85.3148 180.706 91.2116 177.153 94.4907L171.001 100.143C170.477 100.622 170.083 101.227 169.857 101.899C169.631 102.571 169.58 103.29 169.708 103.987L171.209 112.275C172.044 116.892 167.219 120.492 162.985 118.381L154.399 114.141C153.807 113.853 153.158 113.703 152.5 113.703C151.842 113.703 151.193 113.853 150.601 114.141L142.015 118.381C137.779 120.473 132.956 116.892 133.791 112.275L135.292 103.985C135.557 102.572 135.065 101.121 134.001 100.141L127.847 94.4907C124.294 91.2305 126.157 85.3129 130.961 84.6534L139.945 83.4284C140.618 83.3384 141.261 83.0877 141.816 82.6976C142.372 82.3074 142.825 81.7894 143.136 81.1877L147.391 73.0671C149.557 68.9776 155.462 68.9776 157.609 73.0671H157.611Z" fill="#FCD53F"/>
</svg>
