<svg width="240" height="242" viewBox="0 0 240 242" fill="none" xmlns="http://www.w3.org/2000/svg">
<path d="M0.281281 132.935C2.95107 172.779 47.7509 235.883 123.718 240.98C175.638 244.479 225.797 220.047 236.659 162.484C246.65 109.574 226.384 59.7583 210.264 37.4494C185.103 2.64102 126.105 -17.1599 63.0617 19.9542C6.3692 53.3872 -1.78174 102.05 0.281281 132.935Z" fill="#95683D"/>
<path d="M15.8553 154.454C43.3419 205.019 123.921 208.417 167.669 173.73C215.705 135.645 226.89 80.0645 200.799 41.2312C170.501 -3.85177 100.702 2.58 58.046 32.2915C16.1991 61.4569 -4.89627 116.289 15.8553 154.454Z" fill="#B7D118"/>
<path d="M70.9498 93.7776C69.352 98.5913 75.7028 102.596 74.732 111.94C73.3162 125.39 64.0731 133.137 66.7024 135.766C69.9992 139.063 79.8289 132.874 92.4295 130.568C106.587 127.979 108.954 134.431 112.716 132.449C117.206 130.083 114.9 119.626 124.042 111.455C133.002 103.425 141.74 103.203 143.398 100.594C145.057 98.0047 141.982 90.4403 144.106 81.2377C146.23 72.035 153.855 63.6818 151.266 60.1423C148.677 56.6028 138.059 66.7561 125.943 66.1291C117.934 65.7246 113.666 61.8817 110.37 63.5402C107.073 65.1987 105.596 75.4733 96.2116 83.6041C83.9144 94.263 72.1229 90.2381 70.9498 93.7776Z" fill="#E5DDA0"/>
<path d="M152.965 22.2393C146.19 19.2055 141.457 33.9297 138.827 39.2086C136.198 44.4875 130.798 54.8431 136.38 57.6747C141.133 60.1018 148.253 44.1033 150.7 39.2086C153.167 34.314 158.75 24.8282 152.965 22.2393ZM160.327 49.0181C162.674 51.7486 167.507 48.5934 171.371 45.2966C175.133 42.1009 176.366 38.0356 174.647 35.8107C172.018 32.4128 168.62 33.1814 163.907 37.6917C160.449 41.029 156.929 45.0539 160.327 49.0181ZM156.747 66.3515C158.042 71.8529 172.159 68.4145 182.454 66.3515C194.711 63.9042 203.448 62.7311 202.174 55.7937C200.758 48.1484 188.562 52.3351 179.38 54.6408C163.725 58.5444 155.15 59.5354 156.747 66.3515ZM151.347 86.0715C152.338 93.1707 170.38 89.8335 185.65 89.6514C199.039 89.4896 208.019 88.3772 207.332 82.4916C206.604 76.343 195.196 77.5363 182.394 78.4869C169.55 79.4173 150.194 77.9812 151.347 86.0715ZM156.484 102.697C154.361 108.562 159.559 110.059 171.755 115.5C180.776 119.505 188.239 124.197 190.666 118.008C192.85 112.446 184.821 109.291 177.863 106.054C166.557 100.755 158.649 96.7507 156.484 102.697ZM141.133 109.392C135.045 117.219 150.134 124.986 161.076 133.46C172.078 141.995 180.654 148.144 184.173 142.784C187.794 137.242 177.094 130.831 167.669 124.035C158.244 117.259 144.47 105.084 141.133 109.392ZM126.045 126.523C122.182 129.456 123.678 132.874 129.443 140.256C135.47 147.982 140.061 153.827 141.942 156.093C143.823 158.358 150.215 167.197 155.089 163.677C160.348 159.875 153.754 151.967 151.873 149.317C149.992 146.688 137.715 131.438 134.499 128.04C131.283 124.642 128.694 124.5 126.045 126.523ZM108.671 141.186C105.01 142.501 104.242 146.647 106.689 158.52C108.873 169.098 110.37 171.909 111.887 176.804C112.453 178.644 114.698 186.917 120.543 185.238C125.357 183.842 121.878 173.325 120.948 168.714C119.573 161.958 113.384 139.487 108.671 141.186ZM93.2186 137.04C87.7577 135.726 86.1194 145.616 85.1284 157.286C84.38 166.145 83.2878 175.914 89.2342 176.076C96.2929 176.258 95.9895 165.498 96.5761 157.367C97.3244 147.193 97.8099 138.153 93.2186 137.04ZM58.4103 183.519C65.287 186.29 69.0692 174.903 71.9615 167.682C75.7234 158.257 78.7573 151.805 79.8899 148.973C80.9012 146.465 80.3147 141.712 75.9864 140.195C71.6581 138.678 68.9883 146.304 65.7724 153.261C62.5565 160.219 51.4931 180.748 58.4103 183.519ZM38.1846 170.271C43.3421 173.992 46.376 168.471 52.2212 161.109C58.0664 153.767 66.3387 144.888 61.2823 141.449C56.7922 138.395 50.8256 147.032 45.9108 153.079C40.996 159.106 32.5416 166.185 38.1846 170.271ZM19.9411 145.171C21.7816 150.571 29.6898 147.416 38.7307 144.22C47.7716 141.025 64.1746 136.818 61.7273 130.487C60.2306 126.624 48.0345 130.71 36.7284 133.925C31.1056 135.503 17.4735 137.91 19.9411 145.171ZM19.8602 113.862C20.386 120.637 30.9843 119.221 43.0388 119.788C63.9925 120.759 68.8669 119.929 68.9883 115.217C69.1703 108.057 56.1854 109.493 42.3713 108.441C31.3281 107.592 19.1927 105.367 19.8602 113.862ZM31.6315 82.5725C29.6089 87.3457 33.0877 90.7639 44.677 94.809C57.3788 99.2384 62.6374 101.483 65.0241 96.4473C67.4107 91.4111 58.1271 88.3975 48.6008 84.4535C44.2321 82.6534 34.0383 76.9093 31.6315 82.5725ZM40.4701 60.3445C36.4047 65.9065 42.9376 70.4168 53.4752 76.9093C63.9319 83.341 73.62 90.6021 77.6853 84.4939C81.3057 79.0532 66.1567 70.4168 59.5631 66.3717C52.9696 62.3266 43.7871 55.7735 40.4701 60.3445ZM68.5231 35.9119C65.0847 38.1367 66.096 44.0021 73.5997 55.2678C81.1035 66.5335 85.6542 75.1496 91.3174 72.6619C96.4345 70.4168 88.6679 56.9465 84.3396 49.6653C80.1124 42.5054 74.1458 32.2712 68.5231 35.9119ZM97.911 23.2101C93.4411 23.918 92.6119 30.7543 94.7962 41.1301C97.1424 52.3149 99.5897 62.5491 104.687 61.1939C109.804 59.8388 108.226 49.1799 106.507 37.631C105.536 31.1993 103.615 22.3202 97.911 23.2101ZM129.018 16.8188C123.678 16.0705 121.615 20.7831 119.674 32.6555C117.712 44.528 114.719 54.9442 120.24 57.3713C126.085 59.9399 129.402 41.0087 131.122 32.9387C132.416 26.8103 135.126 17.6885 129.018 16.8188Z" fill="#7FB240"/>
<path d="M124.406 44.6092C119.006 43.2541 116.296 47.4004 115.527 52.7804C114.759 58.1604 116.66 60.9111 119.674 61.4774C123.294 62.1449 125.863 60.0414 127.218 55.2277C128.593 50.414 127.966 45.5194 124.406 44.6092ZM134.742 59.5762C137.735 61.1336 141.133 59.3942 142.67 55.7535C143.56 53.6299 144.147 48.6341 140.769 47.1576C137.047 45.5396 134.276 47.3397 132.84 51.1623C131.688 54.2366 131.789 58.0391 134.742 59.5762ZM158.224 50.9803C160.853 53.1849 164.332 51.9309 166.152 50.1308C167.588 48.6948 168.721 45.3576 166.435 42.8698C164.15 40.382 160.428 41.3529 158.81 43.0518C157.172 44.7912 155.25 48.5128 158.224 50.9803ZM170.056 62.8123C170.844 66.5541 167.851 69.3047 163.098 70.1542C158.325 71.0037 155.938 69.3856 155.271 66.4327C154.603 63.4798 156.788 60.4257 160.226 59.3739C163.664 58.3222 169.105 58.3222 170.056 62.8123ZM150.821 86.0718C151.003 90.4608 155.594 91.5327 159.033 91.2294C163.422 90.8451 166.86 88.8427 166.759 85.4044C166.658 81.966 163.462 79.8625 158.547 79.9637C154.34 80.0648 150.599 81.2986 150.821 86.0718ZM154.785 101.747C153.309 104.821 154.967 107.754 158.507 109.291C162.046 110.808 166.799 109.776 167.467 106.803C168.134 103.85 166.516 100.513 162.511 99.4612C158.507 98.4095 156.019 99.178 154.785 101.747ZM138.362 108.522C135.854 111.536 137.128 115.116 141.032 118.635C144.935 122.154 149.567 122.498 151.913 119.788C154.866 116.35 151.529 111.576 148.192 108.907C144.854 106.237 140.283 106.237 138.362 108.522ZM121.858 122.073C118.096 125.31 120.422 130.002 123.193 133.42C125.964 136.858 130.535 138.193 133.407 135.706C136.279 133.218 135.894 128.364 131.506 124.056C127.966 120.617 124.528 119.788 121.858 122.073ZM106.588 136.191C102.381 137.405 102.765 141.814 103.635 145.353C104.484 148.893 107.862 151.805 110.976 150.693C114.213 149.54 115.082 146.87 114.132 142.299C113.181 137.728 109.561 135.342 106.588 136.191ZM94.1892 133.137C90.7306 132.813 88.5664 135.342 87.5147 139.629C86.463 143.917 88.5664 147.74 92.0857 148.124C95.605 148.508 98.295 145.171 98.5781 140.58C98.8613 135.989 97.2433 133.42 94.1892 133.137ZM79.1211 138.112C74.2669 135.746 71.1117 140.499 69.9588 142.987C68.806 145.475 67.7542 151.279 71.678 152.999C75.5816 154.718 79.0604 150.794 80.456 147.659C81.9729 144.221 82.4583 139.73 79.1211 138.112ZM55.3559 148.306C58.41 151.36 62.3944 147.78 63.2844 146.688C64.7204 144.868 64.7406 141.895 63.2844 140.297C61.3832 138.193 58.3291 139.063 56.4076 140.58C54.4862 142.117 52.9693 145.92 55.3559 148.306ZM56.8728 128.364C54.3244 128.809 51.331 130.75 51.9985 133.986C52.6659 137.223 55.4368 138.193 58.774 137.526C62.1113 136.858 63.9316 133.804 63.5473 131.418C63.1832 129.031 59.5426 127.898 56.8728 128.364ZM52.8682 115.116C52.7064 118.837 56.1245 120.516 61.2618 120.941C68.2194 121.507 71.1117 118.817 71.1926 114.55C71.2735 110.626 67.6531 108.725 62.0304 108.826C56.4076 108.927 53.0704 110.727 52.8682 115.116ZM56.3874 92.4024C54.6076 95.1734 56.4886 99.9466 60.5135 100.412C64.5586 100.877 67.5115 97.1959 66.1766 93.2519C64.8417 89.2877 58.9561 88.418 56.3874 92.4024ZM64.0327 75.9792C61.4641 80.1862 64.417 84.0897 69.7566 86.5775C74.4085 88.7416 77.9682 88.2966 79.7683 85.5257C81.5886 82.7548 80.1526 78.467 75.9456 75.7972C71.1117 72.7027 66.5002 71.9745 64.0327 75.9792ZM85.6944 62.428C83.2876 63.7629 81.1032 67.5856 85.1281 73.1072C87.899 76.9298 92.1868 77.5973 94.3914 76.3433C96.2926 75.2713 97.3444 70.2351 94.8768 66.4125C92.7734 63.237 88.9507 60.6279 85.6944 62.428ZM102.583 49.5443C99.3265 49.9892 97.9107 54.6007 99.0433 57.9379C100.095 60.992 102.381 63.0955 105.637 62.428C108.873 61.7606 109.176 57.1896 108.873 55.4704C108.59 53.7512 106.871 48.978 102.583 49.5443Z" fill="#303030"/>
</svg>
