<svg width="247" height="280" viewBox="0 0 247 280" fill="none" xmlns="http://www.w3.org/2000/svg">
<path d="M121.892 22.7179C121.892 22.7179 126.124 12.8666 135.72 6.6104C140.392 3.57566 148.555 -1.11652 150.035 1.52137C150.682 2.66523 148.578 5.62995 146.45 10.2288C145.595 12.1196 143.675 18.2825 143.675 18.2825C143.675 18.2825 152.139 7.10063 166.962 4.15926C178.617 1.82484 191.22 3.34222 192.677 5.95676C194.25 8.78141 185.994 14.991 183.404 20.4068C180.814 25.8227 178.849 32.7326 178.849 32.7326C178.849 32.7326 194.458 25.2858 198.389 23.6984C203.269 21.7374 213.86 17.6289 215.317 19.4264C216.774 21.2239 210.645 31.6587 209.304 33.5496C207.685 35.8607 205.234 40.1327 205.234 40.1327C205.234 40.1327 212.727 36.6777 215.64 34.8802C218.577 33.0827 225.075 27.9703 226.555 28.9741C228.012 29.9546 228.012 39.9459 227.041 44.2646C225.746 50.0073 219.71 56.2635 219.71 56.2635C219.71 56.2635 228.336 58.2244 233.054 64.3172C237.771 70.4101 240.523 75.149 242.489 81.2418C245.425 90.276 246.72 102.602 246.073 104.913C245.425 107.224 241.841 104.096 235.158 103.606C231.204 103.302 230.279 103.279 230.279 103.279C230.279 103.279 234.048 107.807 235.805 111.986C238.095 117.402 240.592 125.946 241.98 129.564C243.437 133.346 244.593 136.311 246.697 140.583C247.322 141.843 242.304 143.057 237.262 138.272C235.574 136.684 233.516 135.144 233.516 135.144C233.516 135.144 236.499 153.049 236.291 165.047C236.129 173.918 234.164 190.026 231.574 191.496C228.96 192.967 223.757 181.645 223.757 181.645C223.757 181.645 221.491 194.531 218.878 203.168C215.779 213.347 212.842 218.109 211.062 224.202C208.934 231.438 206.83 236.691 205.373 234.38C204.101 232.395 202.76 229.291 201.465 226.98C200.47 225.229 198.204 220.56 198.204 220.56C198.204 220.56 195.915 234.52 184.861 243.904C173.807 253.288 166.639 260.829 161.412 261.482C158.337 261.879 161.898 247.849 161.898 247.849C161.898 247.849 144.647 261.529 136.345 267.739C132.599 270.54 129.176 279.737 126.586 279.084C123.973 278.43 117.313 268.229 113.081 265.124C108.849 262.019 100.871 258.378 99.738 257.724C98.6049 257.07 93.2167 253.615 93.2167 253.615C93.2167 253.615 94.558 261.249 93.0549 261.996C89.7942 263.63 77.2605 254.596 73.6761 249.016C70.0917 243.437 63.7555 231.929 63.7555 231.929C63.7555 231.929 62.9461 242.947 60.333 241.126C57.558 239.212 44.053 229.127 39.3355 221.564C36.0055 216.218 30.2242 201.184 30.2242 201.184C30.2242 201.184 25.183 206.437 23.703 207.09C22.223 207.744 18.4999 209.238 19.1474 203.472C19.7949 197.729 15.3317 184.703 14.5917 176.86C13.6205 166.682 15.563 156.153 15.563 156.153C15.563 156.153 7.26111 167.335 3.35298 167.172C-0.555142 167.008 1.73423 145.485 2.70548 138.902C3.67673 132.319 6.93736 120.834 8.23236 116.725C9.52736 112.616 14.4067 106.547 14.4067 106.547C14.4067 106.547 2.35861 110.655 0.577984 109.021C-1.20264 107.387 1.54923 92.7505 3.19111 83.8797C4.02361 79.3276 7.58486 72.2076 12.1405 66.9551C16.6961 61.7027 23.703 62.6832 24.3505 60.3721C24.998 58.061 21.7605 56.2402 19.4711 52.4817C16.0486 46.9025 14.1061 35.3938 15.8867 33.4095C16.9967 32.1956 23.2174 37.0279 30.7099 37.8449C38.2024 38.662 44.8624 38.1717 44.8624 38.1717C44.8624 38.1717 40.538 33.036 38.688 28.8107C36.0749 22.9046 35.913 15.8314 37.5549 14.0105C39.1967 12.1897 44.8855 17.7923 52.5399 19.7532C60.1942 21.7141 71.5949 21.9008 71.5949 21.9008C71.5949 21.9008 66.7155 16.6484 65.4205 10.5556C64.1255 4.48608 64.4492 0.704322 66.5536 0.0506843C68.6811 -0.602953 74.8786 5.25644 79.2492 6.63375C83.9667 8.10443 99.923 7.12397 107.092 9.27164C114.26 11.4193 121.892 22.7179 121.892 22.7179Z" fill="#865C50"/>
<path d="M173.322 74.0052C173.322 74.0052 201.326 47.066 217.606 67.0953C236.915 90.883 185.694 117.052 185.694 117.052L173.322 74.0052ZM75.6648 80.8917C75.6648 80.8917 49.5567 46.3423 30.3629 65.0644C11.1692 83.7864 50.9211 112.43 50.9211 112.43L75.6648 80.8917Z" fill="#FEC000"/>
<path d="M197.418 96.9992C197.418 96.9992 217.93 82.5491 209.466 73.3282C200.424 63.5003 183.751 80.5649 183.751 80.5649L197.418 96.9992ZM63.7323 81.7321C63.7323 81.7321 46.7354 64.7375 37.9479 75.2424C30.0392 84.6968 52.6092 102.859 52.6092 102.859L63.7323 81.7321Z" fill="#FF8E06"/>
<path d="M126.771 199.854C126.771 199.854 143.375 195.255 153.781 190.002C164.187 184.75 202.945 162.736 205.859 135.774C208.796 108.835 205.859 101.598 193.487 85.1636C181.115 68.7293 159.424 64.9476 148.231 67.422C134.888 70.3867 132.599 80.2146 126.748 80.5648C121.221 80.8916 122.84 74.6587 106.884 68.7293C86.4643 61.1424 30.5711 81.4519 40.4686 135.774C45.6718 164.37 86.9499 188.765 92.2224 191.636C104.964 198.546 126.771 199.854 126.771 199.854Z" fill="#FEC000"/>
<path d="M168.989 110.122C170.987 105.055 168.614 99.3437 163.69 97.3651C158.765 95.3866 153.154 97.8902 151.156 102.957C149.158 108.024 151.531 113.736 156.455 115.714C161.38 117.693 166.991 115.189 168.989 110.122Z" fill="#2E2F2F"/>
<path d="M93.7459 114.695C98.7976 112.621 101.196 106.728 99.1034 101.533C97.0105 96.3379 91.2187 93.8076 86.167 95.8814C81.1152 97.9553 78.7166 103.848 80.8095 109.043C82.9023 114.238 88.6942 116.769 93.7459 114.695Z" fill="#2E2F2F"/>
<path d="M126.332 124.055C106.583 123.448 89.2161 145.975 89.2161 183.419C89.2161 219.79 108.317 228.334 123.719 228.334C143.259 228.334 161.69 215.401 159.539 180.128C157.527 147.493 147.375 124.709 126.332 124.055Z" fill="#FFD899"/>
<path d="M103.322 144.645C101.38 146.605 105.057 157.344 108.317 162.83C111.578 168.316 120.897 177.28 126.124 177.07C131.327 176.86 141.109 165.888 144.138 157.787C147.167 149.687 148.046 144.645 146.751 142.66C145.456 140.676 130.032 143.104 124.181 143.104C118.331 143.104 105.288 142.684 103.322 144.645Z" fill="#2E2F2F"/>
<path d="M125.684 169.53C125.684 169.53 117.29 178.75 113.636 180.151C108.526 182.112 100.617 180.431 100.386 183.606C100.177 186.898 105.265 190.353 113.405 189.255C122.401 188.041 125.777 182.462 125.777 182.462C125.777 182.462 130.887 189.792 140.762 190.236C150.636 190.679 152.926 184.33 150.197 183.443C146.497 182.252 144.184 182.486 138.588 180.711C134.148 179.264 125.684 169.53 125.684 169.53Z" fill="#2E2F2F"/>
</svg>
