<svg width="801" height="1363" viewBox="0 0 801 1363" fill="none" xmlns="http://www.w3.org/2000/svg">
<circle cx="330" cy="16" r="16" fill="white"/>
<path d="M329.691 5.97281C329.691 5.97281 330.092 5.04968 331 4.46343C331.441 4.17906 332.214 3.73937 332.354 3.98656C332.415 4.09374 332.216 4.37156 332.015 4.80249C331.934 4.97968 331.752 5.55718 331.752 5.55718C331.752 5.55718 332.553 4.50937 333.955 4.23374C335.057 4.01499 336.25 4.15718 336.387 4.40218C336.536 4.66687 335.755 5.24874 335.51 5.75624C335.265 6.26374 335.079 6.91124 335.079 6.91124C335.079 6.91124 336.556 6.21343 336.928 6.06468C337.389 5.88093 338.391 5.49593 338.529 5.66437C338.667 5.83281 338.087 6.81062 337.96 6.98781C337.807 7.20437 337.575 7.60468 337.575 7.60468C337.575 7.60468 338.284 7.28093 338.56 7.11249C338.837 6.94406 339.452 6.46499 339.592 6.55906C339.73 6.65093 339.73 7.58718 339.638 7.99187C339.515 8.52999 338.945 9.11624 338.945 9.11624C338.945 9.11624 339.76 9.29999 340.207 9.87093C340.653 10.4419 340.913 10.8859 341.099 11.4569C341.377 12.3034 341.5 13.4584 341.438 13.675C341.377 13.8916 341.038 13.5984 340.406 13.5525C340.032 13.5241 339.944 13.5219 339.944 13.5219C339.944 13.5219 340.301 13.9462 340.467 14.3378C340.684 14.8453 340.92 15.6459 341.051 15.985C341.189 16.3394 341.298 16.6172 341.497 17.0175C341.556 17.1356 341.082 17.2494 340.605 16.8009C340.445 16.6522 340.25 16.5078 340.25 16.5078C340.25 16.5078 340.533 18.1856 340.513 19.31C340.498 20.1412 340.312 21.6506 340.067 21.7884C339.82 21.9262 339.327 20.8653 339.327 20.8653C339.327 20.8653 339.113 22.0728 338.866 22.8822C338.573 23.8359 338.295 24.2822 338.126 24.8531C337.925 25.5312 337.726 26.0234 337.588 25.8069C337.468 25.6209 337.341 25.33 337.219 25.1134C337.125 24.9494 336.91 24.5119 336.91 24.5119C336.91 24.5119 336.694 25.82 335.648 26.6994C334.602 27.5787 333.924 28.2853 333.43 28.3466C333.139 28.3837 333.476 27.0691 333.476 27.0691C333.476 27.0691 331.844 28.3509 331.059 28.9328C330.704 29.1953 330.38 30.0572 330.135 29.9959C329.888 29.9347 329.258 28.9787 328.858 28.6878C328.458 28.3969 327.703 28.0556 327.596 27.9944C327.489 27.9331 326.979 27.6094 326.979 27.6094C326.979 27.6094 327.106 28.3247 326.964 28.3947C326.655 28.5478 325.47 27.7012 325.13 27.1784C324.791 26.6556 324.192 25.5772 324.192 25.5772C324.192 25.5772 324.115 26.6097 323.868 26.4391C323.606 26.2597 322.328 25.3147 321.882 24.6059C321.567 24.105 321.02 22.6962 321.02 22.6962C321.02 22.6962 320.543 23.1884 320.403 23.2497C320.263 23.3109 319.911 23.4509 319.972 22.9106C320.034 22.3725 319.611 21.1519 319.541 20.4169C319.45 19.4631 319.633 18.4766 319.633 18.4766C319.633 18.4766 318.848 19.5244 318.478 19.5091C318.109 19.4937 318.325 17.4769 318.417 16.86C318.509 16.2431 318.817 15.1669 318.94 14.7819C319.062 14.3969 319.524 13.8281 319.524 13.8281C319.524 13.8281 318.384 14.2131 318.216 14.06C318.047 13.9069 318.308 12.5353 318.463 11.7041C318.542 11.2775 318.879 10.6103 319.31 10.1181C319.74 9.62593 320.403 9.71781 320.465 9.50124C320.526 9.28468 320.22 9.11406 320.003 8.76187C319.679 8.23906 319.495 7.16062 319.664 6.97468C319.769 6.86093 320.357 7.31374 321.066 7.39031C321.775 7.46687 322.405 7.42093 322.405 7.42093C322.405 7.42093 321.996 6.93968 321.821 6.54374C321.574 5.99031 321.558 5.32749 321.714 5.15687C321.869 4.98624 322.407 5.51124 323.131 5.69499C323.855 5.87874 324.934 5.89624 324.934 5.89624C324.934 5.89624 324.472 5.40406 324.35 4.83312C324.227 4.26437 324.258 3.90999 324.457 3.84874C324.658 3.78749 325.244 4.33656 325.658 4.46562C326.104 4.60343 327.613 4.51156 328.291 4.71281C328.97 4.91406 329.691 5.97281 329.691 5.97281Z" fill="#865C50"/>
<path d="M334.557 10.7786C334.557 10.7786 337.206 8.25426 338.746 10.1311C340.572 12.3602 335.727 14.8124 335.727 14.8124L334.557 10.7786ZM325.319 11.4239C325.319 11.4239 322.849 8.18644 321.033 9.94082C319.218 11.6952 322.978 14.3793 322.978 14.3793L325.319 11.4239Z" fill="#FEC000"/>
<path d="M336.836 12.9334C336.836 12.9334 338.776 11.5793 337.975 10.7153C337.12 9.79434 335.543 11.3934 335.543 11.3934L336.836 12.9334ZM324.19 11.5028C324.19 11.5028 322.582 9.91028 321.751 10.8947C321.003 11.7806 323.138 13.4825 323.138 13.4825L324.19 11.5028Z" fill="#FF8E06"/>
<path d="M330.153 22.5716C330.153 22.5716 331.723 22.1407 332.708 21.6485C333.692 21.1563 337.358 19.0935 337.634 16.5669C337.912 14.0425 337.634 13.3644 336.464 11.8244C335.293 10.2844 333.242 9.93003 332.183 10.1619C330.921 10.4397 330.704 11.3607 330.151 11.3935C329.628 11.4241 329.781 10.84 328.272 10.2844C326.34 9.57347 321.053 11.4766 321.989 16.5669C322.481 19.2466 326.386 21.5325 326.885 21.8016C328.09 22.4491 330.153 22.5716 330.153 22.5716Z" fill="#FEC000"/>
<path d="M334.146 14.1633C334.335 13.6884 334.111 13.1532 333.645 12.9678C333.179 12.7824 332.648 13.017 332.459 13.4918C332.27 13.9667 332.495 14.5019 332.961 14.6873C333.426 14.8727 333.957 14.6381 334.146 14.1633Z" fill="#2E2F2F"/>
<path d="M327.029 14.5917C327.507 14.3974 327.734 13.8452 327.536 13.3584C327.338 12.8716 326.79 12.6345 326.313 12.8288C325.835 13.0231 325.608 13.5753 325.806 14.0621C326.004 14.5489 326.552 14.7861 327.029 14.5917Z" fill="#2E2F2F"/>
<path d="M330.112 15.4687C328.243 15.4118 326.601 17.5227 326.601 21.0315C326.601 24.4396 328.407 25.2402 329.864 25.2402C331.713 25.2402 333.456 24.0283 333.253 20.723C333.062 17.6649 332.102 15.5299 330.112 15.4687Z" fill="#FFD899"/>
<path d="M327.935 17.3982C327.751 17.5819 328.099 18.5882 328.407 19.1022C328.716 19.6163 329.597 20.4563 330.092 20.4366C330.584 20.4169 331.509 19.3888 331.796 18.6297C332.082 17.8707 332.166 17.3982 332.043 17.2122C331.921 17.0263 330.461 17.2538 329.908 17.2538C329.355 17.2538 328.121 17.2144 327.935 17.3982Z" fill="#2E2F2F"/>
<path d="M330.05 19.73C330.05 19.73 329.256 20.594 328.91 20.7253C328.427 20.909 327.679 20.7515 327.657 21.049C327.637 21.3575 328.118 21.6812 328.888 21.5784C329.739 21.4647 330.059 20.9419 330.059 20.9419C330.059 20.9419 330.542 21.6287 331.476 21.6703C332.41 21.7119 332.627 21.1169 332.369 21.0337C332.019 20.9222 331.8 20.944 331.271 20.7778C330.851 20.6422 330.05 19.73 330.05 19.73Z" fill="#2E2F2F"/>
<path d="M801 918.5C801 800.611 758.805 687.551 683.696 604.191C608.588 520.831 506.719 474 400.5 474C294.281 474 192.412 520.831 117.304 604.191C42.1954 687.551 1.60387e-05 800.611 0 918.5L400.5 918.5H801Z" fill="#FFEBB4"/>
</svg>
