<svg width="47" height="47" viewBox="0 0 47 47" fill="none" xmlns="http://www.w3.org/2000/svg">
<path d="M0.0546997 25.8513C0.573883 33.5997 9.28593 45.8713 24.0591 46.8625C34.1556 47.5429 43.91 42.7916 46.0221 31.5977C47.9651 21.3085 44.024 11.621 40.8893 7.28264C35.9963 0.513588 24.5232 -3.33702 12.2634 3.88041C1.23859 10.382 -0.346487 19.8453 0.0546997 25.8513Z" fill="#95683D"/>
<path d="M3.08331 30.0364C8.42853 39.8694 24.0984 40.5302 32.606 33.7847C41.9473 26.3785 44.1224 15.57 39.0485 8.01826C33.1566 -0.748854 19.5831 0.501907 11.288 6.27979C3.15017 11.9515 -0.952165 22.6144 3.08331 30.0364Z" fill="#B7D118"/>
<path d="M13.7974 18.2366C13.4866 19.1727 14.7217 19.9514 14.5329 21.7686C14.2575 24.3842 12.4601 25.8906 12.9714 26.4019C13.6125 27.043 15.524 25.8394 17.9744 25.3911C20.7277 24.8876 21.1879 26.1423 21.9194 25.7568C22.7926 25.2967 22.3442 23.2632 24.122 21.6742C25.8644 20.1127 27.5636 20.0694 27.8861 19.562C28.2086 19.0586 27.6108 17.5876 28.0238 15.798C28.4368 14.0084 29.9196 12.3839 29.4161 11.6956C28.9127 11.0073 26.8477 12.9818 24.4918 12.8599C22.9342 12.7812 22.1043 12.0339 21.4632 12.3564C20.8221 12.6789 20.5349 14.677 18.7099 16.2581C16.3185 18.3309 14.0255 17.5482 13.7974 18.2366Z" fill="#E5DDA0"/>
<path d="M29.7465 4.32506C28.4289 3.73507 27.5085 6.59845 26.9972 7.62502C26.4859 8.65158 25.4357 10.6654 26.5213 11.216C27.4456 11.688 28.8301 8.57685 29.306 7.62502C29.7858 6.67318 30.8714 4.82851 29.7465 4.32506ZM31.1782 9.53262C31.6344 10.0636 32.5745 9.45002 33.3257 8.80891C34.0573 8.18746 34.2972 7.39689 33.9629 6.96424C33.4516 6.30346 32.7908 6.45292 31.8744 7.33003C31.2018 7.979 30.5174 8.76171 31.1782 9.53262ZM30.482 12.9034C30.7337 13.9732 33.4791 13.3046 35.4811 12.9034C37.8646 12.4275 39.5638 12.1993 39.316 10.8502C39.0407 9.36349 36.6689 10.1777 34.8833 10.6261C31.839 11.3852 30.1713 11.5779 30.482 12.9034ZM29.4318 16.7383C29.6246 18.1188 33.133 17.4698 36.1026 17.4344C38.7063 17.403 40.4527 17.1866 40.3189 16.0421C40.1774 14.8464 37.959 15.0784 35.4693 15.2633C32.9717 15.4442 29.2076 15.165 29.4318 16.7383ZM30.4309 19.9714C30.0179 21.112 31.0287 21.403 33.4004 22.4611C35.1546 23.2398 36.606 24.1524 37.078 22.9488C37.5028 21.8672 35.9413 21.2536 34.5883 20.6243C32.3896 19.5938 30.8517 18.815 30.4309 19.9714ZM27.4456 21.2732C26.2617 22.7954 29.1958 24.3057 31.3237 25.9538C33.4634 27.6136 35.131 28.8093 35.8154 27.767C36.5195 26.6893 34.4388 25.4424 32.6059 24.1209C30.7731 22.8033 28.0945 20.4355 27.4456 21.2732ZM24.5114 24.6047C23.7601 25.175 24.0512 25.8397 25.1722 27.2753C26.3443 28.7778 27.2371 29.9145 27.6029 30.355C27.9687 30.7955 29.2116 32.5143 30.1595 31.83C31.1821 31.0905 29.8999 29.5526 29.5341 29.0374C29.1683 28.5261 26.7809 25.5604 26.1555 24.8997C25.5301 24.2389 25.0266 24.2114 24.5114 24.6047ZM21.1328 27.4562C20.4209 27.7119 20.2714 28.5182 20.7473 30.827C21.1721 32.8841 21.4632 33.4308 21.7581 34.3826C21.8683 34.7405 22.3049 36.3492 23.4416 36.0228C24.3777 35.7514 23.7011 33.7061 23.5202 32.8093C23.2528 31.4956 22.0492 27.1259 21.1328 27.4562ZM18.1278 26.6499C17.0658 26.3943 16.7472 28.3176 16.5545 30.5871C16.409 32.3098 16.1966 34.2096 17.353 34.241C18.7256 34.2764 18.6666 32.184 18.7807 30.6028C18.9262 28.6244 19.0206 26.8663 18.1278 26.6499ZM11.3587 35.6884C12.696 36.2273 13.4315 34.0129 13.994 32.6087C14.7256 30.7759 15.3156 29.5212 15.5358 28.9705C15.7325 28.4828 15.6184 27.5585 14.7767 27.2635C13.935 26.9685 13.4158 28.4513 12.7904 29.8044C12.1651 31.1574 10.0136 35.1496 11.3587 35.6884ZM7.42554 33.1122C8.42851 33.8359 9.01849 32.7621 10.1552 31.3305C11.2919 29.9027 12.9006 28.176 11.9173 27.5074C11.0441 26.9135 9.88379 28.5929 8.92802 29.769C7.97226 30.9411 6.32817 32.3177 7.42554 33.1122ZM3.87779 28.2311C4.23571 29.2813 5.77359 28.6677 7.53174 28.0462C9.28988 27.4248 12.4797 26.6067 12.0038 25.3756C11.7127 24.6243 9.34101 25.4188 7.14235 26.0442C6.04892 26.351 3.39794 26.8191 3.87779 28.2311ZM3.86205 22.1425C3.96432 23.4601 6.02532 23.1848 8.36951 23.2949C12.4443 23.4837 13.3922 23.3224 13.4158 22.406C13.4512 21.0137 10.9261 21.2929 8.23971 21.0884C6.09218 20.9232 3.73226 20.4905 3.86205 22.1425ZM6.15118 16.0578C5.75786 16.986 6.43437 17.6508 8.6881 18.4374C11.1582 19.2988 12.1808 19.7354 12.6449 18.756C13.109 17.7766 11.3037 17.1906 9.45114 16.4236C8.60157 16.0735 6.61923 14.9565 6.15118 16.0578ZM7.86999 11.7352C7.07942 12.8168 8.34984 13.694 10.399 14.9565C12.4325 16.2073 14.3165 17.6193 15.1071 16.4315C15.8111 15.3734 12.8652 13.694 11.5829 12.9073C10.3007 12.1207 8.51504 10.8463 7.86999 11.7352ZM13.3253 6.9839C12.6567 7.41656 12.8534 8.55719 14.3126 10.748C15.7718 12.9388 16.6568 14.6143 17.7581 14.1305C18.7532 13.694 17.2428 11.0744 16.4011 9.65848C15.5791 8.26613 14.4188 6.27593 13.3253 6.9839ZM19.0403 4.51385C18.1711 4.65151 18.0098 5.98094 18.4346 7.99867C18.8908 10.1737 19.3668 12.1639 20.3579 11.9004C21.353 11.6369 21.0462 9.56409 20.7119 7.31823C20.5231 6.06747 20.1495 4.34079 19.0403 4.51385ZM25.0896 3.27096C24.0512 3.12543 23.65 4.04186 23.2724 6.35066C22.8909 8.65945 22.3088 10.6851 23.3826 11.157C24.5193 11.6566 25.1643 7.97507 25.4986 6.40572C25.7503 5.21396 26.2774 3.44008 25.0896 3.27096Z" fill="#7FB240"/>
<path d="M24.1928 8.67495C23.1426 8.41143 22.6156 9.21774 22.4661 10.264C22.3167 11.3102 22.6864 11.8451 23.2724 11.9552C23.9765 12.085 24.476 11.676 24.7395 10.7399C25.007 9.80378 24.885 8.85195 24.1928 8.67495ZM26.2027 11.5855C26.7848 11.8884 27.4456 11.5501 27.7445 10.8422C27.9175 10.4292 28.0316 9.45766 27.3748 9.17054C26.651 8.85588 26.1122 9.20594 25.8329 9.94931C25.6087 10.5472 25.6284 11.2866 26.2027 11.5855ZM30.7691 9.91391C31.2804 10.3426 31.9569 10.0988 32.3109 9.74872C32.5902 9.46946 32.8104 8.82048 32.366 8.3367C31.9215 7.85291 31.1978 8.04171 30.8832 8.3721C30.5646 8.71035 30.1909 9.43406 30.7691 9.91391ZM33.07 12.2148C33.2234 12.9425 32.6413 13.4774 31.717 13.6426C30.7888 13.8078 30.3247 13.4931 30.1949 12.9189C30.0651 12.3446 30.4899 11.7507 31.1585 11.5462C31.8271 11.3417 32.8852 11.3417 33.07 12.2148ZM29.3296 16.738C29.365 17.5915 30.2578 17.8 30.9264 17.741C31.7799 17.6663 32.4486 17.2769 32.4289 16.6082C32.4093 15.9396 31.7878 15.5305 30.832 15.5502C30.0139 15.5699 29.2863 15.8098 29.3296 16.738ZM30.1005 19.7863C29.8133 20.3841 30.1359 20.9544 30.8242 21.2534C31.5125 21.5483 32.4368 21.3477 32.5666 20.7696C32.6964 20.1953 32.3817 19.5463 31.603 19.3418C30.8242 19.1373 30.3404 19.2867 30.1005 19.7863ZM26.9067 21.1039C26.419 21.6899 26.6668 22.3861 27.4259 23.0705C28.185 23.7549 29.0857 23.8217 29.542 23.2947C30.1162 22.626 29.4672 21.6978 28.8182 21.1786C28.1693 20.6594 27.2804 20.6594 26.9067 21.1039ZM23.6972 23.7391C22.9656 24.3685 23.4179 25.281 23.9568 25.9457C24.4956 26.6143 25.3846 26.8739 25.9431 26.3901C26.5016 25.9063 26.4269 24.9624 25.5733 24.1246C24.885 23.4559 24.2164 23.2947 23.6972 23.7391ZM20.7276 26.4845C19.9095 26.7205 19.9843 27.5779 20.1534 28.2663C20.3186 28.9546 20.9754 29.521 21.5811 29.3046C22.2105 29.0804 22.3796 28.5613 22.1947 27.6723C22.0099 26.7834 21.3058 26.3193 20.7276 26.4845ZM18.3166 25.8906C17.644 25.8277 17.2231 26.3193 17.0186 27.1532C16.8141 27.987 17.2231 28.7304 17.9075 28.8051C18.5919 28.8798 19.115 28.2309 19.1701 27.338C19.2252 26.4452 18.9105 25.9457 18.3166 25.8906ZM15.3863 26.8582C14.4424 26.398 13.8288 27.3223 13.6046 27.8061C13.3804 28.2899 13.1759 29.4187 13.9389 29.753C14.698 30.0873 15.3745 29.3243 15.6459 28.7146C15.9409 28.046 16.0353 27.1728 15.3863 26.8582ZM10.7648 28.8405C11.3587 29.4344 12.1336 28.7382 12.3066 28.5259C12.5859 28.1719 12.5898 27.5937 12.3066 27.283C11.9369 26.8739 11.343 27.043 10.9693 27.338C10.5957 27.6369 10.3007 28.3764 10.7648 28.8405ZM11.0598 24.9624C10.5642 25.0489 9.98211 25.4265 10.1119 26.0558C10.2417 26.6851 10.7806 26.8739 11.4295 26.7441C12.0785 26.6143 12.4325 26.0204 12.3578 25.5563C12.287 25.0922 11.579 24.8719 11.0598 24.9624ZM10.281 22.3861C10.2496 23.1098 10.9143 23.4363 11.9133 23.5189C13.2663 23.629 13.8288 23.1059 13.8445 22.276C13.8603 21.5129 13.1562 21.1432 12.0628 21.1629C10.9694 21.1826 10.3204 21.5326 10.281 22.3861ZM10.9654 17.9691C10.6193 18.508 10.9851 19.4362 11.7678 19.5267C12.5544 19.6171 13.1287 18.9013 12.8691 18.1343C12.6095 17.3634 11.4649 17.1943 10.9654 17.9691ZM12.4522 14.7754C11.9527 15.5935 12.5269 16.3526 13.5653 16.8364C14.4699 17.2572 15.1621 17.1707 15.5122 16.6318C15.8662 16.093 15.5869 15.2591 14.7688 14.74C13.8288 14.1382 12.932 13.9966 12.4522 14.7754ZM16.6646 12.1401C16.1966 12.3997 15.7718 13.1431 16.5545 14.2168C17.0934 14.9602 17.9272 15.09 18.3559 14.8462C18.7256 14.6377 18.9302 13.6583 18.4503 12.915C18.0413 12.2974 17.2979 11.7901 16.6646 12.1401ZM19.9489 9.63466C19.3156 9.72119 19.0403 10.618 19.2605 11.2669C19.4651 11.8609 19.9095 12.2699 20.5428 12.1401C21.1721 12.0103 21.2311 11.1214 21.1721 10.7871C21.117 10.4528 20.7827 9.52453 19.9489 9.63466Z" fill="#303030"/>
</svg>
