<svg width="92" height="73" viewBox="0 0 92 73" fill="none" xmlns="http://www.w3.org/2000/svg">
<path d="M6.5625 42.6562H85.3125V62.3438H6.5625V42.6562Z" fill="black"/>
<path d="M64.9359 9.87646C67.3641 9.87646 69.5953 11.2546 70.6781 13.4202L72.1613 16.3865L75.2456 26.2401L82.0181 36.0937H85.4503C88.9941 36.0937 91.8783 38.9779 91.8783 42.5151L90.6117 47.5026L91.8783 52.4868V55.919C91.8783 59.4627 88.9908 62.3437 85.447 62.3437H83.5734C83.8047 60.4968 83.6405 58.6219 83.0918 56.8433C82.5431 55.0647 81.6223 53.4232 80.3907 52.0277C79.159 50.6322 77.6446 49.5146 75.948 48.7491C74.2514 47.9837 72.4114 47.5878 70.5502 47.5878C68.6889 47.5878 66.8489 47.9837 65.1523 48.7491C63.4557 49.5146 61.9413 50.6322 60.7097 52.0277C59.478 53.4232 58.5573 55.0647 58.0085 56.8433C57.4598 58.6219 57.2956 60.4968 57.5269 62.3437H34.3547C34.586 60.4968 34.4218 58.6219 33.873 56.8433C33.3243 55.0647 32.4036 53.4232 31.1719 52.0277C29.9403 50.6322 28.4259 49.5146 26.7293 48.7491C25.0327 47.9837 23.1927 47.5878 21.3314 47.5878C19.4701 47.5878 17.6301 47.9837 15.9335 48.7491C14.2369 49.5146 12.7226 50.6322 11.4909 52.0277C10.2593 53.4232 9.33851 55.0647 8.78977 56.8433C8.24103 58.6219 8.07685 60.4968 8.30813 62.3437H6.43125C2.8875 62.3437 0 59.4594 0 55.919V52.513L4.33125 47.5977L0 42.6824C0 38.909 2.8875 36.1265 6.43125 36.1265L16.4062 36.1232L23.6152 26.5682L26.2664 16.4062L27.7594 13.4202C28.2943 12.3556 29.1145 11.4605 30.1284 10.8348C31.1423 10.2091 32.3101 9.87728 33.5016 9.87646H64.9359Z" fill="#636363"/>
<path d="M32.8125 60.7031C32.8125 63.749 31.6025 66.6701 29.4488 68.8238C27.2951 70.9775 24.374 72.1875 21.3281 72.1875C18.2823 72.1875 15.3612 70.9775 13.2074 68.8238C11.0537 66.6701 9.84375 63.749 9.84375 60.7031C9.84375 57.6573 11.0537 54.7362 13.2074 52.5824C15.3612 50.4287 18.2823 49.2188 21.3281 49.2188C24.374 49.2188 27.2951 50.4287 29.4488 52.5824C31.6025 54.7362 32.8125 57.6573 32.8125 60.7031ZM82.0312 60.7031C82.0312 63.749 80.8213 66.6701 78.6676 68.8238C76.5138 70.9775 73.5927 72.1875 70.5469 72.1875C67.501 72.1875 64.5799 70.9775 62.4262 68.8238C60.2725 66.6701 59.0625 63.749 59.0625 60.7031C59.0625 57.6573 60.2725 54.7362 62.4262 52.5824C64.5799 50.4287 67.501 49.2188 70.5469 49.2188C73.5927 49.2188 76.5138 50.4287 78.6676 52.5824C80.8213 54.7362 82.0312 57.6573 82.0312 60.7031Z" fill="#321B41"/>
<path d="M45.9375 6.5625H52.5V9.84375H45.9375V6.5625ZM19.6875 47.6766V36.0938H72.1875V47.6766C70.2016 47.4256 68.1845 47.6321 66.2907 48.2805C64.3968 48.9288 62.6764 50.0017 61.2609 51.4172C59.8455 52.8326 58.7726 54.5531 58.1242 56.4469C57.4759 58.3408 57.2693 60.3578 57.5203 62.3438H34.3547C34.6057 60.3578 34.3991 58.3408 33.7508 56.4469C33.1024 54.5531 32.0295 52.8326 30.6141 51.4172C29.1986 50.0017 27.4782 48.9288 25.5843 48.2805C23.6905 47.6321 21.6734 47.4256 19.6875 47.6766ZM26.25 60.7031C26.25 62.0085 25.7314 63.2604 24.8084 64.1834C23.8854 65.1064 22.6335 65.625 21.3281 65.625C20.0228 65.625 18.7709 65.1064 17.8478 64.1834C16.9248 63.2604 16.4062 62.0085 16.4062 60.7031C16.4062 59.3978 16.9248 58.1459 17.8478 57.2228C18.7709 56.2998 20.0228 55.7812 21.3281 55.7812C22.6335 55.7812 23.8854 56.2998 24.8084 57.2228C25.7314 58.1459 26.25 59.3978 26.25 60.7031ZM75.4688 60.7031C75.4688 61.3495 75.3414 61.9895 75.0941 62.5866C74.8467 63.1838 74.4842 63.7264 74.0272 64.1834C73.5701 64.6405 73.0275 65.003 72.4304 65.2503C71.8332 65.4977 71.1932 65.625 70.5469 65.625C69.9005 65.625 69.2605 65.4977 68.6634 65.2503C68.0662 65.003 67.5236 64.6405 67.0666 64.1834C66.6095 63.7264 66.247 63.1838 65.9997 62.5866C65.7523 61.9895 65.625 61.3495 65.625 60.7031C65.625 59.3978 66.1436 58.1459 67.0666 57.2228C67.9896 56.2998 69.2415 55.7812 70.5469 55.7812C71.8522 55.7812 73.1041 56.2998 74.0272 57.2228C74.9502 58.1459 75.4687 59.3978 75.4688 60.7031Z" fill="#D3D3D3"/>
<path d="M6.5625 45.9375C6.5625 44.1328 5.08594 42.6562 3.28125 42.6562H0V52.5H3.28125C5.08594 52.5 6.5625 51.0234 6.5625 49.2188V45.9375Z" fill="#FFF478"/>
<path fill-rule="evenodd" clip-rule="evenodd" d="M45.9375 3.28125C45.9375 1.47656 47.4141 0 49.2188 0C51.0234 0 52.5 1.47656 52.5 3.28125V6.5625H45.9375V3.28125ZM85.3125 47.8078C85.1813 44.9859 87.4453 42.6562 90.2344 42.6562H91.875V52.5H90.3984C87.7406 52.5 85.4437 50.4656 85.3125 47.8078Z" fill="#F92F60"/>
<path d="M42.7219 36.0938H16.4062L26.25 16.4062H42.7219C44.4938 16.4062 45.9375 17.85 45.9375 19.6219V32.8781C45.9375 34.65 44.4938 36.0938 42.7219 36.0938ZM55.7156 36.0938H82.0312L72.1875 16.4062H55.7156C53.9437 16.4062 52.5 17.85 52.5 19.6219V32.8781C52.5 34.65 53.9437 36.0938 55.7156 36.0938Z" fill="#26C9FC"/>
<path d="M29.9578 39.375H31.2375C32.1234 39.375 32.8125 38.6531 32.8125 37.8V31.1062C32.8125 30.8994 32.7718 30.6946 32.6926 30.5035C32.6135 30.3124 32.4974 30.1388 32.3512 29.9926C32.2049 29.8463 32.0313 29.7303 31.8402 29.6511C31.6491 29.572 31.4443 29.5312 31.2375 29.5312H29.9578C27.9234 29.5312 26.25 31.2047 26.25 33.2391V35.6672C26.25 37.7344 27.9234 39.375 29.9578 39.375Z" fill="#D3D3D3"/>
<path d="M29.9578 39.375H31.2375C32.1234 39.375 32.8125 38.6531 32.8125 37.8V31.1062C32.8125 30.8994 32.7718 30.6946 32.6926 30.5035C32.6135 30.3124 32.4974 30.1388 32.3512 29.9926C32.2049 29.8463 32.0313 29.7303 31.8402 29.6511C31.6491 29.572 31.4443 29.5312 31.2375 29.5312H29.9578C27.9234 29.5312 26.25 31.2047 26.25 33.2391V35.6672C26.25 37.7344 27.9234 39.375 29.9578 39.375Z" fill="#9B9B9B"/>
</svg>
