<svg width="73" height="73" viewBox="0 0 73 73" fill="none" xmlns="http://www.w3.org/2000/svg">
<path d="M0.0858013 40.2152C0.900186 52.2689 14.5658 71.359 37.7388 72.9009C53.5761 73.9595 68.8766 66.5682 72.1897 49.1545C75.2375 33.1482 69.0555 18.078 64.1384 11.3291C56.4634 0.798956 38.4668 -5.19119 19.2362 6.0365C1.94284 16.1506 -0.543496 30.872 0.0858013 40.2152Z" fill="#95683D"/>
<path d="M5.42143 46.2078C13.6648 61.5446 37.8308 62.5753 50.9511 52.0542C65.3573 40.5025 68.7116 23.6442 60.8868 11.8655C51.8003 -1.80881 30.8673 0.142037 18.0746 9.15397C5.52455 18.0003 -0.802045 34.6315 5.42143 46.2078Z" fill="#B7D118"/>
<path d="M22.3778 28.2285C21.9109 29.6604 23.7666 30.8516 23.4829 33.6312C23.0692 37.632 20.3685 39.9362 21.1368 40.7183C22.1 41.699 24.9721 39.858 28.6539 39.1722C32.7906 38.4021 33.4821 40.3213 34.5813 39.7317C35.8932 39.0278 35.2195 35.9173 37.8907 33.4868C40.5087 31.0983 43.0617 31.0321 43.5463 30.256C44.0309 29.4859 43.1326 27.2358 43.7531 24.4984C44.3736 21.761 46.6016 19.2763 45.8451 18.2234C45.0887 17.1706 41.9861 20.1908 38.4462 20.0043C36.106 19.8839 34.859 18.7408 33.8958 19.2342C32.9325 19.7275 32.5011 22.7838 29.759 25.2023C26.1659 28.3729 22.7205 27.1757 22.3778 28.2285Z" fill="#E5DDA0"/>
<path d="M46.481 6.66158C44.4237 5.74451 42.9866 10.1953 42.1882 11.791C41.3899 13.3867 39.7501 16.517 41.4451 17.3729C42.8883 18.1066 45.0501 13.2706 45.7932 11.791C46.5424 10.3115 48.2374 7.44414 46.481 6.66158ZM48.7164 14.7562C49.4288 15.5816 50.8966 14.6278 52.0696 13.6313C53.2119 12.6653 53.5865 11.4364 53.0645 10.7639C52.2661 9.7368 51.2344 9.96913 49.8034 11.3325C48.7533 12.3413 47.6847 13.5579 48.7164 14.7562ZM47.6294 19.9957C48.0225 21.6587 52.3091 20.6193 55.435 19.9957C59.1566 19.2559 61.8097 18.9013 61.4228 16.8043C60.9929 14.4933 57.2897 15.7589 54.5015 16.4558C49.7482 17.6358 47.1443 17.9354 47.6294 19.9957ZM45.9897 25.9566C46.2906 28.1026 51.7687 27.0938 56.4053 27.0388C60.4709 26.9899 63.1976 26.6536 62.9888 24.8745C62.7677 23.0159 59.304 23.3766 55.4166 23.664C51.5169 23.9452 45.6396 23.5111 45.9897 25.9566ZM47.5496 30.9822C46.9048 32.7552 48.4831 33.2076 52.1863 34.8522C54.9253 36.0627 57.1914 37.4811 57.9284 35.6103C58.5916 33.929 56.1535 32.9753 54.0409 31.997C50.6079 30.3952 48.2067 29.1847 47.5496 30.9822ZM42.8883 33.0058C41.0398 35.3719 45.6212 37.7195 48.9437 40.2812C52.2845 42.8612 54.8884 44.7198 55.957 43.0997C57.0563 41.4245 53.8076 39.4864 50.9457 37.4322C48.0839 35.3841 43.9017 31.7036 42.8883 33.0058ZM38.3069 38.1842C37.134 39.0707 37.5884 40.1039 39.3387 42.3354C41.1688 44.6709 42.5629 46.4378 43.134 47.1225C43.7051 47.8073 45.6458 50.479 47.1258 49.4152C48.7226 48.2658 46.7205 45.8753 46.1494 45.0744C45.5782 44.2796 41.8505 39.6698 40.874 38.6427C39.8975 37.6156 39.1115 37.5728 38.3069 38.1842ZM33.0316 42.6167C31.92 43.0141 31.6866 44.2674 32.4297 47.8562C33.093 51.0537 33.5474 51.9035 34.008 53.383C34.18 53.9394 34.8617 56.4399 36.6365 55.9325C38.0981 55.5106 37.0418 52.3314 36.7593 50.9375C36.3417 48.8955 34.4625 42.1031 33.0316 42.6167ZM28.3396 41.3633C26.6815 40.966 26.184 43.9556 25.8831 47.4832C25.6559 50.1611 25.3243 53.114 27.1298 53.1629C29.2731 53.218 29.181 49.9654 29.3591 47.5077C29.5863 44.4325 29.7337 41.6996 28.3396 41.3633ZM17.7705 55.4128C19.8585 56.2504 21.0069 52.8083 21.8851 50.6257C23.0274 47.7767 23.9486 45.8264 24.2925 44.9705C24.5996 44.2124 24.4215 42.7756 23.1073 42.3171C21.793 41.8586 20.9824 44.1635 20.0059 46.2666C19.0294 48.3697 15.6702 54.5752 17.7705 55.4128ZM11.6292 51.4083C13.1952 52.5332 14.1164 50.8641 15.8912 48.6387C17.6661 46.4194 20.1779 43.7355 18.6425 42.6962C17.2792 41.773 15.4675 44.3835 13.9752 46.2116C12.4828 48.0335 9.91576 50.1733 11.6292 51.4083ZM6.08974 43.8211C6.6486 45.4535 9.04984 44.4997 11.795 43.5337C14.5402 42.5678 19.5207 41.2961 18.7776 39.3825C18.3232 38.2148 14.62 39.4497 11.187 40.4218C9.47973 40.8987 5.3405 41.6262 6.08974 43.8211ZM6.06518 34.357C6.22485 36.4051 9.44288 35.9771 13.1031 36.1483C19.4655 36.4418 20.9455 36.1911 20.9824 34.7666C21.0376 32.6023 17.0949 33.0364 12.9004 32.7185C9.54729 32.4617 5.86251 31.7892 6.06518 34.357ZM9.63941 24.899C9.02528 26.3418 10.0816 27.375 13.6005 28.5978C17.4573 29.9367 19.054 30.6153 19.7787 29.093C20.5033 27.5707 17.6845 26.6597 14.7919 25.4675C13.4654 24.9234 10.3702 23.1871 9.63941 24.899ZM12.3231 18.1799C11.0887 19.8612 13.0724 21.2246 16.272 23.1871C19.447 25.1313 22.3887 27.3261 23.6231 25.4798C24.7224 23.8352 20.1226 21.2246 18.1205 20.0018C16.1185 18.7791 13.3303 16.7982 12.3231 18.1799ZM20.8411 10.7945C19.7971 11.467 20.1042 13.24 22.3826 16.6454C24.661 20.0507 26.0428 22.6552 27.7624 21.9032C29.3161 21.2246 26.9578 17.1528 25.6436 14.9519C24.3601 12.7876 22.5484 9.69401 20.8411 10.7945ZM29.7644 6.95504C28.4072 7.16902 28.1554 9.23548 28.8187 12.3718C29.531 15.7528 30.2741 18.8463 31.8217 18.4367C33.3755 18.0271 32.8965 14.8051 32.3745 11.3142C32.0797 9.36998 31.4963 6.68603 29.7644 6.95504ZM39.2097 5.02309C37.5884 4.79688 36.962 6.22139 36.3724 9.81017C35.7767 13.399 34.8678 16.5475 36.5444 17.2812C38.3192 18.0576 39.3264 12.3352 39.8484 9.89576C40.2414 8.04329 41.0644 5.28598 39.2097 5.02309Z" fill="#7FB240"/>
<path d="M38.0675 12.9853C36.4238 12.5741 35.5989 13.8322 35.365 15.4646C35.1311 17.097 35.7097 17.9316 36.627 18.1035C37.7289 18.306 38.5107 17.6677 38.9232 16.2072C39.3418 14.7466 39.151 13.2615 38.0675 12.9853ZM41.2132 17.5266C42.1243 17.9991 43.1586 17.4714 43.6264 16.3667C43.8973 15.7224 44.0758 14.2065 43.0477 13.7586C41.915 13.2676 41.0717 13.8138 40.6346 14.9737C40.2837 15.9065 40.3145 17.0602 41.2132 17.5266ZM48.3604 14.9184C49.1607 15.5873 50.2196 15.2069 50.7736 14.6607C51.2107 14.225 51.5554 13.2124 50.8598 12.4575C50.1642 11.7027 49.0314 11.9973 48.5389 12.5128C48.0403 13.0405 47.4555 14.1697 48.3604 14.9184ZM51.9617 18.5085C52.2018 19.6438 51.2907 20.4784 49.844 20.7362C48.3912 20.9939 47.6648 20.503 47.4616 19.607C47.2585 18.711 47.9233 17.7843 48.9699 17.4652C50.0164 17.1461 51.6724 17.1461 51.9617 18.5085ZM46.1073 25.5659C46.1627 26.8976 47.5601 27.2229 48.6067 27.1308C49.9425 27.0142 50.9891 26.4067 50.9583 25.3634C50.9275 24.3201 49.9548 23.6819 48.4589 23.7126C47.1785 23.7432 46.0396 24.1176 46.1073 25.5659ZM47.3139 30.322C46.8645 31.2548 47.3693 32.1446 48.4466 32.611C49.5239 33.0713 50.9706 32.7583 51.1737 31.8562C51.3769 30.9602 50.8844 29.9476 49.6655 29.6285C48.4466 29.3094 47.6894 29.5426 47.3139 30.322ZM42.3152 32.3778C41.5518 33.2922 41.9397 34.3785 43.1278 35.4463C44.3159 36.5141 45.7256 36.6184 46.4397 35.7961C47.3385 34.7528 46.3228 33.3045 45.307 32.4944C44.2913 31.6844 42.9 31.6844 42.3152 32.3778ZM37.2918 36.4895C36.1468 37.4714 36.8548 38.8952 37.6981 39.9323C38.5415 40.9756 39.9328 41.3806 40.8069 40.6258C41.6811 39.871 41.5641 38.3981 40.2283 37.0909C39.151 36.0477 38.1044 35.7961 37.2918 36.4895ZM32.644 40.7731C31.3635 41.1413 31.4805 42.4791 31.7452 43.5531C32.0038 44.627 33.0318 45.5107 33.9799 45.1732C34.9648 44.8234 35.2296 44.0133 34.9402 42.6264C34.6509 41.2395 33.5489 40.5153 32.644 40.7731ZM28.8703 39.8464C27.8177 39.7482 27.159 40.5153 26.8388 41.8163C26.5187 43.1174 27.159 44.2772 28.2301 44.3938C29.3013 44.5104 30.12 43.4978 30.2062 42.1048C30.2924 40.7117 29.7999 39.9323 28.8703 39.8464ZM24.2841 41.3561C22.8066 40.6381 21.8463 42.0802 21.4954 42.8351C21.1445 43.5899 20.8244 45.3512 22.0187 45.8728C23.2068 46.3944 24.2656 45.2039 24.6904 44.2527C25.1521 43.2094 25.2998 41.847 24.2841 41.3561ZM17.0507 44.4491C17.9803 45.3757 19.193 44.2895 19.4639 43.9581C19.901 43.4058 19.9071 42.5037 19.4639 42.0189C18.8852 41.3806 17.9557 41.6445 17.3708 42.1048C16.786 42.5712 16.3243 43.7249 17.0507 44.4491ZM17.5124 38.3981C16.7368 38.5331 15.8257 39.1223 16.0288 40.1042C16.232 41.0861 17.0753 41.3806 18.0911 41.1781C19.1068 40.9756 19.6609 40.0489 19.5439 39.3248C19.4331 38.6006 18.325 38.257 17.5124 38.3981ZM16.2935 34.3785C16.2443 35.5076 17.2846 36.017 18.8483 36.1459C20.966 36.3177 21.8463 35.5015 21.8709 34.2066C21.8955 33.0161 20.7936 32.4392 19.0822 32.4699C17.3708 32.5006 16.3551 33.0467 16.2935 34.3785ZM17.3647 27.4867C16.8229 28.3275 17.3955 29.7758 18.6205 29.9169C19.8517 30.0581 20.7505 28.9412 20.3442 27.7445C19.9379 26.5417 18.1465 26.2778 17.3647 27.4867ZM19.6917 22.5036C18.9098 23.7801 19.8086 24.9645 21.4338 25.7193C22.8497 26.376 23.9332 26.241 24.4811 25.4002C25.0351 24.5595 24.598 23.2584 23.3176 22.4484C21.8463 21.5094 20.4427 21.2885 19.6917 22.5036ZM26.2848 18.3919C25.5522 18.7969 24.8874 19.9568 26.1124 21.6322C26.9558 22.792 28.2609 22.9945 28.9319 22.6141C29.5106 22.2888 29.8307 20.7607 29.0796 19.6009C28.4394 18.6374 27.2759 17.8457 26.2848 18.3919ZM31.4251 14.4827C30.434 14.6177 30.0031 16.0169 30.3478 17.0295C30.6679 17.9562 31.3635 18.5944 32.3547 18.3919C33.3396 18.1894 33.432 16.8024 33.3396 16.2808C33.2535 15.7592 32.7302 14.3109 31.4251 14.4827Z" fill="#303030"/>
</svg>
