<svg width="271" height="271" viewBox="0 0 271 271" fill="none" xmlns="http://www.w3.org/2000/svg">
<path d="M25.3238 82.879C33.4636 95.9931 42.5078 97.802 48.8387 90.1144C58.7874 78.3569 47.9343 63.434 36.1768 59.3641C16.7318 51.6765 0 73.3826 0 73.3826C0 73.3826 18.5406 71.5737 25.3238 82.879Z" fill="#F29A2E"/>
<path d="M184.502 36.7542C149.682 57.1037 178.623 105.942 115.766 119.057L182.693 152.068C196.259 175.583 233.793 177.392 233.793 177.392C233.793 177.392 243.289 149.355 235.602 128.553C256.403 128.553 270.874 115.891 270.874 115.891C270.874 115.891 259.117 74.2877 223.392 74.2877C258.664 59.817 264.995 29.9711 264.995 29.9711C264.995 29.9711 233.793 8.26498 184.502 36.7542Z" fill="#E1EAF2"/>
<path d="M152.395 271H87.729C87.729 265.574 125.715 264.669 127.524 228.492C133.402 268.739 152.395 265.574 152.395 271Z" fill="#F4BC58"/>
<path d="M214.348 129.006C214.348 181.01 171.84 234.371 119.384 234.371C66.9272 234.371 24.4194 181.01 24.4194 129.006C24.4194 94.1859 99.4864 118.605 119.384 118.605C171.84 118.153 214.348 76.5496 214.348 129.006Z" fill="#D1DCE6"/>
<path d="M155.56 213.118C155.56 223.519 140.637 246.13 127.523 246.13C114.409 246.13 99.4863 230.754 99.4863 220.354C99.4863 209.953 155.56 208.144 155.56 213.118Z" fill="#D1DCE6"/>
<path d="M20.3494 109.561C20.3494 123.127 23.0626 162.47 23.0626 162.47L35.2723 147.095L49.743 164.279L52.9085 140.311L75.0668 156.139L70.9969 132.624L97.6774 135.337L85.4677 120.866L104.008 108.657C104.008 108.657 81.3978 113.631 81.85 99.6125C82.3022 85.594 93.6075 45.7995 79.5889 39.9207C53.8129 30.4243 20.3494 52.1304 20.3494 109.561Z" fill="#E1EAF2"/>
<path d="M20.3493 64.7933C22.0976 64.7933 23.5148 64.1859 23.5148 63.4366C23.5148 62.6874 22.0976 62.08 20.3493 62.08C18.6011 62.08 17.1838 62.6874 17.1838 63.4366C17.1838 64.1859 18.6011 64.7933 20.3493 64.7933Z" fill="#3E4347"/>
<path d="M42.9599 72.9325C46.7062 72.9325 49.7431 69.8956 49.7431 66.1494C49.7431 62.4031 46.7062 59.3662 42.9599 59.3662C39.2137 59.3662 36.1768 62.4031 36.1768 66.1494C36.1768 69.8956 39.2137 72.9325 42.9599 72.9325Z" fill="#3E4347"/>
<path d="M26.2281 97.3509C26.2281 111.822 16.7317 101.421 16.7317 101.421C13.5662 101.421 0.452111 111.369 4.97422 94.6376C10.853 72.9315 33.4635 58.4608 33.4635 58.4608C33.4635 58.4608 26.2281 71.1227 26.2281 97.3509Z" fill="#E24B4B"/>
<path d="M85.0157 38.5627V33.1362C84.1113 21.8309 100.391 17.3088 98.582 11.4301C95.8688 3.7425 74.6149 8.71681 64.214 25.4486C62.8574 27.2574 61.953 29.5185 61.5008 32.2318C61.0485 30.4229 60.5963 28.6141 59.6919 26.8052C54.7176 16.4044 69.6405 6.90797 65.1184 1.93365C59.2397 -4.8495 41.6035 6.90797 37.5336 26.353C36.6292 30.4229 36.6292 34.4928 37.9858 38.5627C37.5336 38.1105 37.0814 37.6583 36.6292 37.6583C28.9416 31.7796 36.6292 19.5699 31.2026 16.8566C23.0629 13.2389 15.8275 29.5185 19.8974 45.3459C22.6106 54.3901 32.5593 63.8865 40.6991 56.1989C43.4123 53.9379 49.7433 50.3202 53.361 48.9636C56.0742 48.0591 63.3096 48.5113 67.8317 51.6768C71.9016 54.3901 75.0671 59.8166 80.9458 59.8166C106.722 60.721 120.74 35.8494 111.244 30.4229C106.27 26.8052 98.582 35.8495 85.0157 38.5627Z" fill="#E24B4B"/>
<path d="M183.145 189.15C179.075 179.202 167.318 173.775 167.318 173.775C179.528 167.444 186.763 153.878 186.763 153.878C180.432 151.164 156.013 149.356 156.013 149.356C161.439 143.929 165.961 136.242 165.961 136.242C165.961 136.242 137.924 129.458 114.409 142.12C83.6589 159.304 92.7032 200.003 127.523 204.525C165.961 209.5 183.145 189.15 183.145 189.15Z" fill="#E1EAF2"/>
</svg>
