<svg width="32" height="32" viewBox="0 0 32 32" fill="none" xmlns="http://www.w3.org/2000/svg">
<circle cx="16" cy="16" r="16" fill="white"/>
<path d="M15.6905 5.97281C15.6905 5.97281 16.0908 5.04968 16.9986 4.46343C17.4405 4.17906 18.2126 3.73937 18.3526 3.98656C18.4139 4.09374 18.2148 4.37156 18.0136 4.80249C17.9326 4.97968 17.7511 5.55718 17.7511 5.55718C17.7511 5.55718 18.5517 4.50937 19.9539 4.23374C21.0564 4.01499 22.2486 4.15718 22.3864 4.40218C22.5351 4.66687 21.7542 5.24874 21.5092 5.75624C21.2642 6.26374 21.0783 6.91124 21.0783 6.91124C21.0783 6.91124 22.5548 6.21343 22.9267 6.06468C23.3883 5.88093 24.3901 5.49593 24.528 5.66437C24.6658 5.83281 24.0861 6.81062 23.9592 6.98781C23.8061 7.20437 23.5742 7.60468 23.5742 7.60468C23.5742 7.60468 24.283 7.28093 24.5586 7.11249C24.8364 6.94406 25.4511 6.46499 25.5911 6.55906C25.7289 6.65093 25.7289 7.58718 25.637 7.99187C25.5145 8.52999 24.9436 9.11624 24.9436 9.11624C24.9436 9.11624 25.7595 9.29999 26.2058 9.87093C26.652 10.4419 26.9123 10.8859 27.0983 11.4569C27.3761 12.3034 27.4986 13.4584 27.4373 13.675C27.3761 13.8916 27.037 13.5984 26.4048 13.5525C26.0308 13.5241 25.9433 13.5219 25.9433 13.5219C25.9433 13.5219 26.2998 13.9462 26.4661 14.3378C26.6826 14.8453 26.9189 15.6459 27.0501 15.985C27.188 16.3394 27.2973 16.6172 27.4964 17.0175C27.5555 17.1356 27.0808 17.2494 26.6039 16.8009C26.4442 16.6522 26.2495 16.5078 26.2495 16.5078C26.2495 16.5078 26.5317 18.1856 26.512 19.31C26.4967 20.1412 26.3108 21.6506 26.0658 21.7884C25.8186 21.9262 25.3264 20.8653 25.3264 20.8653C25.3264 20.8653 25.112 22.0728 24.8648 22.8822C24.5717 23.8359 24.2939 24.2822 24.1255 24.8531C23.9242 25.5312 23.7251 26.0234 23.5873 25.8069C23.467 25.6209 23.3401 25.33 23.2176 25.1134C23.1236 24.9494 22.9092 24.5119 22.9092 24.5119C22.9092 24.5119 22.6926 25.82 21.647 26.6994C20.6014 27.5787 19.9233 28.2853 19.4289 28.3466C19.138 28.3837 19.4748 27.0691 19.4748 27.0691C19.4748 27.0691 17.843 28.3509 17.0576 28.9328C16.7033 29.1953 16.3795 30.0572 16.1345 29.9959C15.8873 29.9347 15.2573 28.9787 14.857 28.6878C14.4567 28.3969 13.702 28.0556 13.5948 27.9944C13.4876 27.9331 12.978 27.6094 12.978 27.6094C12.978 27.6094 13.1048 28.3247 12.9626 28.3947C12.6542 28.5478 11.4686 27.7012 11.1295 27.1784C10.7905 26.6556 10.1911 25.5772 10.1911 25.5772C10.1911 25.5772 10.1145 26.6097 9.86733 26.4391C9.60483 26.2597 8.32733 25.3147 7.88108 24.6059C7.56608 24.105 7.01921 22.6962 7.01921 22.6962C7.01921 22.6962 6.54233 23.1884 6.40233 23.2497C6.26233 23.3109 5.91014 23.4509 5.97139 22.9106C6.03264 22.3725 5.61046 21.1519 5.54046 20.4169C5.44858 19.4631 5.63233 18.4766 5.63233 18.4766C5.63233 18.4766 4.84702 19.5244 4.47733 19.5091C4.10764 19.4937 4.32421 17.4769 4.41608 16.86C4.50796 16.2431 4.81639 15.1669 4.93889 14.7819C5.06139 14.3969 5.52296 13.8281 5.52296 13.8281C5.52296 13.8281 4.38327 14.2131 4.21483 14.06C4.04639 13.9069 4.30671 12.5353 4.46202 11.7041C4.54077 11.2775 4.87764 10.6103 5.30858 10.1181C5.73952 9.62593 6.40233 9.71781 6.46358 9.50124C6.52483 9.28468 6.21858 9.11406 6.00202 8.76187C5.67827 8.23906 5.49452 7.16062 5.66296 6.97468C5.76796 6.86093 6.35639 7.31374 7.06514 7.39031C7.77389 7.46687 8.40389 7.42093 8.40389 7.42093C8.40389 7.42093 7.99483 6.93968 7.81983 6.54374C7.57264 5.99031 7.55733 5.32749 7.71264 5.15687C7.86796 4.98624 8.40608 5.51124 9.13014 5.69499C9.8542 5.87874 10.9326 5.89624 10.9326 5.89624C10.9326 5.89624 10.4711 5.40406 10.3486 4.83312C10.2261 4.26437 10.2567 3.90999 10.4558 3.84874C10.657 3.78749 11.2433 4.33656 11.6567 4.46562C12.103 4.60343 13.6123 4.51156 14.2905 4.71281C14.9686 4.91406 15.6905 5.97281 15.6905 5.97281Z" fill="#865C50"/>
<path d="M20.5555 10.7786C20.5555 10.7786 23.2046 8.25426 24.7446 10.1311C26.5712 12.3602 21.7258 14.8124 21.7258 14.8124L20.5555 10.7786ZM11.3177 11.4239C11.3177 11.4239 8.84803 8.18644 7.03241 9.94082C5.21678 11.6952 8.97709 14.3793 8.97709 14.3793L11.3177 11.4239Z" fill="#FEC000"/>
<path d="M22.8338 12.9334C22.8338 12.9334 24.7741 11.5793 23.9735 10.7153C23.1182 9.79434 21.541 11.3934 21.541 11.3934L22.8338 12.9334ZM10.1879 11.5028C10.1879 11.5028 8.58008 9.91028 7.74883 10.8947C7.00071 11.7806 9.13571 13.4825 9.13571 13.4825L10.1879 11.5028Z" fill="#FF8E06"/>
<path d="M16.1528 22.5716C16.1528 22.5716 17.7234 22.1407 18.7078 21.6485C19.6921 21.1563 23.3584 19.0935 23.634 16.5669C23.9118 14.0425 23.634 13.3644 22.4637 11.8244C21.2934 10.2844 19.2415 9.93003 18.1828 10.1619C16.9206 10.4397 16.704 11.3607 16.1506 11.3935C15.6278 11.4241 15.7809 10.84 14.2715 10.2844C12.34 9.57347 7.05277 11.4766 7.98902 16.5669C8.48121 19.2466 12.3859 21.5325 12.8846 21.8016C14.09 22.4491 16.1528 22.5716 16.1528 22.5716Z" fill="#FEC000"/>
<path d="M20.1463 14.1633C20.3353 13.6884 20.1108 13.1532 19.645 12.9678C19.1792 12.7824 18.6483 13.017 18.4594 13.4918C18.2704 13.9667 18.4948 14.5019 18.9606 14.6873C19.4265 14.8727 19.9573 14.6381 20.1463 14.1633Z" fill="#2E2F2F"/>
<path d="M13.0275 14.5917C13.5054 14.3974 13.7323 13.8452 13.5343 13.3584C13.3363 12.8716 12.7884 12.6345 12.3106 12.8288C11.8327 13.0231 11.6058 13.5753 11.8038 14.0621C12.0017 14.5489 12.5496 14.7861 13.0275 14.5917Z" fill="#2E2F2F"/>
<path d="M16.1105 15.4687C14.2424 15.4118 12.5996 17.5227 12.5996 21.0315C12.5996 24.4396 14.4065 25.2402 15.8634 25.2402C17.7118 25.2402 19.4552 24.0283 19.2518 20.723C19.0615 17.6649 18.1012 15.5299 16.1105 15.4687Z" fill="#FFD899"/>
<path d="M13.9339 17.3982C13.7502 17.5819 14.098 18.5882 14.4064 19.1022C14.7148 19.6163 15.5964 20.4563 16.0908 20.4366C16.583 20.4169 17.5083 19.3888 17.7948 18.6297C18.0814 17.8707 18.1645 17.3982 18.042 17.2122C17.9195 17.0263 16.4605 17.2538 15.907 17.2538C15.3536 17.2538 14.1198 17.2144 13.9339 17.3982Z" fill="#2E2F2F"/>
<path d="M16.05 19.73C16.05 19.73 15.2559 20.594 14.9103 20.7253C14.4268 20.909 13.6787 20.7515 13.6568 21.049C13.6371 21.3575 14.1184 21.6812 14.8884 21.5784C15.7393 21.4647 16.0587 20.9419 16.0587 20.9419C16.0587 20.9419 16.5421 21.6287 17.4762 21.6703C18.4103 21.7119 18.6268 21.1169 18.3687 21.0337C18.0187 20.9222 17.8 20.944 17.2706 20.7778C16.8506 20.6422 16.05 19.73 16.05 19.73Z" fill="#2E2F2F"/>
</svg>
