<svg width="67" height="87" viewBox="0 0 67 87" fill="none" xmlns="http://www.w3.org/2000/svg">
<path d="M66.9998 86.5715V84.1882C66.9998 74.6644 58.2259 67.5215 50.3331 67.5215H16.9997C9.11159 67.5215 0.333008 74.6644 0.333008 84.1882V86.5715H66.9998Z" fill="#2A6797"/>
<path d="M33.6735 36.5714C49.4531 36.5714 62.245 28.5765 62.245 18.7142C62.245 8.85198 49.4531 0.857056 33.6735 0.857056C17.8939 0.857056 5.10205 8.85198 5.10205 18.7142C5.10205 28.5765 17.8939 36.5714 33.6735 36.5714Z" fill="#2A6797"/>
<path d="M23.2856 67.7621C23.2856 67.7621 30.0665 72.4359 33.6665 72.4359C37.2666 72.4359 44.0451 67.7621 44.0451 67.7621V58.6882H23.2832V67.7621H23.2856Z" fill="#FFDC5D"/>
<path d="M23.2661 62.0498C26.1613 65.3213 29.7518 66.207 33.6565 66.207C37.5589 66.207 41.147 65.3189 44.0446 62.0498V53.7379H23.2637V62.0498H23.2661Z" fill="#F9CA55"/>
<path d="M12.2424 21.0929C11.3567 22.7643 9.64244 24.5929 9.40196 26.5405C8.39006 34.7501 10.6448 38.5643 11.4496 44.7382C12.3591 51.7334 16.1186 53.9715 19.1258 54.9072C23.4496 60.8834 28.0472 60.6263 35.7663 60.6263C50.8401 60.6263 57.4044 49.9334 58.0401 32.0167C58.1854 27.9167 57.1377 24.3405 55.5211 21.0953H12.2424V21.0929Z" fill="#FFAC33"/>
<path d="M50.7145 32.9263C49.255 30.8144 47.3883 29.112 43.2955 28.512C44.8312 29.2477 46.3026 31.7906 46.4931 33.1953C46.686 34.6001 46.8764 35.7382 45.6622 34.3334C40.7931 28.7048 35.4931 30.9215 30.2383 27.4834C26.5693 25.081 25.4502 22.4263 25.4502 22.4263C25.4502 22.4263 25.0026 25.9715 19.4383 29.5858C17.8264 30.6334 15.9002 32.9644 14.8335 36.4096C14.0669 38.8858 14.305 41.093 14.305 44.8644C14.305 55.8763 22.9812 65.1358 33.6859 65.1358C44.3907 65.1358 53.0669 55.7954 53.0669 44.8644C53.0622 38.0096 52.3764 35.3334 50.7145 32.9263Z" fill="#FFDC5D"/>
<path d="M33.6668 59.1092C27.1096 59.1092 25.0954 57.4307 24.7596 57.0902C24.4597 56.8054 24.2852 56.4131 24.2744 55.9996C24.2637 55.5862 24.4177 55.1854 24.7025 54.8854C24.9873 54.5855 25.3796 54.4109 25.793 54.4002C26.2065 54.3895 26.6073 54.5435 26.9073 54.8283C27.0311 54.9164 28.6239 55.9878 33.6668 55.9878C38.9049 55.9878 40.4192 54.833 40.4335 54.8211C40.5773 54.6785 40.7483 54.5661 40.9362 54.4905C41.1242 54.4149 41.3254 54.3777 41.5279 54.3811C41.7305 54.3844 41.9303 54.4282 42.1157 54.5099C42.301 54.5916 42.4682 54.7096 42.6073 54.8569C42.8957 55.1591 43.0539 55.5626 43.0477 55.9803C43.0414 56.3981 42.8713 56.7967 42.5739 57.0902C42.2382 57.4307 40.2239 59.1092 33.6668 59.1092ZM35.8192 50.4902H31.512C30.9168 50.4902 30.4358 49.9854 30.4358 49.364C30.4358 48.7426 30.9168 48.2378 31.512 48.2378H35.8192C36.4144 48.2378 36.8954 48.7426 36.8954 49.364C36.8989 49.5086 36.8738 49.6526 36.8215 49.7875C36.7693 49.9225 36.6909 50.0458 36.591 50.1504C36.491 50.255 36.3714 50.3389 36.2389 50.3972C36.1065 50.4555 35.9638 50.4871 35.8192 50.4902Z" fill="#C1694F"/>
<path d="M25.0523 42.6071C23.8642 42.6071 22.8999 41.5976 22.8999 40.3547V38.1024C22.8999 36.8595 23.8642 35.85 25.0523 35.85C26.2404 35.85 27.2047 36.8595 27.2047 38.1024V40.3547C27.2071 41.5976 26.2428 42.6071 25.0523 42.6071ZM42.2809 42.6071C41.0928 42.6071 40.1285 41.5976 40.1285 40.3547V38.1024C40.1285 36.8595 41.0928 35.85 42.2809 35.85C43.469 35.85 44.4333 36.8595 44.4333 38.1024V40.3547C44.4333 41.5976 43.469 42.6071 42.2809 42.6071Z" fill="#662113"/>
<path d="M11.0474 19.9023V22.2833C11.0474 24.9143 21.1736 27.0452 33.6664 27.0452C46.1593 27.0452 56.2855 24.9143 56.2855 22.2833V19.9023H11.0474Z" fill="#2A6797"/>
<path d="M55.0975 19.9024V15.1405C55.0975 15.1405 46.1689 9.78333 33.6665 9.78333C21.1713 9.78333 12.2427 15.1405 12.2427 15.1405V19.9024H55.0975Z" fill="#4289C1"/>
<path d="M56.2856 19.9023H11.0474C10.3926 19.9023 9.85693 20.4381 9.85693 21.0928C9.85693 21.7476 10.3926 22.2833 11.0474 22.2833H56.2856C56.9403 22.2833 57.476 21.7476 57.476 21.0928C57.476 20.4381 56.9403 19.9023 56.2856 19.9023Z" fill="#FDCB58"/>
<path d="M38.3016 77.7049C40.4111 79.1859 42.6159 80.6692 43.4135 80.9883C43.4564 81.0049 43.4516 80.7264 43.4421 80.7169C38.7802 75.2597 33.7182 72.3026 33.7182 72.3026L33.7492 72.2811L33.7159 72.2835H33.6444L33.6706 72.3026C33.6706 72.3026 28.6944 75.2192 24.0635 80.5883C24.0944 80.8335 24.1516 80.9645 24.2444 80.9145C24.9516 80.5335 27.0421 79.0907 29.0778 77.6573C29.1706 77.924 29.2635 78.1645 29.3444 78.3121C29.7159 78.9811 30.6016 80.4692 30.6016 80.4692C30.6016 80.4692 28.8087 81.8073 28.1373 86.5716H39.2492C38.5802 82.774 36.7944 80.4692 36.7944 80.4692C36.7944 80.4692 37.6873 78.9811 38.0587 78.3121C38.1325 78.1716 38.2159 77.9526 38.3016 77.7049Z" fill="#193D59"/>
<path d="M33.669 72.3023C33.669 72.3023 33.6452 72.288 33.6428 72.2832C33.3476 72.0832 23.7857 65.5761 22.4571 64.2475C21.8119 63.6023 20.1476 66.4023 20.1761 67.1237C20.2738 69.7047 23.4761 81.2642 23.9452 80.7166L24.0619 80.588C28.6928 75.2166 33.669 72.3023 33.669 72.3023ZM33.7166 72.3023C33.7166 72.3023 38.7785 75.2594 43.4405 80.7166C43.45 80.7285 43.4667 80.7047 43.4786 80.7047C44.0428 80.7737 47.1143 69.6523 47.2095 67.1237C47.2381 66.4023 45.5714 63.6023 44.9286 64.2475C43.6024 65.5737 34.0714 72.0618 33.7476 72.2808L33.7166 72.3023Z" fill="#4289C1"/>
<path d="M33.7042 73.9215C32.3661 73.9953 30.2471 76.1619 30.4685 77.0834C31.4852 81.3334 32.3233 80.2072 33.7804 80.2072C35.0709 80.2072 35.9947 81.2477 37.0923 76.8953C37.378 75.7572 34.6304 73.8667 33.7042 73.9215ZM33.7661 81.4096C30.2495 81.4096 28.959 86.5691 28.959 86.5691H38.5376C38.5399 86.5691 37.2828 81.4096 33.7661 81.4096Z" fill="#1E4B6E"/>
<path d="M39.0235 4.42847H39.0187C38.7568 4.43196 38.4989 4.49408 38.264 4.61027C38.0292 4.72646 37.8233 4.89376 37.6616 5.0999C36.9926 5.26418 36.0735 5.2999 34.9068 4.93085C34.5744 4.60997 34.1303 4.43084 33.6683 4.43129C33.2062 4.43173 32.7625 4.61171 32.4306 4.93323C31.2616 5.30228 30.3425 5.26656 29.6759 5.10228C29.5138 4.89596 29.3075 4.72856 29.0723 4.61237C28.837 4.49618 28.5787 4.43416 28.3164 4.43085H28.3116C27.838 4.43085 27.3838 4.61899 27.0489 4.95387C26.714 5.28876 26.5259 5.74296 26.5259 6.21656C26.5259 6.69017 26.714 7.14437 27.0489 7.47926C27.3838 7.81414 27.838 8.00228 28.3116 8.00228H28.3164C28.3164 15.1451 31.883 16.9309 33.6664 16.9309C35.4545 16.9309 39.0187 15.1451 39.0187 8.00228H39.0235C39.4974 8.00228 39.9519 7.81402 40.287 7.47891C40.6222 7.1438 40.8104 6.68929 40.8104 6.21537C40.8104 5.74146 40.6222 5.28695 40.287 4.95184C39.9519 4.61673 39.4974 4.42847 39.0235 4.42847Z" fill="#FDCB58"/>
<path d="M18.2132 70.8285L4.55128 75.0047C4.24912 75.0961 3.92305 75.0644 3.64424 74.9163C3.36544 74.7682 3.15655 74.5158 3.06318 74.2142L2.36556 71.9356C2.27481 71.6338 2.30695 71.3083 2.455 71.03C2.60304 70.7518 2.855 70.5433 3.15604 70.4499L16.818 66.2737C17.1195 66.1822 17.445 66.2137 17.7233 66.3614C18.0017 66.509 18.2103 66.7608 18.3037 67.0618L18.9989 69.3404C19.0919 69.6419 19.0614 69.968 18.914 70.247C18.7667 70.5261 18.5146 70.7352 18.2132 70.8285Z" fill="#4289C1"/>
<path d="M15.9286 70.3597C16.686 70.3597 17.3 69.7457 17.3 68.9882C17.3 68.2308 16.686 67.6168 15.9286 67.6168C15.1711 67.6168 14.5571 68.2308 14.5571 68.9882C14.5571 69.7457 15.1711 70.3597 15.9286 70.3597Z" fill="white"/>
<path d="M49.1472 70.8285L62.8091 75.0047C63.1113 75.0961 63.4373 75.0644 63.7162 74.9163C63.995 74.7682 64.2038 74.5158 64.2972 74.2142L64.9948 71.9356C65.0856 71.6338 65.0534 71.3083 64.9054 71.03C64.7573 70.7518 64.5054 70.5433 64.2044 70.4499L50.5401 66.2737C50.2385 66.1822 49.913 66.2137 49.6347 66.3614C49.3563 66.509 49.1477 66.7608 49.0543 67.0618L48.3591 69.3404C48.2675 69.6422 48.299 69.968 48.4466 70.2468C48.5942 70.5255 48.8461 70.7346 49.1472 70.8285Z" fill="#4289C1"/>
<path d="M50.971 70.2951C51.7285 70.2951 52.3425 69.6811 52.3425 68.9237C52.3425 68.1663 51.7285 67.5522 50.971 67.5522C50.2136 67.5522 49.5996 68.1663 49.5996 68.9237C49.5996 69.6811 50.2136 70.2951 50.971 70.2951Z" fill="white"/>
</svg>
