<svg width="233" height="268" viewBox="0 0 233 268" fill="none" xmlns="http://www.w3.org/2000/svg">
<path d="M117.17 2.99536C26.2042 2.99536 26.9362 82.6705 26.9362 84.0014C26.9362 138.479 31.1063 215.425 52.9105 245.703C61.5612 257.703 78.2637 258.368 78.2637 258.368L115.905 258.302L153.547 258.368C153.547 258.368 169.917 257.459 178.9 245.703C204.231 212.564 204.874 138.479 204.874 84.0014C204.852 82.6705 208.135 2.99536 117.17 2.99536Z" fill="#312D2D"/>
<path d="M117.768 2.99536C26.803 2.99536 26.936 85.5319 26.936 86.8628C26.936 139.122 31.1727 216.446 52.9769 246.723C61.6276 258.723 78.8624 258.368 78.8624 258.368L116.504 258.324L154.146 258.391C154.146 258.391 170.715 257.614 179.499 245.725C203.898 212.697 204.852 138.479 204.852 84.0014C204.852 82.6705 208.734 2.99536 117.768 2.99536Z" fill="url(#paint0_radial_544_10118)"/>
<path d="M137.865 241.289V190.738H95.1436V241.289H137.865Z" fill="#EDC391"/>
<path d="M233 267.152V260.254C233 239.448 214.279 226.228 198.109 219.374C183.802 213.296 166.434 208.061 144.896 206.508C144.896 206.508 138.419 249.806 116.837 249.496C98.3821 249.23 90.419 206.442 90.419 206.442C44.8365 210.745 0.0302734 227.425 0.0302734 260.254V267.152H233Z" fill="url(#paint1_radial_544_10118)"/>
<path d="M134.05 267.152L141.658 227.314H91.3506L99.8682 267.152H134.05Z" fill="#E0E0E0"/>
<path d="M122.826 244.017H110.338L106.39 227.381H126.619L122.826 244.017ZM125.289 267.152L122.76 244.017H110.25L107.721 267.152H125.289Z" fill="#212121"/>
<path d="M116.458 227.314L97.2716 243.263L93.6783 246.257L85.937 206.752C87.0461 206.619 88.1551 206.508 89.2642 206.42C91.7263 206.176 92.303 205.976 94.7873 205.821C94.7873 205.821 98.8022 212.653 102.906 218.021C109.937 227.181 116.458 227.314 116.458 227.314ZM147.024 206.863L139.305 246.257L116.481 227.314C116.481 227.314 123.046 227.181 130.078 218.021C134.337 212.475 138.218 205.865 138.218 205.865C140.703 206.043 141.279 206.242 143.741 206.486C144.85 206.597 145.937 206.708 147.024 206.863Z" fill="#FAFAFA"/>
<path d="M97.0518 243.263L89.0443 206.42C87.9353 206.509 86.8262 206.62 85.7171 206.753C78.7078 207.507 67.7947 209.37 67.7947 209.37L60.9185 223.943L76.7115 233.614L66.1754 247.167L86.6931 267.152H102.242L97.0518 243.263ZM135.958 243.263L143.965 206.42C145.074 206.509 146.183 206.62 147.292 206.753C154.723 207.241 165.06 209.037 165.06 209.037L172.091 223.943L156.298 233.614L166.834 247.167L146.316 267.152H130.767L135.958 243.263Z" fill="#424242"/>
<path d="M179.055 257.88C178.966 257.925 178.877 257.969 178.788 257.969H169.65C169.317 257.969 169.184 258.391 169.45 258.59C169.672 258.745 169.872 258.901 170.093 259.034C170.825 259.544 171.713 259.788 172.6 259.788H179.764C179.565 259.123 179.321 258.479 179.055 257.88ZM178.611 256.993C178.123 256.062 177.657 255.352 177.302 254.864H165.568C165.324 254.864 165.191 255.174 165.391 255.352C165.502 255.463 165.613 255.551 165.724 255.662C166.722 256.55 168.008 257.015 169.317 257.015H178.611V256.993ZM180.053 260.808H173.753C173.554 260.808 173.487 261.075 173.665 261.163C177.48 263.071 179.631 262.938 179.631 262.938H180.363C180.319 262.221 180.215 261.508 180.053 260.808ZM200.881 257.969H191.742C191.631 257.969 191.543 257.925 191.476 257.88C191.21 258.457 190.966 259.123 190.766 259.81H197.931C198.818 259.81 199.705 259.544 200.437 259.056C200.637 258.923 200.859 258.768 201.081 258.612C201.347 258.413 201.214 257.969 200.881 257.969ZM204.962 254.842H193.228C192.873 255.33 192.408 256.039 191.92 256.971H201.191C202.522 256.971 203.809 256.505 204.785 255.618C204.896 255.507 205.007 255.418 205.118 255.307C205.317 255.152 205.206 254.842 204.962 254.842ZM196.777 260.808H190.478C190.323 261.496 190.212 262.206 190.145 262.938H190.877C190.877 262.938 193.029 263.071 196.844 261.163C197.044 261.075 196.977 260.808 196.777 260.808ZM189.214 252.357C188.504 252.69 187.661 252.89 186.907 253.001C185.82 253.156 184.711 253.156 183.624 253.001C182.848 252.89 182.027 252.69 181.317 252.357C180.873 252.158 180.341 252.379 180.164 252.823L179.432 254.664C179.232 255.152 179.276 255.463 179.454 255.707C180.119 256.594 181.672 259.034 181.783 261.984C181.805 262.317 181.96 262.605 182.271 262.76C182.87 263.049 183.934 263.603 184.733 264.269C185.066 264.535 185.531 264.535 185.864 264.269C186.663 263.603 187.705 263.071 188.326 262.76C188.615 262.627 188.792 262.317 188.814 261.984C188.925 259.034 190.478 256.616 191.143 255.707C191.321 255.463 191.365 255.152 191.232 254.886C191.032 254.376 190.678 253.511 190.411 252.845C190.19 252.379 189.657 252.158 189.214 252.357Z" fill="#FFC107"/>
<path d="M116.504 27.7717C78.3524 27.7717 43.0176 56.1416 43.0176 116.297C43.0176 164.63 72.9401 193.2 98.9809 202.427C105.192 204.623 111.181 205.732 116.504 205.732C121.783 205.732 127.75 204.645 133.916 202.472C160.002 193.288 189.991 164.697 189.991 116.319C189.991 56.1416 154.656 27.7717 116.504 27.7717Z" fill="#F9DDBD"/>
<path d="M124.954 143.136C124.732 143.048 124.488 142.981 124.244 142.959H108.739C108.495 142.981 108.273 143.048 108.029 143.136C106.632 143.713 105.855 145.155 106.521 146.708C107.186 148.26 110.27 152.608 116.48 152.608C122.691 152.608 125.774 148.26 126.44 146.708C127.127 145.177 126.373 143.713 124.954 143.136Z" fill="#DBA689"/>
<path d="M80.459 133.954C86.425 133.954 91.2613 128.948 91.2613 122.774C91.2613 116.6 86.425 111.595 80.459 111.595C74.4931 111.595 69.6567 116.6 69.6567 122.774C69.6567 128.948 74.4931 133.954 80.459 133.954Z" fill="#312D2D"/>
<path d="M152.548 133.954C158.514 133.954 163.351 128.948 163.351 122.774C163.351 116.6 158.514 111.595 152.548 111.595C146.582 111.595 141.746 116.6 141.746 122.774C141.746 128.948 146.582 133.954 152.548 133.954Z" fill="#312D2D"/>
<path d="M134.958 161.081C127.971 165.229 105.102 165.229 98.1146 161.081C94.0998 158.708 90.0184 162.345 91.682 165.983C93.3234 169.554 105.811 177.872 116.592 177.872C127.372 177.872 139.704 169.554 141.346 165.983C143.009 162.345 138.95 158.686 134.958 161.081Z" fill="#444444"/>
<path d="M96.4969 102.7C94.434 99.9718 89.6872 96.0236 80.4598 96.0236C71.2324 96.0236 66.4634 99.994 64.4227 102.7C63.5133 103.898 63.7351 105.295 64.3784 106.138C64.9551 106.915 66.6852 107.647 68.5928 107.003C70.5004 106.36 74.2269 104.43 80.4598 104.386C86.6927 104.43 90.4192 106.36 92.3268 107.003C94.2344 107.647 95.9645 106.937 96.5412 106.138C97.1845 105.295 97.4063 103.898 96.4969 102.7ZM168.586 102.7C166.523 99.9718 161.776 96.0236 152.549 96.0236C143.322 96.0236 138.553 99.994 136.512 102.7C135.602 103.898 135.824 105.295 136.468 106.138C137.044 106.915 138.774 107.647 140.682 107.003C142.59 106.36 146.316 104.43 152.549 104.386C158.782 104.43 162.508 106.36 164.416 107.003C166.324 107.647 168.054 106.937 168.63 106.138C169.274 105.295 169.495 103.898 168.586 102.7Z" fill="#454140"/>
<path d="M117.767 2.99536C26.8019 2.99536 27.5339 82.6705 27.5339 84.0014C27.5339 101.214 27.9553 120.667 29.1975 140.164L44.1033 140.12C43.9702 133.643 48.5174 93.6059 62.0258 90.5671C111.623 79.4099 139.682 53.1029 139.682 53.1029C146.98 69.029 169.805 84.5781 177.99 90.5005C184.71 95.3582 187.461 131.647 187.328 140.142H203.742C203.742 140.031 203.786 139.92 203.786 139.787C205.028 120.379 204.829 101.059 204.829 83.957C204.851 82.6705 208.733 2.99536 117.767 2.99536Z" fill="#312D2D"/>
<path d="M117.767 2.99536C26.8019 2.99536 27.5339 82.6705 27.5339 84.0014C27.5339 101.214 27.9553 120.667 29.1975 140.164L44.1033 140.12C43.9702 133.643 48.5174 93.6059 62.0258 90.5671C111.623 79.4099 139.682 53.1029 139.682 53.1029C146.98 69.029 169.805 84.5781 177.99 90.5005C184.71 95.3582 187.461 131.647 187.328 140.142H203.742C203.742 140.031 203.786 139.92 203.786 139.787C205.028 120.379 204.829 101.059 204.829 83.957C204.851 82.6705 208.733 2.99536 117.767 2.99536Z" fill="url(#paint2_radial_544_10118)"/>
<path d="M116.038 45.8048C42.285 45.8048 30.4624 71.0027 30.4624 71.0027C30.4624 71.0027 53.1982 92.9844 116.038 93.4058C178.9 92.9844 202.789 69.6053 202.789 69.6053C202.789 69.6053 189.813 45.8048 116.038 45.8048Z" fill="url(#paint3_linear_544_10118)"/>
<path d="M19.8164 68.585C23.5651 82.3152 27.1584 87.9714 27.1584 87.9714C30.9736 83.5573 53.6207 62.7291 116.349 62.7291H116.704C179.433 62.7291 201.06 83.6461 204.853 88.0823C204.853 88.0823 209.378 81.9603 213.148 68.2301C221.866 36.4665 178.701 0.887695 116.593 0.887695C54.6632 0.909877 11.1435 36.8657 19.8164 68.585Z" fill="#303030"/>
<mask id="mask0_544_10118" style="mask-type:luminance" maskUnits="userSpaceOnUse" x="18" y="0" width="197" height="89">
<path d="M19.8169 68.5852C23.5655 82.3154 27.1589 87.9717 27.1589 87.9717C30.9741 83.5576 53.6212 62.7294 116.35 62.7294H116.705C179.433 62.7294 201.06 83.6463 204.853 88.0826C204.853 88.0826 209.378 81.9605 213.149 68.2303C221.866 36.4667 178.701 0.887939 116.594 0.887939C54.6637 0.910121 11.144 36.866 19.8169 68.5852V68.5852Z" fill="white"/>
</mask>
<g mask="url(#mask0_544_10118)">
<path d="M192.387 70.3598C191.943 67.9643 190.634 65.8349 188.705 64.3709C180.697 58.1601 156.741 42.7441 116.15 42.7441C74.5154 42.7441 51.2029 58.1379 43.4838 64.3487C41.6428 65.8349 40.3784 67.9199 39.957 70.2267L39.9348 70.3598C38.6039 77.3913 44.97 83.4912 51.9349 81.8276C66.4636 78.3229 90.1532 73.8423 116.15 73.7979C142.146 73.8423 165.836 78.3451 180.365 81.8276C187.329 83.4912 193.718 77.3913 192.387 70.3598Z" fill="#212121"/>
</g>
<path d="M101.664 37.1766C101.465 37.3097 101.265 37.3984 101.021 37.3984H79.1946C78.3961 37.3984 78.0855 38.4188 78.7288 38.8846C79.239 39.2617 79.7491 39.6166 80.2593 39.9493C82.0338 41.1471 84.1188 41.7681 86.2704 41.7681H103.394C102.884 40.1267 102.307 38.574 101.664 37.1766ZM100.622 35.025C99.4683 32.8069 98.337 31.0768 97.5163 29.9233H69.4792C68.8803 29.9233 68.5919 30.6775 69.0356 31.0546C69.3017 31.2986 69.5901 31.5426 69.8563 31.7866C72.2368 33.8751 75.2958 35.0262 78.4626 35.025H100.622ZM104.038 44.1415H88.9765C88.5107 44.1415 88.3555 44.7848 88.7769 45.0066C97.8934 49.5538 103.062 49.2432 103.062 49.2432H104.814C104.703 47.4687 104.437 45.7608 104.038 44.1415ZM153.812 37.3984H131.986C131.742 37.3984 131.52 37.3097 131.343 37.1766C130.7 38.574 130.123 40.1267 129.613 41.7681H146.737C148.866 41.7681 150.973 41.1471 152.748 39.9493C153.258 39.6166 153.746 39.2617 154.278 38.8846C154.921 38.4188 154.611 37.3984 153.812 37.3984ZM163.55 29.9233H135.513C134.692 31.0768 133.561 32.8069 132.407 35.025H154.567C157.739 35.025 160.8 33.8938 163.173 31.7866C163.439 31.5426 163.705 31.2986 163.994 31.0546C164.415 30.6553 164.127 29.9233 163.55 29.9233ZM144.03 44.1415H128.969C128.592 45.7608 128.326 47.4687 128.193 49.2432H129.945C129.945 49.2432 135.114 49.5538 144.23 45.0066C144.629 44.7848 144.496 44.1415 144.03 44.1415ZM125.931 23.9787C124.245 24.7551 122.248 25.2209 120.407 25.5093C117.812 25.9085 115.173 25.9085 112.577 25.5093C110.736 25.2209 108.74 24.7551 107.054 23.9787C105.99 23.4908 104.747 24.0231 104.304 25.11L102.529 29.5019C102.063 30.6553 102.152 31.4095 102.574 31.9862C104.149 34.1156 107.875 39.9493 108.119 46.9807C108.141 47.7571 108.563 48.4669 109.272 48.8218C110.714 49.5094 113.243 50.8403 115.128 52.393C115.927 53.0584 117.036 53.0584 117.834 52.393C119.742 50.8181 122.248 49.5094 123.69 48.8218C124.4 48.4891 124.821 47.7793 124.844 46.9807C125.088 39.9493 128.836 34.1378 130.389 31.9862C130.81 31.4095 130.899 30.6553 130.633 30.0121C130.123 28.7699 129.302 26.707 128.659 25.11C128.562 24.8506 128.412 24.614 128.22 24.4147C128.028 24.2155 127.796 24.0579 127.54 23.9519C127.285 23.8458 127.01 23.7934 126.733 23.7981C126.456 23.8027 126.183 23.8642 125.931 23.9787Z" fill="#FFC107"/>
<path opacity="0.3" d="M19.8145 68.585C23.5632 82.3152 27.1565 87.9714 27.1565 87.9714C30.9717 83.5352 53.7297 62.1968 116.481 62.1968H116.835C179.564 62.1968 201.036 83.6461 204.851 88.0823C204.851 88.0823 209.531 81.4501 213.302 67.7199C222.019 35.9563 179.165 0.887695 117.057 0.887695C55.0606 0.887695 11.1417 36.8435 19.8145 68.585Z" fill="url(#paint4_radial_544_10118)"/>
<defs>
<radialGradient id="paint0_radial_544_10118" cx="0" cy="0" r="1" gradientUnits="userSpaceOnUse" gradientTransform="translate(115.907 124.146) scale(104.172 123.975)">
<stop offset="0.794" stop-color="#454140" stop-opacity="0"/>
<stop offset="1" stop-color="#454140"/>
</radialGradient>
<radialGradient id="paint1_radial_544_10118" cx="0" cy="0" r="1" gradientUnits="userSpaceOnUse" gradientTransform="translate(117.866 267.266) scale(116.445 63.7653)">
<stop offset="0.782" stop-color="#212121"/>
<stop offset="1" stop-color="#616161"/>
</radialGradient>
<radialGradient id="paint2_radial_544_10118" cx="0" cy="0" r="1" gradientUnits="userSpaceOnUse" gradientTransform="translate(116.942 131.045) scale(110.032 133.524)">
<stop offset="0.794" stop-color="#454140" stop-opacity="0"/>
<stop offset="1" stop-color="#454140"/>
</radialGradient>
<linearGradient id="paint3_linear_544_10118" x1="116.617" y1="53.9653" x2="116.617" y2="91.9685" gradientUnits="userSpaceOnUse">
<stop offset="0.004" stop-color="#666666"/>
<stop offset="0.08" stop-color="#606060"/>
<stop offset="0.546" stop-color="#3F3F3F"/>
<stop offset="0.802" stop-color="#333333"/>
</linearGradient>
<radialGradient id="paint4_radial_544_10118" cx="0" cy="0" r="1" gradientUnits="userSpaceOnUse" gradientTransform="translate(117.199 73.2112) scale(115.374 76.7812)">
<stop offset="0.631" stop-color="#212121" stop-opacity="0"/>
<stop offset="0.918" stop-color="#BFBEBE"/>
</radialGradient>
</defs>
</svg>
