<svg width="42" height="45" viewBox="0 0 42 45" fill="none" xmlns="http://www.w3.org/2000/svg">
<path d="M0.817627 0.817627H41.0455V28.3983H0.817627V0.817627Z" fill="#26A69A"/>
<path d="M40.2279 1.63528V27.5806H1.63528V1.63528H40.2279ZM41.8632 0H0V29.2159H41.8632V0Z" fill="#5D4037"/>
<path d="M2.61646 38.6024V41.8632H31.1161V38.6024C31.1161 33.641 24.1204 31.1227 16.9742 31.1325C9.87383 31.139 2.61646 33.3466 2.61646 38.6024Z" fill="#546E7A"/>
<path d="M14.6487 34.4095H19.113L16.8301 44.0054L14.6487 34.4095Z" fill="#455A64"/>
<path d="M16.8498 29.4939H13.8801V32.6304C13.8801 34.0498 15.0903 35.2011 16.5816 35.2011H17.1213C18.6126 35.2011 19.8228 34.0498 19.8228 32.6304V29.4939H16.8498ZM27.3941 17.0527C27.3941 17.0527 29.3205 17.3863 29.3205 19.4631C29.3205 21.2947 27.9141 22.0174 26.5078 22.0174V17.0527H27.3941ZM6.37094 17.0527C6.37094 17.0527 4.44458 17.3863 4.44458 19.4631C4.44458 21.2947 5.85092 22.0174 7.25726 22.0174V17.0527H6.37094Z" fill="#DBA689"/>
<path d="M16.8827 3.45703C8.57546 3.45703 6.40381 9.89676 6.40381 18.9431C6.40381 28.3231 12.4315 30.7499 16.8827 30.7499C21.2685 30.7499 27.3616 28.3951 27.3616 18.9431C27.3616 9.89676 25.1866 3.45703 16.8827 3.45703Z" fill="#FADCBC"/>
<path d="M13.4288 19.7836C13.4288 20.719 12.8042 21.4745 12.029 21.4745C11.2572 21.4745 10.626 20.7157 10.626 19.7836C10.626 18.8482 11.2539 18.0895 12.029 18.0895C12.8042 18.0895 13.4288 18.845 13.4288 19.7836ZM20.3297 19.7836C20.3297 20.719 20.9544 21.4745 21.7328 21.4745C22.5047 21.4745 23.1326 20.7157 23.1326 19.7836C23.1326 18.8482 22.5047 18.0895 21.7328 18.0895C20.9577 18.0895 20.3297 18.845 20.3297 19.7836Z" fill="#444444"/>
<path d="M19.9145 25.4972H13.8509C13.5042 25.4972 13.3537 25.7294 13.5827 26.0826C13.9032 26.5732 15.1002 27.5151 16.8827 27.5151C18.6651 27.5151 19.8622 26.5732 20.1827 26.0826C20.4116 25.7294 20.2612 25.4972 19.9145 25.4972Z" fill="#262626"/>
<path d="M18.3477 22.9201C17.831 23.0672 17.2946 23.1359 16.8825 23.1359C16.4704 23.1359 15.934 23.064 15.4173 22.9201C15.1982 22.8579 15.1099 23.0672 15.1883 23.2046C15.3519 23.4924 16.0125 24.0746 16.8825 24.0746C17.7525 24.0746 18.4131 23.4924 18.5766 23.2046C18.6551 23.064 18.5668 22.8546 18.3477 22.9201Z" fill="#DBA689"/>
<path d="M17.131 2.2764C17.131 2.2764 16.9675 2.26986 16.8988 2.27313C16.8301 2.27313 16.6666 2.2764 16.6666 2.2764C7.70197 2.44974 5.00049 7.8429 5.00049 11.5811C5.00049 15.2147 5.00376 17.8868 5.00376 17.8868C5.00376 17.8868 5.14766 17.7396 5.40931 17.5336C5.69058 17.3144 6.00128 17.1934 6.00128 17.1934L6.45262 20.2285L9.43864 13.9883C9.45826 13.949 9.49751 13.9261 9.54003 13.9327L11.3094 14.1289C13.0886 14.3251 14.8776 14.4233 16.6633 14.4265V14.4298C16.7418 14.4298 16.817 14.4265 16.8955 14.4265C16.974 14.4265 17.0492 14.4298 17.1277 14.4298V14.4233C18.9135 14.4167 20.7024 14.3219 22.4816 14.1256L24.251 13.9294C24.2935 13.9261 24.3328 13.949 24.3524 13.985L27.3384 20.2252L27.7898 17.1902C27.7898 17.1902 28.1005 17.3144 28.3817 17.5303C28.6466 17.7363 28.7873 17.8835 28.7873 17.8835C28.7873 17.8835 28.7905 15.2147 28.7905 11.5779C28.7971 7.8429 26.0956 2.44974 17.131 2.2764Z" fill="#312D2D"/>
<path d="M13.4321 19.8392C13.4321 20.7681 12.8107 21.5236 12.0389 21.5236C11.2703 21.5236 10.6423 20.7714 10.6423 19.8392C10.6423 18.9071 11.267 18.1549 12.0389 18.1549C12.8107 18.1549 13.4321 18.9071 13.4321 19.8392ZM20.3003 19.8392C20.3003 20.7681 20.9217 21.5236 21.6968 21.5236C22.4654 21.5236 23.0901 20.7714 23.0901 19.8392C23.0901 18.9071 22.4654 18.1549 21.6968 18.1549C20.9217 18.1549 20.3003 18.9071 20.3003 19.8392Z" fill="#262626"/>
<path d="M10.2858 37.4447L12.8401 35.4235L9.79517 34.2134L13.8441 31.0115L16.8301 44.0054L10.2858 37.4447ZM20.8726 35.3842L23.4792 37.4447L16.8301 44.0054L19.9208 31.0115L23.9698 34.2134L20.8726 35.3842Z" fill="#E0E0E0"/>
<path d="M13.2654 16.7355H9.38978C9.27858 16.7355 9.16738 16.7453 9.05945 16.7584C9.31456 16.8009 9.53369 16.9382 9.67759 17.1279H13.2621C14.3905 17.1279 15.3095 17.9783 15.3095 19.0249V20.8858C15.3095 21.9324 14.3905 22.7827 13.2621 22.7827H9.38978C8.26144 22.7827 7.34241 21.9324 7.34241 20.8858V19.2865H7.0546C7.00881 19.2865 6.96302 19.28 6.91724 19.2734V20.8858C6.91724 22.1483 8.02596 23.1752 9.38651 23.1752H13.2621C14.6227 23.1752 15.7314 22.1483 15.7314 20.8858V19.0249C15.7347 17.7624 14.6259 16.7355 13.2654 16.7355Z" fill="#231F20" stroke="#231F20" stroke-width="0.481" stroke-miterlimit="10"/>
<path d="M9.05941 12.6741C9.00054 12.6643 8.94167 12.6577 8.8828 12.6577H7.05456C6.51819 12.6577 6.07666 13.0633 6.07666 13.5637V14.2995C6.07666 14.7541 6.44296 15.1303 6.91719 15.1924V14.9438C6.91719 13.7828 7.85257 12.8245 9.05941 12.6741Z" fill="black"/>
<path d="M7.34256 19.2866V19.0249C7.34256 17.9783 8.26158 17.128 9.38993 17.128H9.68101C9.5371 16.9383 9.31797 16.8009 9.06287 16.7584C7.85603 16.9089 6.92065 17.8671 6.92065 19.0249V19.2735C6.96644 19.28 7.00896 19.2866 7.05802 19.2866H7.34256Z" fill="black" stroke="black" stroke-width="0.481" stroke-miterlimit="10"/>
<path d="M20.3431 16.7355H24.2187C24.3299 16.7355 24.4411 16.7453 24.549 16.7584C24.2939 16.8009 24.0748 16.9382 23.9309 17.1279H20.3431C19.2147 17.1279 18.2957 17.9783 18.2957 19.0249V20.8858C18.2957 21.9324 19.2147 22.7827 20.3431 22.7827H24.2187C25.347 22.7827 26.266 21.9324 26.266 20.8858V19.2865H26.5538C26.5996 19.2865 26.6454 19.28 26.6912 19.2734V20.8858C26.6912 22.1483 25.5825 23.1752 24.2219 23.1752H20.3431C18.9825 23.1752 17.8738 22.1483 17.8738 20.8858V19.0249C17.8738 17.7624 18.9792 16.7355 20.3431 16.7355Z" fill="#231F20" stroke="#231F20" stroke-width="0.481" stroke-miterlimit="10"/>
<path d="M24.5488 16.7583C24.6077 16.7485 24.6666 16.7419 24.7254 16.7419H26.5537C27.0901 16.7419 27.5316 17.1475 27.5316 17.6479V18.3838C27.5316 18.8384 27.1653 19.2145 26.691 19.2766V19.0281C26.6878 17.867 25.7557 16.9087 24.5488 16.7583Z" fill="black"/>
<path d="M26.2659 19.2866V19.0249C26.2659 17.9783 25.3469 17.128 24.2186 17.128H23.9275C24.0714 16.9383 24.2905 16.8009 24.5456 16.7584C25.7525 16.9089 26.6878 17.8671 26.6878 19.0249V19.2735C26.6421 19.28 26.5995 19.2866 26.5505 19.2866H26.2659Z" fill="black" stroke="black" stroke-width="0.481" stroke-miterlimit="10"/>
<path d="M18.1091 19.2865H15.4403L15.0806 17.5695H18.5016L18.1091 19.2865Z" fill="#231F20"/>
<path d="M34.6189 33.9033L33.5527 33.6973L38.246 11.5131H38.6548L34.6189 33.9033Z" fill="#F15A29"/>
<path d="M33.2518 35.2239C33.7424 35.3449 34.0564 35.6916 34.2755 36.1233C34.8217 36.0252 35.7636 35.9271 36.0384 35.9336C36.3621 35.9434 36.7906 35.9794 36.8625 36.6433C36.9083 37.075 36.7448 37.4315 36.1921 37.4839C35.986 37.5035 35.7734 37.5166 35.5641 37.5264L35.6394 37.7684C35.8323 37.7651 36.0057 37.7586 36.1397 37.7586C36.699 37.752 37.0163 38.0497 37.0163 38.6416C37.0163 39.1617 36.5682 39.407 36.2411 39.4266C36.0678 39.4364 35.5837 39.4102 35.1062 39.3644L35.0572 39.4658L35.0376 39.4953C35.3385 39.541 35.6263 39.5901 35.829 39.6261C36.3752 39.7242 36.6369 40.0872 36.5747 40.5189C36.4995 41.0422 36.0318 41.1861 35.708 41.1763C35.466 41.1698 34.6157 41.0357 34.0466 40.9147L33.9354 41.0749C33.9746 41.0815 34.0172 41.088 34.0629 41.0946C34.0695 41.0946 34.076 41.0978 34.0858 41.0978L34.2003 41.1175C34.2101 41.1175 34.2167 41.1207 34.2265 41.1207C34.2723 41.1273 34.318 41.1371 34.3638 41.1436H34.3704C34.4194 41.1502 34.4685 41.16 34.5175 41.1698C34.5274 41.1698 34.5372 41.1731 34.5437 41.1731L34.6582 41.1927C34.6745 41.1959 34.6876 41.1992 34.704 41.1992C34.7367 41.2058 34.7694 41.2123 34.7988 41.2156L34.8479 41.2254C34.8806 41.2319 34.91 41.2385 34.9395 41.2417L34.9852 41.2515C35.0278 41.2614 35.0735 41.2679 35.1128 41.2777C35.6132 41.3824 35.8029 41.608 35.7407 42.0038C35.6557 42.5598 35.0964 42.6841 34.7988 42.6546C34.5012 42.6285 33.5004 42.4224 33.1733 42.2785L33.1145 42.2491L33 42.4126C31.5283 42.3145 30.4719 41.6996 30.4719 41.6996C29.6084 41.2156 29.4645 40.8427 29.3206 40.2508C29.1571 39.577 29.1963 38.779 29.2029 38.6547C29.2552 37.3138 29.5528 36.4471 30.6354 35.7276C30.897 35.5542 31.2797 35.2501 32.1268 35.152C32.4571 35.1192 32.9248 35.1454 33.2518 35.2239Z" fill="#FADCBC"/>
<path d="M34.4781 37.4512C34.4781 37.4512 34.4912 36.7774 34.2786 36.1233L34.5141 36.0808C34.5141 36.0808 34.6809 36.5452 34.7397 37.232C34.7495 37.3432 34.7528 37.4446 34.7528 37.5428L34.9621 37.5297L36.3652 37.4512C36.3652 37.4512 36.2605 37.4708 36.2605 37.6278C36.2605 37.6932 36.2998 37.7357 36.3292 37.7619C36.2704 37.7553 36.2049 37.7488 36.1395 37.7521L34.7463 37.788C34.743 37.8273 34.743 37.8665 34.7397 37.9091C34.707 38.4781 34.5729 39.0243 34.2557 39.2336C35.3088 39.3579 36.2442 39.4201 36.2442 39.4201C36.061 39.4953 36.1395 39.7177 36.1395 39.7177C35.4298 39.5247 33.7095 39.4233 33.7095 39.4233C32.9834 39.3612 32.8853 39.8518 32.8853 39.8518C32.7512 40.4437 33.3955 40.7152 33.3955 40.7152C33.4806 40.7643 34.2492 40.918 34.7986 41.0226L35.3481 41.124L35.5018 41.1535C35.4854 41.1502 35.42 41.1469 35.3938 41.2548C35.3808 41.3072 35.3938 41.3431 35.4037 41.366C35.3219 41.3301 35.2238 41.2974 35.1093 41.2745C34.8509 41.2221 34.0693 41.0946 34.0104 41.0848L33.8142 41.0586C33.1666 40.9736 33.0096 41.088 33.0096 41.088C32.6498 41.2777 32.7545 41.7356 32.7545 41.7356C32.833 42.1771 33.3203 42.3145 33.3203 42.3145C33.5067 42.3701 34.4944 42.6088 34.4944 42.6088L32.9998 42.4126C32.8951 42.3799 32.8559 42.3308 32.797 42.2851C32.2705 41.8533 32.4929 41.2679 32.4929 41.2679C32.5746 41.0423 32.7447 40.9409 32.7447 40.9409C32.8461 40.8787 32.9638 40.846 33.0848 40.8329C32.4732 40.5091 32.5714 39.855 32.5714 39.855C32.6498 39.4528 32.9409 39.2827 33.1699 39.2107C33.1502 39.1944 33.1273 39.178 33.1077 39.1584C33.1077 39.1584 32.7153 38.9 32.8592 37.7913C32.9082 37.4185 32.9017 37.3661 32.8624 37.1307C32.8624 37.1307 32.7218 36.627 32.3032 36.7873C32.3032 36.7873 32.1625 36.8232 31.9434 36.9966C31.9434 36.9966 31.7668 37.1339 31.7701 36.9181C31.7701 36.8527 31.8159 36.7349 31.9042 36.6335C31.9042 36.6335 31.9957 36.5256 32.2214 36.4635C32.2214 36.4635 32.8068 36.2313 33.0979 36.8167C33.2516 37.1241 33.2222 37.3269 33.1731 37.6409C33.1731 37.6409 33.0816 38.6318 33.3399 38.9491C33.3399 38.9491 33.595 39.2402 34.0039 39.0603C34.0071 39.0668 34.5631 38.7627 34.4781 37.4512Z" fill="#DBA689"/>
</svg>
