<svg width="79" height="76" viewBox="0 0 79 76" fill="none" xmlns="http://www.w3.org/2000/svg">
<path d="M66.3652 14.7515C66.3652 14.7515 66.3872 15.0559 66.3939 15.611L66.3965 15.8311C66.397 15.909 66.4007 15.9864 66.3926 16.0851C66.3755 16.2909 66.3585 16.4968 66.3413 16.7026C66.3209 16.9239 66.3017 17.173 66.2731 17.4219C66.2436 17.6663 66.2155 17.929 66.1768 18.2036C65.9956 19.5315 65.7196 20.8448 65.3512 22.1334C64.927 23.6305 64.3303 25.2961 63.5084 27.0505C62.6894 28.8059 61.6331 30.6396 60.3371 32.4738C60.1798 32.7078 60.0072 32.93 59.8373 33.1585L59.5797 33.5012L59.45 33.6736L59.4175 33.7168C59.5197 33.6227 59.2596 33.8695 59.2817 33.8504L59.2682 33.8685L59.2141 33.9405C58.9269 34.3268 58.6242 34.7047 58.3249 35.0939L58.2966 35.1304L58.2567 35.1752L58.1764 35.2653L58.0151 35.4458L57.686 35.804L57.0157 36.5239L56.8463 36.7041L56.6871 36.8671C56.5808 36.9766 56.4732 37.0848 56.3643 37.1917L55.7076 37.8404C53.931 39.5614 51.9133 41.1642 49.7217 42.5875C47.4996 44.0264 45.1446 45.2488 42.6891 46.238C40.2318 47.2307 37.6863 47.9892 35.0864 48.5032C32.5162 49.0082 29.943 49.261 27.459 49.2737C24.9744 49.2874 22.5813 49.0664 20.3575 48.6699C19.2446 48.4809 18.1757 48.2231 17.1539 47.9579C16.1346 47.6677 15.1605 47.3755 14.2458 47.0279L13.5671 46.7801C13.3441 46.6978 13.1273 46.5993 12.9121 46.5112C12.4818 46.3323 12.065 46.1523 11.6621 45.9718C11.2606 45.7857 10.8746 45.5919 10.5018 45.4036L9.95227 45.1252C9.77228 45.034 9.59978 44.9293 9.42824 44.8344C8.74488 44.4445 8.1124 44.0829 7.55066 43.6995C6.98663 43.3229 6.47317 42.9831 6.02979 42.6353L5.40219 42.1482L4.85979 41.7066C4.52892 41.4234 4.2561 41.1701 4.03595 40.9657C3.59615 40.557 3.37389 40.3235 3.37389 40.3235C1.30526 38.1498 1.39045 34.7109 3.56412 32.6422C4.43549 31.8103 5.55965 31.2931 6.75836 31.1726L7.41002 31.1067C7.41002 31.1067 7.68317 31.0791 8.17224 31.056C8.41661 31.0446 8.71659 31.0292 9.059 31.0256L9.6175 30.9929L10.2383 30.9692C10.669 30.9651 11.1522 30.923 11.6608 30.9066C12.1677 30.8962 12.72 30.8445 13.2915 30.8216C13.864 30.7962 14.4731 30.7328 15.096 30.7037C15.7273 30.6356 16.3729 30.6066 17.0451 30.5279L17.5509 30.4777L17.8055 30.4569L18.0632 30.425L18.5829 30.3614L19.1066 30.3083C19.4592 30.2567 19.815 30.2067 20.173 30.1662L20.4422 30.133L20.7134 30.0881L21.2584 30.0086C22.7177 29.7875 24.2212 29.5195 25.7454 29.1924C28.7943 28.5424 31.9268 27.6576 34.9825 26.5242C36.5084 25.9565 38.0136 25.3347 39.4953 24.6601C40.9734 23.991 42.4127 23.267 43.8147 22.5225L44.3335 22.2358C44.4197 22.1879 44.5065 22.1409 44.5948 22.0957L44.7265 22.0272L44.839 21.9664L45.2882 21.7265L45.5147 21.6082L45.6302 21.5515L45.6879 21.5232L45.717 21.5089L45.7555 21.4837C46.1674 21.2162 46.568 20.9444 46.9761 20.689L47.0522 20.6408L47.0712 20.6288C47.1042 20.5997 46.8546 20.8364 46.9675 20.7319L46.998 20.713L47.1203 20.6379L47.3645 20.4883L47.8503 20.1898C49.1345 19.3892 50.3669 18.5844 51.5081 17.7871C52.5771 17.0419 53.6317 16.2764 54.6715 15.491C55.6319 14.7705 56.4788 14.101 57.1957 13.5371C57.3718 13.3945 57.5469 13.2622 57.7085 13.1347C57.8678 13.0105 58.0148 12.9043 58.1543 12.7982L58.5431 12.5053C58.6037 12.4655 58.6666 12.4079 58.7253 12.3582L58.8925 12.2149C59.314 11.8538 59.5573 11.6695 59.5573 11.6695C61.4285 10.2512 64.0952 10.6185 65.5134 12.4897C66.0121 13.1443 66.3082 13.9306 66.3652 14.7515Z" fill="#FFAE2C"/>
<path d="M5.27411 35.9832C4.60847 37.5031 4.01908 37.7042 2.45561 37.0196C0.891988 36.3349 0.640136 35.7654 1.30562 34.2455C1.9711 32.7256 5.93975 34.4633 5.27411 35.9832Z" fill="#B28E7F"/>
<path d="M69.8025 16.7042C69.8025 16.7042 69.8754 17.0408 69.9711 17.6601L70.009 17.9058C70.022 17.9928 70.0384 18.0786 70.0451 18.1902L70.0861 18.8883C70.0983 19.1389 70.1166 19.4201 70.1241 19.7029C70.13 19.9806 70.1404 20.2786 70.1409 20.5918C70.1495 22.1044 70.0499 23.6158 69.843 25.1142C69.6069 26.8546 69.205 28.8105 68.5655 30.9014C67.9295 32.9931 67.0406 35.2102 65.8841 37.4657C65.7456 37.752 65.588 38.0279 65.4344 38.3102L65.2012 38.7342L65.0837 38.9473L65.0541 39.0008C65.1534 38.8794 64.9019 39.1966 64.9235 39.1717L64.9113 39.194L64.8624 39.2831C64.6031 39.7605 64.3247 40.2308 64.052 40.7134L64.0263 40.7584L63.9889 40.8149L63.9135 40.9282L63.762 41.1555L63.4513 41.608L62.8167 42.519L62.656 42.7472L62.504 42.9547C62.403 43.0937 62.2996 43.2313 62.1951 43.3685L61.5644 44.1977C59.8528 46.4032 57.853 48.5149 55.6304 50.4538C53.3761 52.4149 50.939 54.1552 48.3524 55.6509C45.7644 57.1507 43.0406 58.4029 40.2172 59.3907C37.4255 60.3635 34.5904 61.0552 31.8166 61.4643C29.0425 61.8746 26.3333 62.008 23.7854 61.9184C22.5118 61.8841 21.2764 61.766 20.0923 61.632C18.9073 61.4698 17.7723 61.2981 16.695 61.0552L15.8973 60.8862C15.6351 60.8298 15.3772 60.7542 15.1226 60.6898C14.6266 60.5619 14.1324 60.4273 13.6401 60.286C13.1619 60.1417 12.6998 59.9866 12.2532 59.8354L11.5949 59.6117C11.3793 59.5384 11.1699 59.4488 10.963 59.3701C10.5643 59.2145 10.1675 59.0542 9.77272 58.889C9.3908 58.7392 9.03034 58.5627 8.68467 58.4004C7.99448 58.0694 7.36672 57.7712 6.81603 57.453C6.32592 57.1786 5.84052 56.8959 5.36003 56.6049C5.01043 56.377 4.66456 56.1435 4.32255 55.9043C3.76617 55.5174 3.48066 55.2919 3.48066 55.2919C0.823616 53.1918 0.372104 49.3355 2.47211 46.6785C3.31353 45.6104 4.48742 44.8538 5.80764 44.5286L6.52532 44.3513C6.52532 44.3513 6.82611 44.2769 7.36899 44.1735C7.64019 44.1221 7.97285 44.0575 8.35591 43.9948C8.74239 43.9166 9.18122 43.8327 9.66379 43.748C10.1444 43.675 10.6777 43.5511 11.2433 43.4519C11.8082 43.3597 12.4171 43.2142 13.0522 43.0976C13.6879 42.9783 14.3584 42.8106 15.0497 42.6791C15.4013 42.5919 15.7542 42.5101 16.1082 42.4336C16.4664 42.3583 16.8307 42.2626 17.1998 42.1728L17.757 42.0362L18.0381 41.9725L18.321 41.8959L18.8914 41.7423L19.4681 41.5997L20.0497 41.4303C20.344 41.3504 20.6383 41.2708 20.9327 41.1913L21.2286 41.0981C21.4263 41.0366 21.6255 40.9812 21.825 40.9225C23.4203 40.4435 25.0578 39.905 26.7089 39.2971C30.0126 38.0861 33.372 36.5994 36.6062 34.847C38.2211 33.9701 39.8042 33.036 41.3525 32.0465C42.8978 31.064 44.391 30.0262 45.8392 28.9713L46.3735 28.5684C46.4622 28.5008 46.5521 28.4347 46.6431 28.3702L46.7793 28.2728L46.8954 28.187L47.3593 27.8473L47.5936 27.6792L47.7135 27.5974L47.7737 27.5566L47.8039 27.536L47.843 27.5017C48.2607 27.1373 48.6652 26.7699 49.0804 26.4195L49.1578 26.3535L49.1772 26.337C49.2095 26.2993 48.9683 26.6034 49.0775 26.4687L49.1087 26.4429L49.2334 26.3396L49.4825 26.1336L49.9779 25.7229C51.2855 24.6242 52.5348 23.5291 53.6832 22.4567C54.7591 21.4541 55.8159 20.4311 56.8529 19.3883C57.8115 18.4305 58.6515 17.5479 59.3628 16.8038C59.5368 16.6165 59.7114 16.4407 59.8719 16.2726C60.0302 16.1084 60.1775 15.9666 60.3165 15.8256L60.7043 15.4365C60.7656 15.3824 60.8269 15.3081 60.8845 15.2431L61.0485 15.0564C61.4623 14.5859 61.7047 14.3412 61.7047 14.3412C63.5701 12.4589 66.6083 12.4454 68.4906 14.3108C69.1518 14.9637 69.6078 15.7956 69.8025 16.7042Z" fill="#FFB93E"/>
<path d="M4.91437 50.1406C4.41229 51.9447 -0.298421 50.6337 0.203656 48.8296C0.705734 47.0255 1.33235 46.707 3.18848 47.2236C5.04461 47.7401 5.41645 48.3363 4.91437 50.1406Z" fill="#A07562"/>
<path d="M67.1106 1.78952C66.9225 1.7379 66.7258 1.72528 66.5326 1.75245C66.332 1.5805 66.1072 1.43905 65.8654 1.33264C64.8937 0.907142 63.8375 1.84659 63.3 2.43549C61.6644 4.22706 65.3452 6.57714 62.7297 10.9046C62.3611 11.5143 62.6753 13.0848 63.2379 13.3311C63.8725 13.609 64.6202 13.4066 65.176 12.8677C65.16 12.9064 65.1451 12.9446 65.1285 12.9837C64.8136 13.7236 65.4145 15.4284 66.0823 15.6142C67.0739 15.8901 68.1536 15.2064 68.5922 14.0364C69.8249 10.7461 71.1419 2.91139 67.1106 1.78952Z" fill="#8E6049"/>
<path d="M75.6428 14.3125C75.6428 14.3125 75.8103 14.6018 76.0867 15.1472L76.1963 15.3637C76.2347 15.4407 76.2755 15.5137 76.3169 15.6209L76.5742 16.2823C76.6642 16.52 76.7694 16.7865 76.8652 17.0551C76.9575 17.3185 77.06 17.5994 77.159 17.8983C77.6419 19.3403 78.0265 20.8134 78.3103 22.3074C78.6439 24.0424 78.8956 26.0352 78.9741 28.2331C79.0561 30.4307 78.947 32.8295 78.6062 35.3534C78.5704 35.6708 78.5142 35.9853 78.4633 36.3041L78.3848 36.7837L78.3449 37.025L78.3348 37.0855C78.3856 36.9284 78.2601 37.3339 78.2716 37.3008L78.2674 37.3256L78.2506 37.4253C78.1635 37.9583 78.0578 38.4921 77.9607 39.0348L77.9515 39.0857L77.9352 39.152L77.9024 39.2852L77.836 39.5523C77.7894 39.7307 77.7427 39.909 77.696 40.0874L77.4063 41.1668L77.3321 41.4375L77.2588 41.685C77.2101 41.8508 77.1597 42.016 77.1075 42.1807L76.7941 43.1779C75.9215 45.8379 74.7681 48.5139 73.348 51.1038C71.9067 53.7227 70.2239 56.2012 68.3216 58.507C66.4144 60.828 64.2843 62.9633 62.0212 64.8568C59.7585 66.7512 57.3622 68.4037 54.9247 69.7739C52.4876 71.1458 50.0166 72.242 47.6179 73.0787C46.4227 73.5066 45.2333 73.8441 44.0864 74.1505C42.9283 74.4301 41.8139 74.6849 40.7273 74.854L39.9267 74.9893C39.6632 75.0332 39.397 75.0577 39.1377 75.0917C38.618 75.1566 38.1111 75.2136 37.6176 75.2627C37.1222 75.305 36.6379 75.332 36.1694 75.3574L35.4784 75.3939C35.2521 75.4061 35.0256 75.4009 34.8055 75.4048C33.9221 75.4086 33.104 75.413 32.3427 75.3572C31.5831 75.3092 30.8931 75.2701 30.2671 75.1837L29.3838 75.0676L28.6089 74.9491C28.1282 74.8629 27.7211 74.7743 27.3927 74.7028C26.7358 74.5595 26.389 74.4633 26.389 74.4633C23.1598 73.5676 21.2682 70.2236 22.164 66.9946C22.5526 65.5858 23.4383 64.3655 24.6573 63.5595L25.2563 63.1638C25.2563 63.1638 25.5105 62.9957 25.9809 62.7176C26.216 62.5788 26.504 62.4071 26.8405 62.2232L27.3748 61.8974L27.9759 61.546C28.3999 61.314 28.855 61.0158 29.3498 60.7283C29.8463 60.4477 30.365 60.1011 30.9191 59.771C31.4727 59.4382 32.0416 59.0472 32.6434 58.6805C33.2319 58.2711 33.8563 57.8911 34.4792 57.4456L34.9529 57.1195L35.1937 56.9592L35.4315 56.7862L35.9113 56.4381L36.4006 56.0968L36.885 55.7289L37.3781 55.3671L37.6264 55.1852L37.8701 54.9907L38.3652 54.6093C39.6861 53.5797 41.0216 52.4725 42.3389 51.2898C43.6561 50.1073 44.9607 48.8567 46.2196 47.5369C47.4792 46.218 48.6918 44.8306 49.8493 43.4013C52.1577 40.5365 54.2275 37.4887 56.0039 34.4384L56.3291 33.8648C56.3829 33.7693 56.4377 33.6742 56.495 33.5804L56.5797 33.4391L56.6494 33.3167L56.9294 32.8321L57.0722 32.5912L57.1466 32.4717L57.184 32.412L57.2027 32.3819L57.2248 32.3353C57.4635 31.8382 57.6903 31.3436 57.9314 30.8604L57.9762 30.7697L57.9874 30.7471C58.0041 30.6982 57.8835 31.0877 57.9386 30.9146L57.9563 30.8791L58.0274 30.7375L58.1696 30.4551L58.4519 29.8932C59.1902 28.3972 59.8716 26.9339 60.4682 25.5354C61.0256 24.2328 61.5572 22.9192 62.0625 21.5954C62.5305 20.3826 62.9205 19.286 63.2515 18.3631C63.3306 18.1326 63.4141 17.9124 63.4888 17.7045C63.5627 17.5017 63.6348 17.3271 63.7008 17.1541L63.8866 16.6766C63.9188 16.6094 63.9434 16.5169 63.9681 16.4361L64.0383 16.2039C64.2155 15.6186 64.3302 15.3046 64.3302 15.3046C65.518 12.0525 69.1175 10.3793 72.3694 11.5672C73.8025 12.0902 74.9327 13.0887 75.6428 14.3125Z" fill="#FFCE6C"/>
<path d="M74.5303 30.104C74.5303 30.104 74.6313 30.5727 74.7334 31.3836C74.7467 31.485 74.7612 31.5918 74.7726 31.7035L74.7914 31.8751L74.8004 32.0666C74.8139 32.3284 74.8155 32.6114 74.8231 32.9171C74.8269 33.2207 74.828 33.5517 74.8195 33.8901L74.7504 34.937C74.7038 35.6712 74.577 36.451 74.4344 37.2809C74.4028 37.4898 74.3532 37.6956 74.3051 37.905L74.1537 38.5403C74.0477 38.9679 73.9448 39.4087 73.7982 39.8408C73.6587 40.2841 73.5136 40.7256 73.3631 41.1653C73.1966 41.6048 73.015 42.0446 72.8332 42.4891C72.7374 42.7089 72.6532 42.9361 72.5457 43.1518L72.229 43.8045L71.9045 44.4568C71.799 44.6763 71.6798 44.8878 71.5575 45.0979C71.3175 45.5196 71.0736 45.939 70.8257 46.3561C70.5652 46.7599 70.2993 47.1602 70.0282 47.5569C69.7676 47.9567 69.478 48.331 69.1928 48.7004C68.9039 49.067 68.6302 49.4375 68.3306 49.7774C67.7331 50.4584 67.1547 51.1125 66.5504 51.68L66.1098 52.1039C65.9639 52.2416 65.8241 52.3804 65.6744 52.5058C65.376 52.7571 65.096 53.0056 64.8143 53.2311C64.2662 53.6964 63.7234 54.0775 63.2431 54.4112C63.0014 54.5764 62.7788 54.7333 62.5655 54.8695C62.3669 54.9912 62.1666 55.11 61.9645 55.2259C61.6826 55.3903 61.3967 55.5478 61.1072 55.6984C60.9062 55.8024 60.7967 55.8543 60.7967 55.8543C60.5457 55.9731 60.2637 56.0096 59.9908 55.9586C59.7179 55.9076 59.4681 55.7717 59.2769 55.5703C59.0858 55.369 58.9632 55.1124 58.9266 54.8372C58.8899 54.562 58.9411 54.2822 59.0729 54.0379L59.0956 53.9964L59.2556 53.7037C59.3621 53.5158 59.519 53.2423 59.728 52.9085C59.8304 52.7394 59.9481 52.5576 60.0757 52.3604C60.1951 52.1551 60.3302 51.9403 60.472 51.7096C60.7567 51.2494 61.0937 50.7508 61.4321 50.1882C61.6015 49.9071 61.7915 49.6281 61.9798 49.3333C62.1636 49.035 62.3486 48.7248 62.546 48.4131C62.9498 47.7962 63.3352 47.1229 63.7594 46.4506C63.8691 46.2849 63.9673 46.11 64.0678 45.935L64.3772 45.4115L64.6956 44.8865C64.8037 44.7115 64.8983 44.5278 65.0027 44.3491C65.2043 43.9874 65.4189 43.6303 65.6275 43.2684C65.8246 42.8996 66.0258 42.5329 66.2309 42.1685C66.4436 41.8072 66.6216 41.4298 66.8196 41.0635C67.0134 40.6954 67.2191 40.3341 67.3933 39.9626C67.5759 39.5981 67.7617 39.2352 67.9508 38.8739C68.1183 38.5129 68.2909 38.1542 68.4686 37.7981C68.6511 37.448 68.8019 37.094 68.9627 36.7503L69.2037 36.2405C69.2863 36.0762 69.3635 35.9093 69.4351 35.74C69.5757 35.4155 69.7203 35.0928 69.8688 34.7718C70.0254 34.4616 70.142 34.1525 70.2685 33.8575L70.645 33.0093C70.765 32.7431 70.8579 32.4942 70.9641 32.2564C71.0702 32.0198 71.164 31.7952 71.2626 31.5878L71.3338 31.4345L71.3951 31.2732C71.4341 31.168 71.4751 31.0681 71.5134 30.9734C71.816 30.2141 72.0315 29.7856 72.0315 29.7856C72.1906 29.4692 72.4688 29.2289 72.8051 29.1177C73.1414 29.0064 73.508 29.0333 73.8245 29.1923C74.1981 29.3797 74.4466 29.7255 74.5303 30.104Z" fill="#FFDF95"/>
<path d="M25.8551 69.1427C26.042 71.0062 25.5735 71.5302 23.6566 71.7224C21.7397 71.9146 21.1766 71.4939 20.9898 69.6305C20.803 67.7671 21.2714 67.243 23.1883 67.0508C25.1053 66.8587 25.6683 67.2793 25.8551 69.1427Z" fill="#8E6049"/>
<path d="M70.3258 14.7744C71.35 14.6718 72.1081 13.6429 72.092 12.3934C72.047 8.88003 74.7492 3.42433 71.0238 1.51878C66.6136 -0.737155 63.1463 2.36197 62.9436 3.23865C62.3267 5.90627 67.0326 6.33664 68.5168 13.799C68.6739 14.5876 69.6361 14.8435 70.3258 14.7744Z" fill="#966C5A"/>
<path d="M69.8021 6.8193C68.617 8.74127 69.8034 14.8267 70.3257 14.7743C71.3498 14.6716 74.0779 -0.11483 69.8021 6.8193Z" fill="#18937E"/>
</svg>
