<svg width="81" height="81" viewBox="0 0 81 81" fill="none" xmlns="http://www.w3.org/2000/svg">
<path d="M67.5 58.5C67.5 60.8869 66.5518 63.1761 64.864 64.864C63.1761 66.5518 60.8869 67.5 58.5 67.5H9C6.61305 67.5 4.32387 66.5518 2.63604 64.864C0.948212 63.1761 0 60.8869 0 58.5V9C0 6.61305 0.948212 4.32387 2.63604 2.63604C4.32387 0.948212 6.61305 0 9 0L58.5 0C60.8869 0 63.1761 0.948212 64.864 2.63604C66.5518 4.32387 67.5 6.61305 67.5 9V58.5Z" fill="#D99E82"/>
<path d="M63 58.5C63 59.6935 62.5259 60.8381 61.682 61.682C60.8381 62.5259 59.6935 63 58.5 63H9C7.80653 63 6.66193 62.5259 5.81802 61.682C4.97411 60.8381 4.5 59.6935 4.5 58.5V9C4.5 7.80653 4.97411 6.66193 5.81802 5.81802C6.66193 4.97411 7.80653 4.5 9 4.5H58.5C59.6935 4.5 60.8381 4.97411 61.682 5.81802C62.5259 6.66193 63 7.80653 63 9V58.5Z" fill="#5C913B"/>
<path d="M16.9091 20.0203C16.7291 20.2363 16.4951 20.5603 16.4951 20.9383C16.4951 21.7663 17.1071 22.1263 17.8991 22.1263H23.9066C24.5906 22.1263 25.2026 21.7663 25.2026 20.9383C25.2026 20.1103 24.5929 19.7503 23.7986 19.7503H20.5069C22.0346 17.8266 24.8246 15.3448 24.8246 12.8428C24.8246 10.5591 23.0426 9.10107 20.8309 9.10107C18.6191 9.10107 16.6031 10.9168 16.6031 13.1848C16.6031 13.8846 17.0531 14.4966 17.9171 14.4966C19.6451 14.4966 18.6551 11.5828 20.7229 11.5828C21.4609 11.5828 22.0189 12.2308 22.0189 12.9688C22.0189 13.6168 21.7129 14.1748 21.3889 14.6428C20.0209 16.6206 18.4031 18.2406 16.9091 20.0203ZM13.9684 32.2446H11.3606V29.6346C11.3606 28.9866 10.9466 28.5568 10.2806 28.5568C9.61689 28.5568 9.20289 28.9888 9.20289 29.6346V32.2446H6.59514C5.92914 32.2446 5.51514 32.6766 5.51514 33.3223C5.51514 33.9703 5.92914 34.4023 6.59514 34.4023H9.20289V37.0101C9.20289 37.6581 9.61689 38.0878 10.2806 38.0878C10.9466 38.0878 11.3606 37.6581 11.3606 37.0101V34.4023H13.9684C14.6344 34.4023 15.0484 33.9703 15.0484 33.3223C15.0484 32.6766 14.6344 32.2446 13.9684 32.2446ZM23.7986 35.5003H20.5046C22.0346 33.5766 24.8224 31.0948 24.8224 28.5928C24.8224 26.3091 23.0404 24.8511 20.8286 24.8511C18.6169 24.8511 16.6009 26.6691 16.6009 28.9348C16.6009 29.6346 17.0509 30.2466 17.9126 30.2466C19.6406 30.2466 18.6506 27.3328 20.7206 27.3328C21.4586 27.3328 22.0166 27.9808 22.0166 28.7188C22.0166 29.3668 21.7106 29.9248 21.3866 30.3928C20.0186 32.3706 18.4009 33.9906 16.9069 35.7726C16.7269 35.9886 16.4929 36.3126 16.4929 36.6906C16.4929 37.5186 17.1049 37.8786 17.8969 37.8786H23.9044C24.5884 37.8786 25.2004 37.5186 25.2004 36.6906C25.2004 35.8603 24.5906 35.5003 23.7986 35.5003ZM25.6886 42.6823H6.93714C6.63877 42.6823 6.35262 42.5638 6.14164 42.3528C5.93066 42.1418 5.81214 41.8557 5.81214 41.5573C5.81214 41.259 5.93066 40.9728 6.14164 40.7618C6.35262 40.5509 6.63877 40.4323 6.93714 40.4323H25.6864C25.9848 40.432 26.271 40.5503 26.4822 40.761C26.6934 40.9718 26.8122 41.2578 26.8125 41.5562C26.8128 41.8546 26.6946 42.1408 26.4838 42.352C26.273 42.5632 25.987 42.682 25.6886 42.6823Z" fill="white"/>
<path d="M81 81V76.5C81 72.9196 79.5777 69.4858 77.0459 66.9541C74.5142 64.4223 71.0804 63 67.5 63H31.5C27.9196 63 24.4858 64.4223 21.9541 66.9541C19.4223 69.4858 18 72.9196 18 76.5V81H81Z" fill="#CCD6DD"/>
<path d="M49.6643 69.311C49.6643 69.311 57.0825 71.3158 59.8905 72.2518C60.2505 72.371 57.7508 67.5088 57.7508 67.5088H40.9815C40.9815 67.5088 39.4538 70.9783 38.5718 72.452C42.9818 71.048 49.3673 69.1108 49.3673 69.1108" fill="#99AAB5"/>
<path d="M39.6904 63.2273C41.4319 64.4918 42.4039 66.9263 44.8654 67.5271C45.5989 69.1066 46.5439 71.2058 47.3899 73.0981C48.1887 74.8868 50.7334 74.8598 51.4962 73.0531C52.2949 71.1631 53.1949 69.0773 53.9127 67.5271C56.3989 66.5236 57.5374 64.5143 59.3104 63.2273V54.6526H39.6904V63.2273Z" fill="#FFDC5D"/>
<path d="M39.6717 58.439C42.4077 61.5305 45.8007 62.3675 49.4907 62.3675C53.1784 62.3675 56.5692 61.5282 59.3074 58.439V50.5842H39.6694L39.6717 58.439Z" fill="#F9CA55"/>
<path d="M57.8954 7.47704C53.5642 6.07529 43.3717 6.45779 40.8224 9.76979C34.1984 9.89804 26.4269 15.8853 25.4077 23.7828C24.3997 31.6015 26.6474 35.2308 27.4462 41.11C28.3529 47.77 32.0969 49.9008 35.0894 50.7918C39.3959 56.482 43.9747 56.239 51.6629 56.239C66.6749 56.239 73.8254 46.195 74.4577 29.1333C74.8402 18.817 68.7854 11.0005 57.8954 7.47704Z" fill="#FFAC33"/>
<path d="M66.4809 29.864C65.0274 27.8525 63.1689 26.2325 59.0919 25.661C60.6219 26.3608 62.0867 28.7818 62.2779 30.1205C62.4692 31.4593 62.6604 32.5415 61.4499 31.2028C56.6012 25.8433 51.3204 27.9538 46.0892 24.68C42.4352 22.394 41.3214 19.8628 41.3214 19.8628C41.3214 19.8628 40.8759 23.2378 35.3342 26.678C33.7277 27.6748 31.8107 29.8955 30.7487 33.176C29.9837 35.534 30.2222 37.6355 30.2222 41.2265C30.2222 51.7115 38.8644 60.527 49.5227 60.527C60.1809 60.527 68.8232 51.6328 68.8232 41.2265C68.8187 34.706 68.1369 32.1568 66.4809 29.864Z" fill="#FFDC5D"/>
<path d="M51.6625 46.5906H47.374C47.0894 46.5906 46.8164 46.4775 46.6151 46.2762C46.4139 46.075 46.3008 45.802 46.3008 45.5173C46.3008 45.2327 46.4139 44.9597 46.6151 44.7584C46.8164 44.5572 47.0894 44.4441 47.374 44.4441H51.6625C51.9472 44.4441 52.2202 44.5572 52.4214 44.7584C52.6227 44.9597 52.7358 45.2327 52.7358 45.5173C52.7358 45.802 52.6227 46.075 52.4214 46.2762C52.2202 46.4775 51.9472 46.5906 51.6625 46.5906Z" fill="#C1694F"/>
<path d="M40.9392 39.0824C40.3705 39.0824 39.8251 38.8565 39.423 38.4544C39.0208 38.0522 38.7949 37.5068 38.7949 36.9382V34.7939C38.7949 34.2252 39.0208 33.6798 39.423 33.2777C39.8251 32.8756 40.3705 32.6497 40.9392 32.6497C41.5079 32.6497 42.0533 32.8756 42.4554 33.2777C42.8575 33.6798 43.0834 34.2252 43.0834 34.7939V36.9382C43.0837 37.2198 43.0285 37.4988 42.9208 37.7591C42.8131 38.0194 42.6552 38.2559 42.456 38.455C42.2569 38.6542 42.0204 38.8121 41.7601 38.9198C41.4998 39.0274 41.2208 39.0827 40.9392 39.0824ZM58.0977 39.0824C57.529 39.0824 56.9836 38.8565 56.5815 38.4544C56.1793 38.0522 55.9534 37.5068 55.9534 36.9382V34.7939C55.9534 34.2252 56.1793 33.6798 56.5815 33.2777C56.9836 32.8756 57.529 32.6497 58.0977 32.6497C58.6664 32.6497 59.2118 32.8756 59.6139 33.2777C60.016 33.6798 60.2419 34.2252 60.2419 34.7939V36.9382C60.2419 37.5068 60.016 38.0522 59.6139 38.4544C59.2118 38.8565 58.6664 39.0824 58.0977 39.0824Z" fill="#662113"/>
<path d="M49.8015 55.5438C43.605 55.5438 41.7015 53.9575 41.3843 53.6358C41.2439 53.5025 41.1312 53.3429 41.0525 53.1661C40.9739 52.9893 40.9308 52.7987 40.9258 52.6052C40.9157 52.2145 41.0612 51.8357 41.3303 51.5523C41.5994 51.2688 41.9701 51.1039 42.3609 51.0938C42.7516 51.0836 43.1303 51.2291 43.4138 51.4983C43.5308 51.5815 45.036 52.594 49.8015 52.594C54.7515 52.594 56.1825 51.5028 56.196 51.4915C56.332 51.3567 56.4935 51.2505 56.6711 51.1791C56.8488 51.1077 57.0389 51.0725 57.2303 51.0756C57.4217 51.0788 57.6105 51.1202 57.7857 51.1974C57.9609 51.2746 58.1188 51.3861 58.2503 51.5253C58.5229 51.8109 58.6723 52.1922 58.6664 52.587C58.6606 52.9817 58.4998 53.3584 58.2188 53.6358C57.8993 53.9575 55.998 55.5438 49.8015 55.5438Z" fill="#C1694F"/>
<path d="M38.7651 59.9155C40.0364 61.189 44.8626 67.5272 44.8626 67.5272C44.8626 67.5272 42.1896 69.091 38.9946 72.0362C37.8336 73.1072 35.9571 72.16 36.0989 70.5872C36.3711 67.552 36.6591 64.042 36.6051 62.6357C36.5804 61.954 38.1576 59.3035 38.7651 59.9155ZM59.9894 59.9155C58.7181 61.189 53.8919 67.5272 53.8919 67.5272C53.8919 67.5272 56.5649 69.091 59.7599 72.0362C60.9209 73.1072 62.7974 72.16 62.6556 70.5872C62.3834 67.552 62.0954 64.042 62.1494 62.6357C62.1764 61.954 60.5991 59.3035 59.9894 59.9155Z" fill="#F5F8FA"/>
</svg>
