<svg width="93" height="73" viewBox="0 0 93 73" fill="none" xmlns="http://www.w3.org/2000/svg">
<path d="M7.125 42.9062H85.875V62.5938H7.125V42.9062Z" fill="black"/>
<path d="M65.4984 10.1265C67.9266 10.1265 70.1578 11.5046 71.2406 13.6702L72.7238 16.6365L75.8081 26.4901L82.5806 36.3437H86.0128C89.5566 36.3437 92.4408 39.2279 92.4408 42.7651L91.1742 47.7526L92.4408 52.7368V56.169C92.4408 59.7127 89.5533 62.5937 86.0095 62.5937H84.1359C84.3672 60.7468 84.203 58.8719 83.6543 57.0933C83.1056 55.3147 82.1848 53.6732 80.9532 52.2777C79.7215 50.8822 78.2071 49.7646 76.5105 48.9991C74.8139 48.2337 72.9739 47.8378 71.1127 47.8378C69.2514 47.8378 67.4114 48.2337 65.7148 48.9991C64.0182 49.7646 62.5038 50.8822 61.2722 52.2777C60.0405 53.6732 59.1198 55.3147 58.571 57.0933C58.0223 58.8719 57.8581 60.7468 58.0894 62.5937H34.9172C35.1485 60.7468 34.9843 58.8719 34.4355 57.0933C33.8868 55.3147 32.9661 53.6732 31.7344 52.2777C30.5028 50.8822 28.9884 49.7646 27.2918 48.9991C25.5952 48.2337 23.7552 47.8378 21.8939 47.8378C20.0326 47.8378 18.1926 48.2337 16.496 48.9991C14.7994 49.7646 13.2851 50.8822 12.0534 52.2777C10.8218 53.6732 9.90101 55.3147 9.35227 57.0933C8.80353 58.8719 8.63935 60.7468 8.87063 62.5937H6.99375C3.45 62.5937 0.5625 59.7094 0.5625 56.169V52.763L4.89375 47.8477L0.5625 42.9324C0.5625 39.159 3.45 36.3765 6.99375 36.3765L16.9688 36.3732L24.1777 26.8182L26.8289 16.6562L28.3219 13.6702C28.8568 12.6056 29.677 11.7105 30.6909 11.0848C31.7048 10.4591 32.8726 10.1273 34.0641 10.1265H65.4984Z" fill="#636363"/>
<path d="M33.375 60.9531C33.375 63.999 32.165 66.9201 30.0113 69.0738C27.8576 71.2275 24.9365 72.4375 21.8906 72.4375C18.8448 72.4375 15.9237 71.2275 13.7699 69.0738C11.6162 66.9201 10.4062 63.999 10.4062 60.9531C10.4062 57.9073 11.6162 54.9862 13.7699 52.8324C15.9237 50.6787 18.8448 49.4688 21.8906 49.4688C24.9365 49.4688 27.8576 50.6787 30.0113 52.8324C32.165 54.9862 33.375 57.9073 33.375 60.9531ZM82.5938 60.9531C82.5938 63.999 81.3838 66.9201 79.2301 69.0738C77.0763 71.2275 74.1552 72.4375 71.1094 72.4375C68.0635 72.4375 65.1424 71.2275 62.9887 69.0738C60.835 66.9201 59.625 63.999 59.625 60.9531C59.625 57.9073 60.835 54.9862 62.9887 52.8324C65.1424 50.6787 68.0635 49.4688 71.1094 49.4688C74.1552 49.4688 77.0763 50.6787 79.2301 52.8324C81.3838 54.9862 82.5938 57.9073 82.5938 60.9531Z" fill="#321B41"/>
<path d="M46.5 6.8125H53.0625V10.0938H46.5V6.8125ZM20.25 47.9266V36.3438H72.75V47.9266C70.7641 47.6756 68.747 47.8821 66.8532 48.5305C64.9593 49.1788 63.2389 50.2517 61.8234 51.6672C60.408 53.0826 59.3351 54.8031 58.6867 56.6969C58.0384 58.5908 57.8318 60.6078 58.0828 62.5938H34.9172C35.1682 60.6078 34.9616 58.5908 34.3133 56.6969C33.6649 54.8031 32.592 53.0826 31.1766 51.6672C29.7611 50.2517 28.0407 49.1788 26.1468 48.5305C24.253 47.8821 22.2359 47.6756 20.25 47.9266ZM26.8125 60.9531C26.8125 62.2585 26.2939 63.5104 25.3709 64.4334C24.4479 65.3564 23.196 65.875 21.8906 65.875C20.5853 65.875 19.3334 65.3564 18.4103 64.4334C17.4873 63.5104 16.9688 62.2585 16.9688 60.9531C16.9688 59.6478 17.4873 58.3959 18.4103 57.4728C19.3334 56.5498 20.5853 56.0312 21.8906 56.0312C23.196 56.0312 24.4479 56.5498 25.3709 57.4728C26.2939 58.3959 26.8125 59.6478 26.8125 60.9531ZM76.0312 60.9531C76.0313 61.5995 75.9039 62.2395 75.6566 62.8366C75.4092 63.4338 75.0467 63.9764 74.5897 64.4334C74.1326 64.8905 73.59 65.253 72.9929 65.5003C72.3957 65.7477 71.7557 65.875 71.1094 65.875C70.463 65.875 69.823 65.7477 69.2259 65.5003C68.6287 65.253 68.0861 64.8905 67.6291 64.4334C67.172 63.9764 66.8095 63.4338 66.5622 62.8366C66.3148 62.2395 66.1875 61.5995 66.1875 60.9531C66.1875 59.6478 66.7061 58.3959 67.6291 57.4728C68.5521 56.5498 69.804 56.0312 71.1094 56.0312C72.4147 56.0312 73.6666 56.5498 74.5897 57.4728C75.5127 58.3959 76.0312 59.6478 76.0312 60.9531Z" fill="#D3D3D3"/>
<path d="M7.125 46.1875C7.125 44.3828 5.64844 42.9062 3.84375 42.9062H0.5625V52.75H3.84375C5.64844 52.75 7.125 51.2734 7.125 49.4688V46.1875Z" fill="#FFF478"/>
<path fill-rule="evenodd" clip-rule="evenodd" d="M46.5 3.53125C46.5 1.72656 47.9766 0.25 49.7812 0.25C51.5859 0.25 53.0625 1.72656 53.0625 3.53125V6.8125H46.5V3.53125ZM85.875 48.0578C85.7438 45.2359 88.0078 42.9062 90.7969 42.9062H92.4375V52.75H90.9609C88.3031 52.75 86.0062 50.7156 85.875 48.0578Z" fill="#F92F60"/>
<path d="M43.2844 36.3438H16.9688L26.8125 16.6562H43.2844C45.0563 16.6562 46.5 18.1 46.5 19.8719V33.1281C46.5 34.9 45.0563 36.3438 43.2844 36.3438ZM56.2781 36.3438H82.5938L72.75 16.6562H56.2781C54.5062 16.6562 53.0625 18.1 53.0625 19.8719V33.1281C53.0625 34.9 54.5062 36.3438 56.2781 36.3438Z" fill="#26C9FC"/>
<path d="M30.5203 39.625H31.8C32.6859 39.625 33.375 38.9031 33.375 38.05V31.3562C33.375 31.1494 33.3343 30.9446 33.2551 30.7535C33.176 30.5624 33.0599 30.3888 32.9137 30.2426C32.7674 30.0963 32.5938 29.9803 32.4027 29.9011C32.2116 29.822 32.0068 29.7812 31.8 29.7812H30.5203C28.4859 29.7812 26.8125 31.4547 26.8125 33.4891V35.9172C26.8125 37.9844 28.4859 39.625 30.5203 39.625Z" fill="#D3D3D3"/>
<path d="M30.5203 39.625H31.8C32.6859 39.625 33.375 38.9031 33.375 38.05V31.3562C33.375 31.1494 33.3343 30.9446 33.2551 30.7535C33.176 30.5624 33.0599 30.3888 32.9137 30.2426C32.7674 30.0963 32.5938 29.9803 32.4027 29.9011C32.2116 29.822 32.0068 29.7812 31.8 29.7812H30.5203C28.4859 29.7812 26.8125 31.4547 26.8125 33.4891V35.9172C26.8125 37.9844 28.4859 39.625 30.5203 39.625Z" fill="#9B9B9B"/>
</svg>
