<svg width="86" height="86" viewBox="0 0 86 86" fill="none" xmlns="http://www.w3.org/2000/svg">
<path d="M2.86224 46.2922C3.74911 59.5281 18.6311 80.4906 43.8668 82.1838C61.1138 83.3461 77.7763 75.2298 81.3843 56.1083C84.7033 38.532 77.9711 21.9838 72.6163 14.573C64.2582 3.01001 44.6596 -3.56765 23.7172 8.76126C4.88458 19.8673 2.17693 36.0327 2.86224 46.2922Z" fill="#95683D"/>
<path d="M8.03562 53.4409C17.1664 70.2378 43.9339 71.3665 58.4665 59.8439C74.4236 47.1925 78.139 28.7294 69.4719 15.8294C59.4072 0.853258 36.2208 2.98982 22.0509 12.8597C8.14983 22.5481 1.14218 40.7626 8.03562 53.4409Z" fill="#B7D118"/>
<path d="M26.3375 33.2847C25.8068 34.8838 27.9164 36.2141 27.5939 39.3182C27.1236 43.7861 24.0532 46.3594 24.9266 47.2329C26.0217 48.328 29.2871 46.2721 33.4728 45.5061C38.176 44.6461 38.9621 46.7894 40.2117 46.131C41.7033 45.3449 40.9374 41.8713 43.9742 39.1569C46.9507 36.4896 49.8532 36.4157 50.4041 35.549C50.955 34.689 49.9338 32.1761 50.6393 29.1191C51.3447 26.0621 53.8777 23.2872 53.0177 22.1115C52.1577 20.9357 48.6303 24.3085 44.6058 24.1002C41.9452 23.9658 40.5275 22.6893 39.4324 23.2402C38.3372 23.7911 37.8467 27.2043 34.7292 29.9052C30.6442 33.446 26.7272 32.109 26.3375 33.2847Z" fill="#E5DDA0"/>
<path d="M53.5821 9.52045C51.3313 8.51264 49.7591 13.4039 48.8857 15.1575C48.0122 16.9111 46.2183 20.3511 48.0727 21.2917C49.6516 22.098 52.0166 16.7834 52.8296 15.1575C53.6493 13.5315 55.5036 10.3805 53.5821 9.52045ZM56.0277 18.4161C56.8071 19.3231 58.4129 18.275 59.6961 17.1798C60.9458 16.1183 61.3557 14.7678 60.7846 14.0287C59.9111 12.9 58.7824 13.1553 57.2169 14.6536C56.068 15.7622 54.899 17.0992 56.0277 18.4161ZM54.8385 24.174C55.2685 26.0015 59.9582 24.8594 63.378 24.174C67.4496 23.3611 70.3521 22.9714 69.9288 20.6669C69.4585 18.1272 65.4071 19.518 62.3568 20.2839C57.1565 21.5806 54.3077 21.9098 54.8385 24.174ZM53.0446 30.7248C53.3738 33.0831 59.3669 31.9745 64.4396 31.9141C68.8874 31.8603 71.8705 31.4908 71.6421 29.5356C71.4002 27.4931 67.6108 27.8895 63.3579 28.2053C59.0915 28.5144 52.6616 28.0373 53.0446 30.7248ZM54.7511 36.2476C54.0457 38.1961 55.7724 38.6933 59.8238 40.5006C62.8204 41.8309 65.2996 43.3897 66.1058 41.3337C66.8315 39.4861 64.1641 38.438 61.8529 37.363C58.0971 35.6026 55.47 34.2723 54.7511 36.2476ZM49.6516 38.4716C47.6293 41.0717 52.6415 43.6517 56.2763 46.4669C59.9313 49.3022 62.7801 51.3447 63.9491 49.5642C65.1518 47.7233 61.5975 45.5934 58.4666 43.3359C55.3357 41.0851 50.7602 37.0405 49.6516 38.4716ZM44.6394 44.1623C43.3561 45.1366 43.8533 46.272 45.7682 48.7244C47.7704 51.2909 49.2955 53.2326 49.9204 53.9851C50.5452 54.7376 52.6683 57.6737 54.2876 56.5047C56.0344 55.2415 53.8441 52.6145 53.2193 51.7344C52.5944 50.8609 48.5161 45.795 47.4479 44.6662C46.3796 43.5375 45.5196 43.4905 44.6394 44.1623ZM38.868 49.0334C37.6519 49.4701 37.3966 50.8475 38.2096 54.7914C38.9352 58.3053 39.4324 59.2392 39.9363 60.8651C40.1244 61.4765 40.8702 64.2245 42.8119 63.6669C44.411 63.2033 43.2554 59.7095 42.9463 58.1776C42.4894 55.9336 40.4335 48.4691 38.868 49.0334ZM33.7349 47.6561C31.9208 47.2194 31.3766 50.5048 31.0474 54.3816C30.7988 57.3244 30.436 60.5695 32.4113 60.6233C34.7561 60.6837 34.6554 57.1094 34.8502 54.4084C35.0988 51.0289 35.26 48.0256 33.7349 47.6561ZM22.1719 63.0958C24.4563 64.0162 25.7127 60.2336 26.6735 57.835C27.9232 54.7041 28.931 52.5608 29.3072 51.6201C29.6432 50.787 29.4483 49.2081 28.0105 48.7042C26.5727 48.2003 25.6858 50.7333 24.6175 53.0445C23.5493 55.3558 19.8741 62.1753 22.1719 63.0958ZM15.4532 58.695C17.1665 59.9312 18.1743 58.097 20.116 55.6514C22.0577 53.2125 24.8057 50.263 23.126 49.1208C21.6344 48.1062 19.6524 50.9751 18.0197 52.9841C16.3871 54.9862 13.5786 57.3378 15.4532 58.695ZM9.39286 50.357C10.0043 52.1509 12.6313 51.1028 15.6346 50.0412C18.6379 48.9797 24.0868 47.5822 23.2738 45.4792C22.7766 44.1959 18.7252 45.5531 14.9694 46.6214C13.1016 47.1455 8.57317 47.945 9.39286 50.357ZM9.36598 39.9564C9.54067 42.2072 13.0613 41.7369 17.0657 41.925C24.0263 42.2475 25.6455 41.972 25.6858 40.4066C25.7463 38.0281 21.4329 38.5051 16.844 38.1558C13.1755 37.8736 9.14426 37.1345 9.36598 39.9564ZM13.2763 29.5625C12.6044 31.1481 13.76 32.2836 17.6099 33.6273C21.8293 35.0987 23.5761 35.8445 24.369 34.1716C25.1618 32.4986 22.0779 31.4975 18.9133 30.1873C17.4621 29.5894 14.0758 27.6812 13.2763 29.5625ZM16.2124 22.1786C14.8619 24.0262 17.0321 25.5245 20.5325 27.6812C24.0061 29.8178 27.2244 32.2298 28.5749 30.2008C29.7775 28.3934 24.7452 25.5245 22.5549 24.1808C20.3646 22.837 17.3143 20.6601 16.2124 22.1786ZM25.5313 14.0623C24.3891 14.8014 24.725 16.7498 27.2177 20.4922C29.7104 24.2345 31.2221 27.0967 33.1033 26.2703C34.8032 25.5245 32.2232 21.0498 30.7854 18.6311C29.3811 16.2526 27.3991 12.853 25.5313 14.0623ZM35.2936 9.84295C33.8088 10.0781 33.5333 12.349 34.259 15.7958C35.0383 19.5112 35.8513 22.9109 37.5444 22.4608C39.2443 22.0106 38.7202 18.4698 38.1491 14.6334C37.8266 12.4969 37.1883 9.54733 35.2936 9.84295ZM45.6271 7.71983C43.8533 7.47124 43.168 9.0367 42.523 12.9806C41.8713 16.9245 40.8769 20.3847 42.7111 21.1909C44.6529 22.0442 45.7547 15.7555 46.3258 13.0747C46.7558 11.0389 47.6561 8.00874 45.6271 7.71983Z" fill="#7FB240"/>
<path d="M44.0952 16.9514C42.3013 16.5013 41.401 17.8786 41.1457 19.6658C40.8903 21.453 41.5219 22.3667 42.523 22.5548C43.7257 22.7766 44.5789 22.0778 45.0291 20.4788C45.486 18.8797 45.2777 17.2538 44.0952 16.9514ZM47.5285 21.9233C48.5228 22.4406 49.6516 21.8628 50.1622 20.6534C50.4578 19.948 50.6527 18.2884 49.5307 17.798C48.2944 17.2605 47.3739 17.8584 46.8969 19.1283C46.5139 20.1495 46.5475 21.4127 47.5285 21.9233ZM55.3289 19.0678C56.2024 19.8002 57.358 19.3836 57.9627 18.7856C58.4397 18.3086 58.816 17.2 58.0567 16.3736C57.2975 15.5472 56.0613 15.8697 55.5238 16.4341C54.9796 17.0119 54.3413 18.2481 55.3289 19.0678ZM59.2594 22.9983C59.5214 24.2413 58.5271 25.155 56.9482 25.4372C55.3625 25.7194 54.5697 25.1819 54.348 24.2009C54.1263 23.22 54.8519 22.2055 55.9941 21.8561C57.1363 21.5067 58.9436 21.5067 59.2594 22.9983ZM52.8699 30.7248C52.9303 32.1828 54.4555 32.5389 55.5977 32.4381C57.0557 32.3105 58.1978 31.6453 58.1642 30.5031C58.1307 29.3609 57.0691 28.6622 55.4364 28.6958C54.0389 28.7294 52.796 29.1392 52.8699 30.7248ZM54.1867 35.9319C53.6963 36.9531 54.2472 37.9274 55.423 38.438C56.5988 38.9419 58.1777 38.5992 58.3994 37.6116C58.6211 36.6306 58.0836 35.522 56.7533 35.1727C55.423 34.8233 54.5966 35.0786 54.1867 35.9319ZM48.7311 38.1827C47.898 39.1838 48.3213 40.373 49.618 41.542C50.9147 42.7111 52.4533 42.8253 53.2327 41.925C54.2136 40.7828 53.105 39.1972 51.9964 38.3103C50.8878 37.4234 49.3694 37.4234 48.7311 38.1827ZM43.2486 42.6842C41.9989 43.7592 42.7716 45.318 43.6921 46.4534C44.6125 47.5956 46.131 48.0391 47.085 47.2127C48.0391 46.3863 47.9114 44.7738 46.4535 43.3427C45.2777 42.2005 44.1355 41.925 43.2486 42.6842ZM38.176 47.3739C36.7785 47.777 36.9061 49.2417 37.195 50.4175C37.4772 51.5933 38.5992 52.5608 39.6339 52.1913C40.7089 51.8083 40.9978 50.9214 40.6821 49.403C40.3663 47.8845 39.1636 47.0917 38.176 47.3739ZM34.0574 46.3594C32.9085 46.2519 32.1896 47.0917 31.8402 48.5161C31.4908 49.9405 32.1896 51.2103 33.3586 51.338C34.5277 51.4656 35.4213 50.357 35.5153 48.8319C35.6094 47.3067 35.0719 46.4534 34.0574 46.3594ZM29.0519 48.0122C27.4394 47.2261 26.3913 48.805 26.0083 49.6314C25.6253 50.4578 25.276 52.3861 26.5794 52.9572C27.8761 53.5283 29.0317 52.2249 29.4953 51.1834C29.9992 50.0413 30.1605 48.5497 29.0519 48.0122ZM21.1574 51.3984C22.1719 52.413 23.4955 51.2238 23.7911 50.8609C24.2682 50.2563 24.2749 49.2686 23.7911 48.7378C23.1596 48.0391 22.145 48.328 21.5067 48.8319C20.8685 49.3425 20.3646 50.6056 21.1574 51.3984ZM21.6613 44.7738C20.8147 44.9216 19.8203 45.5666 20.0421 46.6416C20.2638 47.7166 21.1842 48.0391 22.2928 47.8174C23.4014 47.5956 24.0061 46.5811 23.8785 45.7883C23.7575 44.9955 22.5482 44.6192 21.6613 44.7738ZM20.331 40.373C20.2772 41.6092 21.4127 42.1669 23.1192 42.308C25.4305 42.4961 26.3913 41.6025 26.4182 40.1849C26.445 38.8814 25.2424 38.2499 23.3746 38.2834C21.5067 38.317 20.3982 38.915 20.331 40.373ZM21.5 32.8278C20.9088 33.7483 21.5336 35.3339 22.8707 35.4884C24.2144 35.643 25.1953 34.4202 24.7519 33.11C24.3085 31.7931 22.3533 31.5042 21.5 32.8278ZM24.0397 27.3722C23.1864 28.7697 24.1674 30.0664 25.9411 30.8928C27.4864 31.6117 28.6689 31.4639 29.2669 30.5434C29.8716 29.623 29.3946 28.1986 27.9971 27.3117C26.3913 26.2838 24.8594 26.0419 24.0397 27.3722ZM31.2355 22.8706C30.436 23.3141 29.7103 24.5839 31.0474 26.4181C31.9678 27.688 33.3922 27.9097 34.1246 27.4931C34.7561 27.137 35.1055 25.4641 34.2858 24.1942C33.5871 23.1394 32.3172 22.2727 31.2355 22.8706ZM36.8457 18.5908C35.7639 18.7386 35.2936 20.2705 35.6699 21.3791C36.0192 22.3936 36.7785 23.0923 37.8602 22.8706C38.9352 22.6489 39.036 21.1305 38.9352 20.5594C38.8411 19.9883 38.27 18.4027 36.8457 18.5908Z" fill="#303030"/>
</svg>
