<svg width="28" height="28" viewBox="0 0 28 28" fill="none" xmlns="http://www.w3.org/2000/svg">
<path d="M13.6916 2.97281C13.6916 2.97281 14.0919 2.04968 14.9997 1.46343C15.4416 1.17906 16.2137 0.739369 16.3537 0.986556C16.415 1.09374 16.2159 1.37156 16.0147 1.80249C15.9337 1.97968 15.7522 2.55718 15.7522 2.55718C15.7522 2.55718 16.5528 1.50937 17.955 1.23374C19.0575 1.01499 20.2497 1.15718 20.3875 1.40218C20.5362 1.66687 19.7553 2.24874 19.5103 2.75624C19.2653 3.26374 19.0794 3.91124 19.0794 3.91124C19.0794 3.91124 20.5559 3.21343 20.9278 3.06468C21.3894 2.88093 22.3912 2.49593 22.5291 2.66437C22.6669 2.83281 22.0872 3.81062 21.9603 3.98781C21.8072 4.20437 21.5753 4.60468 21.5753 4.60468C21.5753 4.60468 22.2841 4.28093 22.5597 4.11249C22.8375 3.94406 23.4522 3.46499 23.5922 3.55906C23.73 3.65093 23.73 4.58718 23.6381 4.99187C23.5156 5.52999 22.9447 6.11624 22.9447 6.11624C22.9447 6.11624 23.7606 6.29999 24.2069 6.87093C24.6531 7.44187 24.9134 7.88593 25.0994 8.45687C25.3772 9.30343 25.4997 10.4584 25.4384 10.675C25.3772 10.8916 25.0381 10.5984 24.4059 10.5525C24.0319 10.5241 23.9444 10.5219 23.9444 10.5219C23.9444 10.5219 24.3009 10.9462 24.4672 11.3378C24.6837 11.8453 24.92 12.6459 25.0512 12.985C25.1891 13.3394 25.2984 13.6172 25.4975 14.0175C25.5566 14.1356 25.0819 14.2494 24.605 13.8009C24.4453 13.6522 24.2506 13.5078 24.2506 13.5078C24.2506 13.5078 24.5328 15.1856 24.5131 16.31C24.4978 17.1412 24.3119 18.6506 24.0669 18.7884C23.8197 18.9262 23.3275 17.8653 23.3275 17.8653C23.3275 17.8653 23.1131 19.0728 22.8659 19.8822C22.5728 20.8359 22.295 21.2822 22.1266 21.8531C21.9253 22.5312 21.7262 23.0234 21.5884 22.8069C21.4681 22.6209 21.3412 22.33 21.2187 22.1134C21.1247 21.9494 20.9103 21.5119 20.9103 21.5119C20.9103 21.5119 20.6937 22.82 19.6481 23.6994C18.6025 24.5787 17.9244 25.2853 17.43 25.3466C17.1391 25.3837 17.4759 24.0691 17.4759 24.0691C17.4759 24.0691 15.8441 25.3509 15.0587 25.9328C14.7044 26.1953 14.3806 27.0572 14.1356 26.9959C13.8884 26.9347 13.2584 25.9787 12.8581 25.6878C12.4578 25.3969 11.7031 25.0556 11.5959 24.9944C11.4887 24.9331 10.9791 24.6094 10.9791 24.6094C10.9791 24.6094 11.1059 25.3247 10.9637 25.3947C10.6553 25.5478 9.46968 24.7012 9.13062 24.1784C8.79155 23.6556 8.19218 22.5772 8.19218 22.5772C8.19218 22.5772 8.11562 23.6097 7.86843 23.4391C7.60593 23.2597 6.32843 22.3147 5.88218 21.6059C5.56718 21.105 5.0203 19.6962 5.0203 19.6962C5.0203 19.6962 4.54343 20.1884 4.40343 20.2497C4.26343 20.3109 3.91124 20.4509 3.97249 19.9106C4.03374 19.3725 3.61155 18.1519 3.54155 17.4169C3.44968 16.4631 3.63343 15.4766 3.63343 15.4766C3.63343 15.4766 2.84812 16.5244 2.47843 16.5091C2.10874 16.4937 2.3253 14.4769 2.41718 13.86C2.50905 13.2431 2.81749 12.1669 2.93999 11.7819C3.06249 11.3969 3.52405 10.8281 3.52405 10.8281C3.52405 10.8281 2.38437 11.2131 2.21593 11.06C2.04749 10.9069 2.3078 9.53531 2.46312 8.70406C2.54187 8.27749 2.87874 7.61031 3.30968 7.11812C3.74062 6.62593 4.40343 6.71781 4.46468 6.50124C4.52593 6.28468 4.21968 6.11406 4.00312 5.76187C3.67937 5.23906 3.49562 4.16062 3.66405 3.97468C3.76905 3.86093 4.35749 4.31374 5.06624 4.39031C5.77499 4.46687 6.40499 4.42093 6.40499 4.42093C6.40499 4.42093 5.99593 3.93968 5.82093 3.54374C5.57374 2.99031 5.55843 2.32749 5.71374 2.15687C5.86905 1.98624 6.40718 2.51124 7.13124 2.69499C7.8553 2.87874 8.93374 2.89624 8.93374 2.89624C8.93374 2.89624 8.47218 2.40406 8.34968 1.83312C8.22718 1.26437 8.2578 0.909994 8.45687 0.848744C8.65812 0.787494 9.24437 1.33656 9.6578 1.46562C10.1041 1.60343 11.6134 1.51156 12.2916 1.71281C12.9697 1.91406 13.6916 2.97281 13.6916 2.97281Z" fill="#865C50"/>
<path d="M18.5565 7.77863C18.5565 7.77863 21.2056 5.25426 22.7456 7.13113C24.5721 9.3602 19.7268 11.8124 19.7268 11.8124L18.5565 7.77863ZM9.31869 8.42394C9.31869 8.42394 6.84901 5.18644 5.03338 6.94082C3.21776 8.6952 6.97807 11.3793 6.97807 11.3793L9.31869 8.42394Z" fill="#FEC000"/>
<path d="M20.8359 9.9334C20.8359 9.9334 22.7762 8.57934 21.9756 7.71528C21.1203 6.79434 19.5431 8.3934 19.5431 8.3934L20.8359 9.9334ZM8.18997 8.50278C8.18997 8.50278 6.58216 6.91028 5.75091 7.89465C5.00278 8.78059 7.13778 10.4825 7.13778 10.4825L8.18997 8.50278Z" fill="#FF8E06"/>
<path d="M14.1531 19.5716C14.1531 19.5716 15.7238 19.1407 16.7081 18.6485C17.6925 18.1563 21.3588 16.0935 21.6344 13.5669C21.9122 11.0425 21.6344 10.3644 20.4641 8.8244C19.2938 7.2844 17.2419 6.93003 16.1831 7.1619C14.921 7.43972 14.7044 8.36065 14.151 8.39347C13.6281 8.42409 13.7813 7.84003 12.2719 7.2844C10.3403 6.57347 5.05314 8.47659 5.98939 13.5669C6.48157 16.2466 10.3863 18.5325 10.885 18.8016C12.0903 19.4491 14.1531 19.5716 14.1531 19.5716Z" fill="#FEC000"/>
<path d="M18.1468 11.1633C18.3358 10.6884 18.1113 10.1532 17.6455 9.96783C17.1797 9.78242 16.6488 10.017 16.4599 10.4918C16.2709 10.9667 16.4953 11.5019 16.9611 11.6873C17.427 11.8727 17.9578 11.6381 18.1468 11.1633Z" fill="#2E2F2F"/>
<path d="M11.0291 11.5917C11.5069 11.3974 11.7338 10.8452 11.5359 10.3584C11.3379 9.87157 10.79 9.63446 10.3122 9.82879C9.83429 10.0231 9.60739 10.5753 9.80536 11.0621C10.0033 11.5489 10.5512 11.7861 11.0291 11.5917Z" fill="#2E2F2F"/>
<path d="M14.1115 12.4687C12.2434 12.4118 10.6006 14.5227 10.6006 18.0315C10.6006 21.4396 12.4075 22.2402 13.8643 22.2402C15.7128 22.2402 17.4562 21.0283 17.2528 17.723C17.0625 14.6649 16.1021 12.5299 14.1115 12.4687Z" fill="#FFD899"/>
<path d="M11.935 14.3982C11.7513 14.5819 12.0991 15.5882 12.4075 16.1022C12.7159 16.6163 13.5975 17.4563 14.0919 17.4366C14.5841 17.4169 15.5094 16.3888 15.7959 15.6297C16.0825 14.8707 16.1656 14.3982 16.0431 14.2122C15.9206 14.0263 14.4616 14.2538 13.9081 14.2538C13.3547 14.2538 12.1209 14.2144 11.935 14.3982Z" fill="#2E2F2F"/>
<path d="M14.0503 16.73C14.0503 16.73 13.2563 17.594 12.9106 17.7253C12.4272 17.909 11.6791 17.7515 11.6572 18.049C11.6375 18.3575 12.1188 18.6812 12.8888 18.5784C13.7397 18.4647 14.0591 17.9419 14.0591 17.9419C14.0591 17.9419 14.5425 18.6287 15.4766 18.6703C16.4106 18.7119 16.6272 18.1169 16.3691 18.0337C16.0191 17.9222 15.8003 17.944 15.2709 17.7778C14.8509 17.6422 14.0503 16.73 14.0503 16.73Z" fill="#2E2F2F"/>
</svg>
