<svg width="82" height="82" viewBox="0 0 82 82" fill="none" xmlns="http://www.w3.org/2000/svg">
<g clip-path="url(#clip0_234_885)">
<path d="M1.60156 1.60156H80.3984V55.6255H1.60156V1.60156Z" fill="#26A69A"/>
<path d="M78.7969 3.20312V54.0239H3.20312V3.20312H78.7969ZM82 0H0V57.227H82V0Z" fill="#5D4037"/>
<path d="M5.125 75.613V82H60.9491V75.613C60.9491 65.8947 47.2461 60.9619 33.2484 60.9811C19.3405 60.9939 5.125 65.3182 5.125 75.613Z" fill="#546E7A"/>
<path d="M28.6936 67.4001H37.4381L32.9666 86.1961L28.6936 67.4001Z" fill="#455A64"/>
<path d="M33.005 57.7716H27.1881V63.9152C27.1881 66.6955 29.5584 68.9505 32.4796 68.9505H33.5367C36.4579 68.9505 38.8282 66.6955 38.8282 63.9152V57.7716H33.005ZM53.6587 33.4022C53.6587 33.4022 57.432 34.0557 57.432 38.1236C57.432 41.7111 54.6773 43.1269 51.9226 43.1269V33.4022H53.6587ZM12.4793 33.4022C12.4793 33.4022 8.70605 34.0557 8.70605 38.1236C8.70605 41.7111 11.4607 43.1269 14.2154 43.1269V33.4022H12.4793Z" fill="#DBA689"/>
<path d="M33.0691 6.77136C16.7972 6.77136 12.5435 19.3853 12.5435 37.105C12.5435 55.4781 24.3502 60.2315 33.0691 60.2315C41.6599 60.2315 53.5947 55.619 53.5947 37.105C53.5947 19.3853 49.3346 6.77136 33.0691 6.77136Z" fill="#FADCBC"/>
<path d="M26.3041 38.7514C26.3041 40.5836 25.0805 42.0635 23.5622 42.0635C22.0504 42.0635 20.814 40.5772 20.814 38.7514C20.814 36.9192 22.044 35.433 23.5622 35.433C25.0805 35.433 26.3041 36.9128 26.3041 38.7514ZM39.8213 38.7514C39.8213 40.5836 41.0449 42.0635 42.5696 42.0635C44.0815 42.0635 45.3115 40.5772 45.3115 38.7514C45.3115 36.9192 44.0815 35.433 42.5696 35.433C41.0513 35.433 39.8213 36.9128 39.8213 38.7514Z" fill="#444444"/>
<path d="M39.0077 49.9431H27.1305C26.4514 49.9431 26.1568 50.398 26.6052 51.0898C27.233 52.0508 29.5777 53.8958 33.0691 53.8958C36.5605 53.8958 38.9052 52.0508 39.533 51.0898C39.9814 50.398 39.6868 49.9431 39.0077 49.9431Z" fill="#262626"/>
<path d="M35.9391 44.895C34.9269 45.1833 33.8763 45.3178 33.0691 45.3178C32.2619 45.3178 31.2113 45.1769 30.1991 44.895C29.7699 44.7733 29.5969 45.1833 29.7507 45.4524C30.071 46.0161 31.365 47.1564 33.0691 47.1564C34.7732 47.1564 36.0672 46.0161 36.3875 45.4524C36.5413 45.1769 36.3683 44.7669 35.9391 44.895Z" fill="#DBA689"/>
<path d="M33.5559 4.45876C33.5559 4.45876 33.2356 4.44595 33.1011 4.45236C32.9666 4.45236 32.6463 4.45876 32.6463 4.45876C15.0867 4.79829 9.79517 15.3622 9.79517 22.6845C9.79517 29.8019 9.80157 35.0358 9.80157 35.0358C9.80157 35.0358 10.0834 34.7475 10.5959 34.3439C11.1469 33.9147 11.7555 33.6777 11.7555 33.6777L12.6395 39.6227L18.4884 27.3995C18.5269 27.3227 18.6038 27.2778 18.687 27.2906L22.1528 27.675C25.6378 28.0594 29.142 28.2516 32.6399 28.258V28.2644C32.7936 28.2644 32.9409 28.258 33.0947 28.258C33.2484 28.258 33.3958 28.2644 33.5495 28.2644V28.2516C37.0474 28.2388 40.5516 28.053 44.0366 27.6686L47.5024 27.2842C47.5856 27.2778 47.6625 27.3227 47.7009 27.3931L53.5499 39.6163L54.4339 33.6713C54.4339 33.6713 55.0425 33.9147 55.5934 34.3375C56.1124 34.7411 56.3878 35.0294 56.3878 35.0294C56.3878 35.0294 56.3942 29.8019 56.3942 22.6781C56.407 15.3622 51.1155 4.79829 33.5559 4.45876Z" fill="#312D2D"/>
<path d="M26.3105 38.8603C26.3105 40.6796 25.0933 42.1595 23.5814 42.1595C22.0759 42.1595 20.8459 40.686 20.8459 38.8603C20.8459 37.0345 22.0695 35.561 23.5814 35.561C25.0933 35.561 26.3105 37.0345 26.3105 38.8603ZM39.7636 38.8603C39.7636 40.6796 40.9808 42.1595 42.4991 42.1595C44.0045 42.1595 45.2281 40.686 45.2281 38.8603C45.2281 37.0345 44.0045 35.561 42.4991 35.561C40.9808 35.561 39.7636 37.0345 39.7636 38.8603Z" fill="#262626"/>
<path d="M20.1477 73.3451L25.151 69.386L19.1868 67.0157L27.1177 60.744L32.9666 86.1961L20.1477 73.3451ZM40.8847 69.3092L45.9905 73.3451L32.9666 86.1961L39.0205 60.744L46.9515 67.0157L40.8847 69.3092Z" fill="#E0E0E0"/>
<path d="M25.9837 32.7808H18.3923C18.1745 32.7808 17.9567 32.8 17.7453 32.8256C18.245 32.9089 18.6742 33.1779 18.9561 33.5495H25.9773C28.1875 33.5495 29.9876 35.2151 29.9876 37.2651V40.9103C29.9876 42.9603 28.1875 44.6259 25.9773 44.6259H18.3923C16.1822 44.6259 14.382 42.9603 14.382 40.9103V37.7776H13.8183C13.7286 37.7776 13.6389 37.7648 13.5492 37.752V40.9103C13.5492 43.3831 15.7209 45.3947 18.3859 45.3947H25.9773C28.6423 45.3947 30.814 43.3831 30.814 40.9103V37.2651C30.8204 34.7923 28.6487 32.7808 25.9837 32.7808Z" fill="#231F20" stroke="#231F20" stroke-width="0.481" stroke-miterlimit="10"/>
<path d="M17.7453 32.8256C17.63 32.8064 17.5147 32.7936 17.3994 32.7936H13.8183C12.7677 32.7936 11.9028 33.588 11.9028 34.5681V36.0095C11.9028 36.9 12.6203 37.6367 13.5492 37.7584V37.2715C13.5492 34.9973 15.3814 33.1203 17.7453 32.8256Z" fill="black"/>
<path d="M14.3821 37.7777V37.2652C14.3821 35.2152 16.1822 33.5496 18.3924 33.5496H18.9625C18.6807 33.178 18.2514 32.909 17.7518 32.8257C15.3879 33.1204 13.5557 34.9974 13.5557 37.2652V37.7521C13.6454 37.7649 13.7286 37.7777 13.8247 37.7777H14.3821Z" fill="black" stroke="black" stroke-width="0.481" stroke-miterlimit="10"/>
<path d="M39.8469 32.7808H47.4383C47.6561 32.7808 47.8739 32.8 48.0853 32.8256C47.5856 32.9089 47.1564 33.1779 46.8745 33.5495H39.8469C37.6367 33.5495 35.8365 35.2151 35.8365 37.2651V40.9103C35.8365 42.9603 37.6367 44.6259 39.8469 44.6259H47.4383C49.6484 44.6259 51.4486 42.9603 51.4486 40.9103V37.7776H52.0123C52.102 37.7776 52.1917 37.7648 52.2814 37.752V40.9103C52.2814 43.3831 50.1097 45.3947 47.4447 45.3947H39.8469C37.1819 45.3947 35.0101 43.3831 35.0101 40.9103V37.2651C35.0101 34.7923 37.1754 32.7808 39.8469 32.7808Z" fill="#231F20" stroke="#231F20" stroke-width="0.481" stroke-miterlimit="10"/>
<path d="M48.0853 32.8256C48.2006 32.8064 48.316 32.7936 48.4313 32.7936H52.0124C53.063 32.7936 53.9278 33.588 53.9278 34.5681V36.0095C53.9278 36.9 53.2103 37.6367 52.2814 37.7584V37.2715C52.275 34.9973 50.4492 33.1203 48.0853 32.8256Z" fill="black"/>
<path d="M51.4486 37.7777V37.2652C51.4486 35.2152 49.6485 33.5496 47.4383 33.5496H46.8682C47.15 33.178 47.5793 32.909 48.0789 32.8257C50.4429 33.1204 52.275 34.9974 52.275 37.2652V37.7521C52.1853 37.7649 52.1021 37.7777 52.006 37.7777H51.4486Z" fill="black" stroke="black" stroke-width="0.481" stroke-miterlimit="10"/>
<path d="M35.4714 37.7777H30.2439L29.5392 34.4144H36.2401L35.4714 37.7777Z" fill="#231F20"/>
<path d="M67.8101 74.4086L65.7217 74.005L74.9147 30.5514H75.7154L67.8101 74.4086Z" fill="#F15A29"/>
<path d="M65.1324 68.9953C66.0933 69.2323 66.7083 69.9114 67.1375 70.757C68.2074 70.5648 70.0524 70.3726 70.5905 70.3855C71.2247 70.4047 72.0639 70.4751 72.2049 71.7756C72.2946 72.6212 71.9742 73.3195 70.8916 73.422C70.488 73.4605 70.0716 73.4861 69.6616 73.5053L69.8089 73.9794C70.1869 73.973 70.5264 73.9601 70.7891 73.9601C71.8846 73.9473 72.506 74.5303 72.506 75.6898C72.506 76.7084 71.6283 77.1889 70.9877 77.2273C70.6482 77.2466 69.7 77.1953 68.7647 77.1056L68.6686 77.3042L68.6302 77.3619C69.2196 77.4516 69.7833 77.5476 70.1805 77.6181C71.2503 77.8103 71.7628 78.5214 71.6411 79.367C71.4938 80.392 70.5777 80.6739 69.9435 80.6547C69.4694 80.6419 67.8038 80.3792 66.6891 80.1422L66.4713 80.4561C66.5482 80.4689 66.6314 80.4817 66.7211 80.4945C66.7339 80.4945 66.7467 80.5009 66.766 80.5009L66.9902 80.5394C67.0094 80.5394 67.0222 80.5458 67.0414 80.5458C67.1311 80.5586 67.2208 80.5778 67.3105 80.5906H67.3233C67.4194 80.6034 67.5155 80.6226 67.6116 80.6419C67.6308 80.6419 67.65 80.6483 67.6628 80.6483L67.8871 80.6867C67.9191 80.6931 67.9447 80.6995 67.9767 80.6995C68.0408 80.7123 68.1049 80.7251 68.1625 80.7316L68.2586 80.7508C68.3227 80.7636 68.3803 80.7764 68.438 80.7828L68.5277 80.802C68.611 80.8212 68.7007 80.8341 68.7775 80.8533C69.7577 81.0583 70.1292 81.5003 70.0075 82.2755C69.841 83.3645 68.7455 83.608 68.1625 83.5503C67.5796 83.4991 65.6192 83.0955 64.9786 82.8136L64.8633 82.7559L64.6391 83.0762C61.7563 82.884 59.6871 81.6797 59.6871 81.6797C57.9958 80.7316 57.7139 80.0012 57.4321 78.8417C57.1117 77.522 57.1886 75.9589 57.2014 75.7155C57.3039 73.0889 57.8869 71.3912 60.0074 69.9819C60.5199 69.6423 61.2694 69.0466 62.9286 68.8544C63.5757 68.7903 64.4917 68.8416 65.1324 68.9953Z" fill="#FADCBC"/>
<path d="M67.5347 73.3579C67.5347 73.3579 67.5603 72.0382 67.1439 70.757L67.6052 70.6737C67.6052 70.6737 67.9319 71.5834 68.0472 72.9287C68.0664 73.1465 68.0728 73.3451 68.0728 73.5373L68.4828 73.5117L71.2311 73.3579C71.2311 73.3579 71.0261 73.3964 71.0261 73.7039C71.0261 73.832 71.103 73.9153 71.1606 73.9665C71.0453 73.9537 70.9172 73.9409 70.7891 73.9473L68.06 74.0178C68.0536 74.0946 68.0536 74.1715 68.0472 74.2548C67.9831 75.3695 67.7205 76.4393 67.0991 76.8493C69.1619 77.0928 70.9941 77.2145 70.9941 77.2145C70.6353 77.3618 70.7891 77.7975 70.7891 77.7975C69.3989 77.4195 66.0292 77.2209 66.0292 77.2209C64.607 77.0992 64.4148 78.0601 64.4148 78.0601C64.1522 79.2196 65.4142 79.7514 65.4142 79.7514C65.5808 79.8475 67.0863 80.1486 68.1625 80.3536L69.2388 80.5521L69.5398 80.6098C69.5078 80.6034 69.3797 80.597 69.3284 80.8084C69.3028 80.9109 69.3284 80.9814 69.3477 81.0262C69.1875 80.9557 68.9953 80.8917 68.7711 80.8468C68.265 80.7443 66.7339 80.4945 66.6186 80.4753L66.2342 80.424C64.9658 80.2575 64.6583 80.4817 64.6583 80.4817C63.9536 80.8532 64.1586 81.7501 64.1586 81.7501C64.3123 82.615 65.2669 82.884 65.2669 82.884C65.632 82.9929 67.5667 83.4606 67.5667 83.4606L64.6391 83.0762C64.4341 83.0121 64.3572 82.916 64.2419 82.8264C63.2105 81.9807 63.6461 80.834 63.6461 80.834C63.8062 80.392 64.1394 80.1934 64.1394 80.1934C64.338 80.0717 64.5686 80.0076 64.8056 79.982C63.6077 79.3478 63.7998 78.0665 63.7998 78.0665C63.9536 77.2786 64.5237 76.9454 64.9722 76.8045C64.9337 76.7725 64.8889 76.7404 64.8505 76.702C64.8505 76.702 64.0817 76.1959 64.3636 74.0242C64.4597 73.2939 64.4469 73.1914 64.37 72.7301C64.37 72.7301 64.0945 71.7436 63.2745 72.0575C63.2745 72.0575 62.9991 72.1279 62.5698 72.4675C62.5698 72.4675 62.2239 72.7365 62.2303 72.3137C62.2303 72.1856 62.32 71.955 62.493 71.7564C62.493 71.7564 62.6723 71.545 63.1144 71.4232C63.1144 71.4232 64.2611 70.9684 64.8312 72.1151C65.1323 72.7173 65.0747 73.1145 64.9786 73.7295C64.9786 73.7295 64.7992 75.6706 65.3053 76.292C65.3053 76.292 65.805 76.8621 66.6058 76.5098C66.6122 76.5226 67.7012 75.9268 67.5347 73.3579Z" fill="#DBA689"/>
</g>
<defs>
<clipPath id="clip0_234_885">
<rect width="82" height="82" fill="white"/>
</clipPath>
</defs>
</svg>
