<svg width="12" height="12" viewBox="0 0 12 12" fill="none" xmlns="http://www.w3.org/2000/svg">
<path d="M7.08634 1.37177L7.95195 3.0746C8.01634 3.19995 8.10876 3.30788 8.22166 3.38953C8.33455 3.47118 8.4647 3.52424 8.60145 3.54437L10.4297 3.80117C11.4075 3.93945 11.7865 5.17569 11.0634 5.86315L9.81145 7.04802C9.70473 7.14859 9.62462 7.27528 9.5786 7.41623C9.53259 7.55718 9.52218 7.7078 9.54834 7.854L9.85383 9.5916C10.0237 10.5596 9.04176 11.3142 8.18 10.8717L6.43261 9.98274C6.31231 9.92237 6.18015 9.89099 6.04622 9.89099C5.91229 9.89099 5.78013 9.92237 5.65984 9.98274L3.91244 10.8717C3.0503 11.3102 2.06873 10.5596 2.23862 9.5916L2.5441 7.85361C2.59804 7.55729 2.49788 7.25307 2.28138 7.04762L1.029 5.86315C0.305923 5.17964 0.684988 3.93906 1.6627 3.80078L3.491 3.54397C3.62814 3.52511 3.75882 3.47254 3.8719 3.39075C3.98498 3.30896 4.07713 3.20037 4.14049 3.07421L5.00649 1.37177C5.44719 0.514424 6.6491 0.514424 7.08595 1.37177H7.08634Z" fill="#FCD53F"/>
</svg>
