<svg width="9" height="10" viewBox="0 0 9 10" fill="none" xmlns="http://www.w3.org/2000/svg">
<path d="M3.00652 2.11634C3.00652 2.11634 6.42772 -0.188252 7.65064 1.18225C9.12866 2.83604 3.53171 4.55874 3.53171 4.55874L3.39666 6.96287C3.39666 6.96287 4.13942 7.72086 5.47488 7.64429C6.81035 7.56773 8.1158 6.41926 8.88857 7.28444C9.66134 8.14962 6.31518 11.572 1.93365 9.14496C0.388109 8.28743 -0.249614 5.76846 0.088004 5.52346C0.9358 4.91094 0.830763 6.74849 1.35595 6.28144C1.4985 5.8144 1.4985 3.33371 1.4985 3.33371C1.4985 3.33371 0.545664 0.569737 1.53601 0.0644111C2.51885 -0.433258 3.00652 2.11634 3.00652 2.11634Z" fill="#BA8859"/>
</svg>
