<svg width="21" height="20" viewBox="0 0 21 20" fill="none" xmlns="http://www.w3.org/2000/svg">
<path d="M12.525 1.25188L14.2103 4.56716C14.3356 4.81121 14.5156 5.02133 14.7354 5.1803C14.9552 5.33927 15.2086 5.44257 15.4748 5.48175L19.0343 5.98173C20.9379 6.25095 21.6759 8.6578 20.2681 9.99622L17.8306 12.3031C17.6228 12.4989 17.4668 12.7455 17.3773 13.0199C17.2877 13.2944 17.2674 13.5876 17.3183 13.8722L17.9131 17.2552C18.2438 19.1398 16.3321 20.609 14.6543 19.7474L11.2523 18.0167C11.018 17.8992 10.7607 17.8381 10.5 17.8381C10.2393 17.8381 9.98195 17.8992 9.74774 18.0167L6.3457 19.7474C4.66718 20.6013 2.75616 19.1398 3.08692 17.2552L3.68167 13.8715C3.78667 13.2946 3.59167 12.7023 3.17017 12.3023L0.731888 9.99622C-0.675878 8.66549 0.0621305 6.25018 1.96565 5.98096L5.52519 5.48098C5.7922 5.44425 6.04662 5.34191 6.26678 5.18268C6.48694 5.02344 6.66634 4.81202 6.78971 4.56639L8.47573 1.25188C9.33374 -0.417294 11.6738 -0.417294 12.5243 1.25188H12.525Z" fill="#FCD53F"/>
</svg>
