<svg width="17" height="13" viewBox="0 0 17 13" fill="none" xmlns="http://www.w3.org/2000/svg">
<path d="M7.64305 12.149C7.42282 12.3516 7.12417 12.4654 6.81277 12.4654C6.50137 12.4654 6.20271 12.3516 5.98249 12.149L0.697817 7.2859C0.477657 7.08325 0.353977 6.80842 0.353977 6.52186C0.353977 6.2353 0.477657 5.96048 0.697817 5.75782L5.98249 0.894738C6.20398 0.697884 6.50062 0.588957 6.80854 0.591418C7.11646 0.593881 7.411 0.707535 7.62874 0.907903C7.84648 1.10827 7.96999 1.37932 7.97266 1.66267C7.97534 1.94602 7.85697 2.21901 7.64305 2.42283L4.46403 5.44118H15.6206C15.932 5.44118 16.2307 5.55503 16.451 5.7577C16.6712 5.96037 16.7949 6.23525 16.7949 6.52186C16.7949 6.80848 16.6712 7.08335 16.451 7.28602C16.2307 7.48869 15.932 7.60255 15.6206 7.60255H4.46403L7.64305 10.6209C7.86321 10.8236 7.98689 11.0984 7.98689 11.3849C7.98689 11.6715 7.86321 11.9463 7.64305 12.149Z" fill="white"/>
</svg>
