<svg width="12" height="12" viewBox="0 0 12 12" fill="none" xmlns="http://www.w3.org/2000/svg">
<path d="M7.08634 1.37201L7.95195 3.07485C8.01634 3.2002 8.10876 3.30812 8.22166 3.38977C8.33455 3.47143 8.4647 3.52449 8.60145 3.54461L10.4297 3.80142C11.4075 3.9397 11.7865 5.17593 11.0634 5.86339L9.81145 7.04826C9.70473 7.14884 9.62462 7.27552 9.5786 7.41647C9.53259 7.55743 9.52218 7.70804 9.54834 7.85425L9.85383 9.59185C10.0237 10.5598 9.04176 11.3144 8.18 10.8719L6.43261 9.98299C6.31231 9.92262 6.18015 9.89123 6.04622 9.89123C5.91229 9.89123 5.78013 9.92262 5.65984 9.98299L3.91244 10.8719C3.0503 11.3105 2.06873 10.5598 2.23862 9.59185L2.5441 7.85385C2.59804 7.55753 2.49788 7.25331 2.28138 7.04787L1.029 5.86339C0.305923 5.17988 0.684988 3.9393 1.6627 3.80102L3.491 3.54421C3.62814 3.52535 3.75882 3.47279 3.8719 3.391C3.98498 3.30921 4.07713 3.20061 4.14049 3.07445L5.00649 1.37201C5.44719 0.514668 6.6491 0.514668 7.08595 1.37201H7.08634Z" fill="#FCD53F"/>
</svg>
