<svg width="10" height="14" viewBox="0 0 10 14" fill="none" xmlns="http://www.w3.org/2000/svg">
<path d="M5.53469 3.35805C5.53469 3.35805 5.56031 2.03836 5.14391 0.757108L5.60516 0.673828C5.60516 0.673828 5.93188 1.58351 6.04719 2.92883C6.06641 3.14664 6.07281 3.34524 6.07281 3.53742L6.48281 3.5118L9.2311 3.35805C9.2311 3.35805 9.0261 3.39649 9.0261 3.70399C9.0261 3.83211 9.10297 3.91539 9.16063 3.96664C9.04531 3.95383 8.91719 3.94102 8.78906 3.94742L6.06 4.01789C6.05359 4.09477 6.0536 4.17164 6.04719 4.25492C5.98313 5.36961 5.72047 6.43945 5.09906 6.84945C7.16187 7.09289 8.99406 7.21461 8.99406 7.21461C8.63531 7.36195 8.78906 7.79758 8.78906 7.79758C7.39891 7.41961 4.02922 7.22102 4.02922 7.22102C2.60703 7.0993 2.41485 8.06023 2.41485 8.06023C2.15219 9.21976 3.41422 9.75148 3.41422 9.75148C3.58078 9.84758 5.08625 10.1487 6.1625 10.3537L7.23875 10.5523L7.53985 10.6099C7.50782 10.6035 7.37969 10.5971 7.32844 10.8085C7.30281 10.911 7.32844 10.9815 7.34766 11.0263C7.1875 10.9559 6.99531 10.8918 6.77109 10.847C6.265 10.7445 4.73391 10.4946 4.61859 10.4754L4.23422 10.4241C2.96578 10.2576 2.65828 10.4818 2.65828 10.4818C1.95359 10.8534 2.1586 11.7502 2.1586 11.7502C2.31235 12.6151 3.26687 12.8841 3.26687 12.8841C3.63203 12.9931 5.56672 13.4607 5.56672 13.4607L2.63906 13.0763C2.43406 13.0123 2.35719 12.9162 2.24187 12.8265C1.21047 11.9809 1.64609 10.8341 1.64609 10.8341C1.80625 10.3921 2.13938 10.1935 2.13938 10.1935C2.33797 10.0718 2.5686 10.0077 2.80563 9.98211C1.60766 9.34789 1.79984 8.06664 1.79984 8.06664C1.95359 7.27867 2.52375 6.94555 2.97219 6.80461C2.93375 6.77258 2.88891 6.74055 2.85047 6.70211C2.85047 6.70211 2.08172 6.19602 2.3636 4.0243C2.45969 3.29399 2.44688 3.19148 2.37 2.73023C2.37 2.73023 2.09453 1.74367 1.27453 2.05758C1.27453 2.05758 0.999062 2.12805 0.569843 2.46758C0.569843 2.46758 0.223906 2.73664 0.230312 2.31383C0.230312 2.1857 0.320002 1.95508 0.492971 1.75649C0.492971 1.75649 0.672342 1.54508 1.11437 1.42336C1.11437 1.42336 2.26109 0.968516 2.83125 2.11523C3.13234 2.71742 3.07469 3.11461 2.97859 3.72961C2.97859 3.72961 2.79922 5.6707 3.30531 6.29211C3.30531 6.29211 3.805 6.86227 4.60578 6.50992C4.61219 6.52273 5.70125 5.92695 5.53469 3.35805Z" fill="#DBA689"/>
</svg>
