<svg width="18" height="13" viewBox="0 0 18 13" fill="none" xmlns="http://www.w3.org/2000/svg">
<path d="M10.0197 0.346414C10.2608 0.124605 10.5878 0 10.9287 0C11.2697 0 11.5966 0.124605 11.8378 0.346414L17.6236 5.67065C17.8646 5.89252 18 6.19341 18 6.50714C18 6.82088 17.8646 7.12176 17.6236 7.34364L11.8378 12.6679C11.5953 12.8834 11.2705 13.0027 10.9334 13C10.5963 12.9973 10.2738 12.8728 10.0354 12.6535C9.797 12.4341 9.66178 12.1373 9.65885 11.8271C9.65592 11.5169 9.78552 11.218 10.0197 10.9949L13.5002 7.69031H1.28573C0.944736 7.69031 0.617705 7.56565 0.376583 7.34377C0.135461 7.12188 0 6.82094 0 6.50714C0 6.19335 0.135461 5.89241 0.376583 5.67052C0.617705 5.44863 0.944736 5.32398 1.28573 5.32398H13.5002L10.0197 2.01941C9.77869 1.79753 9.64328 1.49664 9.64328 1.18291C9.64328 0.869178 9.77869 0.56829 10.0197 0.346414Z" fill="#1E1E1E"/>
</svg>
