<svg width="52" height="49" viewBox="0 0 52 49" fill="none" xmlns="http://www.w3.org/2000/svg">
<path d="M31.0143 3.06711L35.1874 11.1895C35.4978 11.7875 35.9434 12.3022 36.4876 12.6917C37.0319 13.0812 37.6593 13.3343 38.3186 13.4303L47.1327 14.6552C51.8462 15.3148 53.6736 21.2116 50.1877 24.4907L44.1519 30.1425C43.6374 30.6222 43.2512 31.2265 43.0294 31.8989C42.8076 32.5712 42.7574 33.2896 42.8835 33.987L44.3562 42.2753C45.1752 46.8924 40.4413 50.4919 36.2868 48.3812L27.8627 44.141C27.2828 43.853 26.6457 43.7033 26 43.7033C25.3543 43.7033 24.7172 43.853 24.1373 44.141L15.7132 48.3812C11.5568 50.4731 6.82478 46.8924 7.64379 42.2753L9.11652 33.9851C9.37652 32.5717 8.89366 31.1206 7.84994 30.1406L1.8123 24.4907C-1.6736 21.2305 0.153847 15.3129 4.86733 14.6534L13.6814 13.4284C14.3426 13.3384 14.9726 13.0877 15.5177 12.6976C16.0629 12.3074 16.5071 11.7894 16.8126 11.1877L20.9875 3.06711C23.1121 -1.02237 28.9065 -1.02237 31.0125 3.06711H31.0143Z" fill="#FCD53F"/>
</svg>
