<svg width="19" height="14" viewBox="0 0 19 14" fill="none" xmlns="http://www.w3.org/2000/svg">
<path d="M12.9837 0.780762H5.39232C5.17451 0.780762 4.9567 0.799983 4.74529 0.825608C5.24498 0.908889 5.67419 1.17795 5.95607 1.54951H12.9773C15.1875 1.54951 16.9876 3.21514 16.9876 5.26514V8.91029C16.9876 10.9603 15.1875 12.6259 12.9773 12.6259H5.39232C3.18216 12.6259 1.38201 10.9603 1.38201 8.91029V5.77764H0.818257C0.728569 5.77764 0.638882 5.76483 0.549194 5.75201V8.91029C0.549194 11.3831 2.72091 13.3947 5.38591 13.3947H12.9773C15.6423 13.3947 17.814 11.3831 17.814 8.91029V5.26514C17.8204 2.79232 15.6487 0.780762 12.9837 0.780762Z" fill="#231F20" stroke="#231F20" stroke-width="0.481" stroke-miterlimit="10"/>
</svg>
