<svg width="62" height="73" viewBox="0 0 62 73" fill="none" xmlns="http://www.w3.org/2000/svg">
<path d="M35.647 46.3503L28.3862 48.1407C28.3862 48.1407 29.7282 58.5996 29.4316 60.0431C29.1349 61.4867 27.8918 66.8152 27.4892 67.2186C27.0937 67.6149 24.0707 70.3817 25.0525 71.7546C25.7517 72.724 27.461 73 29.1279 73C30.0743 73 32.5605 72.9222 33.0055 71.8819C33.4504 70.8346 33.3798 69.3132 33.3798 69.3132C33.3798 69.3132 36.2898 63.185 36.5864 61.3947C36.8901 59.6044 35.647 46.3503 35.647 46.3503ZM53.3964 50.8863C53.3964 50.8863 54.9855 58.359 54.7383 59.7035C54.4911 61.048 53.3964 64.9825 53.1492 65.5344C52.902 66.0793 50.4652 69.2849 51.9555 70.3676C53.1209 71.2168 54.6395 71.2168 55.932 71.2168C57.8461 71.2168 59.1103 70.4667 59.5624 69.7236C60.0073 68.9735 59.9085 66.6383 59.9085 66.6383C59.9085 66.6383 61.9497 59.6681 61.9991 58.7694C62.0486 57.8707 60.0073 47.4118 60.0073 47.4118L53.3964 50.8863ZM30.0249 1.52142L19.2396 15.469L4.1248 15.8157L4.17424 15.469L0 19.177C0 19.177 1.76575 18.9293 2.90996 18.5543C3.67277 18.3066 4.4497 18.0094 5.00061 18.158C5.54446 18.3066 7.31022 19.5025 8.20722 19.9483C9.10422 20.3941 10.99 21.2928 10.99 21.2928L11.1384 27.3219L20.0378 32.8981L25.3562 24.4772C25.3562 24.4772 25.4551 19.7927 25.8506 19.0496C26.2461 18.2995 28.7182 16.7498 29.3821 11.577C29.8059 8.26522 29.9542 7.14715 29.9542 7.14715C29.9542 7.14715 32.5534 5.17992 32.9136 3.55942C33.3869 1.44358 32.2921 0 32.2921 0L30.0249 1.52142Z" fill="#DF9047"/>
</svg>
