<svg width="20" height="15" viewBox="0 0 20 15" fill="none" xmlns="http://www.w3.org/2000/svg">
<path d="M11.133 0.399708C11.4009 0.143775 11.7642 0 12.143 0C12.5219 0 12.8852 0.143775 13.1531 0.399708L19.5817 6.54305C19.8495 6.79906 20 7.14624 20 7.50824C20 7.87024 19.8495 8.21742 19.5817 8.47343L13.1531 14.6168C12.8836 14.8655 12.5228 15.0031 12.1482 14.9999C11.7736 14.9968 11.4153 14.8533 11.1504 14.6001C10.8856 14.347 10.7353 14.0046 10.7321 13.6467C10.7288 13.2887 10.8728 12.9439 11.133 12.6864L15.0002 8.87343H1.42859C1.04971 8.87343 0.686339 8.7296 0.418425 8.47358C0.150512 8.21755 0 7.87031 0 7.50824C0 7.14617 0.150512 6.79893 0.418425 6.54291C0.686339 6.28689 1.04971 6.14305 1.42859 6.14305H15.0002L11.133 2.33008C10.8652 2.07407 10.7148 1.7269 10.7148 1.3649C10.7148 1.0029 10.8652 0.655719 11.133 0.399708Z" fill="white"/>
</svg>
