<svg width="53" height="49" viewBox="0 0 53 49" fill="none" xmlns="http://www.w3.org/2000/svg">
<path d="M31.6108 3.06711L35.8641 11.1895C36.1804 11.7875 36.6346 12.3022 37.1893 12.6917C37.744 13.0812 38.3836 13.3343 39.0555 13.4303L48.0391 14.6552C52.8432 15.3148 54.7058 21.2116 51.1529 24.4907L45.001 30.1425C44.4766 30.6222 44.083 31.2265 43.8569 31.8989C43.6308 32.5712 43.5796 33.2896 43.7082 33.987L45.2092 42.2753C46.044 46.8924 41.219 50.4919 36.9847 48.3812L28.3986 44.141C27.8075 43.853 27.1581 43.7033 26.5 43.7033C25.8419 43.7033 25.1925 43.853 24.6014 44.141L16.0153 48.3812C11.7791 50.4731 6.95603 46.8924 7.79079 42.2753L9.29184 33.9851C9.55684 32.5717 9.06469 31.1206 8.0009 30.1406L1.84715 24.4907C-1.70579 21.2305 0.156806 15.3129 4.96093 14.6534L13.9445 13.4284C14.6184 13.3384 15.2605 13.0877 15.8162 12.6976C16.3718 12.3074 16.8246 11.7894 17.1359 11.1877L21.3911 3.06711C23.5566 -1.02237 29.4624 -1.02237 31.6089 3.06711H31.6108Z" fill="#FCD53F"/>
</svg>
