<svg width="18" height="13" viewBox="0 0 18 13" fill="none" xmlns="http://www.w3.org/2000/svg">
<path d="M7.98028 12.6536C7.73916 12.8754 7.41219 13 7.07126 13C6.73033 13 6.40336 12.8754 6.16225 12.6536L0.376445 7.32935C0.135407 7.10748 -4.72639e-07 6.80659 -4.72639e-07 6.49286C-4.72639e-07 6.17912 0.135407 5.87824 0.376445 5.65636L6.16225 0.332128C6.40474 0.116605 6.72952 -0.00265124 7.06663 4.44978e-05C7.40375 0.00274024 7.72623 0.127172 7.96461 0.34654C8.203 0.565908 8.33822 0.86266 8.34115 1.17288C8.34408 1.4831 8.21448 1.78197 7.98028 2.00512L4.49979 5.30969H16.7143C17.0553 5.30969 17.3823 5.43435 17.6234 5.65623C17.8645 5.87812 18 6.17906 18 6.49286C18 6.80665 17.8645 7.10759 17.6234 7.32948C17.3823 7.55137 17.0553 7.67602 16.7143 7.67602H4.49979L7.98028 10.9806C8.22131 11.2025 8.35672 11.5034 8.35672 11.8171C8.35672 12.1308 8.22131 12.4317 7.98028 12.6536Z" fill="#1E1E1E"/>
</svg>
