<svg width="16" height="16" viewBox="0 0 16 16" fill="none" xmlns="http://www.w3.org/2000/svg">
<path d="M8.13237 0.995301C9.09331 1.23233 9.70831 1.91139 10.1375 2.75702C11.2074 2.56483 13.0524 2.37265 13.5905 2.38546C14.2247 2.40468 15.0639 2.47515 15.2049 3.77562C15.2946 4.62124 14.9742 5.31952 13.8916 5.42202C13.488 5.46046 13.0716 5.48608 12.6616 5.5053L12.8089 5.97937C13.1869 5.97296 13.5264 5.96014 13.7891 5.96014C14.8846 5.94733 15.506 6.5303 15.506 7.68983C15.506 8.70843 14.6283 9.1889 13.9877 9.22734C13.6482 9.24655 12.7 9.1953 11.7647 9.10562L11.6686 9.30421L11.6302 9.36187C12.2196 9.45155 12.7833 9.54765 13.1805 9.61812C14.2503 9.8103 14.7628 10.5214 14.6411 11.367C14.4938 12.392 13.5777 12.6739 12.9435 12.6547C12.4694 12.6419 10.8038 12.3792 9.68909 12.1422L9.47128 12.4561C9.54815 12.4689 9.63143 12.4817 9.72112 12.4945C9.73393 12.4945 9.74675 12.5009 9.76597 12.5009L9.99018 12.5394C10.0094 12.5394 10.0222 12.5458 10.0414 12.5458C10.1311 12.5586 10.2208 12.5778 10.3105 12.5906H10.3233C10.4194 12.6034 10.5155 12.6226 10.6116 12.6419C10.6308 12.6419 10.65 12.6483 10.6628 12.6483L10.8871 12.6867C10.9191 12.6931 10.9447 12.6995 10.9767 12.6995C11.0408 12.7123 11.1049 12.7251 11.1625 12.7316L11.2586 12.7508C11.3227 12.7636 11.3803 12.7764 11.438 12.7828L11.5277 12.802C11.611 12.8212 11.7007 12.8341 11.7775 12.8533C12.7577 13.0583 13.1292 13.5003 13.0075 14.2755C12.841 15.3645 11.7455 15.608 11.1625 15.5503C10.5796 15.4991 8.61925 15.0955 7.97862 14.8136L7.86331 14.7559L7.63909 15.0762C4.75628 14.884 2.68706 13.6797 2.68706 13.6797C0.995807 12.7316 0.713935 12.0012 0.43206 10.8417C0.111747 9.52202 0.188622 7.9589 0.201434 7.71546C0.303934 5.0889 0.886901 3.39124 3.00737 1.98186C3.51987 1.64233 4.2694 1.04655 5.92862 0.854367C6.57565 0.790305 7.49174 0.841551 8.13237 0.995301Z" fill="#FADCBC"/>
</svg>
