<svg width="40" height="27" viewBox="0 0 40 27" fill="none" xmlns="http://www.w3.org/2000/svg">
<path d="M34.9363 12.1695C34.9363 12.1695 34.8343 19.577 33.2965 22.211C32.1232 24.2235 28.8946 26.7233 26.2272 26.9563C20.0178 27.5001 12.7444 22.783 11.1338 22.9595C9.74907 23.1078 6.00304 27.832 1.5428 23.6586C-1.74409 20.5798 0.158078 11.3292 7.85419 9.74033C10.6382 9.16835 13.5971 8.99181 14.5737 8.54693C15.5503 8.10206 17.7586 5.341 20.2146 4.17585C23.0351 2.83416 25.1923 2.78473 25.1923 2.78473C25.1923 2.78473 25.8264 -0.0963741 28.5302 0.00248725C31.2996 0.101349 31.0446 2.93302 31.0446 2.93302C31.0446 2.93302 32.0722 3.08131 33.0998 3.82983C33.6828 4.25353 34.7396 5.36925 34.7396 5.36925C34.7396 5.36925 37.8588 3.58974 39.4622 5.86355C41.962 9.43669 34.9363 12.1695 34.9363 12.1695Z" fill="#F6B03E"/>
</svg>
