<svg width="68" height="73" viewBox="0 0 68 73" fill="none" xmlns="http://www.w3.org/2000/svg">
<path d="M8.00698 26.0645C4.35193 26.8594 0 24.5591 0 24.5591C0 24.5591 0.0355548 34.0278 1.64975 38.3471C3.13595 42.3217 6.47101 45.7335 10.8798 47.3163C15.2886 48.8991 20.1597 49.0961 22.357 48.9695C24.5543 48.8429 25.2938 48.6389 25.2938 48.6389C25.2938 48.6389 26.1614 49.1665 26.5596 49.3634C26.9578 49.5604 27.6262 49.6941 27.6262 49.6941C27.6262 49.6941 29.0911 55.7017 28.892 57.9458C28.6929 60.1898 26.4885 67.5833 26.4885 67.5833C26.4885 67.5833 23.189 70.2424 24.3552 71.7408C25.1231 72.7327 27.7613 73 29.6244 73C31.4875 73 33.955 72.6131 34.531 70.5238C34.8297 69.4264 34.7657 67.4426 34.7657 67.4426C34.7657 67.4426 35.6332 63.679 35.9674 62.3565C36.3016 61.034 36.899 59.5145 36.899 58.6563C36.899 57.798 36.5007 55.4203 36.5007 53.9008V50.7985C36.5007 50.7985 40.5042 50.8618 44.5788 50.3342C48.6534 49.8066 50.8507 48.4208 50.8507 48.4208C50.8507 48.4208 52.7849 52.7119 53.3182 54.4284C53.8516 56.1449 54.1858 57.3337 54.1858 57.798C54.1858 58.2623 52.6498 65.3251 52.6498 65.3251C52.6498 65.3251 49.3788 68.5611 49.649 70.2776C49.9192 71.994 52.5858 71.7971 55.7858 71.5297C58.9857 71.2624 59.2559 69.6163 59.2559 68.0968C59.2559 66.5773 61.6594 59.9084 61.6594 58.3256C61.6594 56.7428 59.391 49.5463 59.5901 48.4911C59.7893 47.4359 60.3226 45.3888 60.6568 43.6724C60.991 41.9559 61.2541 38.9169 61.2541 38.9169C61.2541 38.9169 62.0577 42.8774 63.3234 44.9245C64.5892 46.9716 66.4594 49.2157 67.6611 48.0901C68.8629 46.9646 66.5234 46.0431 65.99 43.0744C65.4567 40.1058 65.2576 31.5234 63.0532 26.4374C60.8488 21.3513 55.9138 19.7052 55.9138 19.7052C55.9138 19.7052 53.7378 9.51893 52.2658 6.41663C50.7938 3.31433 47.1672 -0.364818 42.6304 0.0291251C38.0936 0.423068 33.4359 2.70934 31.5657 6.33924C29.6955 9.96915 29.212 17.4541 28.6786 17.855C28.1453 18.249 24.0067 19.9654 22.4067 23.4687C20.8068 26.965 20.8068 29.2794 20.8068 29.2794C20.8068 29.2794 18.1828 30.1446 16.27 28.5548C13.9518 26.6203 14.4282 21.5764 14.4282 21.5764C14.4282 21.5764 13.4753 24.8757 8.00698 26.0645Z" fill="#F6B03E"/>
</svg>
