<svg width="19" height="14" viewBox="0 0 19 14" fill="none" xmlns="http://www.w3.org/2000/svg">
<path d="M5.84685 0.780762H13.4383C13.6561 0.780762 13.8739 0.799983 14.0853 0.825608C13.5856 0.908889 13.1564 1.17795 12.8745 1.54951H5.84685C3.63669 1.54951 1.83654 3.21514 1.83654 5.26514V8.91029C1.83654 10.9603 3.63669 12.6259 5.84685 12.6259H13.4383C15.6484 12.6259 17.4486 10.9603 17.4486 8.91029V5.77764H18.0123C18.102 5.77764 18.1917 5.76483 18.2814 5.75201V8.91029C18.2814 11.3831 16.1097 13.3947 13.4447 13.3947H5.84685C3.18185 13.3947 1.01013 11.3831 1.01013 8.91029V5.26514C1.01013 2.79232 3.17544 0.780762 5.84685 0.780762Z" fill="#231F20" stroke="#231F20" stroke-width="0.481" stroke-miterlimit="10"/>
</svg>
