<svg width="48" height="36" viewBox="0 0 48 36" fill="none" xmlns="http://www.w3.org/2000/svg">
<path d="M24.5559 0.458884C24.5559 0.458884 24.2356 0.446071 24.1011 0.452477C23.9666 0.452477 23.6463 0.458884 23.6463 0.458884C6.08673 0.798415 0.795166 11.3623 0.795166 18.6847C0.795166 25.802 0.801572 31.0359 0.801572 31.0359C0.801572 31.0359 1.08345 30.7476 1.59595 30.344C2.14689 29.9148 2.75548 29.6778 2.75548 29.6778L3.63954 35.6228L9.48845 23.3997C9.52689 23.3228 9.60376 23.2779 9.68704 23.2908L13.1528 23.6751C16.6378 24.0595 20.142 24.2517 23.6399 24.2581V24.2645C23.7936 24.2645 23.9409 24.2581 24.0947 24.2581C24.2484 24.2581 24.3958 24.2645 24.5495 24.2645V24.2517C28.0474 24.2389 31.5516 24.0531 35.0366 23.6687L38.5024 23.2844C38.5856 23.2779 38.6625 23.3228 38.7009 23.3933L44.5499 35.6164L45.4339 29.6714C45.4339 29.6714 46.0425 29.9148 46.5934 30.3376C47.1124 30.7412 47.3878 31.0295 47.3878 31.0295C47.3878 31.0295 47.3942 25.802 47.3942 18.6783C47.407 11.3623 42.1155 0.798415 24.5559 0.458884Z" fill="#312D2D"/>
</svg>
