<svg width="74" height="68" viewBox="0 0 74 68" fill="none" xmlns="http://www.w3.org/2000/svg">
<path d="M44.1358 4.2564L50.0744 15.5283C50.5161 16.3581 51.1502 17.0725 51.9247 17.613C52.6992 18.1535 53.5921 18.5048 54.5303 18.6379L67.0734 20.3379C73.7811 21.2532 76.3817 29.4365 71.421 33.9871L62.8316 41.8304C62.0994 42.4962 61.5498 43.3348 61.2341 44.2678C60.9184 45.2008 60.847 46.1979 61.0265 47.1656L63.1223 58.6677C64.2878 65.0752 57.5511 70.0704 51.639 67.1413L39.6508 61.2569C38.8255 60.8572 37.9188 60.6495 37 60.6495C36.0812 60.6495 35.1745 60.8572 34.3492 61.2569L22.361 67.1413C16.4463 70.0443 9.71219 65.0752 10.8777 58.6677L12.9735 47.163C13.3435 45.2015 12.6564 43.1878 11.1711 41.8278L2.57904 33.9871C-2.38166 29.4627 0.218936 21.2506 6.92658 20.3353L19.4697 18.6353C20.4106 18.5104 21.3071 18.1625 22.0829 17.6211C22.8587 17.0797 23.4909 16.3609 23.9256 15.5257L29.8668 4.2564C32.8903 -1.4188 41.1361 -1.4188 44.1332 4.2564H44.1358Z" fill="#FAF5AE"/>
</svg>
