<svg width="73" height="68" viewBox="0 0 73 68" fill="none" xmlns="http://www.w3.org/2000/svg">
<path d="M43.5394 4.2564L49.3977 15.5283C49.8334 16.3581 50.459 17.0725 51.223 17.613C51.9871 18.1535 52.8679 18.5048 53.7934 18.6379L66.167 20.3379C72.784 21.2532 75.3495 29.4365 70.4558 33.9871L61.9825 41.8304C61.2602 42.4962 60.7181 43.3348 60.4066 44.2678C60.0952 45.2008 60.0248 46.1979 60.2018 47.1656L62.2693 58.6677C63.4191 65.0752 56.7734 70.0704 50.9411 67.1413L39.115 61.2569C38.3008 60.8572 37.4064 60.6495 36.5 60.6495C35.5936 60.6495 34.6992 60.8572 33.885 61.2569L22.0589 67.1413C16.224 70.0443 9.58094 65.0752 10.7307 58.6677L12.7982 47.163C13.1632 45.2016 12.4853 43.1878 11.0201 41.8278L2.54418 33.9871C-2.34948 29.4627 0.215978 21.2506 6.83298 20.3353L19.2066 18.6353C20.1348 18.5105 21.0192 18.1625 21.7845 17.6211C22.5498 17.0797 23.1735 16.3609 23.6023 15.5257L29.4632 4.2564C32.4458 -1.4188 40.5802 -1.4188 43.5368 4.2564H43.5394Z" fill="#FAF5AE"/>
</svg>
