<svg width="17" height="13" viewBox="0 0 17 13" fill="none" xmlns="http://www.w3.org/2000/svg">
<path d="M7.64305 12.149C7.42282 12.3516 7.12417 12.4655 6.81277 12.4655C6.50137 12.4655 6.20271 12.3516 5.98249 12.149L0.697817 7.28597C0.477657 7.08331 0.353977 6.80848 0.353977 6.52192C0.353977 6.23536 0.477657 5.96054 0.697817 5.75788L5.98249 0.8948C6.20398 0.697944 6.50062 0.589017 6.80854 0.59148C7.11646 0.593942 7.411 0.707596 7.62874 0.907964C7.84648 1.10833 7.96999 1.37938 7.97266 1.66273C7.97534 1.94608 7.85697 2.21907 7.64305 2.42289L4.46403 5.44124H15.6206C15.932 5.44124 16.2307 5.5551 16.451 5.75776C16.6712 5.96043 16.7949 6.23531 16.7949 6.52192C16.7949 6.80854 16.6712 7.08341 16.451 7.28608C16.2307 7.48875 15.932 7.60261 15.6206 7.60261H4.46403L7.64305 10.621C7.86321 10.8236 7.98689 11.0984 7.98689 11.385C7.98689 11.6716 7.86321 11.9464 7.64305 12.149Z" fill="white"/>
</svg>
