<svg width="31" height="30" viewBox="0 0 31 30" fill="none" xmlns="http://www.w3.org/2000/svg">
<path d="M15.5 0C13.5109 0 11.6032 0.798541 10.1967 2.21995C8.79018 3.64136 8 5.56921 8 7.57939C8 9.58957 8.79018 11.5174 10.1967 12.9388C11.6032 14.3602 13.5109 15.1588 15.5 15.1588C17.4891 15.1588 19.3968 14.3602 20.8033 12.9388C22.2098 11.5174 23 9.58957 23 7.57939C23 5.56921 22.2098 3.64136 20.8033 2.21995C19.3968 0.798541 17.4891 0 15.5 0ZM7.5 15.8937C5.51088 15.8937 3.60322 16.6923 2.1967 18.1137C0.790176 19.5351 0 21.463 0 23.4731V25.8743C0 27.3982 1.092 28.6958 2.58 28.9404C11.136 30.3532 19.864 30.3532 28.42 28.9404C29.1402 28.8219 29.7951 28.4484 30.2678 27.8867C30.7404 27.325 31 26.6116 31 25.8743V23.4731C31 21.463 30.2098 19.5351 28.8033 18.1137C27.3968 16.6923 25.4891 15.8937 23.5 15.8937H22.82C22.45 15.8937 22.082 15.9544 21.732 16.0676L20 16.6396C17.0759 17.6041 13.9241 17.6041 11 16.6396L9.268 16.0676C8.91731 15.9522 8.5508 15.8936 8.182 15.8937H7.5Z" fill="white"/>
</svg>
