<svg width="12" height="12" viewBox="0 0 12 12" fill="none" xmlns="http://www.w3.org/2000/svg">
<path d="M7.08634 1.37189L7.95195 3.07473C8.01634 3.20008 8.10876 3.308 8.22166 3.38965C8.33455 3.47131 8.4647 3.52437 8.60145 3.54449L10.4297 3.8013C11.4075 3.93958 11.7865 5.17581 11.0634 5.86327L9.81145 7.04814C9.70473 7.14871 9.62462 7.2754 9.5786 7.41635C9.53259 7.5573 9.52218 7.70792 9.54834 7.85412L9.85383 9.59173C10.0237 10.5597 9.04176 11.3143 8.18 10.8718L6.43261 9.98287C6.31231 9.92249 6.18015 9.89111 6.04622 9.89111C5.91229 9.89111 5.78013 9.92249 5.65984 9.98287L3.91244 10.8718C3.0503 11.3104 2.06873 10.5597 2.23862 9.59173L2.5441 7.85373C2.59804 7.55741 2.49788 7.25319 2.28138 7.04775L1.029 5.86327C0.305923 5.17976 0.684988 3.93918 1.6627 3.8009L3.491 3.54409C3.62814 3.52523 3.75882 3.47266 3.8719 3.39088C3.98498 3.30909 4.07713 3.20049 4.14049 3.07433L5.00649 1.37189C5.44719 0.514546 6.6491 0.514546 7.08595 1.37189H7.08634Z" fill="#FCD53F"/>
</svg>
