<svg width="8" height="6" viewBox="0 0 8 6" fill="none" xmlns="http://www.w3.org/2000/svg">
<path d="M3.0578 0C3.0578 0 2.7929 0.541144 1.74089 1.18888C1.18082 1.54144 -0.0149946 1.44305 0.000142363 2.37775C0.0152793 3.24686 1.29435 3.22226 2.3615 2.68932C3.42865 2.14817 4.17036 1.03309 4.17036 1.03309L4.35957 1.9186C4.35957 1.9186 3.70112 2.64832 3.13348 2.95989C2.56585 3.27146 1.49113 3.68961 1.89982 4.38654C2.30852 5.07527 3.71625 4.59152 4.51851 3.7962C5.22238 3.10747 5.87327 2.14817 5.87327 2.14817L6.49388 2.32036C6.49388 2.32036 6.04734 3.22226 5.6235 3.72241C5.19967 4.22256 4.14765 4.97688 4.76827 5.76399C5.38888 6.55111 6.83446 5.22285 7.41723 3.93559C7.96973 2.70572 8 1.66443 8 1.66443L3.0578 0Z" fill="#323230"/>
</svg>
