<svg width="17" height="13" viewBox="0 0 17 13" fill="none" xmlns="http://www.w3.org/2000/svg">
<path d="M7.64305 12.1489C7.42282 12.3515 7.12417 12.4653 6.81277 12.4653C6.50137 12.4653 6.20271 12.3515 5.98249 12.1489L0.697817 7.28584C0.477657 7.08319 0.353977 6.80836 0.353977 6.5218C0.353977 6.23524 0.477657 5.96041 0.697817 5.75776L5.98249 0.894678C6.20398 0.697822 6.50062 0.588895 6.80854 0.591358C7.11646 0.59382 7.411 0.707474 7.62874 0.907842C7.84648 1.10821 7.96999 1.37926 7.97266 1.66261C7.97534 1.94596 7.85697 2.21895 7.64305 2.42276L4.46403 5.44112H15.6206C15.932 5.44112 16.2307 5.55497 16.451 5.75764C16.6712 5.96031 16.7949 6.23518 16.7949 6.5218C16.7949 6.80842 16.6712 7.08329 16.451 7.28596C16.2307 7.48863 15.932 7.60248 15.6206 7.60248H4.46403L7.64305 10.6208C7.86321 10.8235 7.98689 11.0983 7.98689 11.3849C7.98689 11.6714 7.86321 11.9463 7.64305 12.1489Z" fill="white"/>
</svg>
