<svg width="21" height="15" viewBox="0 0 21 15" fill="none" xmlns="http://www.w3.org/2000/svg">
<path d="M10.153 0.00186334C6.13124 0.0697308 3.79034 2.61099 2.23201 5.87617C0.381075 9.76724 0 11.6826 0 11.6826C0 11.6826 0.503564 11.6751 1.53111 10.3403C2.40894 9.20168 3.0418 7.58794 4.30752 7.98761C6.24692 8.59841 2.12994 13.7337 5.40992 14.7819C10.0577 16.2674 7.25405 8.44006 10.221 8.54563C13.6711 8.66628 10.0849 15.717 14.617 14.9403C18.8633 14.2088 14.2631 8.33448 16.7809 7.42958C18.4345 6.83386 18.5162 9.21676 19.1491 10.1895C20.1698 11.7429 21 12.2482 21 12.2482C21 12.2482 20.2242 7.45221 17.7404 3.96834C16.1617 1.72872 13.8957 -0.0660042 10.153 0.00186334Z" fill="#E09147"/>
</svg>
