<svg width="17" height="13" viewBox="0 0 17 13" fill="none" xmlns="http://www.w3.org/2000/svg">
<path d="M7.64305 12.149C7.42282 12.3516 7.12417 12.4654 6.81277 12.4654C6.50137 12.4654 6.20271 12.3516 5.98249 12.149L0.697817 7.28593C0.477657 7.08328 0.353977 6.80845 0.353977 6.52189C0.353977 6.23533 0.477657 5.96051 0.697817 5.75785L5.98249 0.894769C6.20398 0.697914 6.50062 0.588987 6.80854 0.591449C7.11646 0.593911 7.411 0.707566 7.62874 0.907933C7.84648 1.1083 7.96999 1.37935 7.97266 1.6627C7.97534 1.94605 7.85697 2.21904 7.64305 2.42286L4.46403 5.44121H15.6206C15.932 5.44121 16.2307 5.55506 16.451 5.75773C16.6712 5.9604 16.7949 6.23528 16.7949 6.52189C16.7949 6.80851 16.6712 7.08338 16.451 7.28605C16.2307 7.48872 15.932 7.60258 15.6206 7.60258H4.46403L7.64305 10.6209C7.86321 10.8236 7.98689 11.0984 7.98689 11.385C7.98689 11.6715 7.86321 11.9464 7.64305 12.149Z" fill="white"/>
</svg>
