<svg width="24" height="27" viewBox="0 0 24 27" fill="none" xmlns="http://www.w3.org/2000/svg">
<path d="M11.6924 2.97256C11.6924 2.97256 12.0927 2.04944 13.0005 1.46319C13.4424 1.17881 14.2146 0.739124 14.3546 0.986312C14.4158 1.0935 14.2168 1.37131 14.0155 1.80225C13.9346 1.97944 13.753 2.55694 13.753 2.55694C13.753 2.55694 14.5537 1.50912 15.9558 1.2335C17.0583 1.01475 18.2505 1.15694 18.3883 1.40194C18.5371 1.66662 17.7562 2.2485 17.5112 2.756C17.2662 3.2635 17.0802 3.911 17.0802 3.911C17.0802 3.911 18.5568 3.21319 18.9287 3.06444C19.3902 2.88069 20.3921 2.49569 20.5299 2.66412C20.6677 2.83256 20.088 3.81037 19.9612 3.98756C19.808 4.20412 19.5762 4.60444 19.5762 4.60444C19.5762 4.60444 20.2849 4.28069 20.5605 4.11225C20.8383 3.94381 21.453 3.46475 21.593 3.55881C21.7308 3.65069 21.7308 4.58694 21.639 4.99162C21.5165 5.52975 20.9455 6.116 20.9455 6.116C20.9455 6.116 21.7615 6.29975 22.2077 6.87069C22.654 7.44162 22.9143 7.88569 23.1002 8.45662C23.378 9.30319 23.5005 10.4582 23.4393 10.6747C23.378 10.8913 23.039 10.5982 22.4068 10.5522C22.0327 10.5238 21.9452 10.5216 21.9452 10.5216C21.9452 10.5216 22.3018 10.946 22.468 11.3376C22.6846 11.8451 22.9208 12.6457 23.0521 12.9847C23.1899 13.3391 23.2993 13.6169 23.4983 14.0172C23.5574 14.1354 23.0827 14.2491 22.6058 13.8007C22.4462 13.6519 22.2515 13.5076 22.2515 13.5076C22.2515 13.5076 22.5337 15.1854 22.514 16.3097C22.4987 17.141 22.3127 18.6504 22.0677 18.7882C21.8205 18.926 21.3283 17.8651 21.3283 17.8651C21.3283 17.8651 21.114 19.0726 20.8668 19.8819C20.5737 20.8357 20.2958 21.2819 20.1274 21.8529C19.9262 22.531 19.7271 23.0232 19.5893 22.8066C19.469 22.6207 19.3421 22.3297 19.2196 22.1132C19.1255 21.9491 18.9112 21.5116 18.9112 21.5116C18.9112 21.5116 18.6946 22.8197 17.649 23.6991C16.6033 24.5785 15.9252 25.2851 15.4308 25.3463C15.1399 25.3835 15.4768 24.0688 15.4768 24.0688C15.4768 24.0688 13.8449 25.3507 13.0596 25.9326C12.7052 26.1951 12.3815 27.0569 12.1365 26.9957C11.8893 26.9344 11.2593 25.9785 10.859 25.6876C10.4587 25.3966 9.70397 25.0554 9.59678 24.9941C9.4896 24.9329 8.97991 24.6091 8.97991 24.6091C8.97991 24.6091 9.10678 25.3244 8.9646 25.3944C8.65616 25.5476 7.47053 24.701 7.13147 24.1782C6.79241 23.6554 6.19303 22.5769 6.19303 22.5769C6.19303 22.5769 6.11647 23.6094 5.86928 23.4388C5.60678 23.2594 4.32928 22.3144 3.88303 21.6057C3.56803 21.1047 3.02116 19.696 3.02116 19.696C3.02116 19.696 2.54428 20.1882 2.40428 20.2494C2.26428 20.3107 1.9121 20.4507 1.97335 19.9104C2.0346 19.3722 1.61241 18.1516 1.54241 17.4166C1.45053 16.4629 1.63428 15.4763 1.63428 15.4763C1.63428 15.4763 0.848971 16.5241 0.479283 16.5088C0.109596 16.4935 0.326159 14.4766 0.418034 13.8597C0.509909 13.2429 0.818346 12.1666 0.940846 11.7816C1.06335 11.3966 1.52491 10.8279 1.52491 10.8279C1.52491 10.8279 0.385221 11.2129 0.216784 11.0597C0.048346 10.9066 0.308659 9.53506 0.463971 8.70381C0.542721 8.27725 0.879596 7.61006 1.31053 7.11787C1.74147 6.62569 2.40428 6.71756 2.46553 6.501C2.52678 6.28444 2.22053 6.11381 2.00397 5.76162C1.68022 5.23881 1.49647 4.16037 1.66491 3.97444C1.76991 3.86069 2.35835 4.3135 3.0671 4.39006C3.77585 4.46662 4.40585 4.42069 4.40585 4.42069C4.40585 4.42069 3.99678 3.93944 3.82178 3.5435C3.5746 2.99006 3.55928 2.32725 3.7146 2.15662C3.86991 1.986 4.40803 2.511 5.1321 2.69475C5.85616 2.8785 6.9346 2.896 6.9346 2.896C6.9346 2.896 6.47303 2.40381 6.35053 1.83287C6.22803 1.26412 6.25866 0.909749 6.45772 0.848499C6.65897 0.787249 7.24522 1.33631 7.65866 1.46537C8.10491 1.60319 9.61428 1.51131 10.2924 1.71256C10.9705 1.91381 11.6924 2.97256 11.6924 2.97256Z" fill="#865C50"/>
</svg>
