<svg width="36" height="36" viewBox="0 0 36 36" fill="none" xmlns="http://www.w3.org/2000/svg">
<path d="M30.0599 10.23L21.4199 4.18503C19.0649 2.53503 15.4499 2.62503 13.1849 4.38003L5.66986 10.245C4.16986 11.415 2.98486 13.815 2.98486 15.705V26.055C2.98486 29.88 6.08986 33 9.91486 33H26.0849C29.9099 33 33.0149 29.895 33.0149 26.07V15.9C33.0149 13.875 31.7099 11.385 30.0599 10.23ZM19.1249 27C19.1249 27.615 18.6149 28.125 17.9999 28.125C17.3849 28.125 16.8749 27.615 16.8749 27V22.5C16.8749 21.885 17.3849 21.375 17.9999 21.375C18.6149 21.375 19.1249 21.885 19.1249 22.5V27Z" fill="white"/>
</svg>
