<svg width="36" height="36" viewBox="0 0 36 36" fill="none" xmlns="http://www.w3.org/2000/svg">
<path d="M30.0594 10.23L21.4194 4.18503C19.0644 2.53503 15.4494 2.62503 13.1844 4.38003L5.66937 10.245C4.16937 11.415 2.98438 13.815 2.98438 15.705V26.055C2.98438 29.88 6.08937 33 9.91437 33H26.0844C29.9094 33 33.0144 29.895 33.0144 26.07V15.9C33.0144 13.875 31.7094 11.385 30.0594 10.23ZM19.1244 27C19.1244 27.615 18.6144 28.125 17.9994 28.125C17.3844 28.125 16.8744 27.615 16.8744 27V22.5C16.8744 21.885 17.3844 21.375 17.9994 21.375C18.6144 21.375 19.1244 21.885 19.1244 22.5V27Z" fill="white"/>
</svg>
