<svg width="36" height="36" viewBox="0 0 36 36" fill="none" xmlns="http://www.w3.org/2000/svg">
<path d="M30.0601 10.23L21.4201 4.18503C19.0651 2.53503 15.4501 2.62503 13.1851 4.38003L5.67011 10.245C4.17011 11.415 2.98511 13.815 2.98511 15.705V26.055C2.98511 29.88 6.09011 33 9.91511 33H26.0851C29.9101 33 33.0151 29.895 33.0151 26.07V15.9C33.0151 13.875 31.7101 11.385 30.0601 10.23ZM19.1251 27C19.1251 27.615 18.6151 28.125 18.0001 28.125C17.3851 28.125 16.8751 27.615 16.8751 27V22.5C16.8751 21.885 17.3851 21.375 18.0001 21.375C18.6151 21.375 19.1251 21.885 19.1251 22.5V27Z" fill="white"/>
</svg>
