<svg width="36" height="36" viewBox="0 0 36 36" fill="none" xmlns="http://www.w3.org/2000/svg">
<path d="M30.0604 10.23L21.4204 4.185C19.0654 2.535 15.4504 2.625 13.1854 4.38L5.67035 10.245C4.17035 11.415 2.98535 13.815 2.98535 15.705V26.055C2.98535 29.88 6.09035 33 9.91535 33H26.0853C29.9103 33 33.0153 29.895 33.0153 26.07V15.9C33.0153 13.875 31.7104 11.385 30.0604 10.23ZM19.1254 27C19.1254 27.615 18.6154 28.125 18.0004 28.125C17.3854 28.125 16.8754 27.615 16.8754 27V22.5C16.8754 21.885 17.3854 21.375 18.0004 21.375C18.6154 21.375 19.1254 21.885 19.1254 22.5V27Z" fill="white"/>
</svg>
